<svg width="82" height="82" viewBox="0 0 82 82" fill="none" xmlns="http://www.w3.org/2000/svg">
<g clip-path="url(#clip0_56_4063)">
<path d="M74.2272 6.13488C73.9922 6.13488 73.7626 6.01188 73.6355 5.79322C73.4455 5.46658 73.5576 5.04838 73.8856 4.85978L76.1542 3.54915C76.4795 3.35782 76.8963 3.47125 77.0877 3.79925C77.2776 4.12588 77.1656 4.54408 76.8376 4.73268L74.5689 6.04332C74.4609 6.10618 74.3434 6.13488 74.2272 6.13488Z" fill="#F9CABE"/>
<path d="M68.7604 4.76818C68.5254 4.76818 68.2958 4.64518 68.1687 4.42652C67.9787 4.09988 68.0908 3.68168 68.4188 3.49308L70.6861 2.18245C71.0072 1.99112 71.4295 2.10455 71.6195 2.43255C71.8095 2.76055 71.6974 3.17738 71.3694 3.36598L69.1021 4.67662C68.9955 4.73948 68.8766 4.76818 68.7604 4.76818Z" fill="#F9CABE"/>
<path d="M62.9063 5.4202C62.7122 5.4202 62.5222 5.33683 62.3869 5.18103C62.1737 4.9323 62.1669 4.56603 62.3733 4.3091L63.1495 3.34013C62.9937 3.28956 62.8543 3.18433 62.7669 3.0299C62.5769 2.70326 62.689 2.28506 63.017 2.09646L65.2282 0.819998C65.5098 0.653265 65.8719 0.716132 66.0892 0.966232C66.3024 1.21496 66.3093 1.58123 66.1029 1.83817L65.7148 2.32333L67.0801 1.53613C67.4053 1.3448 67.8249 1.45687 68.0135 1.78623C68.2035 2.11286 68.0914 2.53106 67.7634 2.71966L63.2479 5.3259C63.1413 5.38877 63.0238 5.41747 62.9063 5.41747V5.4202Z" fill="#F9CABE"/>
<path d="M58.4391 59.4474C58.2177 59.4474 58.0004 59.3394 57.8692 59.1399C57.6697 58.8378 57.7394 58.4333 58.0291 58.216L67.0149 51.4715L57.7776 56.8042C57.4606 56.9901 57.056 56.889 56.8579 56.5787C56.6611 56.2685 56.7458 55.8599 57.0478 55.6508L62.2617 52.0469L57.7735 54.6381C57.4592 54.8212 57.0547 54.7228 56.8579 54.418C56.6597 54.1105 56.7376 53.7046 57.0328 53.4914L64.8952 47.8485L57.7694 51.9621C57.4565 52.1466 57.0506 52.0469 56.8538 51.7421C56.6556 51.4346 56.7335 51.0287 57.0287 50.8155L64.8898 45.1725L59.1484 48.4881C58.83 48.6739 58.4254 48.5728 58.2286 48.2612C58.0318 47.9496 58.1179 47.5396 58.4213 47.3319L61.2148 45.424L59.1484 46.6157C58.83 46.8016 58.4254 46.7005 58.2286 46.3889C58.0318 46.0786 58.1166 45.67 58.42 45.4609L61.6863 43.2182L59.1498 44.6819C58.8368 44.865 58.4323 44.7666 58.2341 44.4632C58.0359 44.1571 58.1125 43.7512 58.4077 43.5366L66.5421 37.6463L59.1498 41.9144C58.8354 42.0989 58.4295 41.9991 58.2327 41.6916C58.0346 41.3828 58.1152 40.9769 58.4145 40.765L66.3466 35.1631L59.1498 39.3177C58.8313 39.505 58.4254 39.4025 58.2286 39.0895C58.0332 38.7779 58.1193 38.3679 58.4241 38.1602L63.3564 34.8105L59.1498 37.239C58.8313 37.4249 58.4254 37.3238 58.2286 37.0108C58.0332 36.6992 58.1193 36.2906 58.4241 36.0828L63.6065 32.5541L59.117 35.1453C58.8026 35.3298 58.3967 35.23 58.1986 34.9225C58.0018 34.6137 58.0824 34.2064 58.3831 33.9946L66.3152 28.4172L58.6045 32.8684C58.286 33.0543 57.8842 32.9532 57.6861 32.6443C57.4893 32.3354 57.5713 31.9282 57.8706 31.7177L66.1348 25.9217L57.3704 30.9811C57.0506 31.1683 56.6406 31.0644 56.4465 30.7474C56.2511 30.4317 56.3454 30.0189 56.6556 29.8167L57.1367 29.5037L56.1404 30.0777C55.8233 30.2649 55.416 30.1624 55.2192 29.8495C55.0238 29.5379 55.1099 29.1279 55.4147 28.9201L63.3618 23.5232L53.3619 29.2973C53.0408 29.4846 52.6321 29.3793 52.4381 29.0636C52.244 28.7479 52.3369 28.3366 52.6458 28.1343L58.3585 24.3965L49.9658 29.2413C49.6446 29.4272 49.2401 29.3247 49.0446 29.0117C48.8492 28.6987 48.9367 28.2901 49.2428 28.0824L62.5938 19.0801L46.314 28.4787C45.9929 28.6659 45.5856 28.5607 45.3902 28.2464C45.1961 27.932 45.2877 27.5193 45.5965 27.3157L58.9448 18.5444L45.5022 26.3057C45.1852 26.4916 44.7779 26.3904 44.5811 26.0775C44.3857 25.7659 44.4718 25.3559 44.7765 25.1481L57.887 16.2443L49.9562 20.824C49.635 21.0112 49.2264 20.9074 49.0323 20.5903C48.8383 20.276 48.9312 19.8632 49.2401 19.6596L52.5788 17.4757L51.3543 18.1836C51.0359 18.3695 50.6354 18.2683 50.4359 17.9595C50.2391 17.6506 50.3211 17.2433 50.6204 17.0329L55.2657 13.7706L52.9984 15.0799C52.6868 15.2658 52.285 15.166 52.0855 14.8626C51.8859 14.5592 51.9584 14.1533 52.2508 13.9387L57.8801 9.78544L54.8871 11.5143C54.5796 11.6933 54.1833 11.6031 53.9838 11.312C53.7815 11.0182 53.8389 10.6191 54.1136 10.3936L56.0201 8.83834C55.8657 8.87661 55.6374 8.76044 55.5008 8.60738C55.2862 8.36274 55.2725 8.00194 55.4693 7.74228L57.738 4.75201C57.5385 4.72331 57.3526 4.60578 57.2446 4.41718C57.0547 4.09054 57.1667 3.67234 57.4947 3.48374L59.7607 2.17584C60.0395 2.01048 60.3989 2.07061 60.6148 2.31524C60.8294 2.55988 60.8431 2.92068 60.6463 3.18034L58.6058 5.87131L62.2439 3.77074C62.5514 3.59171 62.9477 3.68191 63.1473 3.97301C63.3495 4.26684 63.2921 4.66591 63.0174 4.89141L61.5387 6.09818L67.7584 2.50794C68.0714 2.32618 68.4718 2.42184 68.6713 2.72524C68.8709 3.02864 68.7984 3.43454 68.506 3.64911L62.8767 7.80104L67.9648 4.86544C68.2818 4.67958 68.685 4.78071 68.8832 5.08958C69.08 5.39844 68.998 5.80571 68.6987 6.01618L64.052 9.27841L73.2264 3.98258C73.5476 3.79534 73.9562 3.89921 74.1503 4.21628C74.3444 4.53061 74.2514 4.94334 73.9426 5.14698L70.612 7.32408L73.4219 5.70184C73.7403 5.51871 74.1476 5.61711 74.343 5.93008C74.5384 6.24168 74.4523 6.65168 74.1476 6.85941L61.0344 15.7646L78.7532 5.53511C79.0744 5.34925 79.4817 5.45311 79.6771 5.76744C79.8712 6.08178 79.7796 6.49451 79.4707 6.69814L66.1198 15.4708L78.8885 8.09898C79.207 7.91175 79.6129 8.01424 79.8097 8.32858C80.0051 8.64154 79.9176 9.05018 79.6115 9.25791L66.2619 18.2588L78.8872 10.9703C79.2083 10.7831 79.617 10.887 79.811 11.204C80.0051 11.5184 79.9122 11.9311 79.6033 12.1334L73.8879 15.8726L78.8872 12.9875C79.2083 12.803 79.6129 12.9028 79.8083 13.2158C80.0037 13.5274 79.9176 13.9374 79.6129 14.1451L71.6657 19.5421L78.8872 15.3724C79.2083 15.1851 79.617 15.289 79.811 15.6061C80.0065 15.9218 79.9122 16.3345 79.6019 16.5368L78.9897 16.9358C79.289 16.8265 79.6293 16.9304 79.8069 17.2078C80.0037 17.5167 79.9217 17.9239 79.6224 18.1344L71.3514 23.9359L78.8885 19.5844C79.2029 19.3986 79.6088 19.4997 79.8069 19.8072C80.0037 20.1161 79.9231 20.5233 79.6224 20.7352L71.6958 26.3084L78.8885 22.1565C79.2097 21.9706 79.6142 22.0718 79.8097 22.3847C80.0051 22.6963 79.919 23.105 79.6142 23.3127L74.4264 26.8455L78.8885 24.2694C79.2097 24.0849 79.6142 24.1846 79.8097 24.4976C80.0051 24.8092 79.919 25.2192 79.6142 25.4269L74.6874 28.7725L78.6384 26.4916C78.9514 26.3071 79.3587 26.4068 79.5555 26.7143C79.7536 27.0232 79.673 27.4291 79.3737 27.6409L71.4429 33.2415L77.3401 29.8372C77.6517 29.6527 78.0562 29.7511 78.2558 30.0558C78.4539 30.362 78.3774 30.7679 78.0822 30.9824L69.9423 36.8755L76.1566 33.288C76.4764 33.1035 76.8809 33.2033 77.0763 33.5149C77.2731 33.8251 77.1884 34.2337 76.885 34.4428L73.6105 36.691L76.1593 35.2205C76.4791 35.036 76.8836 35.1371 77.0791 35.4473C77.2759 35.7589 77.1898 36.1689 76.8864 36.3767L74.1025 38.2777L76.162 37.0901C76.475 36.9042 76.8809 37.0053 77.0777 37.3101C77.2759 37.6176 77.198 38.0235 76.9028 38.2367L69.0403 43.8797L76.1661 39.766C76.4791 39.5801 76.885 39.6799 77.0818 39.986C77.28 40.2935 77.2021 40.6994 76.9069 40.9126L69.0444 46.5556L76.1702 42.4419C76.49 42.2561 76.8918 42.3586 77.09 42.6674C77.2868 42.9777 77.2021 43.3863 76.9 43.5954L71.6903 47.1966L76.173 44.6081C76.4832 44.4236 76.885 44.5206 77.0845 44.8227C77.2841 45.1247 77.2144 45.5292 76.9246 45.7465L67.9347 52.4938L76.1784 47.735C76.4846 47.5546 76.8809 47.6462 77.0818 47.9373C77.2841 48.2298 77.228 48.6288 76.9533 48.8543L70.7049 53.9752L76.1825 50.8141C76.4887 50.6337 76.8864 50.7239 77.0873 51.0178C77.2882 51.3116 77.2308 51.7134 76.952 51.9375L74.7011 53.7525L76.1866 52.8956C76.49 52.7206 76.8795 52.8026 77.0832 53.0883C77.2868 53.3739 77.2431 53.7689 76.9793 53.9998L76.1798 54.705L76.1894 54.6996C76.4354 54.5574 76.7388 54.5807 76.9588 54.7583C77.1775 54.9346 77.2677 55.2285 77.1816 55.4977L76.5748 57.4138C76.7962 57.4274 77.0066 57.5477 77.1255 57.7541C77.3155 58.0807 77.2034 58.4989 76.8754 58.6875L75.7821 59.3189C75.5375 59.461 75.2327 59.4378 75.0127 59.2601C74.794 59.0838 74.7038 58.79 74.7899 58.5208L75.3461 56.7632L70.9004 59.3298C70.5997 59.5075 70.2088 59.4228 70.0038 59.1371C69.8002 58.8515 69.8439 58.4565 70.1077 58.2256L70.9072 57.5217L67.7639 59.3353C67.4577 59.5157 67.0587 59.4255 66.8591 59.1317C66.6582 58.8365 66.7156 58.436 66.9944 58.2119L69.244 56.397L64.1408 59.3435C63.8333 59.5239 63.4397 59.4323 63.2375 59.1412C63.0352 58.8501 63.0912 58.4497 63.3659 58.2242L69.6171 53.1006L58.7835 59.3544C58.6769 59.4173 58.558 59.446 58.4418 59.446L58.4391 59.4474Z" fill="#F9CABE"/>
<path d="M75.8522 74.4438C75.6172 74.4438 75.3862 74.3208 75.2605 74.1021C75.0705 73.7755 75.1826 73.3573 75.5106 73.1687L78.7468 71.3004C79.0721 71.1091 79.4917 71.2212 79.6803 71.5505C79.8702 71.8772 79.7582 72.2954 79.4302 72.484L76.1939 74.3522C76.0859 74.4151 75.9684 74.4438 75.8522 74.4438Z" fill="#844341"/>
<path d="M77.2175 68.977C76.9824 68.977 76.7514 68.854 76.6257 68.6353C76.4357 68.3087 76.5478 67.8905 76.8758 67.7019L80.1121 65.8336C80.436 65.6423 80.8569 65.7544 81.0455 66.0837C81.2355 66.4104 81.1234 66.8286 80.7954 67.0172L77.5591 68.8854C77.4512 68.9483 77.3336 68.977 77.2175 68.977Z" fill="#844341"/>
<path d="M52.1829 57.0104C51.9684 57.0104 51.7565 56.9093 51.6253 56.7221C51.4217 56.4323 51.4709 56.0374 51.7388 55.8078L53.1054 54.6406C52.9168 54.6283 52.7351 54.5395 52.6121 54.3837C52.403 54.1172 52.418 53.7373 52.6517 53.4913L55.0311 50.967L53.6849 51.7433C53.387 51.9196 53.0016 51.839 52.7938 51.5574C52.5875 51.2773 52.6244 50.8878 52.8786 50.6513L53.5072 50.0678C53.2722 50.1265 53.0234 50.0568 52.8526 49.8792C52.6353 49.6537 52.597 49.3093 52.7638 49.0441L53.9787 47.0912C53.6712 47.2073 53.3145 47.0912 53.1437 46.7946C52.9537 46.468 53.0658 46.0498 53.3938 45.8612L55.6488 44.5587C55.918 44.3988 56.2624 44.4494 56.4811 44.6749C56.6984 44.9004 56.7367 45.2448 56.5699 45.5099L55.3645 47.4465L57.9981 45.9281C58.2974 45.7546 58.6828 45.8352 58.8892 46.114C59.0955 46.3942 59.0586 46.7837 58.8044 47.0201L58.2646 47.5203L58.3862 47.4506C58.6787 47.2798 59.0504 47.3522 59.265 47.6173C59.4741 47.8838 59.4591 48.2638 59.2254 48.5098L56.8474 51.034L58.389 50.1443C58.6896 49.9666 59.0832 50.0514 59.2882 50.3425C59.4919 50.6308 59.4427 51.0258 59.1748 51.2554L58.2892 52.0125L58.389 51.9551C58.7156 51.7638 59.1352 51.8772 59.3224 52.2052C59.5124 52.5319 59.4003 52.9501 59.0723 53.1387L52.5273 56.9189C52.4207 56.9817 52.3032 57.0104 52.1857 57.0104H52.1829Z" fill="#844341"/>
<path d="M57.1369 79.9117C56.91 79.9117 56.6886 79.7983 56.5588 79.5933C56.362 79.2817 56.4481 78.873 56.7515 78.6639L64.5524 73.3339L54.2341 79.2899C53.917 79.4757 53.5125 79.3746 53.3157 79.0657C53.1189 78.7555 53.2009 78.3482 53.5016 78.1378L65.5023 69.7683L51.3012 77.9656C50.9801 78.1514 50.5728 78.0489 50.3787 77.7332C50.1833 77.4203 50.2749 77.0089 50.5824 76.8039L59.8156 70.6949L48.7456 77.0854C48.4244 77.2727 48.0144 77.1688 47.8203 76.8504C47.6263 76.5347 47.7219 76.1206 48.0322 75.9197L54.0195 72.0561L45.2988 77.0909C44.9777 77.2795 44.569 77.1729 44.375 76.8572C44.1809 76.5415 44.2738 76.1301 44.5827 75.9265L52.672 70.6539L41.5104 77.0977C41.1893 77.2863 40.7793 77.1797 40.5838 76.8613C40.3911 76.5442 40.4882 76.1301 40.7998 75.9306L44.9531 73.2779L38.3288 77.1018C38.0104 77.2891 37.6059 77.1866 37.4077 76.8736C37.2123 76.562 37.2984 76.1534 37.6031 75.9456L50.3664 67.2577L33.3022 77.11C32.9811 77.2945 32.5752 77.1934 32.3797 76.8791C32.1843 76.5661 32.2745 76.1561 32.5793 75.9497L43.8625 68.4044L28.7731 77.1155C28.456 77.3014 28.0488 77.2002 27.852 76.8873C27.6565 76.5743 27.744 76.1657 28.0488 75.9579L42.9974 65.8159L23.6126 77.0062C23.2914 77.1934 22.8814 77.0882 22.6873 76.7711C22.4933 76.454 22.5889 76.0413 22.9005 75.839L34.2603 68.5369L23.6112 74.6842C23.2928 74.8701 22.8869 74.7676 22.6901 74.456C22.4946 74.143 22.5821 73.733 22.8869 73.5266L29.5658 69.0098L23.6126 72.447C23.2982 72.6328 22.8923 72.5317 22.6955 72.2242C22.4974 71.9167 22.578 71.5094 22.8773 71.2976L29.1653 66.8532L23.6139 70.0594C23.3051 70.2398 22.906 70.1482 22.7078 69.853C22.5069 69.5578 22.5657 69.156 22.8472 68.9333L29.071 63.9777L23.6153 67.1279C23.3064 67.3069 22.9101 67.2154 22.7092 66.9229C22.5083 66.6277 22.5671 66.2273 22.8472 66.0031L26.104 63.3983L23.6167 64.8333C23.3174 65.0109 22.9265 64.9276 22.7215 64.6406C22.5165 64.3563 22.5602 63.9641 22.8213 63.7304L25.4644 61.3838L23.6167 62.4498C23.3187 62.6261 22.932 62.5455 22.7242 62.2626C22.5192 61.981 22.5575 61.5902 22.8131 61.3537L23.3037 60.9055C23.152 60.9055 22.9921 60.8645 22.865 60.7674C22.6463 60.6034 22.5466 60.3246 22.6108 60.0581L23.003 58.4578C22.8732 58.4017 22.7584 58.3047 22.6832 58.1721C22.4933 57.8455 22.6053 57.4273 22.9333 57.2387L23.618 56.8437C23.8572 56.7057 24.151 56.7248 24.3711 56.8888C24.5897 57.0528 24.6881 57.3316 24.6239 57.5981L24.3219 58.8268L27.7672 56.8369C28.0665 56.662 28.4533 56.7426 28.6597 57.0241C28.8647 57.3057 28.8264 57.6965 28.5708 57.933L28.3426 58.1407L30.6085 56.8328C30.9092 56.6579 31.3001 56.7399 31.5037 57.0241C31.7087 57.3098 31.665 57.702 31.4039 57.9357L28.7581 60.285L33.2202 57.7088C33.5277 57.5257 33.9241 57.62 34.1263 57.9138C34.3272 58.209 34.2685 58.6095 33.9883 58.8336L30.7343 61.4371L36.3226 58.2118C36.6301 58.0286 37.0278 58.1229 37.2287 58.4181C37.4296 58.7133 37.3708 59.1151 37.0893 59.3379L30.8655 64.2934L41.4025 58.2104C41.7154 58.0245 42.1227 58.1257 42.3195 58.4332C42.5177 58.7407 42.437 59.1479 42.1377 59.3598L35.847 63.8055L45.538 58.2104C45.8578 58.0259 46.2637 58.127 46.4591 58.4386C46.6546 58.7516 46.5671 59.1616 46.2623 59.368L39.5807 63.8875L58.3819 53.0335C58.7017 52.8449 59.1131 52.9528 59.3072 53.2685C59.5012 53.5856 59.4056 53.9983 59.094 54.2006L47.7397 61.4986L58.6334 55.2092C58.9532 55.0247 59.3591 55.1245 59.5545 55.4374C59.75 55.7504 59.6625 56.159 59.3577 56.3668L44.405 66.5115L61.1453 56.8478C61.4651 56.6606 61.871 56.7631 62.0678 57.0788C62.2633 57.3918 62.1731 57.8018 61.8683 58.0081L50.5919 65.5494L65.6608 56.8492C65.9806 56.6633 66.3851 56.7658 66.5819 57.0774C66.7774 57.389 66.6913 57.7977 66.3865 58.0054L53.6191 66.696L70.6751 56.8492C70.999 56.662 71.4063 56.7686 71.6017 57.0856C71.7944 57.4027 71.6974 57.8168 71.3858 58.0163L67.2407 60.6649L73.8485 56.8506C74.1683 56.6633 74.5783 56.7672 74.7724 57.0843C74.9664 57.3986 74.8735 57.8113 74.5646 58.015L66.4685 63.2917L77.2406 57.0733C77.5631 56.8861 77.9731 56.99 78.1658 57.3084C78.3599 57.6241 78.2642 58.0382 77.954 58.2391L71.9529 62.1122L78.5717 58.291C78.8915 58.1024 79.2988 58.2063 79.4942 58.5234C79.6896 58.8363 79.5981 59.2477 79.2906 59.4527L70.071 65.5521L78.6619 60.5925C78.979 60.408 79.3835 60.5078 79.5803 60.8166C79.7771 61.1255 79.6951 61.5341 79.3944 61.7446L67.3896 70.1168L79.4573 63.1509C79.7771 62.9664 80.1816 63.0662 80.3771 63.3778C80.5739 63.6894 80.4878 64.098 80.1844 64.3071L72.3848 69.6357L80.2459 65.0984C80.5643 64.9139 80.9675 65.0137 81.1643 65.3239C81.3611 65.6328 81.2777 66.0414 80.977 66.2519L74.9364 70.4462L78.1152 68.6107C78.4282 68.429 78.8286 68.526 79.0282 68.8267C79.2277 69.1301 79.1553 69.5346 78.8642 69.7505L74.8598 72.7271L78.8792 70.4065C79.1812 70.2275 79.5721 70.3136 79.7785 70.6033C79.9821 70.8903 79.9329 71.2867 79.6664 71.5163L75.6375 74.9794L76.9044 74.2482C77.1736 74.0883 77.5166 74.1375 77.7353 74.363C77.954 74.5885 77.9922 74.9329 77.8255 75.1981L76.5395 77.2781L77.3677 76.7998C77.6929 76.6085 78.1098 76.7219 78.3011 77.0499C78.4911 77.3765 78.379 77.7947 78.051 77.9833L74.8708 79.8215C74.6002 79.9787 74.2585 79.9308 74.0398 79.7067C73.8212 79.4812 73.7829 79.1368 73.9496 78.8717L75.2357 76.7902L69.9836 79.8229C69.6802 79.9992 69.2893 79.9144 69.0843 79.6261C68.8807 79.3391 68.9299 78.9427 69.1964 78.7131L73.2267 75.2486L65.3055 79.8229C64.9952 80.0074 64.5921 79.909 64.3925 79.6069C64.193 79.3049 64.2654 78.899 64.5565 78.6831L68.5595 75.7078L61.4323 79.8229C61.1194 80.0074 60.7107 79.909 60.5139 79.5974C60.3171 79.2885 60.3991 78.8799 60.7012 78.6694L66.7541 74.4669L57.4758 79.8229C57.3679 79.8857 57.2503 79.9144 57.1342 79.9144L57.1369 79.9117Z" fill="#844341"/>
<path d="M21.901 79.9063C21.7151 79.9063 21.5306 79.8298 21.3994 79.6863C21.1821 79.4512 21.1575 79.0972 21.3393 78.8348L22.2686 77.4914L20.0738 78.7583C19.7758 78.936 19.3877 78.8526 19.1813 78.5697C18.975 78.2882 19.0146 77.8959 19.2715 77.6609L19.4396 77.5092C19.1417 77.624 18.7795 77.5051 18.6101 77.2099C18.4201 76.8832 18.5322 76.465 18.8602 76.2764L24.2189 73.1823C24.5182 73.0074 24.9063 73.0894 25.1113 73.3709C25.3177 73.6524 25.278 74.0447 25.0211 74.2797L24.5619 74.6966C24.7478 74.6966 24.9309 74.7731 25.0621 74.9166C25.2794 75.1517 25.304 75.5056 25.1222 75.768L24.1082 77.2358C24.346 77.2167 24.622 77.337 24.7587 77.5748C24.9487 77.9014 24.8366 78.3196 24.5086 78.5082L22.2454 79.8147C22.1388 79.8776 22.0213 79.9063 21.9037 79.9063H21.901Z" fill="#F9CABE"/>
<path d="M16.1814 81.2566C15.9914 81.2566 15.8055 81.1773 15.6716 81.0284C15.457 80.7878 15.4393 80.4298 15.632 80.1687L16.6078 78.8417L14.5468 80.0307C14.2434 80.207 13.8512 80.1223 13.6476 79.8325C13.4439 79.5442 13.4931 79.1478 13.7624 78.9182L18.4268 74.9412L14.0494 77.4696C13.7214 77.6595 13.3032 77.5475 13.1159 77.2194C12.926 76.8928 13.038 76.4746 13.366 76.286L24.2174 70.0199C24.5194 69.8422 24.9116 69.9256 25.1166 70.218C25.3203 70.5064 25.2711 70.9027 25.0018 71.1323L19.3233 75.9731C19.4272 76.01 19.5229 76.0728 19.6008 76.1617C19.8167 76.4022 19.8345 76.7602 19.6418 77.0213L18.6181 78.4139C18.8969 78.3511 19.2072 78.4727 19.3589 78.7392C19.5488 79.0658 19.4368 79.484 19.1088 79.6726L16.5217 81.165C16.4151 81.2279 16.2975 81.2566 16.18 81.2566H16.1814Z" fill="#F9CABE"/>
<path d="M10.1345 79.7778C9.91037 79.7778 9.69171 79.6671 9.56187 79.4662C9.36234 79.1614 9.43887 78.7542 9.73271 78.541L13.6701 75.6764L8.95097 78.4002C8.63937 78.5847 8.23757 78.4863 8.03667 78.1829C7.83851 77.8781 7.91231 77.4722 8.20477 77.2577L14.1621 72.8802L8.58061 76.1015C8.25261 76.2901 7.83441 76.1794 7.64717 75.8514C7.45721 75.5247 7.56927 75.1065 7.89727 74.9179L24.2153 65.4948C24.5282 65.313 24.9314 65.4087 25.1296 65.7121C25.3277 66.0155 25.2539 66.4227 24.9615 66.6373L18.9973 71.0202L24.2153 68.0081C24.5282 67.8222 24.9314 67.9233 25.1296 68.2267C25.3291 68.5315 25.2526 68.9388 24.9587 69.152L14.2167 76.9666C14.2823 77.2522 14.1593 77.5583 13.8928 77.7114L10.4762 79.6821C10.3682 79.745 10.2507 79.7737 10.1345 79.7737V79.7778Z" fill="#F9CABE"/>
<path d="M27.2663 59.4158C27.0312 59.4158 26.8003 59.2928 26.6745 59.0741C26.4846 58.7475 26.5966 58.3293 26.9246 58.1407L35.3857 53.2562C35.6795 53.084 36.054 53.1564 36.2658 53.4257C36.4749 53.6935 36.4571 54.0748 36.2207 54.3195L34.8677 55.7312L36.438 54.8251C36.7195 54.657 37.0831 54.7213 37.2976 54.97C37.5122 55.2187 37.519 55.585 37.314 55.8433L36.6321 56.6961C36.8138 56.7357 36.9778 56.8478 37.0762 57.0214C37.2662 57.348 37.1541 57.7662 36.8261 57.9548L34.4837 59.3064C34.1994 59.4718 33.8372 59.4089 33.624 59.1616C33.4095 58.9115 33.4026 58.5466 33.6076 58.2883L33.9821 57.8195L31.3882 59.3174C31.0943 59.4882 30.7199 59.4158 30.508 59.1479C30.2989 58.88 30.3167 58.4987 30.5531 58.2541L31.9075 56.841L27.6066 59.3228C27.4986 59.3857 27.3811 59.4144 27.2649 59.4144L27.2663 59.4158Z" fill="#F9CABE"/>
<path d="M5.50033 78.5424C5.27347 78.5424 5.05207 78.4289 4.92223 78.2253C4.72543 77.9137 4.81017 77.505 5.1122 77.2959L10.0759 73.8765L3.80293 77.4969C3.48587 77.6827 3.07997 77.5816 2.88317 77.27C2.68637 76.9598 2.7711 76.5511 3.0745 76.342L9.9748 71.5915L3.11277 75.5521C2.7957 75.7393 2.3898 75.6368 2.193 75.3252C1.9962 75.0136 2.0823 74.605 2.3857 74.3973L10.6841 68.7133L3.11277 73.0839C2.7916 73.2684 2.3857 73.1659 2.19027 72.8543C1.99483 72.5413 2.08503 72.1299 2.3898 71.9249L13.8657 64.2429L3.1114 70.4517C2.79433 70.6389 2.38843 70.5364 2.19163 70.2248C1.99483 69.9132 2.08093 69.5046 2.38433 69.2969L12.4143 62.4225L3.1114 67.7935C2.79433 67.9808 2.38707 67.8783 2.19027 67.5653C1.99483 67.2523 2.0823 66.8423 2.38707 66.6359L9.1015 62.0918L3.1114 65.5495C2.79023 65.7353 2.38297 65.6342 2.1889 65.3171C1.99347 65.0042 2.08503 64.5928 2.39253 64.3878L5.07803 62.6111L3.1114 63.7468C2.79433 63.9313 2.3898 63.8316 2.193 63.5227C1.9962 63.2138 2.0782 62.8065 2.3775 62.5947L10.147 57.1595L3.11277 61.2212C2.79843 61.403 2.3939 61.306 2.1971 61.0012C1.99893 60.6937 2.07683 60.2878 2.3734 60.0746L11.5273 53.5105L3.11277 58.3676C2.7957 58.5535 2.39253 58.4524 2.19573 58.1449C1.99757 57.8373 2.0782 57.4315 2.37613 57.2183L10.8631 51.1995L3.35603 55.5331C3.03623 55.7177 2.6276 55.6179 2.43353 55.3008C2.2381 54.9879 2.32967 54.5765 2.6358 54.3715L4.16237 53.3615L4.0462 53.4285C3.72777 53.613 3.3246 53.5132 3.1278 53.2044C2.931 52.8955 3.013 52.4869 3.31367 52.2764L9.655 47.8566L5.65887 50.1635C5.34727 50.348 4.94547 50.251 4.74457 49.9462C4.5464 49.6415 4.6202 49.2342 4.91403 49.021L12.5646 43.4258L5.8461 47.3045C5.52903 47.4876 5.12723 47.3892 4.92907 47.0831C4.73227 46.7756 4.81017 46.3697 5.1081 46.1565L11.1652 41.8405L5.8461 44.9101C5.53313 45.0932 5.12997 44.9948 4.93043 44.69C4.73227 44.3853 4.8088 43.978 5.104 43.7648L13.4215 37.746L5.8461 42.118C5.5345 42.3025 5.1327 42.2041 4.93317 41.902C4.73363 41.6 4.80607 41.1927 5.09717 40.9781L14.5217 34L5.8461 39.0074C5.52493 39.1933 5.11903 39.0908 4.9236 38.7778C4.72817 38.4649 4.81837 38.0535 5.12313 37.8485L7.2442 36.4258L5.8461 37.2335C5.52493 37.4194 5.1204 37.3155 4.92497 37.0039C4.72953 36.6923 4.817 36.2823 5.12177 36.0759L8.138 34.0382L5.8461 35.3612C5.52903 35.547 5.1245 35.4459 4.9277 35.137C4.7309 34.8268 4.8129 34.4195 5.11357 34.2091L8.4414 31.8926L5.84747 33.3904C5.53723 33.5695 5.1409 33.4793 4.94 33.1827C4.74047 32.8861 4.8006 32.4843 5.08213 32.2629L9.75887 28.5784L5.84747 30.8348C5.5509 31.007 5.16823 30.9291 4.9605 30.6544C4.75277 30.3783 4.7842 29.9902 5.03293 29.751L8.2528 26.6541L5.84747 28.0427C5.55773 28.2135 5.18327 28.1438 4.97143 27.8773C4.76097 27.6135 4.77327 27.2336 5.00423 26.9876L5.80783 26.1211C5.5714 26.2373 5.2885 26.2072 5.0794 26.0432C4.86073 25.8683 4.76917 25.5758 4.85117 25.308L5.17097 24.2625C5.0671 24.2051 4.9769 24.119 4.91403 24.0069C4.72407 23.6803 4.83613 23.2621 5.16413 23.0735L5.8502 22.6771C6.0921 22.5364 6.39687 22.5596 6.61827 22.7332C6.83693 22.9081 6.9285 23.2006 6.8465 23.4684L6.66883 24.0465L9.0523 22.6703C9.34203 22.5008 9.7165 22.5705 9.92833 22.8357C10.1388 23.0994 10.1265 23.4794 9.89553 23.7254L9.0933 24.5905L12.4321 22.6635C12.7273 22.4885 13.1099 22.5678 13.319 22.8439C13.5268 23.1199 13.4953 23.5081 13.2466 23.7472L10.0281 26.8427L17.2865 22.6539C17.594 22.4708 17.9917 22.5637 18.1939 22.8616C18.3935 23.1582 18.3333 23.56 18.0518 23.7814L13.3778 27.4646L21.7281 22.6443C22.0466 22.4598 22.4497 22.5596 22.6465 22.8685C22.8433 23.1773 22.7613 23.586 22.4607 23.7964L19.1328 26.1129L24.2196 23.1773C24.538 22.9901 24.9453 23.094 25.1407 23.4069C25.3361 23.7185 25.2487 24.1285 24.9439 24.3349L21.914 26.3822L24.2209 25.0497C24.5407 24.8624 24.948 24.9649 25.1434 25.2793C25.3389 25.5936 25.2487 26.0036 24.9439 26.2086L22.8338 27.6231L24.225 26.8209C24.538 26.6391 24.9384 26.7361 25.138 27.0368C25.3375 27.3402 25.2651 27.7461 24.974 27.9607L15.5481 34.9416L24.2305 29.93C24.5421 29.7455 24.9466 29.8439 25.1462 30.1501C25.3443 30.4548 25.2678 30.8621 24.9726 31.0753L16.6537 37.0955L22.8529 33.5175C23.1686 33.3317 23.5704 33.4314 23.7699 33.7389C23.9667 34.0464 23.8888 34.4523 23.5909 34.6655L17.5338 38.9815L22.8529 35.9119C23.1659 35.7288 23.5677 35.8258 23.7672 36.1306C23.9654 36.434 23.8916 36.8413 23.5977 37.0545L15.954 42.6441L22.8529 38.6616C23.1672 38.4772 23.5745 38.5769 23.7713 38.8858C23.9681 39.196 23.8861 39.6033 23.5854 39.8138L17.2414 44.2363L22.8515 40.9973C23.17 40.8087 23.58 40.9125 23.774 41.2296C23.9695 41.5426 23.8779 41.954 23.5718 42.159L22.0452 43.1689L22.8529 42.7029C23.1672 42.5184 23.5731 42.6182 23.7699 42.9257C23.9681 43.2332 23.8875 43.6391 23.5895 43.8523L15.1025 49.8711L22.8529 45.398C23.1659 45.2135 23.5704 45.3119 23.7686 45.618C23.9667 45.9241 23.8888 46.3314 23.5923 46.5446L14.4424 53.106L23.0825 48.119C23.3968 47.9345 23.8041 48.0343 24.0009 48.3431C24.1977 48.652 24.1157 49.0592 23.8164 49.2711L16.0455 54.7077L23.9312 50.1553C24.2496 49.9681 24.6596 50.0706 24.8537 50.3877C25.0491 50.7006 24.9576 51.112 24.6501 51.317L21.9564 53.0991L25.0027 51.3402C25.3211 51.1557 25.7284 51.2555 25.9238 51.5685C26.1192 51.8814 26.0318 52.2914 25.727 52.4978L19.0153 57.0392L27.0595 52.3967C27.3793 52.2135 27.7838 52.3133 27.9793 52.6235C28.1761 52.9351 28.09 53.3438 27.7866 53.5515L17.7593 60.4245L31.0488 52.752C31.3686 52.5648 31.7745 52.6672 31.9713 52.9816C32.1667 53.2945 32.0765 53.7059 31.7718 53.9109L20.2931 61.5943L25.3935 58.6505C25.7133 58.4647 26.1179 58.5672 26.3133 58.8774C26.5101 59.189 26.424 59.5976 26.1206 59.8054L17.8263 65.4866L24.2209 61.7952C24.5366 61.6121 24.9453 61.7119 25.1407 62.0221C25.3375 62.3323 25.2528 62.741 24.9494 62.9501L18.0436 67.7033L24.2209 64.1391C24.5407 63.9546 24.9453 64.0543 25.1407 64.3659C25.3375 64.6762 25.2528 65.0848 24.9507 65.2939L8.44823 76.6646C8.4168 76.86 8.30063 77.0376 8.11613 77.1442L5.84747 78.4549C5.74087 78.5177 5.62197 78.5464 5.5058 78.5464L5.50033 78.5424Z" fill="#F9CABE"/>
<path d="M33.4401 24.0724C33.205 24.0724 32.9741 23.9494 32.8483 23.7307C32.6584 23.4041 32.7704 22.9859 33.0984 22.7973L57.0178 8.98849C57.3294 8.80399 57.7353 8.90239 57.9349 9.20989C58.1317 9.51739 58.0538 9.92329 57.7558 10.1365L50.2979 15.4501L57.0178 11.5715C57.3349 11.387 57.7394 11.4868 57.9362 11.7956C58.133 12.1045 58.051 12.5131 57.7504 12.7236L54.9227 14.6998L57.0178 13.4903C57.3267 13.3072 57.7285 13.4015 57.9267 13.7008C58.1262 13.9987 58.0633 14.4019 57.7791 14.6219L53.9702 17.5725L57.0178 15.8136C57.3199 15.6373 57.7107 15.7221 57.9144 16.0063C58.118 16.292 58.0743 16.6869 57.8105 16.9179L55.2644 19.1592L57.0178 18.1479C57.3171 17.973 57.7039 18.0522 57.9103 18.3351C58.1153 18.6153 58.0784 19.0062 57.8228 19.2426L57.3035 19.7209C57.5604 19.695 57.816 19.8234 57.9513 20.0599C58.1412 20.3865 58.0292 20.8047 57.7012 20.9933L52.8645 23.7854C52.568 23.9617 52.1798 23.8824 51.9721 23.5982C51.7671 23.318 51.804 22.9271 52.0596 22.6907L52.3575 22.4174L49.9877 23.7854C49.6843 23.9631 49.2934 23.877 49.0912 23.5927C48.8875 23.3071 48.9313 22.9121 49.195 22.6811L51.7398 20.4412L45.9465 23.7854C45.6362 23.9672 45.2372 23.8729 45.0376 23.5749C44.8381 23.277 44.901 22.8738 45.1852 22.6538L48.9955 19.7018L41.9203 23.7854C41.6059 23.9713 41.1987 23.8701 41.0019 23.5613C40.8051 23.2524 40.8871 22.8438 41.1877 22.6333L44.0222 20.6516L38.5938 23.7854C38.2808 23.9672 37.8749 23.8701 37.6768 23.564C37.48 23.2565 37.5579 22.8506 37.8558 22.6374L45.3123 17.3238L33.7804 23.9808C33.6724 24.0437 33.5549 24.0724 33.4387 24.0724H33.4401Z" fill="#844341"/>
<path d="M24.3401 36.9655C24.1419 36.9655 23.9479 36.8807 23.8139 36.7181C23.6007 36.4612 23.6048 36.0881 23.8221 35.8353L25.5086 33.8768L23.6431 34.9538C23.352 35.1246 22.9775 35.0549 22.7657 34.787C22.5552 34.5233 22.5703 34.1419 22.8012 33.8959L25.1218 31.4182L23.6144 32.2874C23.3151 32.465 22.9256 32.383 22.7192 32.096C22.5142 31.8131 22.5566 31.4195 22.8176 31.1858L24.2007 29.949L23.6144 30.2866C23.2932 30.4738 22.8846 30.3699 22.6892 30.0515C22.4951 29.7358 22.5908 29.3231 22.901 29.1208L34.1924 21.8201L23.6144 27.9277C23.2919 28.1163 22.8819 28.0097 22.6878 27.6913C22.4951 27.3742 22.5921 26.9601 22.9051 26.7592L30.6609 21.8173L23.0267 26.2248C22.7069 26.4107 22.2997 26.3082 22.1042 25.9939C21.9088 25.6795 21.999 25.2695 22.3051 25.0645L34.6297 16.87L20.2893 25.1493C19.9668 25.3392 19.5554 25.2313 19.3627 24.9115C19.17 24.5917 19.2684 24.1789 19.5827 23.9794L20.743 23.2469L17.448 25.1493C17.1255 25.3392 16.7155 25.2313 16.5214 24.9115C16.3287 24.593 16.4271 24.1789 16.7401 23.9794L18.3418 22.9681L14.5616 25.1493C14.2445 25.3351 13.8386 25.234 13.6418 24.9224C13.445 24.6122 13.5298 24.2035 13.8318 23.9944L27.4096 14.6382L9.20427 25.1479C8.88174 25.3351 8.47584 25.2299 8.28041 24.9156C8.08634 24.6012 8.17791 24.1885 8.48677 23.9849L17.6557 17.962L5.30107 25.096C4.98127 25.2818 4.57264 25.1793 4.37857 24.8636C4.18314 24.5507 4.27471 24.1393 4.58084 23.9343L14.6641 17.2595L3.44377 23.7361C3.12671 23.9234 2.71944 23.8209 2.52264 23.5079C2.32721 23.1963 2.41331 22.7863 2.71807 22.5799L14.8595 14.328L3.73624 20.7541C3.41371 20.9413 3.00781 20.8361 2.81237 20.5217C2.61831 20.2074 2.70987 19.7947 3.01874 19.591L8.49497 15.994L2.95587 19.192C2.63471 19.3792 2.22607 19.2753 2.03201 18.9583C1.83794 18.6439 1.93087 18.2312 2.23974 18.0276L5.31884 16.0172L1.93907 17.9688C1.66437 18.1287 1.31587 18.0754 1.09857 17.8444C0.881272 17.6121 0.852572 17.2609 1.03024 16.9971L1.90354 15.6947C1.63841 15.7384 1.34457 15.6168 1.19697 15.3626C1.00701 15.0359 1.11907 14.6177 1.44707 14.4291L3.71574 13.1185C3.98771 12.9572 4.33621 13.0105 4.55624 13.2429C4.77354 13.4752 4.80224 13.8264 4.62457 14.0902L3.80321 15.3147L26.2808 2.33961C26.6033 2.15238 27.0119 2.25761 27.2046 2.57331C27.3987 2.88765 27.3058 3.30038 26.9969 3.50401L23.9192 5.51301L28.3895 2.93138C28.7107 2.74551 29.118 2.84938 29.3134 3.16371C29.5075 3.47805 29.4159 3.89078 29.107 4.09441L23.6212 7.69695L30.3042 3.84021C30.624 3.65435 31.0299 3.75685 31.2254 4.06845C31.4208 4.38005 31.3347 4.79005 31.0299 4.99641L18.8885 13.2483L33.3205 4.91715C33.6389 4.72991 34.0489 4.83241 34.243 5.14948C34.4384 5.46245 34.3468 5.87381 34.0407 6.07881L23.967 12.7481L37.5435 4.91031C37.866 4.72171 38.2719 4.82831 38.4673 5.14265C38.6614 5.45698 38.5698 5.86971 38.261 6.07335L29.0865 12.099L41.5492 4.90348C41.8676 4.71898 42.2721 4.81875 42.4689 5.13035C42.6657 5.44058 42.581 5.84921 42.279 6.05831L28.697 15.4186L46.9229 4.89665C47.2454 4.70941 47.6568 4.81601 47.8495 5.13445C48.0422 5.45288 47.9438 5.86698 47.6308 6.06651L46.0414 7.07101L49.8175 4.89118C50.14 4.70395 50.5514 4.80918 50.7441 5.12898C50.9368 5.44878 50.8384 5.86151 50.5241 6.06105L49.3761 6.78538L52.667 4.88571C52.9854 4.69711 53.3927 4.80098 53.5895 5.11668C53.7849 5.42965 53.6947 5.84101 53.3886 6.04601L41.0667 14.2392L57.0198 5.02921C57.3424 4.84198 57.7537 4.94858 57.9464 5.26565C58.1391 5.58271 58.0421 5.99681 57.7291 6.19771L49.9733 11.1396L57.0198 7.07101C57.341 6.88241 57.7496 6.98901 57.9451 7.30608C58.1391 7.62178 58.0435 8.03451 57.7332 8.23678L30.2578 26.0021C30.2769 26.2112 30.199 26.4257 30.0323 26.5747L28.5795 27.8744C28.8405 27.8033 29.1303 27.884 29.3052 28.1067C29.5157 28.3705 29.5006 28.7518 29.2697 28.9978L26.9518 31.4742L28.3226 30.6829C28.6096 30.5148 28.9772 30.5804 29.1904 30.8373C29.4036 31.0943 29.3995 31.4674 29.1822 31.7202L27.4944 33.68L28.3226 33.2017C28.6465 33.0103 29.0674 33.1224 29.256 33.4518C29.446 33.7784 29.3339 34.1966 29.0059 34.3852L24.6872 36.878C24.5806 36.9409 24.4631 36.9696 24.3456 36.9696L24.3401 36.9655Z" fill="#844341"/>
<path d="M3.66184 13.5997C3.43634 13.5997 3.21494 13.4862 3.08511 13.2826C2.88831 12.9724 2.97167 12.5651 3.27234 12.3546L4.32467 11.6262L3.22997 12.2576C2.94844 12.4216 2.59037 12.3615 2.37581 12.1168C2.15987 11.8722 2.14757 11.5114 2.34574 11.2517L3.07554 10.2923C2.86234 10.2732 2.65871 10.1529 2.54391 9.95341C2.35394 9.62678 2.46601 9.20858 2.79401 9.01998L5.14741 7.66151C5.42621 7.49615 5.78564 7.55628 6.00157 7.80228C6.21751 8.04692 6.2298 8.40771 6.03164 8.66738L5.49454 9.37258L17.9462 2.18391C18.2647 1.99941 18.6678 2.09918 18.8646 2.40941C19.0614 2.71965 18.9781 3.12691 18.6774 3.33738L17.6237 4.06581L20.8859 2.18391C21.2112 1.99258 21.6308 2.10601 21.8194 2.43401C22.0093 2.76065 21.8973 3.17885 21.5693 3.36745L4.00351 13.5081C3.89554 13.571 3.77801 13.5997 3.66184 13.5997Z" fill="#844341"/>
<path d="M6.00185 8.70291C5.78591 8.70291 5.57408 8.60041 5.44151 8.40908C5.23925 8.11798 5.29391 7.71891 5.56725 7.49341L5.64241 7.43055L5.09165 7.74761C4.83198 7.89521 4.50398 7.85968 4.28531 7.65741C4.06528 7.45378 4.00378 7.12988 4.13498 6.86065L5.27888 4.48675L4.84428 4.73821C4.51765 4.92681 4.09808 4.81611 3.91085 4.48811C3.72088 4.16148 3.83295 3.74328 4.16095 3.55468L6.51708 2.19485C6.77675 2.04588 7.10475 2.08141 7.32341 2.28505C7.54345 2.48868 7.60495 2.81258 7.47375 3.08181L6.32985 5.45571L12.0001 2.18118C12.3049 2.00078 12.6999 2.08961 12.9021 2.38208C13.1044 2.67318 13.0497 3.07225 12.7764 3.29775L12.6985 3.36198L14.7471 2.18118C15.0724 1.98985 15.4933 2.10328 15.6806 2.43128C15.8705 2.75791 15.7585 3.17611 15.4305 3.36471L6.34488 8.60998C6.23828 8.67285 6.11938 8.70155 6.00321 8.70155L6.00185 8.70291Z" fill="#844341"/>
<path d="M48.6133 77.2877C48.6707 77.3069 48.7431 77.3178 48.8361 77.311C48.7664 77.255 48.6953 77.2932 48.6133 77.2877Z" fill="#262626"/>
<path d="M79.161 62.4662C81.2055 60.7415 80.1751 57.1731 77.5251 56.7768V33.6473C80.9869 26.3999 80.3377 18.3475 80.2571 10.3976C81.1823 6.59276 78.8945 1.46639 74.4815 4.30906C73.9868 2.12513 70.8339 1.65909 69.1023 2.85766C68.1962 0.00406086 63.458 0.416794 62.489 2.78933C60.6946 1.54293 57.2971 2.38753 56.6342 4.72043C48.8565 4.73409 41.0802 4.69446 33.3025 4.73409C26.5635 0.453694 18.3129 2.36293 10.7457 1.98709C6.97367 1.00446 0.751236 3.62709 4.09957 7.84053C1.8309 8.44323 0.887903 11.8408 2.7534 13.3332C-0.314764 14.0083 -0.403597 19.0622 2.80807 19.5406C0.796336 21.2844 1.84184 24.8309 4.4754 25.2382C4.47267 33.1526 4.4754 41.6901 4.4795 49.297C0.259236 55.9294 2.07827 63.9955 1.7407 71.4561C0.801803 75.2951 3.024 80.6019 7.52717 77.71C8.02054 79.8707 11.1816 80.4187 12.9009 79.1833C13.8671 82.0095 18.5575 81.6501 19.5101 79.2284C21.3196 80.5185 24.7499 79.6384 25.3813 77.2535C33.1262 77.2836 40.8711 77.1948 48.6133 77.2863C48.1636 76.9583 48.944 77.3888 49.1053 77.2535C49.0014 77.2904 48.9139 77.3041 48.836 77.3096C55.5737 81.5367 63.7245 79.5864 71.248 79.9869C75.0159 80.9763 81.2739 78.3264 77.8763 74.1403C80.1641 73.5512 81.1304 70.1277 79.2239 68.649C82.318 67.9848 82.4137 62.9158 79.161 62.4662ZM59.6819 3.31823C60.1001 3.43576 60.6317 3.52186 60.5948 3.50273C61.4435 3.94143 61.803 4.83113 61.8768 5.73039C62.735 6.67749 64.2684 5.41469 63.8571 4.09176C63.5591 2.56383 65.8538 1.52516 66.7462 2.70733C67.9338 3.91956 66.451 7.71069 69.3224 5.33406C69.4126 4.22159 69.9674 2.59526 71.796 3.69133C72.8812 4.43616 72.8484 5.92446 72.8115 7.09843C72.8115 7.66833 74.7426 7.28156 74.789 6.70073C74.83 6.18959 74.8874 5.63883 75.2482 5.22746C79.8471 2.76336 77.8777 12.1688 78.2781 14.5167C78.2426 20.6476 79.1829 27.0504 75.7758 32.4774C75.1362 40.4137 75.7498 48.6 75.5448 56.6141C72.0407 55.9554 60.1315 58.7858 59.7694 54.4589C59.6067 52.3078 59.8459 50.1197 59.7694 47.9645C59.2528 40.6132 62.7842 26.9042 51.0664 28.1697C49.7695 28.1697 47.8384 28.5182 46.8284 27.5192C44.1115 23.8715 49.4879 23.4615 51.9233 23.7731C60.9228 25.3653 57.9749 15.1577 58.3918 9.61036C58.3918 8.21363 57.7467 3.89769 59.6833 3.32369L59.6819 3.31823ZM52.2541 53.0089C51.4983 60.5761 42.0738 57.5503 36.8804 58.0696C40.8424 52.5565 32.7189 52.3283 29.1109 52.6412C21.9906 51.3497 24.5586 42.3844 24.1827 37.176C37.874 38.8502 18.3443 20.4931 45.1283 23.9549C41.0296 29.8521 49.8542 29.3792 53.4198 29.4229C59.9853 31.2679 57.349 39.7331 57.8082 44.8335C52.5315 42.5416 51.6691 49.2013 52.2541 53.0089ZM4.5164 23.236C3.4094 22.1577 3.3643 20.0408 5.3815 19.8768C6.509 19.7852 6.90124 18.3885 5.54687 18.3885C4.0982 18.3885 2.36527 18.1069 2.4008 16.2428C2.43497 14.4224 4.02167 14.4101 5.38287 14.4101C6.28077 14.4101 7.02014 13.027 5.8038 12.9286C2.53474 12.4694 3.56247 8.13573 6.74954 8.94343C7.64607 8.94343 8.3868 7.56036 7.17047 7.46196C4.7583 7.26516 4.28544 3.71183 6.95317 3.47676C15.298 4.02616 24.4301 1.60989 31.9632 6.01193C40.0156 6.56269 48.273 6.03106 56.391 6.21009C55.6502 10.1475 58.2387 20.7487 54.9259 22.6989C43.2805 23.9084 25.4893 16.4847 27.5393 35.1042C26.5566 37.3756 24.3836 35.5101 24.2388 33.9247C24.2251 32.3859 24.247 30.8415 24.2388 29.2999C25.0779 20.008 12.2162 24.0916 6.45707 23.8633C4.869 23.8005 4.5164 23.236 4.5164 23.236ZM22.2803 78.6489C20.8071 78.5396 20.2399 77.5542 20.121 76.2695C20.0677 75.6217 18.1407 76.0454 18.1407 76.6563C18.7147 81.3248 14.1705 80.8916 14.6557 76.413C14.6557 75.5862 12.7287 75.9839 12.674 76.6563C12.7861 78.9673 10.0063 79.4019 9.31887 76.9857C9.1248 76.3652 9.18767 75.6873 9.18767 75.0464C9.18767 74.2195 7.26067 74.6172 7.206 75.2883C7.36864 77.4777 4.64487 77.874 4.00937 76.0304C3.3028 73.1153 3.9137 69.9555 3.71964 66.9557C3.54607 60.8836 2.8805 54.5368 6.386 49.2246C6.60194 41.3375 6.37097 33.3343 6.45297 25.409C9.95027 26.0705 21.8403 23.2483 22.2257 27.5356C23.4762 37.7131 16.9121 56.6374 33.7808 53.8671C36.8763 54.4343 36.1821 58.1694 33.5007 58.22C28.7187 58.071 22.3268 57.3754 23.606 64.2921C22.8748 68.2376 25.3171 76.029 22.279 78.6462L22.2803 78.6489ZM76.6231 67.6144C75.7471 67.6144 74.9708 68.9524 76.1899 69.0508C77.9201 69.1916 79.1323 71.4425 77.5429 72.6807C76.8828 73.1945 76.0505 73.0811 75.2564 73.0811C74.3804 73.0811 73.6041 74.4191 74.8232 74.5175C77.2367 74.7143 77.7246 78.3127 75.0528 78.5478C72.6516 78.5642 70.2421 78.5368 67.8382 78.5478C61.7524 78.5642 55.4534 79.3924 50.0879 76.0276C42.0205 75.4372 33.7453 76.0044 25.6109 75.8144C26.3434 71.847 23.7878 61.392 27.0322 59.3379C38.6967 58.0573 56.5249 65.477 54.4571 46.8835C55.4083 44.6326 57.6169 46.4899 57.7631 48.082C57.7768 49.6209 57.7549 51.1652 57.7631 52.7068C56.7463 61.4426 68.2523 57.2045 73.503 58.1216C74.364 58.1216 75.2441 58.071 76.1038 58.1216C78.3383 58.2528 79.2977 61.9291 76.6217 62.1478C75.5093 62.238 75.087 63.5882 76.4441 63.5882C80.3363 63.058 80.8051 68.2076 76.6217 67.6144H76.6231Z" fill="#262626"/>
</g>
<defs>
<clipPath id="clip0_56_4063">
<rect width="82" height="82" fill="white"/>
</clipPath>
</defs>
</svg>
