<svg width="153" height="132" viewBox="0 0 153 132" fill="none" xmlns="http://www.w3.org/2000/svg">
<path d="M83.6579 58.7836C76.595 53.436 65.9427 45.9426 65.1424 37.0136C69.5353 30.956 73.5602 31.5375 81.1743 26.3904C82.3608 19.5366 86.5606 0.979571 94.8199 0L97.3663 3.89475C94.3645 5.90091 94.1499 5.84291 91.9667 8.581C96.2523 12.9287 102.246 18.1071 102.89 23.6821C103.188 26.2697 103.751 27.6725 105.512 29.558C111.16 24.4203 110.979 19.5068 119.308 15.04C124.314 14.1434 124.039 14.1952 128.78 16.1136C135.006 26.6193 124.004 33.5672 125.641 40.8427C135.184 39.222 148.838 38.6625 153 48.5663C149.152 56.0753 131.829 57.8589 139.915 70.5259C143.493 76.1291 142.904 80.795 142.14 86.8872L141.483 91.564L132.443 94.7911L134.844 89.3322C127.28 88.4717 126.453 85.4406 119.423 85.9154C117.783 88.2664 116.07 90.5703 114.284 92.8241C110.761 97.1844 108.657 98.5856 103.069 99.2266C88.8742 94.2896 97.7524 69.6388 101.149 59.445C76.1775 68.6028 64.6061 74.0289 43.0229 88.6206C74.0635 94.0826 76.4151 105.734 70.565 131.731C55.6174 115.414 42.2357 113.533 29.0984 98.6624C24.3886 103.418 3.76914 127.916 1.25586 129.454L-1 127.134C-0.047824 115.224 30.5736 89.3886 40.0591 80.864C36.4104 62.133 36.0226 53.6037 35.5804 34.2427C44.6665 29.6505 51.3235 42.7548 55.1982 49.1901C55.4342 56.8527 54.8368 65.4651 54.477 73.2045C65.7315 66.7597 71.2763 63.7175 83.6579 58.7836Z" fill="#F36038"/>
<path d="M37.0352 95.4574C45.6774 95.1878 54.7552 96.738 61.1564 102.752C65.4585 106.792 66.9255 110.267 67.0559 115.947C55.6495 111.339 44.7219 104.736 37.0352 95.4574Z" fill="white"/>
<path d="M73.2676 33.9226C75.7743 34.3881 78.4376 34.8692 80.7826 35.8582C87.565 38.7154 93.1362 47.367 95.2716 53.8322C89.1938 53.1849 83.923 50.9186 79.3833 46.9627C74.9953 43.14 73.3204 39.5101 73.2676 33.9226Z" fill="white"/>
<path d="M106.265 64.9216C108.055 66.2633 110.323 68.6251 110.864 70.7316C112.798 78.2782 112.224 85.2748 107.994 92.0393C105.39 91.102 104.958 90.5786 103.129 88.5411C101.115 80.065 103.331 72.8413 106.265 64.9216Z" fill="white"/>
<path d="M116.314 64.1958L118.177 64.2412C120.986 64.293 124.186 64.1676 126.774 65.3509C133.282 68.3304 135.244 76.1011 136.972 82.1431C134.807 82.0224 132.663 81.955 130.615 81.1949C123.118 78.4145 119.673 70.5544 116.314 64.1958Z" fill="white"/>
<path d="M120.542 21.5601L123.176 25.121C123.217 33.9717 115.581 40.5371 109.806 46.7531L108.098 43.9539C109.436 34.9403 113.913 27.9986 120.542 21.5601Z" fill="white"/>
<path d="M134.667 45.1667C137.601 46.5554 137.918 46.7874 139.598 49.455L138.235 52.1883C134.012 55 130.932 55.9279 125.836 56.5658C122.851 55.4671 120.561 54.6349 118.199 52.4752C121.802 48.1494 129.185 47.0036 134.667 45.1667Z" fill="white"/>
<path d="M89.9271 16.4897C90.5673 16.9082 91.2274 17.3 91.8479 17.7436C98.2095 22.2888 98.2822 32.9325 99.1304 39.7942C97.5841 39.1672 96.5131 38.476 95.358 37.3006C89.1795 31.0094 89.6993 24.4799 89.9271 16.4897Z" fill="white"/>
<path d="M46.6887 49.3313C48.697 52.3515 49.032 56.3921 49.1789 59.9264C49.4132 65.5154 48.5353 68.9713 44.6094 73.0432C41.413 64.2161 43.5005 57.6929 46.6887 49.3313Z" fill="white"/>
<path d="M134.186 8.56714L139.364 11.0137C140.963 15.9053 139.402 18.3033 137.846 22.9754L134.73 22.3924C134.785 17.7578 134.517 13.1891 134.186 8.56714Z" fill="#F36038"/>
<path d="M141.484 91.5637C141.009 96.2954 141.874 94.1184 138.121 98.0179L133.464 98.9504L131.396 97.2671L132.444 94.7908L141.484 91.5637Z" fill="#F36038"/>
</svg>
