<svg width="67" height="83" viewBox="0 0 67 83" fill="none" xmlns="http://www.w3.org/2000/svg">
<path d="M20.9185 74.8408C20.5505 74.3261 20.1194 73.8501 19.8165 73.2943C18.9574 71.7265 18.5006 70.5586 19.044 68.8886C26.6615 45.5227 42.6286 29.7945 64.0054 18.7689L65.5337 18.9769C65.1294 22.9804 54.2328 28.6241 50.5846 31.1838C36.4833 41.0779 28.7235 60.0687 20.9185 74.8408Z" fill="white"/>
<path d="M21.9932 46.937C20.364 45.4871 18.9108 43.9941 18.0285 41.9535C16.8533 39.2329 16.959 35.7559 18.0783 33.0387C21.7664 24.0747 32.6152 19.3396 40.9832 16.0311C40.2872 22.1579 29.3493 25.0938 25.7097 30.5368C22.6731 35.0761 25.266 40.7796 22.8577 45.4244C22.5903 45.9395 22.2821 46.4327 21.9932 46.937Z" fill="white"/>
</svg>
