<svg width="230" height="287" viewBox="0 0 230 287" fill="none" xmlns="http://www.w3.org/2000/svg">
<path d="M194.546 0C216.21 2.38535 250.662 6.08136 271.06 12.9938C280.83 28.1001 281.426 45.5974 287.206 62.7507C291.138 74.4215 296.507 86.8013 300.122 98.1499C301.692 96.046 301.579 96.1038 303.853 94.7259C306.229 99.1867 311.249 129.249 309.144 132.485L306.623 131.767C312.814 158.798 319.035 186.018 324.846 213.121C325.539 216.355 325.77 219.063 323.748 221.923C320.089 223.336 310.867 219.893 306.833 218.42C294.122 213.78 282.482 211.182 269.019 209.133C266.571 213.225 264.401 216.35 263.226 220.934L267.328 220.247C267.519 223.053 263.178 230.419 261.399 232.369C261.13 230.001 261.058 229.437 260.404 227.159C256.044 232.166 254.634 241.434 245.585 252.063C222.494 248.046 202.567 244.376 179.2 241.938C172.097 257.293 158.079 275.767 153.62 286.969C127.95 280.293 122.657 274.452 92.4976 269.761C87.7217 257.345 83.6815 244.048 77.9547 232.084C74.7184 225.899 67.7813 221.65 65.8884 214.544C61.8652 199.443 56.1493 188.377 49.6307 174.336C41.5424 156.497 33.353 138.697 25.0635 120.94C21.4668 113.085 12.3554 87.35 8.3193 82.9669C7.3383 86.9984 14.7509 102.66 15.8371 108.167L14.5367 108.321L12.0671 111.901C6.82276 109.996 2.72858 101.36 6.09403 96.7539L7.98898 95.5419C6.45841 90.8621 4.01589 84.7884 4.34923 80.0869L5.3663 78.2749C15.0602 76.8031 63.8792 88.346 78.315 91.0384C87.3863 72.2513 98.1234 59.1324 105.777 43.5371C128.955 43.2272 146.22 50.2601 168.096 53.7097C174.908 38.6584 183.878 9.90531 194.546 0Z" fill="white"/>
<path d="M7.98819 95.542C9.87813 99.927 11.5849 104.536 14.5359 108.321L12.0663 111.901C6.82197 109.996 2.7278 101.36 6.09325 96.7541L7.98819 95.542Z" fill="white"/>
<path d="M7.9887 95.542C9.87863 99.927 11.5854 104.536 14.5364 108.321L12.0669 111.901C11.0048 108.208 7.77948 100.147 6.09375 96.7541L7.9887 95.542Z" fill="#EFEEF0"/>
<path d="M199.457 4.72046C219.475 5.6293 227.865 7.79474 247.45 11.7855C254.553 12.6517 258.222 13.7321 264.973 15.6464C270.271 18.6762 272.473 23.843 273.513 29.5235C278.014 54.6592 287.478 77.4257 295.621 101.455C297.933 108.28 300.397 123.788 301.368 131.171C304.149 152.314 313.273 176.37 315.948 197.012L317.005 204.528L320.934 219.12C297.575 210.848 293.737 211.14 271.282 205.283C264.107 177.966 254.188 152.068 244.6 125.451C238.078 107.342 233.171 87.8399 225.104 70.4383C215.082 48.8205 207.59 26.9742 199.457 4.72046Z" fill="#63C2E0"/>
<path d="M216.743 38.4648C217.371 39.0003 218.113 39.4362 218.626 40.0702C220.071 41.8538 220.969 47.3931 222.116 49.8021C225.418 56.7411 231.581 64.0517 233.221 71.419C232.563 71.0807 232.347 71.0115 231.741 70.4486C223.689 62.9855 216.216 49.2108 216.743 38.4648Z" fill="white"/>
<path d="M111.416 48.1409C119.772 48.4214 124.246 49.2346 132.388 50.6608C134.195 50.9831 141.471 52.1544 142.723 52.6709C149.234 54.6743 161.7 56.8796 168.831 58.3144C182.838 84.3343 193.167 121.792 203.245 150.807C201.839 154.439 201.008 150.184 196.322 152.965L196.788 154.523C199.634 156.278 202.115 155.975 205.601 156.1C208.811 167.813 214.655 181.472 219.205 193.009L240.479 246.936C225.068 245.039 209.961 241.206 194.508 239.51C190.523 239.072 186.57 238.615 182.76 237.378C175.941 229.029 173.802 214.84 169.775 204.746C160.124 181.493 152.546 157.245 143.656 133.823C136.307 114.462 126.108 96.5804 121.236 76.0515C119.214 67.5317 115.329 56.0655 111.416 48.1409Z" fill="#63C2E0"/>
<path d="M132.386 50.6611C134.194 50.9833 141.47 52.1547 142.722 52.6712L141.907 54.0235C145.192 56.407 144.752 55.3237 145.166 58.2843C139.748 63.8179 120.526 61.7387 120.637 54.1107L122.691 53.0948C124.889 52.4968 129.34 52.1016 131.775 51.8135L132.386 50.6611Z" fill="white"/>
<path d="M132.386 50.6611C134.194 50.9833 141.47 52.1547 142.722 52.6712L141.907 54.0235C134.104 52.9252 130.459 52.9934 122.691 53.0948C124.889 52.4968 129.34 52.1016 131.775 51.8135L132.386 50.6611Z" fill="#63C2E0"/>
<path d="M129.363 56.4086C131.484 56.0807 133.411 55.9414 135.562 55.9622C136.723 55.9736 136.928 56.6066 137.71 57.3629C137.434 57.4681 137.165 57.5979 136.88 57.6794C133.931 58.5238 132.04 57.5534 129.363 56.4086Z" fill="#EFEEF0"/>
<path d="M175.336 91.6631C176.206 92.2459 177.143 92.8449 177.773 93.6808C182.5 99.9412 184.809 116.162 183.402 123.672C179.836 116.705 175.91 99.401 175.336 91.6631Z" fill="white"/>
<path d="M217.133 239.256C219.851 239.116 222.706 238.867 225.42 239.044C228.727 239.259 229.826 240.209 231.946 242.361C226.296 242.617 221.966 242.438 217.133 239.256Z" fill="white"/>
<path d="M182.654 144.121C184.324 144.405 186.323 144.632 187.892 145.232C190.375 146.182 190.668 148.379 191.4 150.514C189.249 149.949 186.588 149.463 184.717 148.287C182.685 147.011 182.955 146.179 182.654 144.121Z" fill="white"/>
<path d="M154.113 136.703L157.816 138.17L158.165 139.676L154.493 142.64L150.849 141.791L150.533 140.359L154.113 136.703Z" fill="white"/>
<path d="M164.475 140.28L169.342 140.591C171.752 142.185 171.47 142.421 172.012 145.027C170.359 144.821 168.422 144.723 166.902 144.048C164.996 143.201 165.063 142.034 164.475 140.28Z" fill="white"/>
<path d="M13.6133 82.1311C25.6847 83.6332 37.4757 86.8867 49.3309 89.6179C57.6564 91.5361 67.8338 93.0353 75.808 95.2055C81.7321 106.53 90.3079 131.515 94.8175 144.232L119.163 211.439C123.612 223.457 128.839 232.928 134.216 244.505C139.709 256.333 144.972 268.906 150.135 280.907C133.352 276.868 124.398 271.182 104.258 267.148C109.929 265.794 115.191 264.618 120.714 262.709C115.076 262.56 105.236 263.886 101.792 263.082C99.1509 259.79 98.5663 258.227 96.8876 254.532L95.5683 254.708L94.9436 256.424L93.0347 257.617C86.6391 240.147 78.2335 216.777 69.1472 200.719C47.3959 162.281 31.6097 122.081 13.6133 82.1311Z" fill="#63C2E0"/>
<path d="M92.5072 198.792L94.2039 200.077C94.5543 202.63 93.2199 203.605 91.7664 205.717C92.4341 209.038 96.6183 209.326 97.6964 212.793L96.7325 214.284C94.4952 213.843 92.299 213.307 90.0907 212.754C86.8594 213.789 86.534 215.493 84.9444 218.16L82.8863 217.468L82.1145 215.841C86.0395 208.004 80.1605 205.022 81.8122 200.948L86.9665 203.183C89.9325 202.72 90.7033 200.92 92.5072 198.792Z" fill="white"/>
<path d="M27.4051 87.146C32.7166 88.3922 37.7708 90.7662 42.3885 93.4889L42.4235 94.303C36.3343 94.0073 30.261 91.894 24.4311 90.2848C26.1588 94.3409 28.1368 98.3307 29.9947 102.336C31.4252 105.929 33.0059 109.502 33.7156 113.299C33.4103 113.122 33.0759 112.985 32.7996 112.77C29.1078 109.882 23.0406 97.1129 22.9846 92.545C22.9575 90.2744 25.7374 88.6225 27.4051 87.146Z" fill="white"/>
<path d="M125.628 241.657C129.474 245.771 132.516 249.809 133.633 255.316C132.806 254.91 132.644 254.883 131.852 254.193C128.766 251.502 125.451 245.626 125.628 241.657Z" fill="white"/>
<path d="M109.88 203.693L111.176 204.729C110.269 207.207 107.94 208.05 105.682 209.465C104.119 208.676 104.249 208.443 103.461 207.032C105.456 204.9 107.152 204.614 109.88 203.693Z" fill="white"/>
<path d="M171.186 56.1868C177.186 43.4024 186.992 15.378 194.087 5.8916C200.754 20.0407 204.691 36.5382 211.096 50.5432C221.546 73.3893 228.889 94.1514 236.823 117.903C234.915 120.667 234.07 121.502 233.281 124.637L234.917 125.599L238.117 123.773C241.373 129.629 244.226 139.791 246.719 146.383C254.181 166.119 260.405 183.987 265.658 204.373C262.686 210.425 259.842 216.533 257.13 222.693C254.605 227.957 251.59 233.87 249.428 239.213C248.083 241.48 247.48 243.548 245.386 244.311C239.775 236.688 234.332 217.881 230.42 208.214C219.141 180.338 208.483 152.249 198.714 123.869C192.736 106.503 183.794 69.2488 171.186 56.1868Z" fill="#63C2E0"/>
<path d="M218.734 149.75L219.867 151.256C218.859 154.089 215.973 155.362 213.46 156.947L212.188 154.932C213.603 152.232 216.086 151.338 218.734 149.75Z" fill="white"/>
<path d="M230.324 127.761L231.743 129.504C232.02 132.552 230.453 134.811 229.046 137.449L227.16 135.021C226.927 132.041 228.674 130.141 230.324 127.761Z" fill="white"/>
<path d="M225.524 139.212C226.305 139.972 226.519 140.8 226.923 141.773C226.534 144.651 224.549 146.247 222.553 148.264L221.312 146.774C221.391 143.845 223.778 141.51 225.524 139.212Z" fill="white"/>
<path d="M106.38 51.2239C108.437 53.197 109.618 55.7956 110.597 58.3761C115.662 71.7329 118.783 85.7938 123.657 99.2445C130.037 116.851 140.773 133.974 143.2 152.592C137.909 142.48 134.444 130.605 127.068 121.627L128.098 123.484L127.541 124.444C129.435 129.934 137.025 151.201 141.196 153.839L143.429 150.787L144.419 151.267C155.441 180.73 166.662 209.821 175.75 239.888C173.659 245.5 170.533 250.913 167.81 256.279L153.722 277.065C142.033 251.703 129.24 225.969 119.917 199.795C121.206 198.933 122.627 198.062 123.761 197.022C125.224 195.678 125.752 194.655 125.783 192.772C122.827 192.845 121.125 194.529 118.75 196.089C105.41 162.467 94.864 127.786 80.6875 94.453C87.018 79.0577 96.8981 64.991 106.38 51.2239Z" fill="#63C2E0"/>
<path d="M133.166 177.017L134.27 178.123C134.436 181.329 133.388 182.681 131.938 185.432C131.155 184.872 130.475 184.071 129.797 183.396C130.084 180.655 131.56 179.226 133.166 177.017Z" fill="white"/>
<path d="M138.128 160.889L139.261 162.01C139.594 165.094 138.436 167.066 137.066 169.739L135.645 168.167C135.356 164.999 136.621 163.591 138.128 160.889Z" fill="white"/>
<path d="M93.0352 257.617L94.9441 256.423C95.5998 259.089 97.9552 263.396 99.2536 266.146L97.3096 266.005C94.7259 263.298 94.2754 261.076 93.0352 257.617Z" fill="white"/>
<path d="M87.8224 48.9653L90.6944 49.2667C90.7655 52.0652 85.401 58.0404 83.9685 61.3289L83.525 62.3619L82.6591 63.1732L81.7812 61.9809C81.9895 56.6653 84.2097 52.8547 87.8224 48.9653Z" fill="white"/>
<path d="M0 181.766L3.50359 182.703C7.79999 186.524 8.93816 190.49 9.79003 195.778C9.58883 195.709 9.37661 195.663 9.18541 195.572C5.97512 194.038 1.30634 185.1 0 181.766Z" fill="white"/>
<path d="M74.3892 50.7644L76.9438 51.4723C76.5715 54.5637 71.4552 59.4567 69.325 62.114L68.8806 62.7366L68.0137 62.7537C68.1198 57.8731 70.8976 54.0993 74.3892 50.7644Z" fill="white"/>
<path d="M5.54492 264.714C6.96638 265.056 7.91734 265.51 9.20165 266.154C10.543 269.07 10.2087 270.267 9.86136 273.486L8.24468 273.535C5.99437 271.246 6.09048 267.775 5.54492 264.714Z" fill="white"/>
<path d="M14.916 180.861L17.9241 182.51C19.2034 185.166 18.9242 186.152 18.6709 189.002C15.9131 187.128 15.6057 183.812 14.916 180.861Z" fill="white"/>
</svg>
