<svg width="70" height="81" viewBox="0 0 70 81" fill="none" xmlns="http://www.w3.org/2000/svg">
<path d="M44.2984 6.54147C48.7471 8.53835 52.4692 10.6193 55.1951 14.8084C57.6418 18.5684 58.8216 23.2306 58.1952 27.6883C55.682 45.577 34.6737 51.2482 25.8085 65.0635C24.7967 66.6401 23.5394 68.3451 23.165 70.1989C23.1466 70.2892 23.0012 71.1521 22.9603 71.2763C22.4393 72.8671 21.0814 72.9948 19.6756 73.5202C18.56 72.967 17.5107 72.3346 17.0883 71.0828C16.585 69.5921 16.7627 68.9349 17.3565 67.5312C17.9851 67.2392 18.6163 66.9353 19.1931 66.5484C26.4765 61.6656 20.5289 41.9333 19.6341 34.3849C19.2579 31.2152 19.2879 27.9114 19.8706 24.7682C21.0318 18.5057 24.9537 11.313 30.3757 7.74811C34.9294 4.75463 39.309 5.52006 44.2984 6.54147Z" fill="white"/>
<path d="M22.5795 31.9695C19.7571 4.58884 51.3626 0.931873 54.9599 21.0826C55.0048 22.2677 55.2038 25.4425 55.0837 26.4545C53.1992 42.1985 35.3502 49.9588 24.776 61.0538C25.6847 55.5466 25.853 54.997 25.4985 49.5401C25.1963 44.8865 21.8296 35.2614 22.5795 31.9695Z" fill="#63C2E0"/>
<path d="M52.8189 23.4349C52.2801 21.6509 51.6634 20.4746 52.2528 18.7851C53.654 19.3852 53.3887 19.6585 54.3137 21.4254L54.9592 21.0825C55.0041 22.2676 55.2031 25.4424 55.083 26.4544C52.9744 28.2228 53.3671 28.9765 52.3488 30.058C51.0879 31.812 50.6754 32.6116 48.8844 33.8641C48.8989 32.9342 52.0966 25.6364 52.8189 23.4349Z" fill="white"/>
<path d="M54.96 21.082C55.0049 22.2671 55.2039 25.4419 55.0838 26.4539C52.9752 28.2223 53.3679 28.976 52.3496 30.0574C53.2747 27.2175 54.4011 24.3984 54.3145 21.4249L54.96 21.082Z" fill="#63C2E0"/>
<path d="M22.5799 31.9693C23.2716 29.2339 25.2128 18.8153 28.9378 19.4131C27.8184 21.7349 24.3633 31.3359 23.4859 32.0739L22.5799 31.9693Z" fill="white"/>
<path d="M40.6059 16.9522C42.6086 18.4183 44.4734 20.1827 46.3605 21.801C46.8498 25.7493 47.0541 29.9731 44.2994 33.2323C42.1343 35.7946 39.4505 36.4699 36.2932 36.8063C35.1692 36.4919 33.7267 36.0908 32.7709 35.3836C31.2052 34.2252 30.1312 31.9749 29.8812 30.0831C29.4422 26.7637 30.7662 23.1952 32.9102 20.663C35.1568 18.0095 37.2899 17.2423 40.6059 16.9522Z" fill="white"/>
<path d="M39.3672 19.0507C40.7169 20.6008 42.787 22.295 43.4887 24.245C44.2011 26.2255 44.4399 28.5729 43.4115 30.4767C42.098 32.9089 39.9491 34.0173 37.43 34.8067C35.6025 34.1822 34.256 33.2986 33.3752 31.5157C32.3709 29.4821 32.4813 27.2542 33.294 25.1746C34.5307 22.0098 36.3628 20.3686 39.3672 19.0507Z" fill="#63C2E0"/>
<path d="M63.3006 25.4615C63.4777 25.6236 63.6751 25.7665 63.8312 25.949C64.2732 26.4636 64.5345 26.8613 64.4639 27.524C63.4709 36.7965 58.7784 43.8893 51.7082 49.6612L51.1246 49.7039C50.9603 48.1859 54.5623 45.2351 55.7157 43.9983C60.1737 39.2179 61.5631 31.5584 63.3006 25.4615Z" fill="white"/>
<path d="M65.0938 35.9053C65.8125 36.3156 66.4692 36.7557 66.957 37.444C67.6069 38.3617 67.8407 39.6608 67.6385 40.7575C66.9733 44.3749 63.3176 46.9847 60.4709 48.8701C60.2481 46.5409 64.0782 44.592 65.0019 42.2855C65.7728 40.3619 64.3623 38.4482 64.8916 36.5347C64.9504 36.3225 65.0261 36.1152 65.0938 35.9053Z" fill="white"/>
</svg>
