<svg width="74" height="67" viewBox="0 0 74 67" fill="none" xmlns="http://www.w3.org/2000/svg">
<path d="M40.6523 29.7228C37.2607 27.0188 32.1456 23.23 31.7612 18.7152C33.8707 15.6523 35.8034 15.9463 39.4597 13.3438C40.0294 9.87828 42.0461 0.4953 46.0122 0L47.235 1.9693C45.7936 2.98368 45.6905 2.95435 44.6421 4.33881C46.7001 6.53715 49.5782 9.15552 49.8872 11.9744C50.0306 13.2828 50.3009 13.992 51.1464 14.9454C53.8588 12.3476 53.7717 9.86322 57.771 7.60465C60.1753 7.15135 60.0429 7.1775 62.3196 8.1475C65.3094 13.4595 60.0263 16.9726 60.8124 20.6513C65.395 19.8318 71.9515 19.5489 73.95 24.5566C72.1021 28.3534 63.784 29.2552 67.6669 35.66C69.3849 38.4931 69.1019 40.8524 68.7351 43.9328L68.4197 46.2975L64.0788 47.9292L65.2318 45.169C61.5993 44.7339 61.2023 43.2013 57.8265 43.4414C57.0388 44.6301 56.2163 45.795 55.3589 46.9346C53.6671 49.1393 52.6567 49.8478 49.9736 50.1719C43.1571 47.6756 47.4204 35.2115 49.0512 30.0572C37.0602 34.6876 31.5037 37.4312 21.1396 44.8092C36.0451 47.571 37.1743 53.4623 34.3652 66.6072C27.1874 58.3567 20.7616 57.4057 14.4531 49.8867C12.1915 52.291 2.29012 64.6783 1.08325 65.4557L0 64.2828C0.45723 58.2608 15.1615 45.1975 19.7163 40.8872C17.9643 31.4163 17.7781 27.1036 17.5657 17.3141C21.9288 14.9922 25.1255 21.6181 26.9861 24.872C27.0994 28.7464 26.8125 33.1011 26.6398 37.0144C32.0441 33.7557 34.7067 32.2175 40.6523 29.7228Z" fill="white"/>
<path d="M18.2637 48.2661C22.4136 48.1298 26.7727 48.9136 29.8466 51.9544C31.9124 53.9974 32.6169 55.7543 32.6795 58.6262C27.2022 56.2963 21.9548 52.9576 18.2637 48.2661Z" fill="#63C2E0"/>
<path d="M35.6621 17.1523C36.8658 17.3877 38.1447 17.631 39.2708 18.131C42.5277 19.5757 45.2029 23.9502 46.2283 27.2192C43.3098 26.8919 40.7788 25.746 38.5988 23.7458C36.4918 21.8129 35.6875 19.9775 35.6621 17.1523Z" fill="#63C2E0"/>
<path d="M51.5071 32.8262C52.3669 33.5045 53.4557 34.6988 53.7156 35.7639C54.6443 39.5797 54.3686 43.1173 52.3376 46.5377C51.0871 46.0638 50.8795 45.7991 50.0015 44.7689C49.034 40.4831 50.0982 36.8306 51.5071 32.8262Z" fill="#63C2E0"/>
<path d="M56.334 32.4592L57.2286 32.4822C58.5773 32.5084 60.1139 32.445 61.3564 33.0433C64.4817 34.5498 65.4239 38.4789 66.2536 41.5339C65.2139 41.4729 64.1845 41.4388 63.2011 41.0545C59.6011 39.6486 57.9466 35.6743 56.334 32.4592Z" fill="#63C2E0"/>
<path d="M58.3644 10.9014L59.629 12.7019C59.6489 17.177 55.9823 20.4967 53.2088 23.6397L52.3887 22.2243C53.0313 17.6668 55.1812 14.1569 58.3644 10.9014Z" fill="#63C2E0"/>
<path d="M65.1459 22.8376C66.5548 23.5398 66.707 23.6571 67.5137 25.0059L66.8591 26.3879C64.8313 27.8097 63.3526 28.2788 60.9056 28.6014C59.4721 28.0458 58.3722 27.625 57.2383 26.533C58.9681 24.3458 62.5135 23.7664 65.1459 22.8376Z" fill="#63C2E0"/>
<path d="M43.6624 8.33765C43.9698 8.54924 44.2868 8.74735 44.5847 8.97162C47.6395 11.2698 47.6744 16.6516 48.0817 20.1211C47.3392 19.8041 46.8249 19.4546 46.2702 18.8602C43.3034 15.6792 43.553 12.3777 43.6624 8.33765Z" fill="#63C2E0"/>
<path d="M22.9005 24.9434C23.8649 26.4705 24.0257 28.5135 24.0963 30.3005C24.2088 33.1265 23.7872 34.874 21.9021 36.9328C20.3671 32.4696 21.3696 29.1712 22.9005 24.9434Z" fill="#63C2E0"/>
<path d="M64.916 4.33179L67.4026 5.56883C68.1705 8.04216 67.4209 9.25467 66.6736 11.6171L65.1775 11.3222C65.2037 8.97888 65.0753 6.66881 64.916 4.33179Z" fill="white"/>
<path d="M68.4203 46.2974C68.1921 48.6899 68.6073 47.5891 66.8053 49.5608L64.5691 50.0323L63.5762 49.1812L64.0794 47.929L68.4203 46.2974Z" fill="white"/>
</svg>
