<svg width="203" height="100" viewBox="0 0 203 100" fill="none" xmlns="http://www.w3.org/2000/svg">
<path d="M41.2498 0.598333C43.9529 -0.412102 50.3037 -0.0709226 53.0593 1.08386C55.3031 2.0418 56.93 4.11508 57.7042 6.41152C60.3285 14.1932 55.0012 22.9985 51.6289 29.6122L52.6393 30.8325C72.6367 54.6499 109.43 84.3856 140.79 88.1518C161.234 90.6188 182.32 88.2436 203 90.1202C185.561 94.6212 167.585 95.1723 149.844 98.1643C132.301 99.9489 115.453 100.972 97.9746 97.495C65.6035 91.0518 39.1897 72.549 20.8719 45.4116L16.7517 51.658C14.3766 55.2929 12.9595 57.327 8.89182 59.1116C6.21501 59.0198 4.9816 59.4396 3.01335 57.2219C-0.227689 53.5607 -0.175285 45.976 0.139634 41.2519C0.821959 31.1082 4.96843 9.46918 13.3007 2.75045C19.2185 -2.02615 28.0232 3.23591 34.7021 3.49836C38.3893 3.64271 38.5599 2.97351 41.2498 0.598333Z" fill="white"/>
<path d="M18.3471 6C25.5115 7.41723 50.2064 10.4485 52.6339 17.5609L51.2037 19.4506C45.837 19.5424 43.2651 19.1882 38.0821 18.4927C38.9744 21.2746 39.5254 21.0384 41.9004 22.7444C49.0254 27.8884 46.3224 33.1898 53.7098 40.8533C75.2424 63.1616 104.674 84.7746 134.027 94.4459C113.282 94.5115 104.504 92.0313 84.3882 87.0185C72.3688 83.108 59.2865 74.0139 49.2747 66.416C37.334 59.4217 32.8859 44.9477 22.5985 38.662C18.3602 36.0768 13.9251 49.6061 8.63707 51.85C6.56386 48.5825 7.04941 45.8531 7.04941 41.8769C7.37745 38.3339 8.07282 34.4365 8.6108 30.8803C10.9202 20.999 12.4424 14.4378 18.3471 6Z" fill="#63C2E0"/>
<path d="M48.7556 65.2398L50.8551 63.2583C58.2688 64.7411 76.9933 78.3754 82.5176 83.7557L82.9768 87.4956C70.9574 83.5851 57.8751 74.491 47.8633 66.8931L48.7556 65.2398Z" fill="white"/>
<path d="M48.7556 65.2397C55.054 69.5439 76.0617 83.69 82.5176 83.7556L82.9768 87.4955C70.9574 83.585 57.8751 74.491 47.8633 66.893L48.7556 65.2397Z" fill="#63C2E0"/>
<path d="M8.9707 32.2627L12.3036 29.7168L13.3927 31.1865C12.8678 34.4278 12.4218 38.0496 10.2305 40.6872C9.65314 38.1021 9.32499 34.9396 8.9707 32.2627Z" fill="white"/>
<path d="M39.5703 4.10208C41.1843 4.02335 42.7982 3.9315 44.4121 3.94462C49.4508 3.98399 50.8942 5.37498 54.2665 8.7081C49.4377 8.3013 44.1498 5.72928 39.5703 4.10208Z" fill="#63C2E0"/>
</svg>
