<svg width="90" height="111" viewBox="0 0 90 111" fill="none" xmlns="http://www.w3.org/2000/svg">
<path d="M29.6011 77.689L15.3027 77.449V110.723C17.2986 109.725 29.7919 103.478 31.8009 102.474C35.3779 104.262 42.8927 108.019 44.9994 109.073L47.1992 99.5365L44.9994 90.0001L29.6011 77.689Z" fill="#95E02A"/>
<path d="M58.1985 102.473C60.1944 103.471 72.6876 109.718 74.6967 110.722C74.6967 108.875 74.6967 79.2963 74.6967 77.449L59.5184 78.1287L45 90.0003V90.0001V109.073L51.5993 105.773L58.1985 102.473Z" fill="#54C466"/>
<path d="M36.9213 4.38675C33.8707 4.06207 30.8236 3.73804 27.7732 3.41358C25.8467 5.80075 23.9212 8.18661 21.996 10.572C19.0543 11.442 16.1213 12.3094 13.1796 13.1796C12.3094 16.1213 11.442 19.0543 10.572 21.996C8.18484 23.9225 5.79899 25.848 3.41336 27.7732C3.73804 30.8236 4.06207 33.8712 4.38653 36.9216C2.92435 39.6145 1.46108 42.3088 0 45.0004C1.46218 47.6931 2.92523 50.3876 4.38653 53.079C4.06207 56.1296 3.73804 59.1767 3.41336 62.2273C5.80053 64.1538 8.18638 66.0793 10.572 68.0045C11.442 70.9463 12.3094 73.879 13.1796 76.8209C16.1213 77.6909 19.054 78.5583 21.996 79.4283C23.9223 81.8157 25.848 84.2013 27.773 86.5869C30.8236 86.2623 33.8709 85.9382 36.9213 85.6138C39.6143 87.0759 42.3087 88.539 45.0001 90.0001L47.1999 45.0001L44.9999 0C42.307 1.46218 39.6127 2.92545 36.9213 4.38675Z" fill="#FFDA2D"/>
<path d="M53.0788 85.6136C56.1294 85.938 59.1765 86.262 62.2269 86.5867C64.1535 84.1995 66.0789 81.8137 68.0042 79.4283C70.9459 78.5583 73.8788 77.6909 76.8205 76.8209C77.6905 73.8792 78.5588 70.9434 79.4281 68.0043C81.8153 66.0778 84.2012 64.1521 86.5868 62.2271C86.2623 59.1765 85.9383 56.1294 85.6136 53.079C87.0758 50.386 88.5391 47.6915 90.0002 45.0001C88.5378 42.3072 87.0749 39.6127 85.6136 36.9213C85.9381 33.8709 86.2623 30.8238 86.5868 27.7732C84.1996 25.8469 81.814 23.9212 79.4284 21.996C78.5583 19.0543 77.691 16.1216 76.8208 13.1796C73.8792 12.3096 70.9435 11.4416 68.0042 10.572C66.0776 8.18463 64.1522 5.79899 62.2269 3.41336C59.1765 3.73782 56.1294 4.06185 53.0788 4.38653C50.3857 2.92457 47.6912 1.4613 45 0V44.9999V89.9999V90.0001C47.6929 88.5379 50.3874 87.0751 53.0788 85.6136Z" fill="#FDBF00"/>
<path d="M18.6035 44.9998C18.6035 59.5547 30.4448 71.3969 45.0006 71.3969L47.2003 44.9998L45.0006 18.6028C30.4455 18.6028 18.6035 30.4438 18.6035 44.9998Z" fill="#FDBF00"/>
<path d="M71.3971 44.9998C71.3971 30.4449 59.556 18.6028 45 18.6028V44.9998V71.3969C59.5549 71.3969 71.3971 59.5556 71.3971 44.9998Z" fill="#FF9F22"/>
<path d="M41.7012 35.1023V45.0012V54.9001H43.351H45.0008L47.2006 45.0012L45.0008 35.1023H43.351H41.7012Z" fill="#ECF2FF"/>
<path d="M48.2996 35.1023C47.1456 35.1023 46.154 35.1023 45 35.1023V45.0012V54.9001H46.6498H48.2996V45.0012V35.1023Z" fill="#D9E5FF"/>
</svg>
