<svg width="89" height="91" viewBox="0 0 89 91" fill="none" xmlns="http://www.w3.org/2000/svg">
<path d="M29.4126 23.1574C29.9886 23.0613 29.8485 23.1212 30.3544 22.9052C39.881 18.8098 47.3256 17.2842 57.2842 21.2352C58.1209 21.5524 61.3782 23.1648 61.7479 23.2318C65.3593 25.3781 67.5659 27.4191 70.3328 30.6268C72.8857 36.2206 75.2673 36.5771 76.8823 44.9411C77.3649 47.8445 77.4388 49.3339 77.3999 52.3128L77.326 52.9561C77.1976 55.2519 76.9952 56.6265 76.61 58.8955L76.3648 60.1818C75.7266 60.996 75.7693 61.1478 75.4113 62.1114C73.8469 66.2045 71.582 69.9913 68.71 73.3002C65.659 76.2035 63.8533 77.6863 60.1524 79.7366L59.7087 79.9985C41.7295 90.5323 18.3916 79.7078 13.7255 60.1884C13.3442 58.5931 12.7449 53.3122 12.3907 52.6833L11.0987 52.6685L10.8574 52.0337C11.2038 51.6177 11.8303 51.1288 12.0833 50.8393C13.0795 49.6943 13.5232 45.4101 13.9513 43.8518C14.644 41.3201 15.3289 39.5197 16.2668 37.243C17.0879 36.0357 18.088 34.7366 18.9637 33.5468C19.8938 31.0136 24.4041 26.3834 26.9726 25.3754L27.6614 24.4422L29.4126 23.1574Z" fill="#96C8EE"/>
<path d="M16.2668 37.2422C17.6171 37.6139 23.5869 39.6338 24.0578 39.71L24.8711 39.4905L25.0579 39.9649C27.0426 42.8002 28.7121 43.4529 30.6501 46.866L30.977 46.9766L31.0938 48.2457C31.5063 55.269 48.9134 64.0079 45.6717 68.0617C42.3522 69.2366 38.1492 66.9836 36.8027 69.3919C37.5499 72.8534 43.0021 76.9029 46.7146 76.5036C47.9405 76.3717 49.3804 75.0764 50.3183 74.2665C53.7584 76.0767 56.8328 77.6953 60.1524 79.7358L59.7087 79.9977C41.7295 90.5315 18.3916 79.707 13.7255 60.1876C13.3442 58.5923 12.7449 53.3114 12.3907 52.6825L11.0987 52.6677L10.8574 52.0329C11.2038 51.6169 11.8303 51.1281 12.0833 50.8385C13.0795 49.6935 13.5232 45.4093 13.9513 43.851C14.644 41.3193 15.3289 39.5189 16.2668 37.2422Z" fill="#58A72D"/>
<path d="M24.0578 39.7107L24.8711 39.4912L25.0579 39.9656C25.0112 41.7793 25.0774 42.1688 24.5092 43.8435L24.0734 44.0327C23.4663 42.6148 23.8477 41.3002 24.0578 39.7107Z" fill="#010101"/>
<path d="M23.8558 47.8003C24.9571 47.7544 24.9649 47.6458 25.9651 47.9385C25.8366 48.3487 24.4901 49.1531 24.0037 49.4984C24.101 50.9181 24.5135 54.0293 23.5483 54.9676L23.0347 54.589C23.0736 52.7543 23.1359 50.9862 23.0503 49.1504C22.2797 49.3863 21.8789 49.4894 21.0889 49.6396L20.8242 49.1298C21.5208 48.2463 22.6961 48.1206 23.8558 47.8003Z" fill="#010101"/>
<path d="M24.0229 70.2266C25.2293 71.1532 25.2371 74.0398 25.3616 75.5184L24.4471 75.1101C23.6532 73.4747 23.6143 71.9767 24.0229 70.2266Z" fill="#010101"/>
<path d="M23.0305 59.9141L23.8283 60.5294C24.3925 62.1811 24.1863 63.7238 24.1279 65.4931L23.3924 64.9354C22.7892 63.2385 22.9838 61.7359 23.0305 59.9141Z" fill="#010101"/>
<path d="M29.4127 23.1574C29.9887 23.0613 29.8486 23.1212 30.3545 22.9052C39.8811 18.8098 47.3257 17.2842 57.2843 21.2352C56.362 22.9228 55.3969 24.5877 54.3929 26.2281C55.358 27.7432 55.9923 25.484 55.5681 27.7102L53.887 28.4014C53.3266 30.285 53.202 31.1152 52.0618 32.742C54.1088 37.8314 57.2454 41.1991 54.5485 46.3932C56.004 47.6989 56.615 46.3597 57.0937 47.5977C54.8949 49.8037 42.1733 42.2351 39.7877 40.4094C39.095 35.8925 39.4024 32.9825 35.2267 30.3718C33.9775 29.6156 33.3004 29.911 31.6504 29.9741C29.0508 27.7378 29.0469 28.1971 26.9727 25.3754L27.6615 24.4422L29.4127 23.1574Z" fill="#58A72D"/>
<path d="M43.901 28.0156L44.8623 28.0351L44.8856 28.5173C43.3407 29.5331 43.0643 29.4673 41.1574 29.7129L40.1923 29.5876L40.0522 29.1248C41.3481 28.3231 42.4028 28.2729 43.901 28.0156Z" fill="#010101"/>
<path d="M61.1528 57.478C63.301 53.6927 64.4685 52.7423 62.441 48.6504L62.8846 47.6537C66.5583 44.9149 72.4229 45.0504 76.8827 44.9414C77.3653 47.8448 77.4392 49.3342 77.4003 52.3131L77.3264 52.9564C77.1979 55.2522 76.9956 56.6268 76.6103 58.8958L76.3651 60.1821C75.7269 60.9963 75.7697 61.148 75.4117 62.1117C73.8472 66.2048 71.5823 69.9916 68.7103 73.3005C63.982 68.0125 62.8729 64.3277 61.1528 57.478Z" fill="#58A72D"/>
<path d="M77.3259 52.9558C76.0222 53.0469 73.9207 52.3537 72.8389 51.4493L72.9517 50.9764C74.5512 50.7837 75.8587 51.6186 77.3998 52.3125L77.3259 52.9558Z" fill="#010101"/>
<path d="M70.3328 30.6274C63.7365 38.1022 53.8791 31.4934 61.7479 23.2324C65.3593 25.3788 67.5659 27.4197 70.3328 30.6274Z" fill="#58A72D"/>
<path d="M31.6506 29.9738C33.3007 29.9108 33.9778 29.6154 35.227 30.3716C33.6976 31.0745 31.4366 31.8805 29.7671 31.3617C30.2613 30.3988 30.4442 30.5744 31.6506 29.9738Z" fill="#010101"/>
<path d="M30.9771 46.977C32.7283 46.6618 33.8101 46.2998 35.5146 46.7649L35.4368 47.2919C33.8841 48.0376 32.8022 48.0446 31.0938 48.2462L30.9771 46.977Z" fill="#010101"/>
<path d="M18.9639 33.5467C20.6645 32.7633 22.4819 31.955 24.3926 32.2605L24.8752 32.5905C22.9878 33.567 21.7892 34.1274 19.6527 33.9601L18.9639 33.5467Z" fill="#010101"/>
<path d="M26.3733 28.8652C26.5796 29.0373 26.8675 29.4416 27.0504 29.6724C26.9259 31.8608 26.6924 32.4691 26.0581 34.4906L25.3421 33.82C25.2642 31.9056 25.7973 30.6952 26.3733 28.8652Z" fill="#010101"/>
<path d="M10.083 0C25.054 0.957795 22.2131 16.7056 21.1779 27.3207C19.2749 26.6894 17.4809 25.9126 15.6285 25.1471C10.4099 22.4333 3.12479 18.6363 1.66155 12.4035C1.03111 9.74919 1.50203 6.95366 2.96138 4.64927C4.89161 1.61048 6.86073 0.806789 10.083 0Z" fill="#E7434A"/>
<path d="M10.7719 6.34154C12.632 6.07183 14.3794 7.31022 14.7374 9.15537C15.0954 11.0009 13.9435 12.8032 12.1183 13.252C10.8575 13.5625 9.52657 13.1523 8.65874 12.1856C7.78702 11.2189 7.52238 9.85201 7.96602 8.62957C8.40577 7.40712 9.48762 6.52757 10.7719 6.34154Z" fill="#FDFDFC"/>
<path d="M82.8871 56.0566C83.8016 57.0024 84.7901 57.8333 85.2142 59.0542L84.7395 59.4072C83.4942 58.7187 83.2451 58.2937 82.28 57.1974C80.3381 58.254 78.4156 59.3698 76.3647 60.1824L76.6099 58.8962C78.7581 57.8481 80.6455 56.8996 82.8871 56.0566Z" fill="#010101"/>
<path d="M71.0685 76.2324C71.5861 76.3733 71.3409 76.225 71.7067 76.8084C70.7961 77.6674 68.5935 78.2414 67.3092 78.675L66.4453 78.2332L66.671 77.6214C68.395 76.7224 69.2122 76.6208 71.0685 76.2324Z" fill="#010101"/>
<path d="M1.8877 63.6191C3.91911 64.199 5.07101 66.6315 5.47574 68.5432C3.23418 67.1098 2.53759 66.1866 1.8877 63.6191Z" fill="#010101"/>
<path d="M9.32812 70.7422C11.1533 70.815 13.5388 71.8809 14.4105 73.5591C12.3402 73.4712 10.2349 72.6858 9.32812 70.7422Z" fill="#010101"/>
<path d="M40.7998 12.5273C42.8546 13.1718 44.0026 15.4038 44.2322 17.4229C42.6366 16.8088 41.2396 14.1468 40.7998 12.5273Z" fill="#010101"/>
<path d="M14.0603 34.8193C14.6985 35.0065 14.4106 34.8279 14.8776 35.43C14.0603 36.4403 12.2002 37.0739 10.9354 37.6324L10.2038 37.5223L10.1143 36.9805C11.4413 35.8211 12.4531 35.5109 14.0603 34.8193Z" fill="#010101"/>
<path d="M0 48.8184L0.79775 49.1562C1.9341 50.4203 2.73577 52.2335 3.03542 53.9113C0.902823 52.8846 0.404727 50.9628 0 48.8184Z" fill="#010101"/>
<path d="M70.7339 27.2239C73.026 27.167 74.9719 27.1519 76.4896 28.9507C74.2052 29.0075 72.2827 28.9881 70.7339 27.2239Z" fill="#010101"/>
<path d="M80.5601 30.5391C82.5798 31.2349 83.8368 32.9022 84.9576 34.6513C82.7705 34.5707 81.1827 32.4679 80.5601 30.5391Z" fill="#010101"/>
<path d="M6.03204 54.6748C6.40953 55.0274 6.22273 54.7818 6.41731 55.5135C5.58061 57.1489 4.51039 57.8891 3.12887 59.1124C3.00434 58.9652 2.81753 58.4772 2.72803 58.274C3.47132 56.8317 4.81008 55.7996 6.03204 54.6748Z" fill="#010101"/>
<path d="M86.6074 38.9492L87.4363 39.4007C88.1952 40.9555 88.3508 42.7625 88.6349 44.501C87.9072 44.2371 88.094 44.2955 87.4519 43.8195C86.6853 41.9561 86.7436 40.943 86.6074 38.9492Z" fill="#010101"/>
<path d="M36.3319 10.7422L36.6198 11.2306C36.1762 12.3678 34.0514 13.897 33.0045 14.7719L32.5181 14.2332C32.8022 12.5691 34.9776 11.526 36.3319 10.7422Z" fill="#010101"/>
<path d="M80.5561 71.9453C80.9064 72.1232 80.6923 71.9768 81.0348 72.5532C80.2526 73.5857 78.1511 74.4552 76.9019 75.0884C76.4466 74.9008 76.6996 75.058 76.2715 74.4579C77.221 73.2911 79.1124 72.6194 80.5561 71.9453Z" fill="#010101"/>
<path d="M86.6309 63.8965L87.1523 64.5359C87.2263 66.6325 86.4946 67.6191 85.2921 69.3315L84.8135 68.8318C85.0742 67.0964 85.9109 65.5206 86.6309 63.8965Z" fill="#010101"/>
<path d="M6.61572 56.2695C8.72497 56.5221 10.6746 57.5048 12.134 59.0464C10.0559 59.3313 7.77931 57.9407 6.61572 56.2695Z" fill="#010101"/>
<path d="M31.4092 89.1511C33.2499 89.3118 34.9739 88.8503 36.5617 89.1787L36.729 89.9088C34.7248 90.5872 32.7907 91.0449 31.4092 89.1511Z" fill="#010101"/>
<path d="M26.319 80.335C27.6461 81.4418 28.222 84.4506 28.2648 86.1148C26.5448 84.7359 26.0505 82.4327 26.319 80.335Z" fill="#010101"/>
<path d="M87.2964 49.2305L87.779 50.0886C87.4871 51.5699 86.5025 52.8581 85.6775 54.1736C85.4907 54.0062 85.2572 53.6174 85.1016 53.3897C85.4596 51.7205 86.343 50.6701 87.2964 49.2305Z" fill="#010101"/>
<path d="M5.00866 40.2168C5.45619 40.3476 5.2149 40.223 5.6313 40.7352C5.03978 42.0818 3.66215 43.2003 2.56472 44.2655C2.21837 44.0959 2.45576 44.2363 1.98877 43.6716C2.51414 42.3484 3.93068 41.2334 5.00866 40.2168Z" fill="#010101"/>
</svg>
