<svg width="99" height="80" viewBox="0 0 99 80" fill="none" xmlns="http://www.w3.org/2000/svg">
<path d="M68.8103 23.5352C70.7289 23.8274 72.0637 23.9893 73.2506 25.673C77.5547 31.7716 82.139 42.2019 85.7193 49.071C89.2606 55.8546 94.993 65.3391 97.5615 72.2005C98.0012 73.3759 98.2658 74.7614 97.9662 76.0029C97.7405 76.9331 97.075 77.9839 96.2461 78.4743C95.1331 79.132 93.5609 79.1164 92.2961 79.167C82.6099 79.5718 2.97996 79.4473 0.454309 78.5443C0.31032 78.4898 0.166336 78.4314 0.022347 78.3731C-0.429079 75.2712 6.08158 70.6943 8.44767 68.5343C11.8217 65.452 17.9588 58.7112 22.1306 57.8433C24.6912 58.1391 29.439 64.6619 31.4198 66.927C43.3826 53.8775 56.0925 38.4228 67.7751 24.8712C68.2421 26.5681 69.3357 31.5458 70.7483 32.4293C71.476 30.3238 69.5925 25.7586 68.8103 23.5352Z" fill="#96C8EE"/>
<path d="M63.5646 52.5693C64.9345 53.0325 64.4791 52.6121 65.1641 53.6318C64.9072 56.2199 60.2373 62.9179 58.6417 65.4048L55.8047 63.8363C54.5867 63.0152 53.7616 62.6415 53.6099 61.1276L54.3532 60.6839C55.8242 60.5944 56.6297 61.2833 57.9412 62.05L63.5646 52.5693Z" fill="#FDFDFC"/>
<path d="M67.7752 24.8707C66.8763 21.8187 60.4357 1.83501 60.8171 0.284481L61.4125 0C70.4566 0.473254 80.2556 0.402806 89.3853 0.593119C85.4859 3.98412 69.0751 15.4022 67.2188 18.1296C67.7091 19.7946 68.3901 21.8876 68.8104 23.5347C69.5926 25.7581 71.4762 30.3233 70.7484 32.4288C69.3358 31.5453 68.2422 26.5676 67.7752 24.8707Z" fill="#58A72D"/>
<path d="M67.7752 24.8707C66.8763 21.8187 60.4357 1.83501 60.8171 0.284481L61.4125 0C62.1791 1.52095 67.2188 16.9725 67.2188 18.1296C67.7091 19.7946 68.3901 21.8876 68.8104 23.5347C69.5926 25.7581 71.4762 30.3233 70.7484 32.4288C69.3358 31.5453 68.2422 26.5676 67.7752 24.8707Z" fill="#010101"/>
<path d="M76.3796 2.3252C77.1657 2.68558 76.87 2.41433 77.2903 3.10319C76.9556 5.19236 76.6092 6.68374 76.0994 8.72503C75.8621 8.64408 75.5079 8.37866 75.2783 8.22726C75.2861 6.12953 75.862 4.36455 76.3796 2.3252Z" fill="#010101"/>
</svg>
