<svg width="99" height="96" viewBox="0 0 99 96" fill="none" xmlns="http://www.w3.org/2000/svg">
<path d="M26.3112 34.3004C26.7392 33.2496 26.7509 31.1519 26.8131 29.9181C27.1867 22.5197 30.3973 17.7093 36.0908 13.1051C49.5051 2.25066 73.5396 -1.28319 90.4564 0.398108L91.1491 0.935191C93.7915 1.98989 95.2314 3.62059 96.8075 5.94405C102.863 14.8759 93.4529 15.2885 87.0007 16.4677C87.4871 25.5787 90.7055 37.4879 92.9548 46.4314C96.8698 57.5194 99.8079 70.1331 97.4263 81.7737C96.3405 84.5214 96.0798 84.8327 93.3673 85.9847C89.4913 87.3663 80.0425 88.8102 74.7071 89.6314C62.363 91.5229 46.8316 96.0453 34.3862 95.7417C31.4636 95.6717 22.6141 89.6781 23.91 85.7084C25.5523 84.0505 30.3467 83.6262 32.8646 83.2059C33.3355 67.3426 31.7944 62.8202 28.2803 47.7119C25.2254 49.0079 21.9253 49.6267 18.6097 49.5294C11.2195 49.292 5.01627 46.159 0 40.8621C8.76389 34.0046 15.6054 31.1441 26.3112 34.3004Z" fill="#96C8EE"/>
<path d="M32.8645 83.206C43.7182 80.723 55.2373 78.8354 66.1766 76.6131C72.4966 75.3327 79.4392 74.3558 85.5879 72.5967C86.8799 77.8274 89.2927 82.4432 93.3672 85.9848C89.4912 87.3664 80.0424 88.8103 74.707 89.6315C62.3629 91.523 46.8315 96.0454 34.3861 95.7418C31.4636 95.6717 22.614 89.6782 23.9099 85.7085C25.5522 84.0505 30.3467 83.6263 32.8645 83.206Z" fill="#74A8E4"/>
<path d="M0 40.8622C8.76389 34.0046 15.6054 31.1441 26.3112 34.3004C29.4283 36.1802 32.7206 37.7486 33.7674 41.4265C29.8136 41.372 16.4965 40.5819 13.8347 41.2241L13.8386 41.586C17.6796 43.0922 28.6617 42.7497 33.6585 42.9287C31.9384 45.2016 30.8449 46.2057 28.2803 47.7119C25.2254 49.0079 21.9253 49.6267 18.6097 49.5294C11.2195 49.292 5.01627 46.159 0 40.8622Z" fill="#58A72D"/>
<path d="M91.1489 0.935547C93.7913 1.99025 95.2312 3.62095 96.8073 5.94441C102.863 14.8763 93.4527 15.2889 87.0005 16.4681C86.3155 9.24475 87.4052 6.99133 91.1489 0.935547Z" fill="#74A8E4"/>
<path d="M37.6939 33.117C37.1296 31.965 35.3628 28.8632 36.0516 27.7773C37.5226 28.9099 38.2387 30.7352 39.2 32.4554C40.5114 35.6117 44.9283 43.7691 44.8972 46.3922C43.7103 46.0225 43.1149 44.5164 42.535 43.4305C39.3984 43.1581 36.8027 42.9907 33.6583 42.9285C28.6615 42.7494 17.6794 43.0919 13.8384 41.5858L13.8345 41.2238C16.4963 40.5816 29.8134 41.3717 33.7672 41.4262C36.4991 41.6325 39.0092 41.6402 41.7489 41.6636C40.4375 38.6707 39.1649 36.0398 37.6939 33.117Z" fill="#010101"/>
<path d="M90.4563 0.398438L91.149 0.935521C87.4053 6.9913 86.3156 9.24472 87.0005 16.4681C87.487 25.579 90.7053 37.4882 92.9547 46.4317L92.0946 46.0893C89.4639 41.1388 85.9537 21.6093 85.689 15.4873C85.4283 9.43931 86.3039 5.01422 90.4563 0.398438Z" fill="#010101"/>
<path d="M33.3781 22.0605C39.6125 25.0184 40.0639 25.7112 39.2 32.4558C38.2388 30.7356 37.5227 28.9103 36.0517 27.7778C35.3628 28.8636 37.1297 31.9654 37.6939 33.1174C31.0899 30.541 31.3506 28.3771 33.3781 22.0605Z" fill="#58A72D"/>
<path d="M85.5879 72.5967C88.8413 73.8499 88.7479 82.0306 93.9354 84.4164C96.3131 83.7158 95.422 80.9643 97.4262 81.7738C96.3404 84.5215 96.0796 84.8328 93.3672 85.9848C89.2927 82.4432 86.8799 77.8274 85.5879 72.5967Z" fill="#010101"/>
<path d="M63.0793 13.1094C77.0463 14.1874 82.8836 37.9085 62.3827 40.1697C55.7242 39.1734 49.9023 34.4136 49.1512 27.4432C48.7971 24.1157 49.7933 20.7842 51.9104 18.1961C54.9653 14.456 58.6273 13.627 63.0793 13.1094Z" fill="#2C73DD"/>
<path d="M62.6353 26.2879C67.7761 25.9181 68.8307 27.3154 71.9751 31.0438C69.5701 33.6397 68.6361 34.2273 65.6007 35.6946C53.7119 38.1815 55.7433 28.7008 62.6353 26.2879Z" fill="#FDFDFC"/>
<path d="M61.2383 18.1532C62.4369 17.7018 63.7833 17.9353 64.7601 18.7642C65.733 19.5932 66.1806 20.8853 65.9276 22.1424C65.6785 23.3956 64.764 24.4114 63.542 24.8006C61.7247 25.3766 59.7789 24.3997 59.1562 22.5977C58.5297 20.7958 59.4559 18.8265 61.2383 18.1532Z" fill="#FDFDFC"/>
<path d="M60.0319 50.0859C61.8998 51.273 60.8491 53.7638 64.406 55.27C68.1926 55.1727 65.4801 54.044 67.5972 52.1331C68.7335 52.8103 68.5428 55.4529 68.823 55.7059C70.8194 57.5195 73.7459 57.4377 76.0808 59.3409L76.0575 59.9208C73.3645 60.2983 70.8583 57.3093 68.4066 58.8816C67.5349 60.7808 67.1068 62.252 67.6517 64.3264C69.3562 65.9376 73.5708 65.9804 74.2596 68.0081L73.7965 68.2611C72.0141 68.086 70.1578 67.1636 68.465 66.4592C67.6945 66.249 68.0836 66.2412 67.2897 66.6732C66.9278 67.7006 66.9006 67.938 66.2857 68.8565L65.6592 68.6775C65.6202 67.3659 65.6163 67.0663 65.3167 65.8053C63.7095 64.8245 62.682 64.521 60.9036 65.3032C60.3121 66.1088 60.098 66.5175 59.2497 67.0741C57.6891 62.8591 56.3815 64.4003 53.0231 63.2328L52.9959 62.6957C54.6965 62.2014 57.0315 62.5478 58.8761 62.6762C59.2341 60.1581 59.3431 57.8425 59.4909 55.305C57.3934 54.8769 53.7158 54.7951 52.4199 53.6509L52.6262 53.1411C54.4008 52.5145 56.5761 53.647 59.2185 53.3396C60.0319 52.3199 59.8645 51.5571 60.0319 50.0859Z" fill="#FDFDFC"/>
<path d="M61.0166 55.5742C62.7911 55.8467 64.5151 56.0296 65.7721 57.2516C66.7567 59.3221 66.0757 61.6067 65.7566 64.043C63.7524 63.8873 62.3825 63.3541 60.4951 62.7431C60.6936 60.3535 60.8687 57.9638 61.0166 55.5742Z" fill="#96C8EE"/>
</svg>
