<svg width="82" height="82" viewBox="0 0 82 82" fill="none" xmlns="http://www.w3.org/2000/svg">
<g clip-path="url(#clip0_56_4025)">
<path d="M74.6207 80.9066C74.4893 80.9067 74.3606 80.8689 74.2501 80.7977C74.1396 80.7265 74.052 80.6249 73.9978 80.5052C73.9435 80.3855 73.925 80.2527 73.9443 80.1227C73.9637 79.9927 74.0201 79.871 74.1068 79.7722L76.6625 76.8612L72.9903 78.9796C72.8429 79.0631 72.6698 79.089 72.5045 79.0521C72.3392 79.0152 72.1934 78.9183 72.0955 78.7801C71.9976 78.6418 71.9546 78.4722 71.9747 78.304C71.9948 78.1358 72.0767 77.9811 72.2044 77.8698L72.7948 77.3628L71.8928 77.8835C71.749 77.9686 71.579 77.9981 71.4149 77.9663C71.2509 77.9345 71.1041 77.8438 71.0025 77.7111C70.9008 77.5785 70.8513 77.4132 70.8632 77.2465C70.8752 77.0799 70.9478 76.9233 71.0674 76.8066L73.1898 74.6664L70.3294 76.3173C70.1838 76.4031 70.0116 76.4319 69.846 76.3982C69.6804 76.3644 69.5332 76.2705 69.4328 76.1346C69.3324 75.9987 69.2859 75.8304 69.3023 75.6622C69.3187 75.4941 69.3969 75.3379 69.5217 75.224L71.0674 73.7999L68.9941 74.9957C68.8465 75.0799 68.6727 75.106 68.5069 75.0689C68.341 75.0319 68.1949 74.9344 68.097 74.7954C67.9992 74.6564 67.9567 74.4859 67.9778 74.3173C67.9988 74.1486 68.082 73.9939 68.211 73.8833L68.6074 73.5484L67.924 73.9366C67.7843 74.0171 67.6206 74.0457 67.4618 74.0172C67.303 73.9886 67.1595 73.9048 67.0566 73.7806C66.9536 73.6564 66.898 73.4998 66.8994 73.3385C66.9008 73.1772 66.9593 73.0216 67.0644 72.8993L69.7554 69.771L65.9506 71.9672C65.8068 72.048 65.6387 72.0742 65.4773 72.0408C65.3158 72.0074 65.1718 71.9167 65.0719 71.7856C64.9721 71.6544 64.923 71.4915 64.9337 71.3269C64.9445 71.1624 65.0144 71.0073 65.1306 70.8903L67.1396 68.9045L64.4418 70.4611C64.3005 70.5423 64.1349 70.5704 63.9748 70.5403C63.8147 70.5102 63.6707 70.4238 63.5686 70.2969C63.4665 70.1699 63.4132 70.0106 63.4182 69.8478C63.4232 69.685 63.4862 69.5293 63.5958 69.4088L66.1105 66.655L62.6364 68.6585C62.4943 68.7397 62.3279 68.7673 62.1672 68.7362C62.0065 68.7051 61.8624 68.6173 61.7609 68.4889C61.6595 68.3605 61.6075 68.1999 61.6144 68.0364C61.6213 67.8729 61.6867 67.7174 61.7986 67.598L64.163 65.1024L62.2701 66.1958C62.1311 66.2758 61.9683 66.3043 61.8103 66.2763C61.6523 66.2483 61.5092 66.1657 61.4061 66.0428C61.3029 65.9199 61.2463 65.7647 61.2461 65.6042C61.2459 65.4438 61.3022 65.2884 61.405 65.1653L62.3822 63.9968C62.2762 63.9376 62.1884 63.8507 62.128 63.7453C62.0374 63.5884 62.0128 63.4019 62.0597 63.2268C62.1066 63.0518 62.2212 62.9025 62.3781 62.8119L64.4131 61.6366C64.5522 61.5557 64.7153 61.5266 64.8738 61.5542C65.0323 61.5818 65.1759 61.6645 65.2794 61.7876C65.383 61.9107 65.4397 62.0664 65.4398 62.2273C65.4398 62.3882 65.383 62.5439 65.2795 62.667L64.931 63.077L67.5496 61.5655C67.6916 61.4843 67.8581 61.4567 68.0188 61.4878C68.1794 61.5189 68.3236 61.6067 68.425 61.7351C68.5265 61.8635 68.5785 62.0241 68.5715 62.1876C68.5646 62.3511 68.4993 62.5067 68.3873 62.626L66.0244 65.1216L69.2483 63.2602C69.3896 63.179 69.5552 63.1509 69.7153 63.181C69.8754 63.2111 70.0194 63.2975 70.1215 63.4244C70.2236 63.5514 70.2769 63.7107 70.2719 63.8735C70.2669 64.0363 70.2039 64.192 70.0943 64.3125L67.581 67.065L71.0496 65.0628C71.1935 64.9809 71.3622 64.954 71.5245 64.9871C71.6867 65.0203 71.8314 65.1112 71.9316 65.243C72.0318 65.3748 72.0808 65.5385 72.0694 65.7037C72.058 65.8689 71.987 66.0243 71.8696 66.1411L69.8647 68.1269L72.5584 66.5716C72.6981 66.491 72.8619 66.4625 73.0206 66.491C73.1794 66.5196 73.323 66.6034 73.4259 66.7276C73.5288 66.8518 73.5845 67.0084 73.583 67.1697C73.5816 67.331 73.5232 67.4866 73.418 67.6089L70.7271 70.7372L74.5291 68.541C74.677 68.455 74.8517 68.4277 75.0188 68.4643C75.1858 68.5009 75.3331 68.5989 75.4314 68.7388C75.5298 68.8787 75.5721 69.0504 75.5501 69.22C75.528 69.3896 75.4431 69.5447 75.3122 69.6548L74.9132 69.9924L75.5897 69.6029C75.7352 69.5183 75.9069 69.4905 76.0717 69.5247C76.2365 69.5589 76.3829 69.6527 76.4828 69.7882C76.5827 69.9237 76.6291 70.0912 76.6131 70.2588C76.5971 70.4264 76.5198 70.5821 76.396 70.6962L74.8544 72.1312L76.9235 70.9367C77.0667 70.8542 77.235 70.8263 77.3972 70.8583C77.5594 70.8903 77.7044 70.98 77.8055 71.1108C77.9066 71.2416 77.9569 71.4046 77.947 71.5696C77.9371 71.7346 77.8677 71.8904 77.7517 72.0082L75.6293 74.1498L78.487 72.5002C78.6339 72.4226 78.8041 72.4013 78.9657 72.4401C79.1272 72.4789 79.2691 72.5753 79.3647 72.7111C79.4604 72.847 79.5033 73.013 79.4853 73.1782C79.4674 73.3434 79.3899 73.4964 79.2674 73.6086L78.6756 74.1156L79.5667 73.6017C79.707 73.5204 79.8716 73.4917 80.0311 73.5206C80.1907 73.5495 80.3348 73.6342 80.4376 73.7595C80.5405 73.8849 80.5954 74.0427 80.5926 74.2048C80.5897 74.367 80.5294 74.5228 80.4222 74.6445L77.8652 77.5569L80.0874 76.2749C80.1651 76.2255 80.2521 76.1923 80.3431 76.1773C80.434 76.1624 80.527 76.166 80.6165 76.1879C80.706 76.2098 80.7902 76.2496 80.8639 76.3049C80.9377 76.3602 80.9994 76.4299 81.0456 76.5096C81.0917 76.5894 81.1212 76.6777 81.1323 76.7692C81.1434 76.8607 81.1359 76.9535 81.1102 77.042C81.0846 77.1305 81.0412 77.2129 80.9829 77.2843C80.9245 77.3556 80.8524 77.4144 80.7707 77.4571L74.9596 80.8123C74.857 80.8731 74.74 80.9056 74.6207 80.9066Z" fill="#937155"/>
<path d="M60.6795 67.1033C60.548 67.1031 60.4194 67.065 60.3091 66.9936C60.1987 66.9221 60.1113 66.8203 60.0574 66.7004C60.0034 66.5806 59.9852 66.4477 60.0049 66.3177C60.0246 66.1877 60.0813 66.0662 60.1683 65.9676L62.791 63.0033L59.1078 65.1258C58.9637 65.2088 58.7943 65.2365 58.6313 65.2036C58.4683 65.1708 58.3228 65.0795 58.2223 64.9471C58.1217 64.8147 58.0728 64.6501 58.0849 64.4842C58.097 64.3183 58.1691 64.1626 58.2878 64.0461L60.2585 62.115L57.6072 63.6443C57.4669 63.7247 57.3027 63.7528 57.1437 63.7235C56.9847 63.6943 56.8412 63.6096 56.7387 63.4845C56.6362 63.3594 56.5814 63.2021 56.5841 63.0404C56.5867 62.8787 56.6466 62.7232 56.753 62.6015L60.8749 57.9275C60.794 57.7714 60.7765 57.5901 60.8258 57.4213C60.8752 57.2526 60.9878 57.1093 61.14 57.0214L62.3249 56.3381C62.4652 56.2577 62.6295 56.2296 62.7885 56.2588C62.9475 56.2881 63.091 56.3728 63.1935 56.4979C63.2959 56.623 63.3507 56.7803 63.3481 56.942C63.3454 57.1037 63.2856 57.2592 63.1791 57.3809L60.5428 60.3752L64.2519 58.2337C64.396 58.1506 64.5654 58.1229 64.7285 58.1558C64.8915 58.1887 65.0369 58.2799 65.1375 58.4123C65.2381 58.5447 65.2869 58.7093 65.2749 58.8752C65.2628 59.0411 65.1906 59.1968 65.0719 59.3133L63.1026 61.2444L65.7525 59.7151C65.8929 59.6347 66.0573 59.6068 66.2164 59.6362C66.3755 59.6656 66.519 59.7506 66.6213 59.8759C66.7237 60.0012 66.7782 60.1587 66.7753 60.3205C66.7724 60.4823 66.7122 60.6377 66.6053 60.7593L63.8228 63.9026C63.9499 63.8905 64.0778 63.9163 64.1902 63.9769C64.3026 64.0375 64.3945 64.13 64.4542 64.2429C64.5445 64.3995 64.569 64.5856 64.5224 64.7603C64.4758 64.935 64.3618 65.0841 64.2055 65.175L61.0211 67.0118C60.9175 67.0724 60.7995 67.104 60.6795 67.1033Z" fill="#B8CEDD"/>
<path d="M33.4832 70.2755C33.3366 70.2754 33.1939 70.2281 33.0762 70.1407C32.9585 70.0532 32.8721 69.9303 32.8296 69.7899C32.7872 69.6496 32.791 69.4993 32.8405 69.3614C32.89 69.2234 32.9826 69.1049 33.1046 69.0236L49.8053 57.8839L29.4419 69.6372C29.2881 69.722 29.1076 69.7442 28.9378 69.6994C28.7681 69.6545 28.622 69.5461 28.5301 69.3965C28.4382 69.2469 28.4073 69.0676 28.444 68.8959C28.4807 68.7242 28.5821 68.5732 28.7272 68.4742L46.4036 57.0038L25.987 68.7899C25.8323 68.8783 25.6491 68.9028 25.4766 68.8581C25.3041 68.8134 25.1558 68.7031 25.0635 68.5507C24.9712 68.3983 24.942 68.2158 24.9823 68.0422C25.0226 67.8686 25.129 67.7176 25.2791 67.6214L40.3288 58.1026L23.3821 67.8824C23.228 67.9672 23.047 67.9893 22.877 67.944C22.707 67.8987 22.561 67.7896 22.4694 67.6394C22.3778 67.4891 22.3477 67.3094 22.3853 67.1375C22.423 66.9656 22.5255 66.8149 22.6715 66.7167L45.6301 51.9334L20.3632 66.5185C20.2078 66.6044 20.0252 66.6265 19.8539 66.5801C19.6825 66.5336 19.536 66.4224 19.4453 66.2699C19.3545 66.1173 19.3267 65.9354 19.3677 65.7627C19.4086 65.59 19.5152 65.4401 19.6648 65.3446L25.7123 61.6368L18.7628 65.6479C18.6079 65.7296 18.4276 65.7486 18.2591 65.7012C18.0906 65.6538 17.9467 65.5435 17.8571 65.3931C17.7675 65.2427 17.7391 65.0636 17.7777 64.8929C17.8162 64.7221 17.9189 64.5726 18.0644 64.4753L25.5182 59.9011L17.2198 64.6926C17.0649 64.778 16.8829 64.7999 16.7121 64.7538C16.5414 64.7078 16.3951 64.5973 16.3042 64.4456C16.2132 64.2939 16.1846 64.1128 16.2243 63.9405C16.2641 63.7681 16.3691 63.6179 16.5174 63.5214L33.2413 53.1348L15.4008 63.4258C15.2465 63.5094 15.066 63.5304 14.8966 63.4845C14.7272 63.4387 14.582 63.3294 14.491 63.1794C14.3999 63.0293 14.3702 62.85 14.4077 62.6786C14.4453 62.5072 14.5474 62.3568 14.6929 62.2586L41.2417 45.3994L13.1786 61.5999C13.0238 61.6825 12.8432 61.7025 12.6741 61.6556C12.505 61.6088 12.3605 61.4986 12.2703 61.3481C12.1802 61.1976 12.1515 61.0181 12.19 60.8469C12.2286 60.6758 12.3315 60.526 12.4775 60.4286L29.8724 49.6661L11.6684 60.1758C11.5132 60.2633 11.3299 60.2866 11.1577 60.2409C10.9855 60.1952 10.838 60.0841 10.7465 59.9311C10.6551 59.7782 10.627 59.5956 10.6683 59.4223C10.7095 59.2489 10.8168 59.0986 10.9673 59.0032L28.3554 48.2639L10.2881 58.6943C10.1334 58.7781 9.95244 58.799 9.78275 58.7527C9.61306 58.7064 9.46777 58.5965 9.37709 58.4458C9.28642 58.2951 9.25735 58.1152 9.29594 57.9436C9.33452 57.772 9.4378 57.6219 9.58426 57.5245L34.1091 42.1754L8.7465 56.8193C8.5921 56.9018 8.41193 56.9219 8.24313 56.8755C8.07434 56.829 7.92981 56.7196 7.83936 56.5697C7.7489 56.4198 7.71942 56.2409 7.757 56.07C7.79457 55.899 7.89634 55.7489 8.0413 55.6508L35.2694 38.5128L7.24316 54.69C7.08803 54.7837 6.90203 54.8119 6.72608 54.7685C6.55013 54.7251 6.39864 54.6135 6.30495 54.4584C6.21125 54.3032 6.18302 54.1172 6.22646 53.9413C6.2699 53.7653 6.38146 53.6138 6.5366 53.5201L34.9578 35.5826L5.86283 52.3803C5.70779 52.4644 5.52625 52.4853 5.35618 52.4386C5.18611 52.3919 5.04068 52.2813 4.9503 52.1298C4.85993 51.9784 4.83161 51.7978 4.87127 51.626C4.91093 51.4541 5.01549 51.3043 5.1631 51.2078L21.1531 41.3677L5.01276 50.6939C4.85709 50.7867 4.67092 50.8138 4.49523 50.7693C4.31954 50.7249 4.1687 50.6124 4.07591 50.4568C3.98312 50.3011 3.95598 50.1149 4.00044 49.9392C4.04491 49.7635 4.15735 49.6127 4.31303 49.5199L19.1127 40.4329L4.27066 49.0006C4.11702 49.0756 3.94084 49.0903 3.77689 49.0417C3.61295 48.9932 3.47316 48.885 3.38512 48.7384C3.29708 48.5918 3.26718 48.4176 3.30133 48.25C3.33547 48.0825 3.43118 47.9339 3.56956 47.8335L22.9202 35.8546L3.54223 47.038C3.3873 47.1234 3.20532 47.1453 3.03455 47.0992C2.86378 47.0532 2.71753 46.9427 2.62655 46.791C2.53558 46.6393 2.50696 46.4582 2.54673 46.2859C2.58649 46.1135 2.69153 45.9633 2.83976 45.8668L23.9356 32.7468L2.88896 44.8965C2.73292 44.9896 2.54627 45.017 2.37006 44.9725C2.19386 44.9281 2.04253 44.8154 1.94938 44.6594C1.85623 44.5033 1.82888 44.3167 1.87334 44.1405C1.91781 43.9643 2.03046 43.8129 2.1865 43.7198L16.5215 34.8966L2.4448 43.0242C2.28976 43.1082 2.10822 43.1291 1.93815 43.0824C1.76808 43.0357 1.62265 42.9251 1.53227 42.7736C1.4419 42.6222 1.41358 42.4416 1.45324 42.2698C1.49289 42.0979 1.59746 41.9481 1.74506 41.8515L14.7407 33.8565L2.11953 41.1436C1.96509 41.2299 1.78319 41.253 1.6121 41.2079C1.441 41.1629 1.29405 41.0532 1.20217 40.902C1.11028 40.7508 1.08062 40.5699 1.11943 40.3973C1.15823 40.2246 1.26248 40.0738 1.41023 39.9765L27.2471 23.5368L1.81886 38.2176C1.74214 38.2642 1.65699 38.2952 1.56828 38.3088C1.47958 38.3225 1.38905 38.3186 1.30186 38.2972C1.12578 38.2542 0.974023 38.1429 0.879964 37.988C0.785905 37.833 0.757253 37.6471 0.800311 37.471C0.843369 37.2949 0.954611 37.1431 1.10956 37.0491L24.4946 22.1838L1.7765 35.3038C1.62221 35.3875 1.44167 35.4085 1.27229 35.3626C1.10291 35.3168 0.957665 35.2075 0.866657 35.0574C0.775649 34.9074 0.745852 34.7281 0.78344 34.5567C0.821029 34.3853 0.923121 34.2349 1.06856 34.1367L21.2023 21.3693L1.9446 32.483C1.78964 32.5778 1.60339 32.6072 1.42679 32.5646C1.2502 32.5221 1.09775 32.4111 1.00296 32.2562C0.90818 32.1012 0.878833 31.915 0.921378 31.7384C0.963924 31.5618 1.07488 31.4093 1.22983 31.3145L19.494 19.6979L2.3833 29.5748C2.22907 29.6645 2.04587 29.6903 1.87286 29.6467C1.69986 29.6031 1.55075 29.4936 1.45742 29.3416C1.36408 29.1895 1.33391 29.007 1.37336 28.833C1.41281 28.659 1.51874 28.5073 1.66853 28.4104L21.9594 15.1441L3.30443 25.9148C3.1493 26.0085 2.9633 26.0368 2.78735 25.9933C2.6114 25.9499 2.45991 25.8383 2.36621 25.6832C2.27252 25.5281 2.24428 25.3421 2.28773 25.1661C2.33117 24.9902 2.44273 24.8387 2.59786 24.745L10.5054 19.7566L4.21873 23.3879C4.06562 23.4727 3.88581 23.4955 3.71636 23.4516C3.54692 23.4078 3.40078 23.3006 3.30806 23.1521C3.21534 23.0036 3.18312 22.8253 3.21805 22.6538C3.25297 22.4823 3.35238 22.3307 3.49576 22.2303L18.6999 12.0049L6.25096 19.1922C6.09886 19.2777 5.91984 19.3017 5.75058 19.2594C5.58133 19.2171 5.43466 19.1117 5.34065 18.9647C5.24663 18.8177 5.21239 18.6404 5.24494 18.469C5.27748 18.2976 5.37436 18.1451 5.5157 18.0428L16.8303 10.0588L9.80293 14.1164C9.65128 14.2034 9.47203 14.229 9.30208 14.1879C9.13213 14.1468 8.98442 14.0421 8.88933 13.8953C8.79425 13.7486 8.75904 13.571 8.79094 13.3991C8.82284 13.2272 8.91943 13.074 9.06083 12.9711L14.1817 9.26885C14.0676 9.21026 13.9728 9.12013 13.9084 9.00918C13.8177 8.8524 13.7929 8.66601 13.8396 8.49098C13.8862 8.31595 14.0004 8.16659 14.1571 8.07575L22.4815 3.27055C22.6332 3.17087 22.8183 3.13554 22.996 3.17231C23.1737 3.20909 23.3296 3.31497 23.4293 3.46667C23.529 3.61836 23.5643 3.80343 23.5275 3.98117C23.4907 4.15892 23.3849 4.31477 23.2332 4.41445L20.6775 6.25945L29.1713 1.35585C29.3234 1.2704 29.5025 1.24636 29.6717 1.28866C29.841 1.33097 29.9876 1.4364 30.0817 1.58337C30.1757 1.73033 30.2099 1.90769 30.1774 2.07909C30.1448 2.25049 30.0479 2.40294 29.9066 2.50521L18.5865 10.4934L35.3391 0.820115C35.4923 0.732789 35.6734 0.708089 35.8444 0.751182C36.0154 0.794274 36.1632 0.901822 36.2567 1.05133C36.3503 1.20084 36.3824 1.38073 36.3464 1.55338C36.3103 1.72603 36.209 1.87806 36.0634 1.97768L20.8524 12.2058L39.9858 1.15905C40.1402 1.07653 40.3203 1.05642 40.4891 1.10286C40.6579 1.1493 40.8024 1.25875 40.8929 1.40863C40.9834 1.55851 41.0128 1.73739 40.9753 1.90838C40.9377 2.07936 40.8359 2.2294 40.691 2.32755L32.7848 7.31725L42.6248 1.63738C42.7792 1.54242 42.965 1.51268 43.1414 1.55471C43.3177 1.59675 43.4701 1.70711 43.5651 1.86151C43.66 2.01592 43.6898 2.20173 43.6477 2.37807C43.6057 2.5544 43.4953 2.70682 43.3409 2.80178L23.0459 16.0694L46.2642 2.66375C46.419 2.57532 46.6021 2.55084 46.7746 2.59553C46.9471 2.64021 47.0954 2.75053 47.1877 2.90295C47.2801 3.05537 47.3092 3.23784 47.269 3.41144C47.2287 3.58504 47.1222 3.73605 46.9722 3.83225L28.7149 15.4489L49.0017 3.73658C49.1564 3.64816 49.3395 3.62368 49.5121 3.66836C49.6846 3.71305 49.8328 3.82336 49.9252 3.97578C50.0175 4.1282 50.0466 4.31067 50.0064 4.48427C49.9661 4.65788 49.8596 4.80888 49.7096 4.90508L29.5827 17.6697L51.5478 4.98708C51.7025 4.89866 51.8856 4.87418 52.0582 4.91886C52.2307 4.96355 52.3789 5.07386 52.4713 5.22628C52.5636 5.37871 52.5928 5.56117 52.5525 5.73477C52.5122 5.90838 52.4057 6.05938 52.2557 6.15558L28.8748 21.0194L54.0351 6.49315C54.1895 6.40682 54.3714 6.38376 54.5425 6.42882C54.7136 6.47388 54.8606 6.58354 54.9525 6.73474C55.0443 6.88593 55.074 7.06688 55.0352 7.2395C54.9964 7.41212 54.8922 7.56296 54.7444 7.66028L28.8994 24.1054L56.4076 8.22472C56.5627 8.14065 56.7442 8.11978 56.9143 8.16647C57.0844 8.21316 57.2298 8.32381 57.3202 8.47526C57.4105 8.62671 57.4389 8.80723 57.3992 8.97908C57.3595 9.15093 57.255 9.30079 57.1074 9.39732L44.135 17.3786L57.87 9.45198C58.0248 9.37036 58.2051 9.35129 58.3737 9.39872C58.5422 9.44614 58.6861 9.55643 58.7757 9.70684C58.8652 9.85725 58.8937 10.0363 58.8551 10.2071C58.8165 10.3778 58.7139 10.5273 58.5683 10.6246L44.2457 19.4423L59.2722 10.764C59.4271 10.6787 59.6091 10.6567 59.7799 10.7028C59.9506 10.7489 60.0969 10.8594 60.1878 11.0111C60.2788 11.1628 60.3074 11.3438 60.2677 11.5162C60.2279 11.6885 60.1229 11.8387 59.9746 11.9352L38.8692 25.0634L60.8015 12.4012C60.9563 12.3196 61.1366 12.3006 61.3052 12.348C61.4737 12.3954 61.6176 12.5057 61.7072 12.6561C61.7967 12.8065 61.8252 12.9856 61.7866 13.1563C61.748 13.3271 61.6454 13.4766 61.4998 13.5738L42.1711 25.5404L62.1367 14.0139C62.2917 13.9298 62.4733 13.909 62.6434 13.9557C62.8134 14.0024 62.9589 14.113 63.0492 14.2645C63.1396 14.4159 63.1679 14.5964 63.1283 14.7683C63.0886 14.9401 62.984 15.09 62.8364 15.1865L47.9931 24.3008L63.2341 15.5036C63.389 15.422 63.5693 15.4029 63.7378 15.4503C63.9063 15.4977 64.0502 15.608 64.1398 15.7584C64.2294 15.9089 64.2578 16.0879 64.2193 16.2587C64.1807 16.4294 64.078 16.5789 63.9325 16.6762L47.9698 26.4929L64.2701 17.0834C64.4252 16.9898 64.6112 16.9615 64.7872 17.005C64.9631 17.0484 65.1146 17.16 65.2083 17.3151C65.302 17.4702 65.3302 17.6562 65.2868 17.8322C65.2433 18.0081 65.1318 18.1596 64.9766 18.2533L36.55 36.1977L65.5848 19.4314C65.7393 19.3464 65.9208 19.3245 66.0911 19.3701C66.2615 19.4158 66.4076 19.5256 66.4988 19.6766C66.5901 19.8275 66.6195 20.0079 66.5808 20.1799C66.5421 20.352 66.4384 20.5025 66.2914 20.5999L39.0687 37.7351L66.6932 21.7889C66.8485 21.6954 67.0346 21.6674 67.2105 21.7111C67.3865 21.7548 67.5379 21.8666 67.6314 22.0219C67.7249 22.1772 67.7529 22.3633 67.7092 22.5393C67.6655 22.7152 67.5537 22.8666 67.3984 22.9601L42.8708 38.305L67.5364 24.0644C67.6921 23.9714 67.8783 23.9441 68.0541 23.9884C68.23 24.0328 68.381 24.1451 68.4739 24.3008C68.5669 24.4565 68.5942 24.6427 68.5499 24.8186C68.5056 24.9944 68.3932 25.1454 68.2375 25.2383L50.8398 35.979L68.1213 26.0023C68.2764 25.9182 68.4579 25.8974 68.628 25.9441C68.798 25.9908 68.9435 26.1014 69.0339 26.2529C69.1242 26.4043 69.1526 26.5848 69.1129 26.7567C69.0732 26.9285 68.9687 27.0784 68.8211 27.1749L51.4138 37.9483L68.6133 28.0168C68.7676 27.9332 68.9482 27.9121 69.1175 27.958C69.2869 28.0039 69.4322 28.1131 69.5232 28.2632C69.6142 28.4132 69.644 28.5925 69.6064 28.7639C69.5688 28.9353 69.4667 29.0857 69.3213 29.1839L42.7669 46.0486L69.0657 30.8663C69.2206 30.781 69.4026 30.759 69.5734 30.8051C69.7442 30.8512 69.8904 30.9617 69.9814 31.1134C70.0723 31.2651 70.101 31.4461 70.0612 31.6185C70.0214 31.7908 69.9164 31.941 69.7682 32.0375L53.0593 42.4242L69.2639 33.0694C69.4192 32.9835 69.6019 32.9614 69.7732 33.0078C69.9445 33.0542 70.091 33.1655 70.1818 33.318C70.2725 33.4706 70.3004 33.6524 70.2594 33.8251C70.2184 33.9978 70.1118 34.1478 69.9622 34.2433L62.5139 38.8134L69.3158 34.887C69.4711 34.8011 69.6538 34.7791 69.8251 34.8255C69.9964 34.8719 70.143 34.9831 70.2337 35.1357C70.3245 35.2882 70.3523 35.4701 70.3113 35.6428C70.2703 35.8155 70.1638 35.9655 70.0142 36.061L63.9598 39.7701L69.2748 36.7006C69.4291 36.6127 69.6116 36.5884 69.7836 36.6328C69.9555 36.6771 70.1034 36.7867 70.196 36.9383C70.2886 37.0898 70.3185 37.2714 70.2795 37.4447C70.2404 37.6179 70.1355 37.7692 69.9868 37.8663L47.0323 52.6537L68.94 40.0052C69.0951 39.9113 69.2812 39.8829 69.4573 39.9262C69.6333 39.9695 69.785 40.081 69.8789 40.2361C69.9727 40.3913 70.0012 40.5774 69.9578 40.7534C69.9145 40.9295 69.803 41.0812 69.6479 41.175L54.5886 50.7034L68.4179 42.7207C68.5716 42.6383 68.751 42.6177 68.9194 42.6632C69.0877 42.7087 69.2323 42.8169 69.3235 42.9655C69.4147 43.1142 69.4456 43.2921 69.4099 43.4629C69.3742 43.6336 69.2745 43.7842 69.1313 43.8838L51.4712 55.3433L67.4312 46.1292C67.5848 46.0419 67.7662 46.0174 67.9375 46.0609C68.1087 46.1045 68.2564 46.2127 68.3496 46.3628C68.4428 46.5129 68.4742 46.6933 68.4372 46.8661C68.4003 47.0389 68.2978 47.1906 68.1514 47.2895L51.4466 58.4319L65.7187 50.1923C65.8716 50.1085 66.0508 50.0863 66.2195 50.1303C66.3882 50.1742 66.5337 50.281 66.6263 50.4287C66.7189 50.5765 66.7514 50.754 66.7174 50.925C66.6833 51.096 66.5852 51.2475 66.4431 51.3485L54.4806 59.457L63.2054 54.4194C63.3572 54.3336 63.536 54.3091 63.7053 54.3509C63.8746 54.3926 64.0215 54.4975 64.1159 54.644C64.2104 54.7905 64.2453 54.9676 64.2135 55.139C64.1817 55.3104 64.0856 55.4632 63.9448 55.5661L56.6618 60.7867L58.8485 59.5239C59.0047 59.4422 59.1864 59.424 59.3556 59.4731C59.5249 59.5222 59.6687 59.6348 59.7569 59.7874C59.8451 59.94 59.8709 60.1208 59.829 60.292C59.787 60.4632 59.6806 60.6115 59.5318 60.7061L45.3048 68.9198C45.1531 69.0055 44.9742 69.03 44.805 68.9883C44.6357 68.9465 44.4888 68.8417 44.3943 68.6952C44.2999 68.5486 44.265 68.3716 44.2968 68.2001C44.3286 68.0287 44.4247 67.876 44.5655 67.7731L51.8416 62.5579L38.7421 70.1224C38.5887 70.2133 38.4059 70.2406 38.2327 70.1986C38.0595 70.1566 37.9095 70.0485 37.8148 69.8975C37.7201 69.7465 37.6882 69.5644 37.7259 69.3902C37.7635 69.2159 37.8678 69.0633 38.0164 68.9649L49.9843 60.8523L33.8235 70.1839C33.72 70.2437 33.6027 70.2752 33.4832 70.2755Z" fill="#C7DDF0"/>
<path d="M37.3593 64.8156C37.2134 64.8154 37.0714 64.7684 36.9541 64.6816C36.8367 64.5948 36.7503 64.4728 36.7074 64.3333C36.6644 64.1938 36.6673 64.0443 36.7155 63.9065C36.7637 63.7688 36.8547 63.6501 36.9753 63.5679L45.6468 57.6734L33.5094 64.6803C33.3557 64.76 33.1776 64.7784 33.0109 64.7317C32.8442 64.6851 32.7014 64.577 32.6113 64.4292C32.5213 64.2813 32.4907 64.1048 32.5257 63.9353C32.5608 63.7658 32.6588 63.6159 32.8001 63.5159L43.1348 56.7004L30.1515 64.1993C29.9978 64.2906 29.8144 64.318 29.6406 64.2756C29.4669 64.2333 29.3167 64.1245 29.2223 63.9726C29.1278 63.8208 29.0967 63.638 29.1355 63.4634C29.1743 63.2889 29.28 63.1365 29.4299 63.039L45.6932 52.1945L26.5667 63.2303C26.4122 63.3153 26.2308 63.3372 26.0604 63.2915C25.8901 63.2458 25.744 63.136 25.6527 62.9851C25.5615 62.8342 25.5321 62.6538 25.5708 62.4817C25.6094 62.3096 25.7131 62.1592 25.8602 62.0618L35.7139 55.8161L24.3623 62.3761C24.2083 62.4622 24.0269 62.4853 23.8561 62.4407C23.6854 62.396 23.5385 62.2871 23.4463 62.1366C23.3541 61.9861 23.3237 61.8058 23.3615 61.6334C23.3993 61.461 23.5023 61.3099 23.6489 61.2117L41.868 49.3778L21.6891 61.0259C21.5342 61.1112 21.3522 61.1331 21.1814 61.087C21.0107 61.041 20.8644 60.9305 20.7734 60.7788C20.6825 60.6271 20.6538 60.446 20.6936 60.2737C20.7334 60.1013 20.8384 59.9511 20.9867 59.8546L28.1002 55.4348L20.1065 60.0487C19.9512 60.1422 19.7651 60.1702 19.5891 60.1265C19.4132 60.0828 19.2618 59.971 19.1683 59.8157C19.0748 59.6604 19.0468 59.4743 19.0905 59.2983C19.1342 59.1224 19.246 58.971 19.4013 58.8775L31.7833 51.1148L18.4091 58.8365C18.254 58.9259 18.0699 58.9509 17.8965 58.906C17.7231 58.8611 17.5743 58.75 17.4821 58.5965C17.3898 58.443 17.3615 58.2594 17.4033 58.0852C17.445 57.911 17.5535 57.7602 17.7053 57.6652L29.7443 50.1486L16.8771 57.5764C16.7218 57.6699 16.5357 57.6979 16.3597 57.6542C16.1838 57.6105 16.0324 57.4987 15.9389 57.3434C15.8454 57.1881 15.8174 57.002 15.8611 56.826C15.9048 56.6501 16.0166 56.4987 16.1719 56.4052L31.2476 46.9478L15.356 56.1209C15.2014 56.2059 15.02 56.2278 14.8497 56.1821C14.6793 56.1364 14.5332 56.0266 14.442 55.8757C14.3507 55.7248 14.3213 55.5444 14.36 55.3723C14.3987 55.2002 14.5024 55.0498 14.6494 54.9524L33.3345 43.1376L13.8158 54.4071C13.6606 54.4966 13.4765 54.5215 13.3032 54.4766C13.1298 54.4318 12.9809 54.3206 12.8887 54.1671C12.7964 54.0136 12.7682 53.83 12.8099 53.6558C12.8516 53.4817 12.9601 53.3309 13.1119 53.2359L29.0172 43.2742L12.5516 52.7808C12.3968 52.8675 12.2143 52.8906 12.0427 52.8452C11.8711 52.7998 11.724 52.6894 11.6323 52.5374C11.5407 52.3854 11.5118 52.2037 11.5518 52.0308C11.5917 51.8579 11.6974 51.7073 11.8464 51.6109L28.4938 41.175L11.4104 51.0383C11.2553 51.1277 11.0712 51.1527 10.8978 51.1078C10.7244 51.0629 10.5756 50.9518 10.4834 50.7983C10.3911 50.6448 10.3628 50.4612 10.4046 50.287C10.4463 50.1128 10.5548 49.962 10.7066 49.867L26.2401 40.1541L10.4223 49.2876C10.2678 49.3725 10.0863 49.3945 9.916 49.3488C9.74565 49.3031 9.59956 49.1933 9.5083 49.0424C9.41704 48.8914 9.38767 48.7111 9.42633 48.539C9.46499 48.3669 9.5687 48.2164 9.71575 48.1191L27.3758 37.0149L9.49435 47.3387C9.3398 47.4237 9.15838 47.4456 8.98803 47.3999C8.81768 47.3542 8.6716 47.2444 8.58033 47.0935C8.48907 46.9426 8.4597 46.7622 8.49836 46.5901C8.53703 46.418 8.64073 46.2676 8.78778 46.1702L28.7411 33.5149L8.66478 45.1083C8.51014 45.1989 8.32609 45.2252 8.15229 45.1814C7.97849 45.1375 7.82885 45.0272 7.73564 44.8741C7.64242 44.721 7.61308 44.5374 7.65395 44.3629C7.69482 44.1884 7.80262 44.0369 7.95412 43.9412L29.4108 30.2116L7.95412 42.6032C7.79844 42.6919 7.61414 42.7159 7.44093 42.6701C7.26771 42.6242 7.11944 42.5122 7.02804 42.358C6.93665 42.2039 6.90944 42.0201 6.95229 41.8461C6.99513 41.6721 7.1046 41.5219 7.25712 41.4279L8.20012 40.8634L7.66575 41.1696C7.51071 41.2536 7.32917 41.2745 7.1591 41.2278C6.98903 41.1811 6.8436 41.0705 6.75322 40.919C6.66285 40.7676 6.63453 40.587 6.67419 40.4152C6.71385 40.2433 6.81841 40.0935 6.96602 39.997L13.4522 35.9885L7.41565 39.4735C7.26092 39.562 7.07777 39.5864 6.90525 39.5417C6.73273 39.4971 6.5845 39.3867 6.49215 39.2343C6.39981 39.0819 6.37067 38.8994 6.41094 38.7258C6.4512 38.5522 6.5577 38.4012 6.70772 38.305L22.3602 28.3858L7.24345 37.101C7.08964 37.1857 6.90912 37.2079 6.73934 37.1631C6.56957 37.1183 6.42357 37.0098 6.33163 36.8602C6.23969 36.7106 6.20886 36.5314 6.24555 36.3596C6.28225 36.1879 6.38363 36.0369 6.52868 35.938L25.9668 23.3018L7.29538 34.0834C7.14157 34.1681 6.96105 34.1903 6.79128 34.1455C6.6215 34.1007 6.4755 33.9922 6.38356 33.8426C6.29162 33.693 6.2608 33.5138 6.29749 33.342C6.33418 33.1703 6.43557 33.0193 6.58062 32.9204L23.5628 21.8504L7.66985 31.033C7.51519 31.1168 7.33419 31.1377 7.1645 31.0914C6.99482 31.0451 6.84952 30.9351 6.75884 30.7844C6.66817 30.6337 6.6391 30.4538 6.67769 30.2822C6.71628 30.1106 6.81955 29.9605 6.96602 29.8631L11.6974 26.892L8.13315 28.942C7.97901 29.0343 7.79471 29.0622 7.62016 29.0196C7.4456 28.977 7.29484 28.8674 7.2005 28.7145C7.10617 28.5616 7.07585 28.3777 7.11612 28.2026C7.15639 28.0275 7.264 27.8753 7.41565 27.779L20.0956 19.4286L9.16225 25.7399C9.00844 25.8246 8.82792 25.8468 8.65814 25.802C8.48837 25.7572 8.34237 25.6487 8.25043 25.4991C8.15849 25.3495 8.12766 25.1703 8.16435 24.9985C8.20105 24.8268 8.30243 24.6758 8.44748 24.5769L15.8534 19.7375L10.4907 22.8344C10.3364 22.9241 10.1532 22.9499 9.98022 22.9063C9.80721 22.8627 9.65811 22.7532 9.56477 22.6011C9.47143 22.4491 9.44127 22.2666 9.48071 22.0926C9.52016 21.9186 9.6261 21.7669 9.77588 21.67L11.9339 20.2664C11.7916 20.3152 11.6373 20.3164 11.4943 20.2698C11.3513 20.2232 11.2274 20.1313 11.1412 20.0081C11.0441 19.8659 11.0042 19.6924 11.0296 19.5221C11.0549 19.3518 11.1436 19.1974 11.2778 19.0897L17.816 13.8417C17.6639 13.9003 17.4959 13.9026 17.3423 13.8482C17.1887 13.7938 17.0596 13.6863 16.9782 13.5451C16.8879 13.3885 16.8634 13.2024 16.91 13.0277C16.9566 12.853 17.0706 12.7039 17.2269 12.6131L24.8174 8.23016C24.9666 8.14212 25.1437 8.11404 25.3128 8.15158C25.4819 8.18912 25.6304 8.28949 25.7284 8.43239C25.8263 8.57528 25.8663 8.75004 25.8403 8.9213C25.8143 9.09257 25.7242 9.24756 25.5882 9.35493L19.0952 14.5674L33.3345 6.34689C33.4882 6.26441 33.6676 6.24381 33.836 6.28932C34.0043 6.33483 34.1489 6.44301 34.2401 6.59169C34.3313 6.74037 34.3622 6.91829 34.3265 7.08901C34.2907 7.25973 34.1911 7.41032 34.0479 7.50993L32.0744 8.79459L36.3657 6.31683C36.5197 6.2293 36.7016 6.20497 36.8732 6.24895C37.0447 6.29293 37.1925 6.40179 37.2853 6.55259C37.3782 6.70339 37.4089 6.88434 37.3709 7.05732C37.333 7.2303 37.2293 7.38179 37.0819 7.47986L29.6759 12.3274L39.5528 6.62433C39.7067 6.53513 39.8892 6.50942 40.0617 6.55266C40.2342 6.5959 40.3831 6.70468 40.4766 6.8559C40.5702 7.00712 40.6012 7.18887 40.5629 7.36254C40.5246 7.5362 40.4202 7.68811 40.2717 7.78599L27.5877 16.1404L42.8506 7.32679C43.0057 7.23733 43.1898 7.21236 43.3632 7.25724C43.5366 7.30213 43.6854 7.41328 43.7776 7.56679C43.8699 7.7203 43.8982 7.90389 43.8564 8.07805C43.8147 8.25221 43.7062 8.40302 43.5544 8.49803L38.8203 11.4705L44.891 7.96639C45.0451 7.88031 45.2265 7.85718 45.3972 7.90183C45.568 7.94648 45.7148 8.05546 45.807 8.20594C45.8992 8.35642 45.9296 8.53674 45.8918 8.70913C45.8541 8.88153 45.7511 9.03263 45.6044 9.13079L28.6127 20.2008L47.7269 9.16496C47.8809 9.07888 48.0623 9.05574 48.233 9.10039C48.4038 9.14505 48.5506 9.25402 48.6428 9.40451C48.735 9.55499 48.7654 9.73531 48.7277 9.9077C48.6899 10.0801 48.5869 10.2312 48.4403 10.3294L29.0076 22.9601L50.3632 10.63C50.5177 10.545 50.6991 10.5231 50.8695 10.5688C51.0398 10.6145 51.1859 10.7243 51.2772 10.8752C51.3684 11.0261 51.3978 11.2065 51.3591 11.3786C51.3205 11.5507 51.2168 11.7011 51.0697 11.7985L35.4118 21.7219L52.3093 11.9666C52.4645 11.8792 52.6478 11.8558 52.82 11.9015C52.9922 11.9472 53.1397 12.0584 53.2312 12.2113C53.3226 12.3642 53.3507 12.5468 53.3095 12.7202C53.2682 12.8935 53.1609 13.0439 53.0104 13.1392L46.5324 17.1422L53.6513 13.0326C53.8072 12.94 53.9935 12.9131 54.1692 12.9578C54.3449 13.0026 54.4956 13.1153 54.5882 13.2711C54.6808 13.427 54.7077 13.6132 54.663 13.7889C54.6183 13.9646 54.5056 14.1154 54.3497 14.208L53.4067 14.7833L54.7515 14.0084C54.906 13.9221 55.0879 13.899 55.2589 13.9441C55.43 13.9892 55.577 14.0988 55.6689 14.25C55.7608 14.4012 55.7904 14.5822 55.7516 14.7548C55.7128 14.9274 55.6086 15.0782 55.4608 15.1756L34.0042 28.9024L56.5801 15.8671C56.7348 15.7787 56.918 15.7542 57.0905 15.7989C57.263 15.8436 57.4113 15.9539 57.5036 16.1063C57.596 16.2587 57.6251 16.4412 57.5848 16.6148C57.5446 16.7884 57.4381 16.9394 57.288 17.0356L37.3238 29.695L58.0834 17.7107C58.238 17.6257 58.4194 17.6038 58.5898 17.6495C58.7601 17.6952 58.9062 17.805 58.9975 17.9559C59.0887 18.1068 59.1181 18.2872 59.0794 18.4593C59.0408 18.6314 58.9371 18.7818 58.79 18.8792L41.1368 29.9807L59.3257 19.4792C59.4804 19.3954 59.6614 19.3745 59.8311 19.4208C60.0008 19.4671 60.1461 19.577 60.2368 19.7278C60.3274 19.8785 60.3565 20.0583 60.3179 20.23C60.2793 20.4016 60.176 20.5517 60.0296 20.6491L44.5097 30.3524L60.3466 21.2094C60.5015 21.1226 60.684 21.0995 60.8555 21.1449C61.0271 21.1904 61.1743 21.3008 61.2659 21.4528C61.3575 21.6047 61.3864 21.7864 61.3465 21.9593C61.3065 22.1323 61.2009 22.2829 61.0518 22.3793L44.3785 32.8288L61.2719 23.0763C61.4267 22.9895 61.6092 22.9664 61.7808 23.0118C61.9523 23.0572 62.0995 23.1676 62.1911 23.3196C62.2827 23.4716 62.3116 23.6533 62.2717 23.8262C62.2317 23.9991 62.1261 24.1497 61.9771 24.2461L46.0732 34.205L62.0632 24.9746C62.2183 24.8807 62.4044 24.8523 62.5805 24.8956C62.7565 24.9389 62.9082 25.0504 63.0021 25.2055C63.096 25.3607 63.1244 25.5467 63.0811 25.7228C63.0377 25.8989 62.9263 26.0505 62.7711 26.1444L44.0997 37.9497L62.7752 27.1667C62.9299 27.0829 63.1109 27.062 63.2806 27.1083C63.4502 27.1546 63.5955 27.2645 63.6862 27.4153C63.7769 27.566 63.806 27.7458 63.7674 27.9175C63.7288 28.0891 63.6255 28.2392 63.479 28.3366L48.3801 37.8117L63.2699 29.2167C63.4246 29.1329 63.6056 29.112 63.7753 29.1583C63.945 29.2046 64.0903 29.3145 64.181 29.4653C64.2716 29.616 64.3007 29.7958 64.2621 29.9675C64.2235 30.1391 64.1203 30.2892 63.9738 30.3866L51.9471 37.895L63.5938 31.171C63.7487 31.0843 63.9312 31.0612 64.1027 31.1066C64.2743 31.152 64.4215 31.2624 64.5131 31.4144C64.6047 31.5664 64.6336 31.7481 64.5937 31.921C64.5537 32.0939 64.4481 32.2445 64.299 32.3409L51.9061 40.1104L63.7961 33.2443C63.9514 33.1568 64.1346 33.1334 64.3068 33.1792C64.479 33.2249 64.6266 33.336 64.718 33.489C64.8094 33.6419 64.8375 33.8245 64.7963 33.9978C64.755 34.1711 64.6477 34.3215 64.4972 34.4169L57.4001 38.8353L63.8535 35.1098C64.0076 35.0237 64.189 35.0005 64.3597 35.0452C64.5305 35.0898 64.6773 35.1988 64.7695 35.3493C64.8617 35.4998 64.8921 35.6801 64.8543 35.8525C64.8166 36.0249 64.7136 36.176 64.5669 36.2742L46.3397 48.1068L63.6745 38.1C63.8286 38.0186 64.0081 37.9991 64.1761 38.0457C64.3441 38.0922 64.488 38.2012 64.5783 38.3503C64.6685 38.4995 64.6984 38.6775 64.6618 38.8479C64.6251 39.0184 64.5247 39.1683 64.3811 39.2672L54.541 45.506L63.315 40.4411C63.4686 40.3538 63.6501 40.3293 63.8213 40.3728C63.9926 40.4164 64.1403 40.5246 64.2335 40.6747C64.3267 40.8248 64.3581 41.0052 64.3211 41.178C64.2842 41.3508 64.1817 41.5026 64.0353 41.6014L47.772 52.45L62.3789 44.0177C62.5326 43.9317 62.7135 43.9084 62.884 43.9526C63.0545 43.9968 63.2013 44.1052 63.2938 44.255C63.3864 44.4048 63.4175 44.5846 63.3807 44.7568C63.3439 44.929 63.2421 45.0804 63.0964 45.1794L52.7698 51.9881L61.1147 47.172C61.2674 47.089 61.4459 47.0674 61.614 47.1114C61.782 47.1554 61.927 47.2617 62.0195 47.4088C62.1119 47.5559 62.1449 47.7327 62.1116 47.9033C62.0783 48.0738 61.9814 48.2252 61.8404 48.3268L53.1634 54.2226L59.0401 50.8278C59.1893 50.7398 59.3664 50.7117 59.5355 50.7492C59.7046 50.7868 59.8531 50.8871 59.9511 51.03C60.049 51.1729 60.089 51.3477 60.063 51.5189C60.037 51.6902 59.9469 51.8452 59.8109 51.9526L53.24 57.232C53.3999 57.1671 53.5784 57.1651 53.7396 57.2263C53.9009 57.2876 54.0331 57.4076 54.1096 57.5623C54.186 57.717 54.2012 57.8948 54.1519 58.0602C54.1027 58.2256 53.9927 58.3662 53.844 58.4538L46.2536 62.8367C46.1044 62.9247 45.9273 62.9528 45.7582 62.9153C45.5891 62.8777 45.4406 62.7774 45.3426 62.6345C45.2447 62.4916 45.2047 62.3168 45.2307 62.1456C45.2567 61.9743 45.3468 61.8193 45.4828 61.7119L52.0223 56.4585L37.701 64.7227C37.5972 64.7832 37.4794 64.8152 37.3593 64.8156Z" fill="#69A7FF"/>
<path d="M36.4324 33.3905C36.2952 33.3908 36.161 33.3498 36.0474 33.2729C35.9338 33.1959 35.846 33.0866 35.7954 32.959C35.7449 32.8315 35.7338 32.6916 35.7638 32.5577C35.7938 32.4238 35.8635 32.3021 35.9636 32.2083L38.7995 29.5447L33.0731 32.8479C32.9259 32.9312 32.7531 32.9569 32.5881 32.9201C32.423 32.8834 32.2774 32.7867 32.1795 32.6488C32.0816 32.511 32.0383 32.3417 32.0579 32.1737C32.0776 32.0058 32.1588 31.8511 32.2859 31.7395L37.6993 27.0847L30.4491 31.2735C30.2971 31.3602 30.1177 31.3853 29.9478 31.3436C29.7778 31.3019 29.6304 31.1966 29.5357 31.0495C29.4411 30.9023 29.4066 30.7244 29.4392 30.5525C29.4718 30.3806 29.5692 30.2278 29.7111 30.1255L31.6368 28.7588L29.349 30.0804C29.1958 30.1774 29.0104 30.2095 28.8336 30.1698C28.6567 30.1301 28.5029 30.0217 28.406 29.8686C28.309 29.7154 28.2768 29.53 28.3166 29.3532C28.3563 29.1763 28.4647 29.0225 28.6178 28.9256L28.9321 28.7001L28.6096 28.8859C28.4595 28.9721 28.2822 28.9981 28.1137 28.9586C27.9452 28.9192 27.7979 28.8173 27.7016 28.6734C27.6053 28.5296 27.5672 28.3546 27.5949 28.1837C27.6227 28.0129 27.7142 27.8589 27.8511 27.753L33.7469 23.2211L27.8497 26.6255C27.7005 26.7106 27.5246 26.7363 27.3572 26.6976C27.1898 26.6589 27.0431 26.5585 26.9464 26.4164C26.8497 26.2744 26.81 26.1011 26.8353 25.9312C26.8607 25.7612 26.9491 25.607 27.083 25.4993L33.0294 20.7802L27.7158 23.8511C27.5675 23.9352 27.3931 23.9609 27.2269 23.923C27.0607 23.8852 26.9146 23.7865 26.8174 23.6465C26.7201 23.5065 26.6787 23.3351 26.7013 23.1662C26.724 22.9972 26.8089 22.8428 26.9395 22.7332L31.5862 18.9065L27.8497 21.0631C27.708 21.1434 27.5422 21.1704 27.3823 21.1393C27.2224 21.1081 27.0789 21.0208 26.9776 20.8932C26.8764 20.7656 26.8241 20.606 26.8301 20.4432C26.8362 20.2804 26.9002 20.1251 27.0106 20.0053L29.9722 16.8483C29.8944 16.8978 29.8074 16.931 29.7165 16.9459C29.6255 16.9609 29.5325 16.9573 29.443 16.9354C29.3535 16.9134 29.2693 16.8736 29.1956 16.8183C29.1219 16.763 29.0601 16.6934 29.014 16.6136C28.9678 16.5338 28.9383 16.4455 28.9272 16.3541C28.9161 16.2626 28.9236 16.1698 28.9493 16.0813C28.975 15.9928 29.0183 15.9103 29.0766 15.839C29.135 15.7677 29.2072 15.7089 29.2888 15.6662L33.3 13.3428C33.4418 13.2616 33.608 13.2339 33.7684 13.2647C33.9289 13.2955 34.073 13.3827 34.1746 13.5107C34.2763 13.6386 34.3287 13.7987 34.3225 13.962C34.3162 14.1253 34.2516 14.2809 34.1405 14.4006L31.1776 17.559L38.0109 13.6162C38.1592 13.532 38.3336 13.5064 38.4998 13.5443C38.666 13.5821 38.8121 13.6808 38.9093 13.8208C39.0066 13.9608 39.0479 14.1322 39.0253 14.3011C39.0027 14.4701 38.9178 14.6245 38.7872 14.7341L34.1405 18.5608L40.378 14.9596C40.5272 14.8745 40.7031 14.8487 40.8705 14.8875C41.0379 14.9262 41.1846 15.0266 41.2813 15.1686C41.378 15.3107 41.4177 15.4839 41.3923 15.6539C41.367 15.8239 41.2786 15.9781 41.1447 16.0857L35.1969 20.8062L42.0549 16.8429C42.2049 16.7584 42.3813 16.7337 42.5488 16.7737C42.7163 16.8138 42.8625 16.9155 42.9581 17.0587C43.0538 17.2019 43.0919 17.3759 43.0648 17.5459C43.0377 17.7159 42.9474 17.8695 42.812 17.9758L36.9176 22.5063L43.0211 18.9967C43.1737 18.9105 43.3537 18.8863 43.5237 18.9291C43.6937 18.9718 43.8408 19.0783 43.9345 19.2264C44.0283 19.3745 44.0615 19.553 44.0273 19.725C43.9931 19.8969 43.8942 20.0492 43.7509 20.1502L43.3874 20.4017C43.5425 20.3371 43.7159 20.332 43.8746 20.3872C44.0332 20.4425 44.166 20.5542 44.2474 20.7011C44.3289 20.848 44.3534 21.0198 44.3163 21.1836C44.2792 21.3475 44.183 21.4919 44.0461 21.5893L42.1177 22.956L43.3477 22.2453C43.4951 22.1604 43.6689 22.1335 43.835 22.1699C44.0011 22.2063 44.1477 22.3033 44.2462 22.4421C44.3446 22.5808 44.3877 22.7512 44.3671 22.9201C44.3466 23.0889 44.2638 23.244 44.1349 23.355L38.7229 28.0167L43.222 25.4201C43.3676 25.3315 43.541 25.3006 43.7083 25.3333C43.8755 25.366 44.0245 25.4601 44.126 25.597C44.2275 25.7339 44.2742 25.9038 44.2568 26.0733C44.2395 26.2429 44.1595 26.3998 44.0324 26.5134L41.1966 29.177L41.7433 28.8586C41.9001 28.7694 42.0859 28.7459 42.26 28.7932C42.4342 28.8404 42.5826 28.9547 42.6728 29.111C42.763 29.2672 42.7878 29.4528 42.7416 29.6273C42.6955 29.8017 42.5823 29.9509 42.4266 30.0421L36.7686 33.3071C36.6658 33.3639 36.5498 33.3926 36.4324 33.3905Z" fill="#2C5377"/>
<path d="M33.2021 64.7799C33.056 64.7795 32.9139 64.7323 32.7966 64.6452C32.6793 64.5581 32.593 64.4358 32.5504 64.2961C32.5077 64.1564 32.511 64.0066 32.5596 63.8689C32.6083 63.7312 32.6998 63.6127 32.8208 63.5308L35.2931 61.8634L30.9484 64.3699C30.7952 64.4635 30.6112 64.493 30.4364 64.452C30.2616 64.411 30.1099 64.3029 30.0141 64.151C29.9184 63.999 29.8864 63.8155 29.9249 63.6401C29.9634 63.4647 30.0694 63.3115 30.22 63.2137L36.5846 58.8677L28.1276 63.7494C27.9753 63.8326 27.797 63.8547 27.629 63.8112C27.461 63.7678 27.3158 63.662 27.2229 63.5154C27.13 63.3687 27.0964 63.1923 27.1289 63.0218C27.1614 62.8513 27.2575 62.6995 27.3978 62.5973L37.5836 55.5645L25.1469 62.7477C24.9925 62.834 24.8106 62.857 24.6395 62.812C24.4684 62.7669 24.3215 62.6573 24.2296 62.5061C24.1377 62.3549 24.108 62.1739 24.1468 62.0013C24.1856 61.8287 24.2899 61.6778 24.4376 61.5805L24.5497 61.4999L23.5766 62.0616C23.4229 62.1476 23.242 62.1709 23.0715 62.1267C22.9011 62.0825 22.7542 61.9741 22.6617 61.8243C22.5691 61.6745 22.538 61.4947 22.5748 61.3225C22.6116 61.1502 22.7135 60.9989 22.8591 60.8999L32.4545 54.5559L21.4405 60.9136C21.2862 60.9961 21.106 61.0162 20.9372 60.9698C20.7684 60.9233 20.6239 60.8139 20.5334 60.664C20.443 60.5141 20.4135 60.3352 20.451 60.1643C20.4886 59.9933 20.5904 59.8432 20.7353 59.7451L21.241 59.4253L20.119 60.0731C19.9651 60.1623 19.7826 60.188 19.6101 60.1448C19.4376 60.1015 19.2887 59.9927 19.1952 59.8415C19.1016 59.6903 19.0706 59.5086 19.1089 59.3349C19.1472 59.1612 19.2516 59.0093 19.4001 58.9114L31.0386 51.2253L19.5163 57.8823C19.3628 57.967 19.1827 57.9896 19.0131 57.9452C18.8435 57.9008 18.6975 57.793 18.6051 57.644C18.5128 57.495 18.4813 57.3162 18.5171 57.1446C18.5529 56.973 18.6532 56.8217 18.7974 56.722L30.6491 48.8459L19.5163 55.2693C19.3633 55.352 19.1845 55.3733 19.0164 55.3287C18.8482 55.2842 18.7034 55.1773 18.6114 55.0297C18.5194 54.8821 18.4871 54.7049 18.5212 54.5344C18.5552 54.3638 18.653 54.2126 18.7947 54.1117L30.2911 46.3941L19.5163 52.6166C19.3628 52.7055 19.1808 52.7313 19.0086 52.6885C18.8365 52.6456 18.6877 52.5375 18.5939 52.387C18.5 52.2365 18.4683 52.0554 18.5055 51.882C18.5427 51.7085 18.6459 51.5564 18.7933 51.4576L28.77 44.7323L19.5149 50.0759C19.3627 50.1637 19.1826 50.1895 19.0119 50.1479C18.8412 50.1063 18.6931 50.0006 18.5983 49.8527C18.5035 49.7048 18.4693 49.526 18.5028 49.3536C18.5363 49.1811 18.635 49.0282 18.7783 48.9266L29.8045 41.1229L19.5163 47.0652C19.3653 47.1481 19.1886 47.171 19.0215 47.1292C18.8543 47.0874 18.7092 46.984 18.615 46.8397C18.5209 46.6955 18.4847 46.521 18.5137 46.3512C18.5427 46.1814 18.6347 46.0288 18.7714 45.924L27.2106 39.748L19.6242 44.1214C19.4725 44.2071 19.2937 44.2317 19.1244 44.1899C18.9551 44.1482 18.8082 44.0433 18.7137 43.8968C18.6193 43.7503 18.5844 43.5732 18.6162 43.4018C18.648 43.2303 18.7441 43.0776 18.8849 42.9747L22.4942 40.3904L20.1709 41.7283C20.0264 41.8154 19.8547 41.8458 19.689 41.8139C19.5233 41.7819 19.3753 41.6898 19.2735 41.5552C19.1717 41.4207 19.1233 41.2532 19.1376 41.085C19.1519 40.9169 19.2279 40.76 19.3509 40.6446L23.4058 36.7632L23.3716 36.7837C23.2939 36.8332 23.2069 36.8664 23.116 36.8813C23.025 36.8963 22.932 36.8927 22.8425 36.8708C22.753 36.8488 22.6688 36.809 22.5951 36.7537C22.5214 36.6984 22.4596 36.6288 22.4134 36.549C22.3673 36.4692 22.3378 36.3809 22.3267 36.2894C22.3156 36.198 22.3231 36.1052 22.3488 36.0167C22.3745 35.9281 22.4178 35.8457 22.4761 35.7744C22.5345 35.7031 22.6067 35.6443 22.6883 35.6016L27.596 32.7671C27.7406 32.6801 27.9122 32.6496 28.0779 32.6816C28.2436 32.7135 28.3916 32.8056 28.4934 32.9402C28.5952 33.0748 28.6436 33.2422 28.6293 33.4104C28.6151 33.5785 28.5391 33.7354 28.416 33.8509L24.3666 37.7404L33.8676 32.2532C34.0194 32.1675 34.1982 32.1429 34.3675 32.1847C34.5368 32.2264 34.6837 32.3313 34.7781 32.4778C34.8726 32.6243 34.9075 32.8014 34.8757 32.9728C34.8439 33.1442 34.7478 33.297 34.607 33.3999L30.9976 35.9842L37.4647 32.2532C37.616 32.1679 37.794 32.1433 37.9628 32.1845C38.1315 32.2257 38.2782 32.3297 38.373 32.4751C38.4679 32.6206 38.5037 32.7968 38.4734 32.9678C38.443 33.1388 38.3487 33.2918 38.2095 33.3958L29.7745 39.5649L41.9378 32.5443C42.0897 32.4597 42.2681 32.4362 42.4368 32.4786C42.6054 32.5209 42.7515 32.6259 42.8454 32.7723C42.9393 32.9186 42.9739 33.0952 42.9421 33.2662C42.9104 33.4371 42.8146 33.5895 42.6744 33.6923L31.6454 41.4974L45.1126 33.7238C45.2657 33.639 45.4455 33.6161 45.6149 33.66C45.7844 33.7039 45.9305 33.8111 46.0233 33.9595C46.116 34.108 46.1482 34.2864 46.1133 34.4579C46.0783 34.6294 45.9789 34.781 45.8355 34.8813L35.8589 41.6094L47.1366 35.0959C47.2897 35.0111 47.4695 34.9883 47.639 35.0321C47.8084 35.076 47.9546 35.1832 48.0473 35.3317C48.14 35.4801 48.1722 35.6585 48.1373 35.83C48.1024 36.0015 48.003 36.1531 47.8596 36.2535L36.3604 43.971L48.8039 36.7878C48.9574 36.7031 49.1376 36.6806 49.3071 36.725C49.4767 36.7693 49.6228 36.8772 49.7151 37.0262C49.8074 37.1752 49.8389 37.354 49.8031 37.5256C49.7674 37.6972 49.667 37.8484 49.5228 37.9481L37.6724 45.8215L50.0613 38.6766C50.2152 38.5874 50.3979 38.5618 50.5704 38.6052C50.7429 38.6486 50.8917 38.7575 50.9851 38.9089C51.0784 39.0602 51.1089 39.2419 51.0704 39.4154C51.0319 39.5889 50.9273 39.7406 50.7788 39.8382L39.132 47.5285L50.9373 40.7143C51.0924 40.6206 51.2784 40.5923 51.4544 40.6358C51.6303 40.6792 51.7818 40.7908 51.8755 40.9459C51.9692 41.101 51.9975 41.287 51.954 41.463C51.9106 41.6389 51.799 41.7904 51.6439 41.8841L51.1573 42.1903L51.3063 42.1055C51.4597 42.0229 51.6387 42.002 51.807 42.0471C51.9752 42.0921 52.1199 42.1996 52.2115 42.3478C52.3031 42.4959 52.3347 42.6734 52.2998 42.844C52.2649 43.0147 52.1662 43.1655 52.0238 43.2658L42.4284 49.6099L51.5441 44.3469C51.6988 44.2584 51.882 44.234 52.0545 44.2786C52.227 44.3233 52.3753 44.4336 52.4676 44.5861C52.56 44.7385 52.5891 44.9209 52.5488 45.0946C52.5086 45.2682 52.4021 45.4192 52.2521 45.5154L51.7122 45.8598C51.8674 45.8176 52.0325 45.8315 52.1785 45.8991C52.3244 45.9667 52.4419 46.0836 52.5101 46.2292C52.5784 46.3749 52.5931 46.5399 52.5516 46.6953C52.5102 46.8507 52.4152 46.9865 52.2835 47.0788L42.1045 54.109L51.5564 48.6532C51.7092 48.5683 51.8887 48.5451 52.058 48.5884C52.2274 48.6318 52.3737 48.7384 52.4668 48.8863C52.5599 49.0343 52.5928 49.2123 52.5587 49.3837C52.5246 49.5552 52.4261 49.707 52.2835 49.8081L45.9203 54.1472L51.5605 50.8918C51.7136 50.807 51.8934 50.7842 52.0629 50.8281C52.2323 50.8719 52.3785 50.9792 52.4712 51.1276C52.5639 51.2761 52.5961 51.4544 52.5612 51.6259C52.5263 51.7975 52.4269 51.949 52.2835 52.0494L49.8084 53.7195L51.5632 52.7068C51.7136 52.6199 51.8913 52.5936 52.0603 52.633C52.2293 52.6724 52.377 52.7747 52.4734 52.9191C52.5698 53.0635 52.6076 53.2391 52.5792 53.4104C52.5507 53.5816 52.4582 53.7356 52.3204 53.8411L46.4615 58.3511L51.566 55.4046C51.7141 55.3194 51.8889 55.2928 52.0557 55.3301C52.2225 55.3674 52.3692 55.4658 52.467 55.606C52.5648 55.7461 52.6065 55.9179 52.5839 56.0873C52.5613 56.2567 52.4761 56.4115 52.345 56.5211L49.8945 58.5602L51.5687 57.594C51.6465 57.5445 51.7335 57.5113 51.8244 57.4964C51.9153 57.4814 52.0084 57.485 52.0979 57.5069C52.1874 57.5289 52.2715 57.5687 52.3453 57.624C52.419 57.6792 52.4808 57.7489 52.5269 57.8287C52.573 57.9085 52.6025 57.9967 52.6137 58.0882C52.6248 58.1797 52.6173 58.2725 52.5916 58.361C52.5659 58.4495 52.5226 58.5319 52.4642 58.6033C52.4059 58.6746 52.3337 58.7334 52.2521 58.7761L43.642 63.7453C43.4937 63.8325 43.3179 63.8605 43.1498 63.8237C42.9817 63.7869 42.8336 63.688 42.7352 63.5468C42.6369 63.4056 42.5954 63.2325 42.6191 63.0621C42.6428 62.8916 42.7299 62.7364 42.863 62.6274L45.308 60.5938L38.2164 64.6938C38.0663 64.78 37.889 64.806 37.7205 64.7665C37.552 64.7271 37.4047 64.6251 37.3084 64.4813C37.2121 64.3375 37.174 64.1625 37.2017 63.9916C37.2295 63.8207 37.321 63.6668 37.4579 63.5608L43.3236 59.0399L33.5492 64.6829C33.4444 64.7461 33.3244 64.7796 33.2021 64.7799Z" fill="#2C5377"/>
<path d="M34.2329 51.984C34.0965 51.984 33.9633 51.9432 33.8503 51.8668C33.7372 51.7905 33.6497 51.682 33.5988 51.5555C33.548 51.4289 33.5361 51.29 33.5649 51.1567C33.5936 51.0234 33.6616 50.9017 33.7601 50.8073L34.7167 49.8889L33.0234 50.8661C32.8795 50.948 32.7108 50.9749 32.5486 50.9417C32.3863 50.9086 32.2417 50.8177 32.1414 50.6859C32.0412 50.5541 31.9922 50.3903 32.0036 50.2252C32.0151 50.06 32.086 49.9045 32.2034 49.7878L34.6894 47.3414L31.8481 48.9814C31.7004 49.067 31.526 49.0942 31.3593 49.0576C31.1925 49.0211 31.0455 48.9234 30.9471 48.7839C30.8488 48.6444 30.8062 48.4732 30.8277 48.3038C30.8493 48.1345 30.9335 47.9794 31.0636 47.869L32.5383 46.6171L32.1283 46.8535C31.9847 46.9333 31.8173 46.9587 31.6565 46.9251C31.4958 46.8915 31.3525 46.8011 31.2529 46.6705C31.1533 46.5399 31.1041 46.3778 31.1143 46.2139C31.1245 46.05 31.1933 45.8953 31.3083 45.778L34.222 42.8765L32.526 43.8551C32.3814 43.9421 32.2098 43.9726 32.0441 43.9406C31.8784 43.9086 31.7304 43.8165 31.6286 43.6819C31.5268 43.5474 31.4784 43.3799 31.4926 43.2118C31.5069 43.0436 31.5829 42.8867 31.706 42.7713L32.8307 41.6903L32.8034 41.7067C32.6813 41.7773 32.5403 41.8085 32.3998 41.7958C32.2593 41.7832 32.1262 41.7274 32.0187 41.636C31.9111 41.5447 31.8345 41.4223 31.7994 41.2857C31.7642 41.1491 31.7721 41.0049 31.8221 40.873L32.4112 39.3123C32.317 39.2532 32.2387 39.172 32.1829 39.0758C32.1379 38.9981 32.1086 38.9122 32.0967 38.823C32.0849 38.7339 32.0908 38.6434 32.114 38.5565C32.1373 38.4697 32.1774 38.3883 32.2321 38.317C32.2869 38.2457 32.3552 38.1859 32.433 38.141L33.1806 37.7105C33.3024 37.6391 33.4434 37.6072 33.5841 37.6191C33.7247 37.6311 33.8583 37.6863 33.9663 37.7773C34.0743 37.8682 34.1515 37.9904 34.1873 38.127C34.223 38.2636 34.2156 38.4079 34.166 38.5401L33.7806 39.5624L37.036 37.6859C37.1804 37.6047 37.3495 37.5787 37.5117 37.6128C37.6739 37.6469 37.8181 37.7388 37.9176 37.8714C38.0171 38.0039 38.065 38.1682 38.0524 38.3334C38.0398 38.4987 37.9676 38.6537 37.8491 38.7697L36.7257 39.8494L38.0637 39.0772C38.2073 38.9974 38.3747 38.972 38.5355 39.0056C38.6962 39.0392 38.8395 39.1296 38.9391 39.2602C39.0386 39.3908 39.0878 39.5529 39.0777 39.7168C39.0675 39.8807 38.9987 40.0355 38.8837 40.1528L35.9768 43.0501L38.4026 41.6534C38.5501 41.5708 38.7229 41.5458 38.8877 41.5833C39.0525 41.6207 39.1976 41.7178 39.295 41.856C39.3923 41.9941 39.435 42.1634 39.4149 42.3312C39.3947 42.499 39.3131 42.6533 39.1857 42.7645L37.7111 44.0163L38.6418 43.4792C38.7859 43.3961 38.9553 43.3684 39.1183 43.4013C39.2813 43.4342 39.4268 43.5254 39.5274 43.6579C39.628 43.7903 39.6768 43.9549 39.6647 44.1208C39.6527 44.2866 39.5805 44.4424 39.4618 44.5589L36.9813 47.0134L38.9602 45.8709C39.105 45.7823 39.2774 45.7508 39.4441 45.7824C39.6108 45.8139 39.7598 45.9064 39.8621 46.0418C39.9644 46.1771 40.0127 46.3457 39.9975 46.5147C39.9824 46.6837 39.905 46.841 39.7802 46.956L38.8236 47.8717L39.2049 47.653C39.3617 47.5638 39.5475 47.5403 39.7217 47.5876C39.8958 47.6349 40.0442 47.7491 40.1344 47.9054C40.2246 48.0617 40.2494 48.2473 40.2033 48.4217C40.1571 48.5962 40.0439 48.7453 39.8882 48.8366L34.576 51.8924C34.472 51.9533 34.3535 51.985 34.2329 51.984Z" fill="#E1C953"/>
<path d="M34.5869 38.9296C34.4508 38.9296 34.3179 38.8889 34.205 38.8129C34.0922 38.7369 34.0046 38.6289 33.9536 38.5028C33.9025 38.3767 33.8902 38.2382 33.9183 38.1051C33.9464 37.972 34.0136 37.8503 34.1113 37.7556L34.9313 36.9616L32.9892 38.0822C32.8445 38.1708 32.672 38.2023 32.5053 38.1708C32.3386 38.1392 32.1896 38.0467 32.0874 37.9113C31.9851 37.776 31.9368 37.6074 31.9519 37.4384C31.9671 37.2694 32.0445 37.1121 32.1692 36.9971L32.981 36.2208L32.571 36.4532C32.4682 36.5125 32.3518 36.5441 32.2331 36.5448C32.1144 36.5455 31.9976 36.5152 31.8941 36.457C31.7907 36.3988 31.7042 36.3146 31.6431 36.2128C31.5821 36.111 31.5486 35.9951 31.546 35.8764L31.516 33.8661C31.3715 33.8533 31.2348 33.795 31.1257 33.6994C31.0166 33.6038 30.9407 33.476 30.9091 33.3345C30.8774 33.193 30.8916 33.045 30.9496 32.9121C31.0076 32.7792 31.1064 32.6681 31.2317 32.5951L31.8358 32.2452C31.9385 32.1858 32.055 32.1542 32.1737 32.1536C32.2924 32.1529 32.4092 32.1831 32.5127 32.2413C32.6161 32.2996 32.7026 32.3837 32.7637 32.4855C32.8247 32.5873 32.8582 32.7033 32.8608 32.8219L32.9004 34.6929L37.1986 32.211C37.3432 32.1286 37.5129 32.1018 37.6759 32.1356C37.8389 32.1695 37.984 32.2617 38.0838 32.3949C38.1836 32.5281 38.2314 32.6932 38.2181 32.8592C38.2049 33.0251 38.1315 33.1805 38.0117 33.2962L37.2027 34.0724L39.0559 33.0023C39.2003 32.9167 39.3711 32.8872 39.5359 32.9195C39.7006 32.9518 39.8477 33.0436 39.9491 33.1775C40.0504 33.3113 40.099 33.4777 40.0855 33.6451C40.072 33.8124 39.9974 33.9689 39.8759 34.0847L38.8331 35.0947C38.9264 35.0878 39.0201 35.1011 39.1078 35.1336C39.1956 35.1662 39.2752 35.2172 39.3415 35.2833C39.4491 35.3853 39.5206 35.5195 39.5453 35.6657C39.5699 35.8119 39.5464 35.9621 39.4782 36.0937L38.8604 37.2718C38.9063 37.3176 38.9462 37.3691 38.9793 37.4249C39.0695 37.5817 39.0938 37.7679 39.0469 37.9426C39 38.1173 38.8858 38.2663 38.7292 38.3569L37.927 38.8202C37.7988 38.8937 37.6503 38.9237 37.5036 38.9056C37.357 38.8876 37.2202 38.8225 37.1136 38.7201C37.0071 38.6177 36.9366 38.4836 36.9128 38.3378C36.8889 38.192 36.9129 38.0424 36.9813 37.9114L37.1712 37.5479L34.9367 38.838C34.8307 38.9001 34.7097 38.9318 34.5869 38.9296Z" fill="#FBE267"/>
<path d="M42.6408 69.4008C47.5467 68.3605 52.1751 66.2883 56.2187 63.3219C62.765 67.5886 74.3475 88.9701 81.1439 77.4218C83.1037 71.8458 66.9046 61.5493 63.3882 56.2876C90.5316 19.7771 37.4653 -20.3714 8.36348 13.6914C-12.7625 38.3324 11.2389 76.8478 42.6408 69.4008ZM78.0156 73.5268C79.2456 74.7568 80.4182 76.2437 78.8999 77.9001C78.3313 78.5192 77.2599 79.9815 76.3606 80.0868C71.1085 76.9011 67.1944 71.0477 62.4452 66.9353L66.9361 62.4445L78.0156 73.5268ZM66.0245 61.5329L61.5323 66.0238L57.6742 62.1657C59.3203 60.8265 60.8433 59.3427 62.2252 57.7322L66.0245 61.5329ZM7.09521 18.0141C23.9175 -11.1082 69.2006 2.80588 68.71 35.8068C64.0674 93.1262 -18.087 68.5234 7.09521 18.0141Z" fill="#262626"/>
<path d="M45.9889 63.0308C72.7209 53.512 70.5889 13.496 42.9358 6.97834C42.0734 6.75967 40.5988 8.02247 41.7973 8.32587C63.7597 13.0696 70.7365 43.7225 52.9234 57.3892C53.6805 46.9752 53.5015 31.5209 39.2007 32.2999C50.9144 27.3116 42.7759 7.45258 30.864 14.6576C24.5008 17.965 24.6347 29.3575 31.1373 32.3273C17.744 32.8739 17.3969 46.9506 18.1458 57.1705C-1.91687 41.7272 9.94579 6.95101 35.4505 7.57284C36.5849 7.56327 36.9662 6.09411 35.6214 6.10504C-10.7961 8.77277 1.6556 77.0337 45.9889 63.0308ZM32.5108 47.9483L33.6998 38.9201H37.3283C37.1807 43.2032 41.0183 49.3272 35.7075 51.2898C34.6893 50.2825 32.053 49.796 32.5108 47.9483ZM37.4759 37.6135H33.6944C33.3299 36.1649 32.9655 34.7162 32.601 33.2675C34.6114 33.3318 36.5329 33.2498 38.5597 33.2675C38.1998 34.7144 37.8386 36.1631 37.4759 37.6135ZM28.3193 24.335C26.1668 13.2021 40.9609 9.99731 42.7075 21.3434C45.1962 33.5176 29.7406 36.9206 28.3234 24.335H28.3193ZM20.6372 41.4101C21.251 39.2114 22.5277 37.2553 24.2934 35.8085C26.0592 34.3617 28.2281 33.4944 30.5046 33.3249C34.3312 40.053 26.1312 49.4434 34.5431 52.4938C45.6595 51.8351 36.8268 39.9738 40.4389 33.3946C53.1776 34.9089 50.8966 49.5117 50.9417 58.8502C49.4654 59.8641 47.883 60.7142 46.2226 61.3853C46.8813 36.579 42.8346 40.7828 44.2929 62.0987C38.5685 63.9432 32.401 63.8857 26.7121 61.9347C28.4341 40.7514 24.0238 36.9029 24.9245 61.2514C23.2412 60.547 21.632 59.6771 20.1206 58.6547C20.3803 52.9175 19.522 47.0463 20.6372 41.4101Z" fill="#262626"/>
</g>
<defs>
<clipPath id="clip0_56_4025">
<rect width="82" height="82" fill="white"/>
</clipPath>
</defs>
</svg>
