<svg width="252" height="253" viewBox="0 0 252 253" fill="none" xmlns="http://www.w3.org/2000/svg">
<path d="M146.266 73.7289C129.654 72.8667 119.976 73.7407 106.881 84.6511C62.8138 121.379 64.5063 190.925 127.946 199.885C142.536 200.079 156.666 197.807 169.351 190.041C183.334 181.308 193.34 167.169 197.119 150.786C205.926 112.808 181.428 82.5075 146.266 73.7289Z" fill="#FAC600"/>
<path d="M150.849 82.2994C141.384 81.4288 132.528 81.7957 123.064 82.012C118.48 85.3288 110.1 90.8921 106.535 94.9797C75.0206 131.19 73.1639 179.641 125.611 191.735C135.601 191.949 146.117 191.042 155.482 187.194C169.465 181.577 180.588 170.289 186.24 155.983C191.663 142.442 191.466 127.212 185.715 113.817C178.222 95.945 167.394 89.0546 150.849 82.2994Z" fill="white"/>
<path d="M135.421 147.14C130.558 148.622 127.502 149.329 122.441 149.596C118.333 153.244 119.45 151.036 118.612 156.25C121.652 163.369 123.065 164.817 127.797 170.509C138.297 172.004 144.902 166.564 145.115 155.829C141.895 149.804 141.583 150.901 135.421 147.14Z" fill="#FAC600"/>
<path d="M166.558 120.476C158.671 120.725 153.43 119.94 148.451 127.132L149.371 129.684L151.77 129.496C158.786 127.301 162.187 129.285 169.4 129.816L170.238 127.297L166.558 120.476Z" fill="#FAC600"/>
<path d="M116.229 122.567C109.081 121.637 104.267 121.401 98.467 125.772C96.9225 130.629 96.9391 128.178 99.0587 133.346C104.941 131.109 114.914 131.038 117.658 128.484L116.229 122.567Z" fill="#FAC600"/>
<path d="M126.172 0C121.456 0.537574 121.193 0.691424 116.658 2.34134C104.532 14.807 106.734 38.9183 118.416 50.9461L124.561 49.1052C134.485 38.2912 137.114 10.8833 126.172 0Z" fill="#FAC600"/>
<path d="M123.77 6.24463C112.876 12.3523 114.946 33.4716 118.988 43.4792C127.565 33.2755 126.596 18.5852 123.77 6.24463Z" fill="white"/>
<path d="M96.3661 208.09C93.2443 208.146 89.8924 208.149 86.9349 209.322C81.0527 211.659 75.8604 217.45 73.4615 223.375C69.3538 233.55 70.997 242.089 75.2197 251.708C79.5575 251.126 83.698 250.526 87.3128 247.764C94.9531 241.908 99.2415 231.98 100.638 222.54C101.723 215.18 100.474 213.873 96.3661 208.09Z" fill="#FAC600"/>
<path d="M95.4766 213.72C91.6153 214.737 88.4606 216.026 85.5523 218.965C79.2593 225.354 78.5364 234.481 78.7993 243.04C79.8673 242.882 80.1466 242.904 81.2804 242.373C90.153 238.218 92.8148 222.625 95.4766 213.72Z" fill="white"/>
<path d="M196.87 20.8004L195.917 20.6331C185.369 24.462 175.576 43.2636 177.367 54.7978C178.271 60.515 181.031 61.3907 185.287 64.3253C193.896 56.5643 213.728 37.3215 205.299 23.4207C204.083 21.4225 199.384 21.2771 196.87 20.8004Z" fill="#FAC600"/>
<path d="M201.34 25.3003C190.906 30.6828 185.024 42.9101 182.658 54.1569C194.307 49.9848 198.382 36.2715 201.34 25.3003Z" fill="#EFEEF0"/>
<path d="M49.2917 175.936C38.2009 178.456 17.7117 185.401 14.1133 197.601C14.8856 203.198 17.4159 204.973 21.2771 209.142C35.4405 209.803 48.4536 198.39 55.1738 186.246C55.0095 180.006 54.9439 181.913 49.2917 175.936Z" fill="#FAC600"/>
<path d="M45.6426 186.242C35.4555 187.282 25.3668 193.376 19.5996 202.042C32.695 202.701 36.5892 195.429 45.6426 186.242Z" fill="#EFEEF0"/>
<path d="M22.9869 112.519C13.72 111.629 6.14541 110.57 0.000299761 118.449C0.378208 130.235 10.7624 131.996 20.0951 134.326C29.7728 134.759 41.2251 136.951 44.5605 125.49C40.0092 115.328 33.0426 115.315 22.9869 112.519Z" fill="#FAC600"/>
<path d="M22.2639 119.431C16.6117 118.922 12.0112 117.966 7.78848 121.232C11.2389 125.806 12.3399 125.267 17.9099 127.735C23.3978 127.774 30.2658 128.563 34.3242 125.329C31.6131 121.548 26.8316 120.844 22.2639 119.431Z" fill="white"/>
<path d="M208.982 169.941C204.119 169.799 204.349 169.956 200.077 172.69C196.939 189.164 222.538 199.268 234.828 201.667C240.168 198.838 239.199 200.265 242.238 195.667C241.22 183.107 219.695 172.472 208.982 169.941Z" fill="#FAC600"/>
<path d="M211.347 175.98C208.373 176.955 209.688 176.139 207.782 179.094C210.312 186.921 220.072 190.762 226.891 194.045L230.391 191.519C227.499 183.491 218.889 180.145 211.347 175.98Z" fill="white"/>
<path d="M42.06 39.5974C36.5886 39.6566 35.5369 39.2069 31.5114 42.4679C27.6502 55.5353 48.353 68.7785 58.2279 73.4054C63.2885 73.2431 63.913 73.5322 67.7742 70.5637C70.2717 57.2359 52.3128 44.7449 42.06 39.5974Z" fill="#FAC600"/>
<path d="M40.993 45.9167C40.3193 46.5405 39.6127 48.0045 39.1034 48.8971C42.4553 56.9472 49.5206 61.2782 56.4708 65.9084C61.6137 58.6529 46.0701 49.5411 40.993 45.9167Z" fill="#EFEEF0"/>
<path d="M250.436 99.1541C238.869 98.1465 219.169 96.5186 211.758 107.011C212.629 113.379 211.528 111.092 215.488 115.951C215.817 116.045 216.162 116.14 216.49 116.235L218.183 116.661C228.255 119.303 242.237 120.784 250.124 111.767C253.542 107.84 251.438 103.864 250.436 99.1541Z" fill="#FAC600"/>
<path d="M244.242 106.126C236.191 106.077 225.15 105.38 219.35 110.474C229.389 114.128 236.766 114.898 244.242 106.126Z" fill="#EFEEF0"/>
<path d="M160.642 209.742C157.603 210.183 155.729 211.114 153.068 212.541C151.852 214.855 150.849 216.806 150.554 219.457C149.272 230.724 154.842 244.292 161.759 252.832C162.482 252.587 163.222 252.383 163.928 252.097C167.034 250.856 169.301 248.079 170.418 244.941C174.23 234.318 165.194 219.173 160.642 209.742Z" fill="#FAC600"/>
<path d="M159.082 223.371C157.422 229.808 160.265 235.916 162.286 241.93C162.516 241.516 162.762 241.124 162.943 240.688C165.26 234.753 161.546 228.621 159.082 223.371Z" fill="#C0C0C1"/>
</svg>
