<svg width="82" height="82" viewBox="0 0 82 82" fill="none" xmlns="http://www.w3.org/2000/svg">
<g clip-path="url(#clip0_56_4041)">
<path d="M71.1232 41.6368C70.9346 41.6368 70.7501 41.5589 70.6162 41.4113C70.4002 41.1721 70.3811 40.8141 70.5697 40.5544L71.2325 39.6333L69.4313 40.6733C69.1456 40.8428 68.778 40.7744 68.5634 40.5202C68.3516 40.2633 68.3543 39.8916 68.5689 39.6387L70.0845 37.8621L68.6249 38.7039C68.3311 38.8775 67.9512 38.8023 67.7421 38.529C67.533 38.257 67.5576 37.873 67.8008 37.6297L68.6591 36.7715L68.2559 37.0038C67.9689 37.1719 67.5986 37.1049 67.3854 36.8466C67.1722 36.5883 67.1804 36.2139 67.4004 35.9624L69.0882 34.0381L67.7776 34.7953C67.4865 34.9661 67.1134 34.895 66.9016 34.6313C66.6897 34.3675 66.7034 33.9876 66.933 33.7416L68.3448 32.2136L67.3416 32.7917C67.0451 32.9639 66.6624 32.8888 66.4547 32.6113C66.2469 32.3353 66.2784 31.9485 66.5271 31.708L67.0505 31.205L67.0054 31.231C66.7198 31.3977 66.3535 31.3349 66.1403 31.0793C65.9271 30.8251 65.9271 30.4547 66.1403 30.2005L68.025 27.9565L66.4875 28.8434C66.195 29.0156 65.8178 28.9432 65.6073 28.674C65.3982 28.4075 65.416 28.0248 65.6511 27.7802L67.2214 26.1388L66.0474 26.8167C65.7194 27.0066 65.3012 26.8946 65.114 26.5666C64.924 26.2399 65.0361 25.8217 65.3641 25.6331L70.6831 22.5636C70.9756 22.3928 71.3528 22.4652 71.5633 22.7331C71.7724 22.9996 71.7546 23.3822 71.5195 23.6269L69.952 25.2641L70.705 24.8309C70.9906 24.6642 71.3569 24.727 71.5701 24.9826C71.7833 25.2368 71.7833 25.6072 71.5701 25.8614L69.6841 28.1068L71.223 27.2198C71.5182 27.0449 71.9008 27.1214 72.1099 27.4002C72.3177 27.6763 72.2862 28.0631 72.0375 28.3036L71.5141 28.8065L71.5592 28.7806C71.8503 28.6097 72.222 28.6822 72.4352 28.9446C72.6457 29.2083 72.6334 29.5883 72.4038 29.8343L70.9934 31.3622L71.9938 30.7841C72.2821 30.616 72.6511 30.6816 72.8643 30.9413C73.0762 31.1996 73.0693 31.574 72.8493 31.8255L71.1615 33.7484L72.4735 32.9913C72.7673 32.8191 73.1472 32.8942 73.3563 33.1662C73.5654 33.4382 73.5408 33.8222 73.2976 34.0655L72.4379 34.9251L72.8411 34.6928C73.1281 34.526 73.4944 34.5903 73.7089 34.8458C73.9208 35.1028 73.918 35.4745 73.7035 35.7273L72.1878 37.504L73.3099 36.8562C73.5873 36.6936 73.9413 36.7482 74.1586 36.9901C74.3745 37.2293 74.3936 37.5874 74.205 37.847L73.3932 38.9732C73.6201 38.9814 73.8388 39.103 73.9604 39.3148C74.1504 39.6415 74.0383 40.0597 73.7103 40.2483L71.4649 41.5439C71.3583 41.6067 71.2407 41.6368 71.1232 41.6368Z" fill="#56B76B"/>
<path d="M59.9016 41.6245C59.702 41.6245 59.508 41.5384 59.3727 41.3745C59.1608 41.1175 59.1677 40.7417 59.3877 40.4916L59.8647 39.9463L58.5322 40.7143C58.2397 40.8879 57.8611 40.8141 57.6493 40.5408C57.4402 40.2715 57.4621 39.8861 57.7026 39.6442L59.6651 37.6516L57.7805 38.7395C57.4757 38.9185 57.089 38.8325 56.8826 38.5455C56.679 38.2584 56.7254 37.8635 56.9892 37.6325L58.4338 36.3738L58.2247 36.4941C57.9267 36.669 57.5441 36.5911 57.3363 36.3109C57.13 36.0349 57.1614 35.6467 57.4129 35.4076L60.1845 32.7726L58.8656 33.5339C58.5595 33.7129 58.1659 33.6241 57.9636 33.3344C57.7614 33.0446 57.8147 32.6455 58.0866 32.4187L59.0201 31.6397C58.7891 31.6574 58.5322 31.5563 58.3859 31.3377C58.1864 31.0383 58.252 30.6352 58.5376 30.4165L62.3192 27.5164L59.8619 28.9351C59.5544 29.1154 59.1595 29.0252 58.9572 28.7314C58.7563 28.4376 58.8137 28.0371 59.0911 27.813L63.813 23.9945L60.5166 25.8983C60.2036 26.0814 59.7977 25.983 59.6009 25.6769C59.4027 25.3708 59.4806 24.9635 59.7772 24.7517L68.3694 18.6044L60.5111 23.1404C60.194 23.3276 59.7881 23.2251 59.5913 22.9135C59.3945 22.6019 59.4806 22.1933 59.784 21.9842L65.345 18.178L60.5056 20.9715C60.1872 21.1573 59.7827 21.0562 59.5859 20.7446C59.3891 20.433 59.4752 20.0244 59.7772 19.8166L64.3487 16.6829L60.5015 18.9037C60.1899 19.0868 59.7881 18.9898 59.59 18.6905C59.3904 18.3885 59.4601 17.9853 59.7471 17.7666L60.2528 17.3853L59.9248 17.5753C59.6146 17.7571 59.2155 17.6628 59.016 17.3648C58.8164 17.0669 58.8807 16.6624 59.1649 16.4437L59.7116 16.0214L58.5704 16.6788C58.2766 16.8523 57.8994 16.7785 57.6876 16.5052C57.4785 16.236 57.5003 15.8506 57.7409 15.6087L60.4605 12.8466L56.3564 15.2151C56.0872 15.3722 55.7455 15.3244 55.5269 15.103C55.3096 14.8802 55.2699 14.5372 55.4312 14.2707L56.8607 11.9023L53.9156 13.6024C53.6381 13.765 53.2828 13.709 53.0669 13.4698C52.8523 13.2307 52.8304 12.8726 53.019 12.6116L54.3392 10.7748C54.1014 10.8718 53.8295 10.8281 53.6313 10.6531C53.4126 10.4591 53.3402 10.1461 53.4536 9.87688L54.1506 8.21775L54.1219 8.17401C53.9333 7.84738 54.0454 7.42918 54.3734 7.23921L54.8203 6.98228C55.0759 6.83468 55.3929 6.86612 55.6143 7.06291C55.8344 7.25698 55.9054 7.56995 55.792 7.83918L55.4995 8.53618L56.392 8.02095C56.6694 7.85831 57.0247 7.91435 57.2407 8.15351C57.4552 8.39268 57.4771 8.75075 57.2885 9.01178L55.9792 10.8335L58.4734 9.39308C58.7413 9.23591 59.0843 9.28375 59.303 9.50515C59.5203 9.72791 59.5599 10.0709 59.3986 10.3374L57.9691 12.7059L64.1437 9.14161C64.4389 8.97078 64.8161 9.04321 65.0266 9.31518C65.2357 9.58441 65.2138 9.96982 64.9733 10.2117L62.2536 12.9737L67.9034 9.71151C68.2136 9.52975 68.6127 9.62405 68.8122 9.92198C69.0118 10.2199 68.9475 10.6244 68.6633 10.8431L68.1221 11.2613L69.1566 10.6641C69.4669 10.4809 69.8687 10.5766 70.0682 10.8773C70.2677 11.1793 70.198 11.5825 69.911 11.8011L69.3958 12.1893L78.9488 6.67478C79.27 6.48891 79.6718 6.59141 79.8686 6.90165C80.0654 7.21325 79.9793 7.62188 79.6772 7.82961L75.1071 10.962L80.09 8.08655C80.4098 7.90205 80.8143 8.00318 81.0097 8.31341C81.2065 8.62502 81.1204 9.03365 80.817 9.24275L75.2602 13.0462L79.8289 10.4085C80.1405 10.224 80.5464 10.3224 80.7446 10.6299C80.9428 10.936 80.8649 11.3433 80.5683 11.5551L71.0604 18.3584C71.2668 18.368 71.4663 18.4718 71.5907 18.6536C71.7916 18.9474 71.7342 19.3479 71.4567 19.572L66.7349 23.3891L70.6859 21.1095C70.9962 20.9277 71.3952 21.0207 71.5961 21.3213C71.7957 21.6206 71.7301 22.0238 71.4444 22.2425L65.5978 26.7265C65.6826 26.7743 65.7577 26.8427 65.8179 26.9274C66.0201 27.2185 65.9668 27.6162 65.6949 27.8431L64.7587 28.6234C64.9938 28.6057 65.2261 28.6972 65.3737 28.8954C65.5801 29.1715 65.5486 29.5596 65.2972 29.7988L62.5269 32.4324L63.843 31.6725C64.1451 31.4975 64.5359 31.5795 64.7409 31.8665C64.9446 32.1535 64.8981 32.5485 64.6343 32.7795L63.187 34.0409L63.3497 33.948C63.6449 33.7771 64.0221 33.8509 64.2325 34.1215C64.4416 34.3908 64.4198 34.7762 64.1792 35.0181L62.2167 37.0107L62.7538 36.7004C63.0408 36.531 63.4098 36.5993 63.6244 36.8576C63.8362 37.1145 63.8294 37.4904 63.6093 37.7405L62.7333 38.7409C62.9041 38.786 63.0572 38.8953 63.1529 39.0607C63.3428 39.3873 63.2308 39.8055 62.9028 39.9941L60.246 41.5289C60.1394 41.5917 60.0218 41.6204 59.9043 41.6204L59.9016 41.6245Z" fill="#56B76B"/>
<path d="M21.9238 41.6369C21.7284 41.6369 21.5357 41.5521 21.4017 41.395C21.1885 41.1421 21.1858 40.7731 21.3963 40.5175L21.5862 40.2893L20.4902 40.9207C20.1936 41.0943 19.8123 41.0164 19.6046 40.7431C19.3968 40.4697 19.4242 40.083 19.6702 39.8424L19.9011 39.6156L19.6784 39.744C19.3927 39.9121 19.0278 39.8465 18.8133 39.5937C18.6014 39.3395 18.6001 38.9705 18.8133 38.7149L20.7116 36.4367L19.1344 37.3469C18.8461 37.5164 18.4771 37.448 18.2639 37.1884C18.052 36.9301 18.0589 36.5556 18.2803 36.3041L19.9462 34.4154L18.6602 35.1575C18.3623 35.3338 17.9769 35.2532 17.7691 34.9716C17.5628 34.6915 17.5997 34.302 17.8539 34.0655L18.1313 33.8086C17.8921 33.8482 17.6461 33.769 17.4835 33.5735C17.2703 33.318 17.2717 32.9476 17.4862 32.6934L19.3326 30.5163L17.8416 31.3773C17.5614 31.5413 17.202 31.4825 16.986 31.2365C16.7715 30.9905 16.7592 30.6284 16.9573 30.3687L19.1973 27.4495L17.2348 28.5811C16.9382 28.7547 16.5569 28.6768 16.3492 28.4034C16.1414 28.1287 16.1688 27.7433 16.4161 27.5014L17.4958 26.4436L16.8521 26.814C16.5241 27.0026 16.1059 26.8919 15.9187 26.5639C15.7287 26.2373 15.8408 25.819 16.1688 25.6304L21.4878 22.5595C21.7817 22.3846 22.1643 22.4625 22.3734 22.7372C22.5812 23.0119 22.5538 23.3973 22.3065 23.6392L21.2268 24.697L21.4865 24.548C21.7653 24.3813 22.1261 24.4415 22.342 24.6888C22.5566 24.9348 22.5689 25.297 22.3707 25.5567L20.1321 28.4759L22.0564 27.3648C22.3406 27.198 22.7096 27.2623 22.9228 27.5178C23.136 27.7734 23.1347 28.1437 22.9201 28.3979L21.0724 30.5764L22.5648 29.7154C22.8641 29.5405 23.2495 29.6211 23.4558 29.9013C23.6622 30.1815 23.6253 30.571 23.3711 30.8074L23.0937 31.0643C23.3315 31.0233 23.5829 31.1053 23.7456 31.3049C23.9574 31.5632 23.9506 31.9376 23.7292 32.1891L22.0632 34.0778L23.3492 33.3357C23.6349 33.1676 23.9998 33.2332 24.2143 33.4861C24.4262 33.7403 24.4275 34.1093 24.2143 34.3648L22.316 36.6417L23.8699 35.7465C24.1638 35.573 24.5464 35.6508 24.7555 35.9242C24.9633 36.1975 24.9359 36.5843 24.6899 36.8248L24.3715 37.1378C24.6093 37.0859 24.8744 37.1665 25.0412 37.3633C25.2544 37.6161 25.2571 37.9851 25.0466 38.2407L24.407 39.0156C24.5505 39.0689 24.6776 39.17 24.761 39.3149C24.951 39.6415 24.8389 40.0597 24.5109 40.2483L22.2641 41.5439C22.1575 41.6068 22.04 41.6355 21.9224 41.6355L21.9238 41.6369Z" fill="#E53248"/>
<path d="M10.9781 41.6342C10.7909 41.6342 10.6077 41.5576 10.4752 41.4128C10.2579 41.1763 10.2346 40.821 10.4178 40.56L11.7311 38.6808L8.98688 40.2648C8.69168 40.437 8.31037 40.3618 8.10127 40.0857C7.89354 39.8124 7.92224 39.4256 8.16824 39.1851L10.2989 37.1009L8.69441 38.0275C8.39374 38.2052 8.00151 38.1205 7.79651 37.8321C7.59287 37.5451 7.63934 37.1501 7.90584 36.9192L9.29574 35.7151L9.18231 35.7794C8.88574 35.9557 8.49761 35.8764 8.28987 35.5921C8.08487 35.312 8.12178 34.9211 8.37734 34.6847L10.7294 32.5199L9.76861 33.0734C9.46247 33.2524 9.06751 33.1622 8.86524 32.8725C8.66434 32.58 8.71901 32.1809 8.99234 31.9554L9.82191 31.2707C9.61007 31.2666 9.40371 31.1628 9.27524 30.9769C9.07298 30.6844 9.12901 30.2854 9.40371 30.0599L15.007 25.4487L10.9084 27.8144C10.5982 27.9989 10.1964 27.9005 9.99547 27.5999C9.79594 27.2965 9.86837 26.8919 10.1581 26.676L12.1015 25.2246L11.3198 25.6756C11.0054 25.8615 10.5982 25.7603 10.4014 25.4515C10.2046 25.1426 10.2866 24.734 10.5872 24.5235L12.2833 23.34L11.3157 23.8976C11.0027 24.0821 10.5954 23.9823 10.3986 23.6748C10.2005 23.3659 10.2811 22.96 10.5804 22.7482L15.6111 19.1935L11.3116 21.6754C10.9972 21.8599 10.5927 21.7601 10.3932 21.4526C10.1964 21.1437 10.277 20.7365 10.5763 20.5246L14.8034 17.5521L11.3075 19.5707C11.0082 19.747 10.62 19.6664 10.4123 19.3794C10.2073 19.0965 10.2497 18.7042 10.5093 18.4705L14.5902 14.8147L10.3071 17.287C10.0078 17.4633 9.61964 17.3827 9.41191 17.0957C9.20691 16.8128 9.24928 16.4205 9.50894 16.1868L12.3407 13.6517L8.32541 15.9682C8.01927 16.1486 7.62567 16.0584 7.42341 15.7686C7.22114 15.4762 7.27444 15.0785 7.54777 14.8516L7.89354 14.5646L6.99564 15.0826C6.70864 15.2507 6.34237 15.1851 6.12781 14.9281C5.91598 14.6726 5.91871 14.3008 6.13464 14.0466L7.08038 12.9396L5.31054 13.9605C5.03037 14.1273 4.66957 14.0658 4.45227 13.8184C4.23907 13.571 4.22951 13.2061 4.43041 12.9478L5.58934 11.4677L3.43547 12.7114C3.16624 12.8672 2.82594 12.8221 2.60727 12.6007C2.38997 12.3793 2.34897 12.0376 2.50751 11.7711L3.92064 9.39996L1.79684 10.6245C1.51257 10.7912 1.14494 10.727 0.933108 10.4755C0.719908 10.2227 0.717174 9.8537 0.927641 9.59813L1.57407 8.81503C1.43057 8.76173 1.30347 8.6606 1.22011 8.51573C1.03014 8.1891 1.14221 7.7709 1.47021 7.5823L3.71837 6.28396C4.00127 6.11723 4.36754 6.1801 4.58211 6.43293C4.79531 6.68576 4.79804 7.05476 4.58757 7.31033L4.38804 7.55223L5.50871 6.90443C5.77794 6.7459 6.11824 6.79373 6.33691 7.01513C6.55421 7.23653 6.59521 7.5782 6.43667 7.8447L5.02354 10.2159L7.95914 8.5212C8.24204 8.35583 8.60148 8.41733 8.81741 8.66333C9.03061 8.9107 9.04017 9.2756 8.83927 9.5339L7.68034 11.0126L9.84514 9.7635C10.1308 9.5954 10.4984 9.661 10.713 9.91793C10.9248 10.1735 10.9221 10.5452 10.7061 10.7994L9.76041 11.9078L14.1734 9.36033C14.4795 9.1813 14.8731 9.27013 15.0754 9.55986C15.2776 9.85233 15.2243 10.25 14.951 10.4769L14.6011 10.7666L17.3632 9.1731C17.6638 8.99816 18.052 9.0788 18.2583 9.36443C18.4633 9.64733 18.421 10.0396 18.1613 10.2733L15.3296 12.8084L19.6072 10.3389C19.9079 10.1626 20.296 10.2446 20.5024 10.5302C20.7074 10.8131 20.665 11.2053 20.4054 11.439L16.3259 15.0935L27.3644 8.72073C27.6774 8.53623 28.0833 8.636 28.2828 8.9435C28.4796 9.25237 28.399 9.65963 28.0997 9.87146L23.8712 12.844L27.8701 10.537C28.1844 10.3512 28.5903 10.4523 28.7871 10.7598C28.9853 11.0687 28.9047 11.4746 28.6054 11.6864L23.5747 15.2411L25.3732 14.2024C25.6875 14.0179 26.0948 14.1177 26.2916 14.4266C26.4884 14.7354 26.4064 15.1441 26.1057 15.3545L22.0631 18.1753C22.1971 18.2245 22.316 18.3147 22.3993 18.4405C22.5989 18.7439 22.5264 19.1484 22.2367 19.3643L20.2947 20.8144L21.4864 20.1269C21.7939 19.9465 22.1875 20.0381 22.3898 20.3278C22.592 20.6203 22.536 21.0194 22.2613 21.2449L16.1632 26.2633C16.3696 26.2715 16.5719 26.374 16.699 26.5571C16.8999 26.8496 16.8452 27.2486 16.5719 27.4741L15.7423 28.1588C15.9473 28.1629 16.1482 28.26 16.278 28.4376C16.4844 28.7178 16.4475 29.1087 16.1919 29.3451L13.8385 31.5113L14.7993 30.9578C15.1027 30.7787 15.4936 30.8662 15.6972 31.1532C15.9008 31.4402 15.8544 31.8352 15.5879 32.0661L14.2034 33.2661L14.3114 33.2046C14.6052 33.031 14.9879 33.1075 15.197 33.3836C15.4047 33.6569 15.376 34.0437 15.13 34.2842L12.9967 36.3711L13.7128 35.957C13.9889 35.7944 14.3428 35.8504 14.5574 36.0869C14.7747 36.3233 14.7979 36.6786 14.6148 36.9397L13.2017 38.961C13.4504 38.9323 13.6937 39.0717 13.8276 39.3013C14.0176 39.6279 13.9055 40.0461 13.5775 40.2347L11.3198 41.5399C11.2132 41.6027 11.0956 41.6314 10.9781 41.6314V41.6342Z" fill="#E53248"/>
<path d="M40.7814 81.2702C40.5491 81.2702 40.3236 81.1513 40.1951 80.9395C40.0024 80.6197 40.1035 80.2056 40.4193 80.0074L43.4286 78.1255L38.3433 81.0597C38.0221 81.247 37.6135 81.1431 37.418 80.8247C37.224 80.509 37.3196 80.0962 37.6299 79.894L55.4157 68.3784L34.328 80.5527C34.0068 80.7413 33.5955 80.6361 33.4014 80.3149C33.2087 79.9965 33.3071 79.581 33.6214 79.3828L48.8488 69.7902L31.335 79.9008C31.0097 80.0894 30.5997 79.9814 30.407 79.6603C30.2143 79.3391 30.3155 78.9264 30.6325 78.7282L43.8072 70.5391L28.8654 79.1655C28.5415 79.3528 28.1288 79.2448 27.9375 78.925C27.7448 78.6066 27.8459 78.1911 28.163 77.9929L44.6463 67.7388L26.4082 78.2676C26.0829 78.4549 25.6702 78.3483 25.4788 78.0257C25.2875 77.7032 25.3914 77.2891 25.7084 77.0937L36.4955 70.4749L24.4675 77.4189C24.1422 77.6062 23.7281 77.4982 23.5382 77.1757C23.3468 76.8545 23.4507 76.439 23.7691 76.2436L32.2288 71.0817L22.7469 76.5552C22.4243 76.7438 22.0143 76.6386 21.8203 76.3174C21.6276 75.999 21.726 75.5849 22.0389 75.3853L48.5536 58.6218L20.1365 75.0273C19.8113 75.2145 19.3972 75.1065 19.2072 74.784C19.0159 74.4628 19.1197 74.0474 19.4382 73.8519L25.3422 70.2521L18.7111 74.0802C18.3899 74.2701 17.9772 74.1608 17.7831 73.841C17.5904 73.5212 17.6916 73.1071 18.0073 72.9089L37.1051 60.9643L16.8142 72.678C16.4889 72.8652 16.0775 72.7572 15.8862 72.4374C15.6935 72.1176 15.7946 71.7035 16.1117 71.5054L30.4234 62.6097L15.2411 71.3742C14.92 71.5628 14.5072 71.4575 14.3132 71.135C14.1205 70.8166 14.2202 70.4025 14.5359 70.2043L31.0658 59.8135L13.6312 69.8777C13.31 70.0663 12.8987 69.961 12.7046 69.6399C12.5119 69.3228 12.6089 68.9087 12.9219 68.7092L30.1911 57.7389L12.0363 68.2199C11.7124 68.4071 11.2997 68.2992 11.1083 67.9807C10.9156 67.6609 11.0168 67.2468 11.3325 67.0487L20.6504 61.2253L10.8651 66.8751C10.5439 67.0623 10.1353 66.9585 9.94121 66.6414C9.74714 66.3271 9.84008 65.9143 10.1489 65.7107L27.9566 54.0845L9.29341 64.8593C8.97224 65.0451 8.56498 64.9413 8.36954 64.6269C8.17548 64.314 8.26704 63.9012 8.57454 63.6976L24.626 53.11L7.87071 62.7833C7.54818 62.9678 7.14364 62.8667 6.94821 62.5523C6.75278 62.238 6.84298 61.828 7.15048 61.623L20.8745 52.506L6.65164 60.7169C6.33048 60.9041 5.92184 60.8003 5.72641 60.4832C5.53234 60.1675 5.62664 59.7548 5.93687 59.5525L13.5437 54.6106L5.79474 59.0824C5.47631 59.2696 5.07041 59.1671 4.87361 58.8541C4.67817 58.5412 4.76564 58.1325 5.07041 57.9248L15.2384 51.0245L4.85037 57.0214C4.53604 57.2059 4.13287 57.1062 3.93471 56.8028C3.73654 56.4966 3.81307 56.0907 4.10691 55.8762L14.6999 48.1969L3.85407 54.4576C3.54384 54.6421 3.13931 54.545 2.93977 54.2403C2.74161 53.9355 2.81541 53.5296 3.10787 53.315L10.5261 47.8771L3.14477 52.1383C2.83727 52.3201 2.44367 52.2272 2.24141 51.9374C2.03914 51.6436 2.09517 51.2459 2.36987 51.019L8.75904 45.7697L2.49151 49.3872C2.18264 49.5676 1.78631 49.4747 1.58541 49.1822C1.38451 48.8857 1.44327 48.4852 1.72344 48.2625L4.36521 46.1537L2.15121 47.4315C1.86421 47.5996 1.49657 47.5327 1.28474 47.2785C1.07154 47.0215 1.07427 46.6512 1.28884 46.397L3.67367 43.5967L1.83824 44.6545C1.57447 44.8103 1.23964 44.7665 1.02097 44.5547C0.800941 44.3429 0.750374 44.0108 0.893874 43.7402L1.47471 42.6564C1.24101 42.6537 1.01414 42.5307 0.888407 42.3147C0.699807 41.9881 0.811874 41.5699 1.13987 41.3799L2.78261 40.4328C3.04774 40.2811 3.38121 40.3221 3.59987 40.534C3.81991 40.7472 3.87047 41.0779 3.72697 41.3485L3.23224 42.2724L6.41794 40.4342C6.70494 40.2661 7.07121 40.3317 7.28441 40.5873C7.49761 40.8428 7.49488 41.2146 7.28031 41.4688L4.89684 44.2691L11.5375 40.4342C11.845 40.2524 12.2413 40.3454 12.4436 40.6392C12.6445 40.9358 12.5857 41.3362 12.3055 41.559L9.66378 43.6677L15.2671 40.4342C15.5746 40.2524 15.9682 40.3454 16.1705 40.6365C16.3727 40.9276 16.3167 41.3266 16.042 41.5535L9.65284 46.8029L20.6846 40.4342C20.9975 40.2511 21.3993 40.3481 21.5989 40.6515C21.797 40.9563 21.7232 41.3622 21.4308 41.5767L14.0125 47.0147L25.4119 40.4342C25.7248 40.2483 26.1266 40.3495 26.3275 40.6529C26.5257 40.959 26.4492 41.3649 26.1553 41.5781L15.5609 49.2601L30.8498 40.4342C31.1683 40.2497 31.5755 40.3495 31.771 40.6624C31.9664 40.9754 31.8789 41.384 31.5742 41.5918L21.4034 48.4934L35.3639 40.4356C35.6851 40.2483 36.0937 40.3536 36.2892 40.6693C36.4832 40.985 36.3889 41.3977 36.0787 41.6L28.4869 46.5323L39.0471 40.4356C39.3669 40.2483 39.7728 40.3508 39.9696 40.6665C40.165 40.9795 40.0748 41.3909 39.7673 41.5959L26.0446 50.7129L43.8441 40.4356C44.1639 40.2483 44.5712 40.3522 44.768 40.6679C44.962 40.9809 44.8705 41.3936 44.563 41.5972L28.5074 52.1875L48.8625 40.4356C49.1823 40.2483 49.5923 40.3536 49.7864 40.6693C49.9804 40.985 49.8875 41.3963 49.5786 41.6L31.7723 53.2262L53.9246 40.4369C54.2486 40.2483 54.6586 40.3563 54.8526 40.6761C55.0453 40.9959 54.9442 41.41 54.6285 41.6082L45.2996 47.4384L57.4247 40.4383C57.7472 40.2511 58.1586 40.3563 58.3513 40.6761C58.544 40.9932 58.4469 41.4073 58.134 41.6068L40.8593 52.5811L61.8923 40.4383C62.2162 40.2511 62.6276 40.3563 62.8203 40.6775C63.013 40.9959 62.9132 41.41 62.5975 41.6082L46.0677 51.9989L66.0907 40.4397C66.4133 40.2511 66.826 40.359 67.0187 40.6802C67.2114 41.0014 67.1103 41.4141 66.7932 41.6123L52.476 50.512L69.9215 40.441C70.244 40.2538 70.6568 40.3604 70.8494 40.6802C71.0422 41 70.941 41.4141 70.6253 41.6123L51.5439 53.546L74.2429 40.441C74.5654 40.2524 74.9809 40.3604 75.1722 40.6843C75.3636 41.0055 75.2597 41.4209 74.9413 41.6164L69.0168 45.2285L77.307 40.4424C77.6309 40.2552 78.0422 40.3604 78.2336 40.6802C78.4263 40.9986 78.3279 41.4127 78.0149 41.6123L51.5002 58.3758L80.2357 41.7858C80.5596 41.5959 80.9737 41.7052 81.1651 42.0291C81.3564 42.3503 81.2525 42.7657 80.9341 42.9612L72.5113 48.1012L80.1332 43.7005C80.4557 43.5106 80.8685 43.6185 81.0626 43.9424C81.2539 44.2636 81.15 44.6791 80.833 44.8745L70.0185 51.5097L79.9077 45.7997C80.2316 45.6098 80.6416 45.7177 80.8357 46.0403C81.0284 46.3587 80.9273 46.7742 80.6102 46.9723L64.1364 57.2196L79.4581 48.3745C79.7806 48.1846 80.192 48.2925 80.3861 48.6151C80.5788 48.9349 80.4776 49.349 80.1606 49.5471L67.0037 57.7253L78.8608 50.8796C79.1848 50.6924 79.5947 50.7976 79.7875 51.1174C79.9802 51.4372 79.8818 51.8513 79.5674 52.0495L64.3291 61.649L77.9438 53.7893C78.2664 53.602 78.6736 53.7059 78.869 54.0243C79.0631 54.34 78.9675 54.7528 78.6572 54.955L60.8782 66.4651L76.3845 57.5134C76.707 57.3262 77.1197 57.4342 77.3124 57.7526C77.5051 58.0724 77.404 58.4865 77.0883 58.6847L74.0393 60.5925L75.1012 59.9803C75.421 59.793 75.8296 59.8955 76.0237 60.2126C76.2191 60.5256 76.1275 60.9369 75.8214 61.1419L64.6885 68.5069L72.4416 64.0324C72.7601 63.8479 73.1632 63.9463 73.36 64.2579C73.5568 64.5668 73.4748 64.9754 73.1728 65.1845L65.868 70.2603L68.0724 68.988C68.3977 68.798 68.8172 68.9087 69.0058 69.2381C69.1958 69.5647 69.0837 69.9829 68.7557 70.1715L52.4117 79.607C52.0947 79.7915 51.6902 79.6917 51.4934 79.3815C51.2966 79.0726 51.3785 78.664 51.6806 78.4549L58.9799 73.3818L45.9474 80.9067C45.6276 81.0912 45.2176 80.99 45.0249 80.6743C44.8295 80.3614 44.921 79.95 45.2272 79.745L56.3723 72.3705L41.1203 81.1745C41.0124 81.2374 40.8948 81.2661 40.7787 81.2661L40.7814 81.2702Z" fill="#4337E5"/>
<path d="M52.6306 69.9883C52.427 69.9883 52.2247 69.8967 52.0908 69.7259C51.8817 69.4566 51.9022 69.074 52.14 68.8293L55.2765 65.5958L51.7163 67.6526C51.4061 67.833 51.0111 67.7401 50.8102 67.4476C50.6093 67.1524 50.6681 66.752 50.9482 66.5279L52.8903 64.974L51.335 65.8705C51.0234 66.0509 50.623 65.958 50.4234 65.6559C50.2239 65.3539 50.2936 64.9494 50.5833 64.7321L51.8379 63.7918L50.9961 64.277C50.6831 64.4587 50.284 64.3631 50.0859 64.0651C49.8863 63.7645 49.9533 63.3613 50.2389 63.1426L53.8442 60.3915L50.5697 62.2816C50.2608 62.4648 49.8617 62.3677 49.6622 62.0739C49.4613 61.7759 49.5242 61.3741 49.8057 61.1528L56.1976 56.1453L50.0189 59.7109C49.7059 59.8954 49.2987 59.7957 49.1019 59.4882C48.9037 59.1807 48.9843 58.7734 49.2823 58.5616L51.9309 56.6865L49.654 58.0012C49.341 58.1844 48.9338 58.086 48.7383 57.7798C48.5402 57.4737 48.6181 57.0678 48.9146 56.8546L52.2507 54.467L49.2659 56.189C48.9488 56.3749 48.5456 56.2738 48.3488 55.9663C48.1507 55.6574 48.2313 55.2501 48.5306 55.0397L50.6134 53.5691L48.9146 54.5504C48.6058 54.7308 48.2067 54.6392 48.0085 54.344C47.8076 54.0475 47.8678 53.647 48.1493 53.4243L54.0451 48.7434L47.9279 52.2749C47.6136 52.458 47.209 52.3596 47.0109 52.0535C46.8127 51.7474 46.892 51.3387 47.1899 51.1269L48.588 50.1306L46.4191 51.3825C46.1143 51.5629 45.7194 51.4727 45.5171 51.1829C45.3148 50.8932 45.3681 50.4941 45.6401 50.2673L51.253 45.5796L42.5883 50.5816C42.2754 50.7634 41.8763 50.6677 41.6781 50.3698C41.4786 50.0705 41.5456 49.6659 41.8312 49.4473L45.1754 46.8888L40.8513 49.3844C40.5479 49.5607 40.1557 49.476 39.952 49.1876C39.7484 48.8979 39.7976 48.5029 40.0655 48.2733L43.504 45.3377L39.5038 47.6446C39.2168 47.8127 38.8491 47.7471 38.6359 47.4888C38.4227 47.2319 38.4268 46.8602 38.6441 46.6073L41.1998 43.6444L38.6906 45.0931C38.4419 45.2352 38.133 45.2106 37.9157 45.0288C37.6957 44.8484 37.6096 44.5491 37.7039 44.2799L38.4241 42.1766C38.282 42.1219 38.1603 42.0222 38.0783 41.88C37.8884 41.5534 38.0004 41.1352 38.3284 40.9466L39.1963 40.4464C39.4436 40.3043 39.7525 40.3289 39.9712 40.5106C40.1912 40.691 40.2773 40.9903 40.183 41.2596L39.5871 42.9966L44.011 40.4437C44.298 40.2756 44.6657 40.3398 44.8789 40.5995C45.0921 40.8564 45.088 41.2281 44.8707 41.481L42.315 44.4439L49.2508 40.4396C49.557 40.2605 49.9478 40.3494 50.1501 40.6364C50.3537 40.9261 50.3045 41.3211 50.0367 41.5507L46.5995 44.4863L53.6146 40.4368C53.9248 40.2537 54.3253 40.3494 54.5248 40.6487C54.7243 40.948 54.6574 41.3525 54.3717 41.5712L51.0302 44.1268L57.429 40.4341C57.7351 40.2537 58.1287 40.3439 58.331 40.6336C58.5332 40.9234 58.4799 41.3224 58.208 41.5493L52.5951 46.237L60.3741 41.7461C60.6871 41.5602 61.0916 41.66 61.2912 41.9675C61.4893 42.275 61.4101 42.6823 61.1121 42.8941L59.7127 43.8904L61.3841 42.9269C61.6916 42.7438 62.0907 42.8381 62.2902 43.1333C62.4911 43.4298 62.431 43.8303 62.1494 44.053L56.2536 48.7339L62.9667 44.858C63.2797 44.6735 63.6869 44.7733 63.8837 45.0808C64.0819 45.3896 64.0013 45.7969 63.702 46.0074L61.6137 47.482L63.6828 46.2875C63.9972 46.103 64.4003 46.2 64.5985 46.5089C64.7967 46.815 64.7188 47.221 64.4222 47.4342L61.0916 49.8176L64.0628 48.1025C64.3757 47.918 64.783 48.0177 64.9798 48.3252C65.178 48.6327 65.0973 49.04 64.7994 49.2518L62.1508 51.1255L63.8892 50.1224C64.1981 49.9393 64.5971 50.0363 64.7967 50.3301C64.9976 50.6281 64.9347 51.0299 64.6532 51.2513L58.2599 56.2601L62.364 53.8917C62.6729 53.7072 63.0747 53.8042 63.2742 54.1035C63.4737 54.4028 63.4068 54.8073 63.1211 55.026L59.5145 57.7785L61.0534 56.8915C61.3636 56.7083 61.7654 56.804 61.9649 57.1061C62.1645 57.4081 62.0948 57.8126 61.805 58.0299L60.2457 59.1971C60.5026 59.1588 60.7623 59.2654 60.914 59.4868C61.1149 59.782 61.0561 60.1824 60.7759 60.4066L58.8366 61.9577C59.1318 61.7883 59.509 61.8634 59.7181 62.1299C59.9272 62.3992 59.9067 62.7818 59.6689 63.0265L56.5311 66.2614L57.0996 65.9334C57.4262 65.7434 57.8444 65.8541 58.033 66.1835C58.223 66.5101 58.1109 66.9283 57.7829 67.1169L52.9682 69.8967C52.8616 69.9596 52.744 69.9883 52.6265 69.9883H52.6306Z" fill="#7DE56B"/>
<path d="M27.2954 72.5876C27.0972 72.5876 26.9032 72.5029 26.7692 72.3402C26.5574 72.0833 26.5601 71.7116 26.7774 71.4574L26.977 71.2264L25.967 71.8086C25.6786 71.9781 25.3096 71.9097 25.0964 71.6501C24.8846 71.3918 24.8914 71.0173 25.1128 70.7672L27.8981 67.6061L24.9748 69.2926C24.6755 69.4716 24.2819 69.3855 24.0783 69.0999C23.8746 68.8142 23.9184 68.4193 24.1821 68.1883L26.3005 66.3255L24.5416 67.3396C24.2423 67.5173 23.8514 67.4325 23.6464 67.1483C23.4414 66.8626 23.4851 66.4704 23.7462 66.2367L27.3569 63.0305L24.014 64.9602C23.7038 65.1406 23.3088 65.0477 23.1079 64.7552C22.907 64.46 22.9658 64.0596 23.246 63.8355L26.1023 61.5504L23.5808 63.0045C23.2801 63.1822 22.8879 63.0975 22.6829 62.8091C22.4793 62.5221 22.5257 62.1271 22.7922 61.8962L27.4334 57.87L22.728 60.5855C22.4205 60.7646 22.0283 60.6771 21.826 60.386C21.6237 60.0949 21.677 59.6972 21.949 59.469L25.3821 56.6126L20.9869 59.1492C20.6889 59.3241 20.3035 59.2448 20.0958 58.9633C19.8894 58.6845 19.9263 58.2936 20.1805 58.0572L24.7083 53.8492L18.6991 57.3178C18.3998 57.4941 18.0116 57.4135 17.8039 57.1265C17.5989 56.8436 17.6413 56.45 17.9023 56.2163L22.0419 52.5167L17.126 55.3539C16.8267 55.5316 16.4331 55.4482 16.2281 55.1585C16.0245 54.8729 16.071 54.4779 16.3361 54.2469L19.709 51.3141L17.2026 52.7614C16.9142 52.9295 16.5479 52.8625 16.3334 52.6042C16.1202 52.3473 16.127 51.9728 16.3457 51.7213L18.0226 49.8053C17.7028 49.9542 17.3105 49.8435 17.1329 49.5319C16.9429 49.2053 17.055 48.7871 17.383 48.5985L20.9021 46.5663C21.1905 46.3968 21.5568 46.4651 21.7713 46.7234C21.9845 46.9804 21.9777 47.3548 21.759 47.6063L20.0849 49.5196L25.1743 46.5827C25.4764 46.4064 25.8686 46.4884 26.0722 46.7781C26.2759 47.0637 26.2294 47.4587 25.9643 47.6897L22.5913 50.6225L27.0931 48.0245C27.3952 47.8482 27.7819 47.9316 27.9883 48.2158C28.1933 48.4987 28.1509 48.8923 27.8899 49.126L23.7489 52.827L29.2566 49.6481C29.5531 49.4732 29.9399 49.5524 30.1476 49.834C30.354 50.1128 30.3171 50.5036 30.0629 50.7401L25.5365 54.9467L31.6223 51.4343C31.9298 51.2539 32.322 51.3441 32.5243 51.6339C32.7265 51.9236 32.6732 52.3227 32.4013 52.5509L28.9655 55.41L32.9302 53.1208C33.2336 52.9431 33.6244 53.0292 33.8281 53.3162C34.0317 53.6032 33.9852 53.9982 33.7187 54.2292L29.0775 58.2554L33.2254 55.861C33.5329 55.6778 33.9292 55.7721 34.1315 56.066C34.3324 56.3612 34.2736 56.7616 33.9934 56.9857L31.1412 59.2681L32.4983 58.485C32.8003 58.3114 33.1885 58.3934 33.3935 58.6763C33.5985 58.9619 33.5547 59.3542 33.2937 59.5879L29.6816 62.7941L31.5799 61.6994C31.8819 61.5231 32.2728 61.6078 32.4764 61.8921C32.6801 62.1777 32.6363 62.5727 32.3726 62.8036L30.2542 64.6678L30.8255 64.3384C31.1125 64.1703 31.4829 64.2359 31.6961 64.4969C31.9079 64.7552 31.9011 65.1297 31.6797 65.3798L28.893 68.5423L29.7691 68.038C30.0561 67.8685 30.4237 67.9355 30.6369 68.1924C30.8487 68.4493 30.846 68.8211 30.6287 69.0753L29.78 70.0634C29.8852 70.1221 29.9768 70.2069 30.0397 70.3203C30.2296 70.6469 30.1176 71.0651 29.7896 71.2537L27.6384 72.496C27.5318 72.5589 27.4129 72.5876 27.2954 72.5876Z" fill="#7DE56B"/>
<path d="M78.6858 52.8433C78.5273 52.8433 78.3701 52.7873 78.243 52.6793C78.023 52.4921 77.9437 52.186 78.0476 51.9154L78.3715 51.0708L78.2717 51.1282C78.0025 51.284 77.6622 51.2389 77.4449 51.0175C77.2276 50.7974 77.1852 50.4585 77.3424 50.1906L78.3072 48.5506L77.3342 49.1123C77.0526 49.2791 76.6918 49.2176 76.4759 48.9688C76.2613 48.7215 76.2531 48.3566 76.4554 48.0996L77.7742 46.42L76.439 47.1894C76.1479 47.3603 75.7734 47.2878 75.5616 47.0227C75.3498 46.7576 75.3662 46.3776 75.5971 46.1316L76.8312 44.8142L75.6491 45.4961C75.358 45.667 74.9849 45.5945 74.773 45.3321C74.5626 45.0684 74.5749 44.6898 74.8045 44.4424L75.3279 43.8739L74.9849 44.0721C74.8099 44.1759 74.5995 44.1937 74.4068 44.1226C74.2168 44.0516 74.0678 43.9012 73.9995 43.7099L73.3736 41.9606C73.1822 41.9565 72.898 41.8403 72.7709 41.6175C72.5823 41.2909 72.6957 40.8727 73.0237 40.6841L73.4323 40.449C73.6073 40.3506 73.8205 40.3288 74.0091 40.4012C74.199 40.4709 74.348 40.6212 74.4163 40.8126L75.0136 42.4799L78.5273 40.4518C78.817 40.2823 79.1915 40.352 79.4033 40.6158C79.6151 40.8795 79.6015 41.2581 79.3732 41.5055L78.8484 42.074L80.1413 41.3278C80.4324 41.157 80.8069 41.2294 81.0187 41.4945C81.2305 41.7597 81.2141 42.1396 80.9832 42.3856L79.7491 43.7031L80.1618 43.4653C80.4433 43.2999 80.8069 43.36 81.0201 43.6088C81.2346 43.8561 81.2428 44.221 81.0406 44.478L79.7231 46.1549L79.8721 46.0701C80.1399 45.9116 80.4789 45.9594 80.6989 46.1795C80.9162 46.4009 80.9586 46.7398 80.8014 47.0077L79.7272 48.8335C79.8762 48.8404 80.0251 48.895 80.1454 48.9975C80.3641 49.1861 80.4433 49.4909 80.3395 49.7615L79.6507 51.5573C79.6575 51.5696 79.6643 51.5805 79.6712 51.5915C79.8611 51.9167 79.7491 52.3363 79.4211 52.5249L79.0288 52.7518C78.9236 52.8133 78.8033 52.8433 78.6858 52.8433Z" fill="#7DE56B"/>
<path d="M41.4583 10.1776C41.2587 10.1776 41.0606 10.0902 40.9266 9.92345C40.7148 9.66241 40.7257 9.28385 40.9512 9.03511L41.6277 8.28755L39.3604 9.59681C39.0666 9.77038 38.6894 9.69385 38.4776 9.42325C38.2685 9.15265 38.2917 8.76861 38.5322 8.52535L40.4674 6.56418L37.827 8.08801C37.5332 8.26158 37.156 8.18778 36.9442 7.91445C36.7351 7.64385 36.7583 7.25981 36.9988 7.01655L38.9381 5.05128L37.2831 6.00658C36.9933 6.17468 36.6216 6.10771 36.4098 5.84531C36.1979 5.58428 36.2089 5.20708 36.4344 4.95835L37.5578 3.71605C37.3897 3.67095 37.2394 3.56161 37.1451 3.39898C36.9551 3.07235 37.0672 2.65415 37.3952 2.46555L40.1968 0.847413C40.4852 0.676579 40.8569 0.746279 41.0701 1.00868C41.2819 1.26971 41.271 1.64691 41.0455 1.89565L40.3635 2.65005L42.6391 1.33668C42.9343 1.16585 43.3115 1.23828 43.5219 1.51025C43.731 1.78085 43.7078 2.16488 43.4672 2.40815L41.5252 4.37478L44.1724 2.84821C44.4676 2.67738 44.8448 2.75255 45.0553 3.02178C45.2644 3.29238 45.2412 3.67641 45.0007 3.91968L43.0654 5.88085L44.7136 4.92965C45.002 4.76018 45.3737 4.82851 45.5869 5.09091C45.7988 5.35195 45.7879 5.73051 45.5624 5.97925L44.4417 7.21608C44.6084 7.26255 44.7574 7.37188 44.8517 7.53315C45.0416 7.85978 44.9296 8.27798 44.6016 8.46658L41.7999 10.0847C41.6933 10.1476 41.5758 10.1776 41.4583 10.1776Z" fill="#F6C555"/>
<path d="M46.1819 41.619C45.9906 41.619 45.802 41.5384 45.6681 41.3867C45.4535 41.1407 45.4412 40.7799 45.6394 40.5202L46.3815 39.5499L44.7032 40.5188C44.4107 40.6897 44.0376 40.6159 43.8258 40.3521C43.6153 40.087 43.6304 39.707 43.8613 39.461L44.9574 38.2939L44.0513 38.816C43.7616 38.9868 43.3898 38.9157 43.1766 38.652C42.9648 38.3896 42.9771 38.011 43.2053 37.7636L44.654 36.1851L43.6099 36.7865C43.3283 36.9505 42.9716 36.8903 42.7543 36.6457C42.5398 36.4011 42.5275 36.0389 42.7256 35.7792L44.9465 32.871L43.0044 33.9916C42.7243 34.1584 42.3621 34.0969 42.1475 33.8495C41.933 33.6021 41.9234 33.2386 42.1243 32.9803L44.2713 30.2333L42.4209 31.3007C42.1352 31.4674 41.7703 31.4032 41.5558 31.1503C41.3439 30.8961 41.3426 30.5271 41.5558 30.2716L43.4759 27.966L41.8974 28.8762C41.6063 29.047 41.2291 28.9746 41.0187 28.7081C40.8082 28.4416 40.8246 28.0603 41.0583 27.8157L42.6915 26.0923L41.4478 26.8098C41.1198 26.9984 40.7016 26.8877 40.5144 26.5597C40.3244 26.2331 40.4365 25.8149 40.7645 25.6263L46.0835 22.5554C46.3746 22.3845 46.7505 22.457 46.9623 22.7235C47.1741 22.99 47.1564 23.3713 46.9227 23.6159L45.2881 25.3406L46.1136 24.8637C46.3979 24.6969 46.7628 24.7612 46.9787 25.014C47.1905 25.2682 47.1919 25.6372 46.9787 25.8928L45.0585 28.1983L46.637 27.2881C46.9186 27.1241 47.278 27.1843 47.4953 27.4303C47.7085 27.6776 47.7181 28.0412 47.5172 28.2995L45.3715 31.0451L47.222 29.9777C47.5008 29.8124 47.8588 29.8725 48.0775 30.1185C48.2921 30.3631 48.3044 30.7253 48.1062 30.985L45.8854 33.8919L47.826 32.7726C48.1158 32.6017 48.4875 32.6742 48.7007 32.9366C48.9139 33.199 48.9002 33.5775 48.672 33.8249L47.2206 35.4061L48.2675 34.8034C48.5586 34.6326 48.933 34.7064 49.1449 34.9702C49.3553 35.2353 49.3403 35.6152 49.1093 35.8612L48.0133 37.0297L48.6679 36.6525C48.9467 36.4872 49.3075 36.5473 49.5234 36.7933C49.738 37.0393 49.7503 37.4015 49.5521 37.6598L48.769 38.6834C49.0547 38.6137 49.3704 38.734 49.5262 39.0046C49.7161 39.3312 49.6041 39.7494 49.2761 39.938L46.525 41.5261C46.4184 41.5889 46.3008 41.6176 46.1833 41.6176L46.1819 41.619Z" fill="#F6C555"/>
<path d="M34.3941 41.3786C34.1945 41.3786 33.9964 41.2912 33.8624 41.1244C33.6506 40.8634 33.6615 40.4862 33.887 40.2375L35.4122 38.5455L33.3363 39.7441C33.0438 39.9149 32.6693 39.8439 32.4575 39.576C32.247 39.3095 32.2648 38.9268 32.4985 38.6822L35.8236 35.1904L33.6315 36.4559C33.3308 36.6336 32.9386 36.5502 32.7336 36.2605C32.5299 35.9748 32.5764 35.5799 32.8415 35.3489L34.2765 34.1025L34.1221 34.19C33.8242 34.3649 33.4401 34.2843 33.231 34.0055C33.026 33.7253 33.0602 33.3358 33.3158 33.0994L35.8496 30.7337L34.7344 31.3787C34.4241 31.5619 34.0251 31.4676 33.8242 31.1669C33.6246 30.8676 33.6902 30.4644 33.9759 30.2458L37.7233 27.3703L35.2988 28.7698C34.9872 28.9529 34.584 28.8572 34.3845 28.5511C34.185 28.2463 34.2601 27.8404 34.554 27.6259L35.7184 26.7772C35.4081 26.948 35.02 26.8537 34.8205 26.5558C34.6209 26.2551 34.6893 25.8506 34.9776 25.6333L42.0378 20.2855L35.9152 23.8197C35.5981 24.0069 35.1922 23.9044 34.9954 23.5928C34.7986 23.2826 34.8833 22.874 35.1867 22.6649L41.4433 18.3558L35.9097 21.5497C35.5913 21.7355 35.1867 21.6344 34.9899 21.3228C34.7931 21.0112 34.8792 20.6026 35.1813 20.3948L40.1928 16.9577L35.9042 19.4327C35.5844 19.6186 35.1758 19.5161 34.9831 19.2031C34.7877 18.8901 34.8751 18.4801 35.1813 18.2738L36.4072 17.4483L35.732 17.8378C35.4232 18.0182 35.0255 17.9266 34.8246 17.6314C34.625 17.3349 34.6852 16.9331 34.9667 16.7117L36.1912 15.7427L34.2601 16.8565C33.969 17.026 33.5959 16.9563 33.3841 16.6925C33.1723 16.4288 33.1859 16.0488 33.4155 15.8015L36.4113 12.5625L31.8029 15.222C31.5159 15.3901 31.1469 15.3231 30.9337 15.0662C30.7205 14.8093 30.7259 14.4348 30.9446 14.1833L31.8425 13.1488L30.1533 14.1246C29.8786 14.2845 29.5287 14.2325 29.3114 13.9988C29.0955 13.7651 29.0668 13.4125 29.2458 13.1501L30.6002 11.1534L27.9694 12.6704C27.6933 12.8331 27.3407 12.777 27.1234 12.5406C26.9075 12.3028 26.8842 11.9475 27.0687 11.6864L28.3821 9.81683L26.4701 10.9211C26.1913 11.0865 25.8374 11.0263 25.6201 10.7858C25.4041 10.5439 25.3864 10.1858 25.5777 9.9248L26.3608 8.8588C26.1435 8.84103 25.9358 8.72076 25.8196 8.5185C25.6296 8.19186 25.7417 7.77366 26.0697 7.58506L28.3179 6.2881C28.5967 6.12546 28.9534 6.18423 29.1679 6.4234C29.3839 6.6653 29.4016 7.02336 29.2103 7.2844L28.6035 8.11123L30.3802 7.08623C30.6562 6.9236 31.0088 6.97826 31.2261 7.21606C31.4421 7.45386 31.4653 7.8092 31.2808 8.07023L29.9674 9.93983L32.4958 8.4816C32.7677 8.32033 33.119 8.37363 33.3376 8.60733C33.5536 8.84103 33.5823 9.19363 33.4032 9.45603L32.0489 11.4541L34.692 9.9289C34.9776 9.7608 35.3466 9.82776 35.5612 10.0847C35.773 10.3416 35.7689 10.7161 35.5503 10.9676L34.6524 12.0021L39.6352 9.1253C39.9263 8.95446 40.2994 9.02553 40.5113 9.2893C40.7231 9.55306 40.7094 9.933 40.4798 10.1804L37.4827 13.4207L43.6095 9.8838C43.9184 9.70066 44.3147 9.7936 44.517 10.0902C44.7165 10.3867 44.6564 10.7885 44.3748 11.0099L43.153 11.9775L53.0094 6.28673C53.3279 6.09813 53.7365 6.20336 53.9306 6.51633C54.126 6.8293 54.0385 7.2393 53.7324 7.44566L52.501 8.2725L54.7506 6.97553C55.0704 6.79103 55.4749 6.89216 55.6703 7.2024C55.8671 7.514 55.781 7.92263 55.479 8.13036L50.4702 11.5662L55.6225 8.5923C55.9423 8.40916 56.3468 8.50893 56.5423 8.81916C56.7391 9.1294 56.6543 9.53803 56.3509 9.74713L50.0848 14.0631L50.8378 13.6298C51.148 13.4453 51.5471 13.5424 51.7494 13.843C51.9489 14.1437 51.8806 14.5482 51.5922 14.7655L44.5306 20.1147L46.09 19.2154C46.403 19.0323 46.8061 19.1293 47.0043 19.4341C47.2038 19.7388 47.1287 20.1447 46.8348 20.3593L45.68 21.2012L46.09 20.9647C46.4002 20.7816 46.7979 20.8759 47.0002 21.1766C47.1997 21.4759 47.1341 21.879 46.8485 22.0977L41.0374 26.5544C41.1181 26.6009 41.1891 26.6637 41.2479 26.7416C41.4529 27.0218 41.4187 27.4113 41.1632 27.6477L38.6266 30.0162L39.7459 29.3697C40.0507 29.1907 40.4402 29.2768 40.6438 29.5652C40.8475 29.8508 40.801 30.2458 40.5359 30.4767L39.1091 31.7177L39.2539 31.6329C39.545 31.4607 39.9209 31.5332 40.1327 31.801C40.3432 32.0675 40.3254 32.4502 40.0917 32.6948L36.7652 36.188L38.4818 35.1972C38.7688 35.0264 39.1419 35.0961 39.3551 35.3585C39.5669 35.6195 39.556 35.9967 39.3305 36.2454L37.8066 37.9346L37.8996 37.8813C38.2248 37.6914 38.643 37.8021 38.833 38.1314C39.023 38.4581 38.9109 38.8763 38.5829 39.0649L34.7398 41.2843C34.6332 41.3472 34.5157 41.3759 34.3982 41.3759L34.3941 41.3786Z" fill="#F6C555"/>
<path d="M16.6324 10.1939C16.4369 10.1939 16.2442 10.1092 16.1103 9.95205C15.8971 9.69921 15.8944 9.33021 16.1048 9.07465L17.4865 7.40048L14.2571 9.26461C13.9633 9.43681 13.5888 9.36301 13.3742 9.09241C13.1665 8.82318 13.187 8.43915 13.4262 8.19588L15.5773 5.99828L12.9574 7.50981C12.654 7.68611 12.2631 7.60138 12.0595 7.31438C11.8559 7.02601 11.9023 6.63105 12.1688 6.40145L12.5474 6.07481C12.285 6.15681 11.9925 6.07481 11.8121 5.85205C11.6003 5.59101 11.6112 5.21381 11.8367 4.96508L12.9642 3.71595C12.7948 3.67085 12.6431 3.56151 12.5474 3.39751C12.3574 3.07088 12.4695 2.65268 12.7975 2.46408L15.5992 0.845948C15.8875 0.675114 16.2593 0.744814 16.4725 1.00721C16.6843 1.26825 16.6734 1.64545 16.4479 1.89418L15.7522 2.66361L18.0496 1.33795C18.3503 1.15891 18.7439 1.24638 18.9475 1.53338C19.1511 1.82175 19.1047 2.21671 18.8382 2.44631L18.5252 2.71555L19.2085 2.32195C19.501 2.14975 19.8782 2.22355 20.0914 2.49415C20.2991 2.76338 20.2786 3.14741 20.0395 3.39068L17.8883 5.58828L20.0805 4.32275C20.3634 4.15465 20.731 4.22025 20.9442 4.47171C21.1574 4.72318 21.1601 5.09355 20.9497 5.34911L19.5529 7.04241C19.8522 6.92761 20.2117 7.04788 20.3798 7.34171C20.5697 7.66835 20.4577 8.08655 20.1297 8.27515L16.9727 10.0983C16.8661 10.1611 16.7485 10.1898 16.631 10.1898L16.6324 10.1939Z" fill="#E53248"/>
<path d="M66.0601 10.1777C65.8674 10.1777 65.6788 10.0957 65.5448 9.9426C65.3303 9.69523 65.3207 9.3317 65.5216 9.0734L66.917 7.28853L63.4716 9.27703C63.186 9.44376 62.8183 9.37953 62.6051 9.12396C62.3919 8.8684 62.3933 8.49803 62.6092 8.24383L65.3029 5.06906L61.9956 6.97693C61.7195 7.13956 61.3669 7.0849 61.1496 6.84573C60.9337 6.6093 60.9105 6.25396 61.095 5.99156L62.7937 3.58076L62.6817 3.645C62.3536 3.83496 61.9355 3.7229 61.7482 3.3949C61.5583 3.06826 61.6703 2.65006 61.9983 2.46146L64.8 0.84333C65.0774 0.680696 65.4287 0.735363 65.646 0.97453C65.8619 1.21096 65.8851 1.5663 65.7006 1.8287L64.0005 4.2395L68.0294 1.9148C68.3151 1.74806 68.6827 1.8123 68.8959 2.06786C69.1091 2.32343 69.1077 2.6938 68.8918 2.948L66.1995 6.12276L69.2827 4.342C69.5656 4.17663 69.925 4.23813 70.1396 4.48413C70.3541 4.73013 70.3637 5.09503 70.1628 5.35333L68.7141 7.20516C68.9902 7.14503 69.3004 7.26666 69.4521 7.53043C69.6421 7.85706 69.53 8.27526 69.202 8.46386L66.4004 10.082C66.2938 10.1449 66.1762 10.1736 66.0587 10.1736L66.0601 10.1777Z" fill="#56B76B"/>
<path d="M32.8064 51.5152C29.2722 49.4296 25.9403 44.2664 21.3879 46.4599C13.5023 48.6151 14.1337 56.3655 20.7825 59.8532C23.4926 62.8489 22.5004 67.8564 24.3768 71.3113C26.159 73.7194 29.9897 72.3418 30.7701 69.8176C31.4548 64.0803 37.4217 56.4693 32.8051 51.5138L32.8064 51.5152ZM29.5018 67.5503C26.6797 78.0039 24.6488 64.1404 23.8917 60.829C22.294 57.1281 15.5564 56.0921 18.0328 50.9357C18.3717 47.929 23.2849 45.8968 25.4579 48.1723C28.1871 50.743 33.4706 52.2996 32.5413 56.9149C31.5286 60.4614 30.5145 64.0065 29.5018 67.5516V67.5503Z" fill="#262626"/>
<path d="M79.3787 40.5177C77.4421 40.4493 75.4973 40.4712 73.5539 40.4944C77.0253 37.8281 70.3928 25.0115 72.0041 17.3472C74.7935 15.3382 78.0913 13.7816 80.6688 11.5156C82.1079 10.1052 81.8387 7.71494 80.0251 6.76374C76.3474 5.25631 73.2778 9.16634 70.2958 10.7612C69.6548 10.1777 68.9209 9.76631 68.1433 9.50117C73.0442 6.98241 70.0593 -0.502825 64.7826 0.799608C60.3109 1.36814 58.854 7.79011 63.1399 9.73351C62.5317 9.98771 61.9523 10.3184 61.4261 10.7298C54.7007 5.32327 52.4143 5.30414 45.6766 10.7284C44.9318 10.0506 44.0708 9.59684 43.1592 9.34401C46.9463 8.01287 47.0283 2.21957 42.9747 1.15494C37.6762 -0.750192 32.6755 7.13958 38.682 9.63101C38.0165 9.89614 37.3837 10.2556 36.8097 10.7066C30.5968 5.58157 27.1761 5.25084 20.9345 10.5385C20.3332 10.0055 19.669 9.60367 18.9679 9.32761C22.4255 7.65071 22.2233 2.12664 18.3529 1.07431C13.2156 -0.841758 8.29148 6.55054 13.6488 9.51894C13.1021 9.77724 12.5855 10.1189 12.1031 10.5248C8.81491 8.15911 1.88454 2.64187 0.370275 9.54217C1.01944 13.8704 7.00408 15.1387 9.91371 17.816C9.77431 22.0909 10.3059 26.4451 8.79851 30.597C8.48691 33.6871 6.02691 37.7023 8.03181 40.4767C-6.59563 37.7679 3.44801 57.3318 7.19951 63.546C26.1811 93.5225 76.6276 82.1354 81.1608 47.0421C81.5148 44.7912 82.7202 40.6338 79.3773 40.5163L79.3787 40.5177ZM78.1309 41.4825C81.4054 41.6971 78.7978 47.8211 78.6967 49.8875C77.33 47.1105 76.1971 44.1721 74.6759 41.4825C75.8198 41.4866 76.9883 41.4115 78.1309 41.4825ZM15.7917 33.3017C15.9844 32.4092 16.1785 31.5182 16.3712 30.6257C17.3156 33.8429 17.3115 37.5069 18.8995 40.4671C17.1707 40.4589 15.4432 40.4589 13.7144 40.4575C15.1863 38.4212 15.0838 35.6578 15.7917 33.3017ZM25.0208 35.0469C24.3088 31.7505 23.5735 28.3871 22.8711 25.1181C22.6743 22.695 22.9558 20.1967 22.8779 17.7791C22.8014 17.8173 22.7002 17.8501 22.5458 17.8679C22.6428 17.857 22.7576 17.8091 22.8779 17.749C22.7221 17.313 23.0884 17.2925 23.0064 17.6834C24.917 16.2457 26.6759 15.1154 28.6275 13.8171C30.5367 15.1619 32.9543 16.3769 34.5424 17.8747C34.7925 22.2481 34.6791 26.441 33.3848 30.8335C33.1156 33.8142 30.5572 37.9688 32.7343 40.5177C30.0256 40.519 27.3155 40.5095 24.6054 40.4958C26.1661 39.0813 25.4664 36.814 25.0195 35.0469H25.0208ZM40.3712 33.2197C40.5653 32.3245 40.7594 31.4307 40.9534 30.5355C41.9238 33.7636 41.8773 37.6367 43.6034 40.519C41.7092 40.5368 39.8765 40.4835 37.9782 40.519C39.923 38.6973 39.5745 35.6141 40.3712 33.2197ZM49.3776 33.9194C47.8469 28.4623 47.3043 22.9341 47.4738 17.3308C49.4035 16.2279 51.1597 14.8312 53.0416 13.6463C54.6871 15.2453 58.6969 16.3031 59.1438 18.4446C60.7715 25.9586 54.9891 33.754 57.3152 40.519H48.917C51.0968 38.9487 49.8819 36.0282 49.3776 33.9194ZM39.6305 41.4839H58.7843C61.6366 44.507 64.9658 48.1683 62.6766 52.4979C60.5473 54.9114 56.0865 74.7158 52.4457 67.374C51.3169 62.3994 50.4244 57.3468 49.1821 52.4063C46.267 47.9469 37.9919 51.779 39.6305 41.4839ZM65.5165 30.6749C66.4021 33.8962 66.3379 37.7871 68.284 40.519H62.4907C64.8127 38.0536 64.4806 33.821 65.5165 30.6749ZM63.1317 3.26917C63.4665 2.77854 63.9914 2.37947 64.4765 2.19361C68.2335 0.966342 70.3914 7.04938 66.8969 8.66477C63.8547 9.94261 61.2498 5.71824 63.1317 3.26917ZM62.2256 11.5853C66.0345 7.49764 68.1488 13.1925 70.6457 11.7001C73.2902 10.7271 76.1806 6.03941 78.9632 8.05251C81.6132 12.7702 72.8801 14.5442 70.4037 17.2584C69.5373 21.0386 69.9172 25.554 70.8971 29.3862C70.8206 31.9446 75.3989 41.1299 70.5199 40.2143C67.6212 36.2509 68.0285 30.336 66.588 25.6579C62.9978 24.2899 63.2205 36.4477 61.8156 39.0075C60.9068 41.8789 58.1502 39.6553 58.4345 37.5274C59.2736 33.6269 60.1291 29.7251 60.9696 25.8246C61.7637 17.6178 61.7814 16.7636 54.4985 12.6746C55.6465 12.024 56.8068 11.0141 56.9352 9.68157C58.5725 10.4127 60.3997 13.131 62.2256 11.5853ZM40.4122 8.94084C37.3386 7.91174 37.0612 3.09561 39.9202 1.83827C40.0173 1.79727 39.964 1.81777 40.0774 1.79044C44.8512 1.00871 45.6233 10.3089 40.4122 8.94084ZM29.0306 7.52361C31.3143 8.94221 33.5311 10.5303 35.7984 11.9994C39.0387 12.147 39.9763 7.56188 44.3523 11.9994C47.7799 12.4942 50.4217 6.82114 53.8657 7.51268C57.922 12.2618 48.3471 14.3269 45.8735 17.1641C44.3756 22.7592 46.0675 29.1497 47.4601 34.7421C48.9744 37.5534 47.8127 43.4533 44.7815 38.5346C40.7197 17.2857 40.6254 25.2042 36.725 40.0229C31.4934 41.8652 35.0426 32.9586 35.3542 30.5451C36.6976 26.2633 36.7482 21.7014 36.5227 17.2871C34.116 14.0289 26.2057 13.1023 27.2212 8.19737C27.5259 7.96641 28.0138 7.76141 28.1655 7.43067C28.4129 7.38831 28.6972 7.40744 29.0293 7.52361H29.0306ZM15.774 8.85611C12.6183 7.91447 12.4188 2.55304 15.789 1.90524C19.5419 1.64011 20.9591 7.51814 17.4686 8.93538C16.9548 8.81921 16.3138 8.93401 15.774 8.85611ZM9.37251 37.1092C10.8335 30.5711 12.6416 24.0835 11.9391 17.3499C9.55428 14.6289 5.54448 13.2759 2.84668 10.7995C1.68638 9.34674 2.90271 6.89494 4.85978 7.88987C7.42911 8.87114 10.2526 13.142 12.9586 11.9502C14.8665 9.75128 17.9087 9.92894 19.7742 12.0787C21.5577 13.0764 23.3494 10.3376 24.9812 9.69114C24.9334 11.0865 25.9939 12.0992 27.202 12.9247C25.3475 14.8544 20.4712 15.5213 20.8621 18.7043C19.4899 25.8697 23.9644 33.068 23.0802 39.7715C18.7683 42.4952 18.7752 28.2915 17.3907 25.662C13.4657 22.7442 14.5781 39.1838 11.4512 40.1965C9.51464 40.7254 9.10601 38.4294 9.37388 37.1106L9.37251 37.1092ZM9.99708 17.872C10.0531 17.9171 10.1119 17.9813 10.1638 17.98C10.0709 17.9841 10.0217 17.9362 9.99708 17.872ZM41.4072 80.1537C20.9263 80.4011 1.66861 62.0222 2.63484 41.4853C14.3513 41.5878 25.9597 41.4812 37.7281 41.4853C35.6767 47.4344 40.9343 51.2966 46.2438 51.7817C49.0673 56.11 48.7257 62.2121 50.3096 67.1731C56.5225 78.66 61.53 57.9222 64.1348 53.4955C66.7301 49.1782 64.9439 44.6368 61.3304 41.4853H72.2091C74.665 44.9088 75.8978 49.1796 77.8781 52.9174C72.9348 68.5917 58.25 80.1619 41.4072 80.1537Z" fill="#262626"/>
<path d="M23.0074 17.6833C22.9623 17.7093 22.9213 17.7271 22.8789 17.749V17.779C22.939 17.7489 22.9841 17.7175 23.0074 17.6833Z" fill="#262626"/>
</g>
<defs>
<clipPath id="clip0_56_4041">
<rect width="82" height="82" fill="white"/>
</clipPath>
</defs>
</svg>
