<svg width="1440" height="416" viewBox="0 0 1440 416" fill="none" xmlns="http://www.w3.org/2000/svg">
<path d="M1471.34 284.831C1471.34 284.831 1488.47 23.8659 1395.55 9.60217C1302.64 -4.66151 1201.48 82.0657 1145.29 102.997C1072.23 130.214 926.442 1.41344 845.877 0.00749201C765.311 -1.39846 742.398 197.942 635.549 196.077C561.84 194.791 495.381 91.6531 352.777 89.1639C244.785 87.2789 222.205 119.754 120.22 117.973C31.0836 116.418 15.1963 44.2551 -34.4306 38.5802C-69.2263 34.6013 -102.695 114.082 -171.188 112.887C-175.759 112.807 -175.967 386.71 -175.967 386.71L1469.06 415.424L1471.34 284.831Z" fill="white"/>
</svg>
