<svg width="1440" height="236" viewBox="0 0 1440 236" fill="none" xmlns="http://www.w3.org/2000/svg">
<path d="M0.499819 75.9774C0.499819 75.9774 -10.5628 227.932 71.4022 235.285C153.367 242.637 241.028 191.169 290.143 178.424C354.005 161.853 484.244 235.285 555.146 235.285C626.048 235.285 643.145 119.113 737.179 119.113C802.047 119.113 862.1 178.424 987.599 178.424C1082.64 178.424 1102 159.307 1191.76 159.307C1270.2 159.307 1285.29 201.117 1329.04 203.913C1359.71 205.874 1387.93 159.307 1448.21 159.307C1452.23 159.307 1448.21 0 1448.21 0H0.499819V75.9774Z" fill="white"/>
</svg>
