<svg width="1440" height="241" viewBox="0 0 1440 241" fill="none" xmlns="http://www.w3.org/2000/svg">
<path d="M-0.99911 163.23C-0.99911 163.23 -11.999 8.22953 69.501 0.729529C151.001 -6.77047 238.165 45.7295 287.001 58.7295C350.501 75.6331 480.001 0.729297 550.501 0.729492C621.001 0.729687 638.001 119.23 731.501 119.23C796.001 119.23 855.713 58.7295 980.501 58.7295C1075 58.7295 1094.26 78.2295 1183.5 78.2295C1261.5 78.2295 1276.5 35.5823 1320 32.7295C1350.5 30.7293 1378.57 78.2295 1438.5 78.2295C1442.5 78.2295 1438.5 240.73 1438.5 240.73H-0.99911V163.23Z" fill="white"/>
</svg>
