<svg width="266" height="102" viewBox="0 0 266 102" fill="none" xmlns="http://www.w3.org/2000/svg">
<g clip-path="url(#clip0_192_3565)">
<g filter="url(#filter0_d_192_3565)">
<path d="M185.507 22.826C197.511 22.374 209.105 30.5471 214.461 42.8615C216.31 39.7514 217.625 36.4803 219.29 33.4641C227.758 18.2164 249.21 26.1139 258.13 36.7156C259.709 38.5926 266.976 45.6957 264.952 48.6427C263.555 48.6734 254.11 44.2978 252.028 43.4539C249.393 42.3552 246.711 41.4141 243.989 40.635C241.613 40.0304 235.442 38.3003 233.319 38.539C223.488 39.6435 226.631 54.4427 220.227 58.5232C217.454 60.2894 211.4 61.0828 208.99 58.343C207.458 56.6033 206.491 54.6882 205.393 52.6094C201.84 45.8862 197.182 39.8929 190.402 37.7321C182.972 35.3649 176.257 40.5283 170.186 44.7274C169.584 45.1426 169.208 45.2134 168.582 45.0088C166.146 41.7207 169.705 33.1155 171.888 30.2921C175.78 25.2596 179.81 23.4422 185.507 22.826Z" fill="#47BFC9"/>
<path d="M185.529 23.172C197.361 22.7306 208.833 30.7947 214.142 42.9997L214.413 43.6218L214.76 43.0391C215.692 41.4703 216.488 39.863 217.256 38.2788C218.027 36.6909 218.767 35.1296 219.594 33.6317L219.593 33.6311C221.671 29.8907 224.536 27.5825 227.797 26.3738C231.065 25.1627 234.754 25.049 238.477 25.7375C245.933 27.1163 253.455 31.6986 257.864 36.9391C258.685 37.9147 260.856 40.1118 262.612 42.4841C263.486 43.6646 264.233 44.8576 264.637 45.923C265.009 46.9021 265.063 47.6946 264.765 48.2756C264.629 48.252 264.435 48.2066 264.181 48.1306C263.796 48.0156 263.313 47.847 262.758 47.6387C261.651 47.2224 260.28 46.6544 258.884 46.0572C256.451 45.0169 253.924 43.8811 252.633 43.3304L252.159 43.1325C249.513 42.0293 246.818 41.084 244.085 40.3015L244.08 40.3001L244.075 40.2987C242.895 39.9986 240.747 39.4122 238.636 38.9327C237.58 38.6927 236.526 38.4776 235.6 38.3378C234.682 38.1993 233.86 38.129 233.281 38.1941C230.72 38.4818 228.988 39.6702 227.748 41.3478C226.52 43.0083 225.777 45.1418 225.154 47.3195C224.524 49.5203 224.02 51.7504 223.268 53.7102C222.518 55.6626 221.548 57.2696 220.04 58.2305C218.716 59.0737 216.573 59.7012 214.46 59.7761C212.336 59.8515 210.353 59.3663 209.251 58.1139H209.25C207.752 56.4113 206.803 54.5369 205.7 52.4477C202.136 45.7043 197.422 39.6058 190.507 37.4019C186.682 36.1834 183.054 36.9106 179.641 38.4516C176.239 39.9877 173.01 42.3519 169.989 44.4417C169.705 44.6378 169.508 44.7275 169.332 44.7589C169.183 44.7853 169.021 44.7726 168.796 44.7087C168.3 43.9793 168.088 42.951 168.112 41.7258C168.136 40.4539 168.412 39.014 168.836 37.5741C169.685 34.6884 171.104 31.8735 172.163 30.5045C174.084 28.0196 176.028 26.3433 178.182 25.2103C180.333 24.0787 182.715 23.4777 185.529 23.172Z" stroke="black"/>
</g>
<g filter="url(#filter1_d_192_3565)">
<path d="M27.5452 41.4695C28.3394 42.1861 28.6149 45.6819 30.0222 48.0027C32.7455 52.4939 35.8794 54.4091 38.5236 59.0168C39.6566 60.9914 40.329 65.0613 40.8471 65.4883C43.1615 65.1437 46.7344 60.7627 49.7542 60.3633C53.4442 59.8751 55.0966 62.2501 58.1363 63.9789C59.1121 64.5338 59.9418 64.4755 60.8804 65.2493L60.8217 65.6127C59.0661 66.6092 55.5954 67.2669 54.175 68.677C49.0315 74.5572 50.7979 79.0695 44.253 84.3395C35.5875 91.3164 23.7913 85.7182 17.3702 95.2299C14.5909 99.3466 14.7425 100.404 10.1999 98.8339C8.31944 98.0831 0.474841 94.316 0.699047 91.6286C1.6308 90.4137 11.7852 86.6202 14.4251 85.1686C17.3286 83.5755 20.058 81.5917 22.5563 79.2589C18.213 74.8049 11.3675 71.042 8.15456 64.3238C5.24865 58.2467 3.45957 53.3578 4.98208 46.5702C6.74483 48.1181 8.67948 50.0307 10.494 51.3688C14.5526 54.3625 19.7267 56.574 24.2563 58.4956C21.6032 52.1369 23.3963 46.1717 27.5452 41.4695Z" fill="#47BFC9"/>
<path d="M27.5189 42.032C27.5925 42.1781 27.6665 42.3607 27.7414 42.5788C27.8963 43.0303 28.045 43.5927 28.2189 44.2261C28.5614 45.4744 28.9928 46.9749 29.7252 48.1827C31.1061 50.46 32.5922 52.0843 34.0443 53.6978C35.4974 55.3126 36.9201 56.9202 38.2222 59.1892C38.7635 60.1325 39.2047 61.5998 39.5821 62.9276C39.7677 63.5809 39.9386 64.2014 40.0948 64.682C40.173 64.9224 40.251 65.1378 40.3288 65.3107C40.3992 65.4674 40.4935 65.6463 40.6266 65.7559L40.7459 65.8542L40.8985 65.8318C41.5567 65.7339 42.2672 65.3577 42.9814 64.888C43.7019 64.414 44.4731 63.8116 45.2467 63.2224C46.0268 62.6281 46.8148 62.0435 47.5914 61.5825C48.3704 61.1202 49.1126 60.798 49.7997 60.7071C51.5475 60.4758 52.8049 60.9175 54.0109 61.6374C54.6226 62.0026 55.2159 62.4359 55.8611 62.8978C56.502 63.3565 57.1875 63.839 57.9644 64.2808C58.4891 64.5791 58.9849 64.7163 59.4111 64.8608C59.7863 64.9882 60.1362 65.1279 60.4997 65.3928C59.6598 65.8362 58.4721 66.2155 57.2529 66.6639C55.999 67.1253 54.7025 67.6646 53.9302 68.4312L53.922 68.4393L53.9139 68.4488C51.2961 71.4418 50.4315 74.1 49.4179 76.607C48.4104 79.0994 47.2444 81.4863 44.0354 84.0697C39.7947 87.4842 34.795 87.8242 29.9233 88.4903C25.0785 89.1537 20.3833 90.1466 17.0822 95.0364C16.7326 95.554 16.4291 96.0231 16.1584 96.4429C15.8868 96.8648 15.6504 97.2332 15.43 97.5552C14.9849 98.2046 14.633 98.6244 14.2546 98.8756C13.8944 99.115 13.4826 99.2184 12.8757 99.1663C12.2558 99.1129 11.452 98.8992 10.3269 98.5106C9.40198 98.1408 6.992 97.0223 4.84604 95.6643C3.77126 94.9843 2.77839 94.2544 2.07205 93.539C1.39966 92.8576 1.05471 92.2574 1.04248 91.7689C1.14542 91.6732 1.33438 91.5351 1.62712 91.3595C1.98682 91.1444 2.45987 90.8953 3.01819 90.6226C4.13416 90.0772 5.56696 89.4472 7.05916 88.8061C10.0257 87.5328 13.2527 86.2089 14.5923 85.4727C17.5219 83.865 20.2749 81.8645 22.7936 79.5123L23.0527 79.2701L22.8051 79.0168C21.706 77.89 20.4522 76.8096 19.1481 75.7244C17.8397 74.6357 16.4845 73.5449 15.1614 72.3806C12.5178 70.054 10.0442 67.4706 8.46785 64.1745C5.65547 58.2929 3.92848 53.5986 5.19805 47.2279C6.71144 48.5836 8.36979 50.178 9.9437 51.3885L10.2883 51.648C14.3855 54.6701 19.5989 56.8968 24.1209 58.8151L24.905 59.1479L24.5767 58.3625C22.0472 52.3001 23.6449 46.6028 27.5189 42.032Z" stroke="black"/>
</g>
<g filter="url(#filter2_d_192_3565)">
<path d="M199.317 0.091104L201.468 0C204.144 2.91681 206.852 6.11533 209.471 9.1172C212.946 6.62727 217.127 3.47549 220.817 1.67992C223.234 2.54551 225.578 3.65361 227.82 4.99086C233.028 8.04142 238.022 12.1376 242.787 15.9997C243.846 16.858 246.015 18.4072 245.516 19.9979C244.819 20.7664 244.476 20.8469 243.555 21.2925C237.765 19.352 230.084 14.2588 223.994 13.5664C222.413 13.3868 220.644 15.8612 219.593 17.133C217.323 19.5157 214.36 22.0894 211.227 22.6845C205.001 23.8669 203.28 16.2614 199.035 13.1072C197.603 12.0441 195.947 11.4771 194.243 11.367C189.973 11.0916 183.083 13.3773 179.146 15.2616C177.254 16.1683 175.393 17.6977 173.361 18.1205C172.677 18.2624 171.864 18.1491 171.331 17.6036C170.948 17.2125 170.83 16.7762 170.891 16.2034C171.253 12.8406 182.518 4.16684 185.197 1.48888C189.891 1.19037 194.633 0.61554 199.317 0.091104Z" fill="#47BFC9"/>
<path d="M201.32 0.35376C203.957 3.23417 206.622 6.37852 209.21 9.34505L209.417 9.58284L209.673 9.39924C213.122 6.92814 217.213 3.84602 220.838 2.05661C223.185 2.90711 225.463 3.98829 227.643 5.28883L227.645 5.29018C232.826 8.3247 237.798 12.402 242.569 16.2689C243.114 16.7114 243.888 17.2881 244.476 17.9534C245.05 18.6036 245.35 19.2336 245.204 19.8223C244.9 20.1493 244.68 20.3266 244.442 20.4687C244.196 20.6151 243.941 20.7247 243.535 20.918C240.695 19.9478 237.411 18.2361 234.036 16.6477C230.633 15.0466 227.143 13.5751 224.033 13.2217C223.54 13.1656 223.059 13.3194 222.617 13.5666C222.175 13.8141 221.748 14.1696 221.352 14.5579C220.567 15.3263 219.843 16.284 219.332 16.9025C217.064 19.2816 214.172 21.772 211.162 22.3437C209.684 22.6243 208.491 22.3834 207.457 21.8253C206.414 21.2616 205.517 20.3644 204.658 19.3039C203.791 18.2326 203.007 17.0555 202.132 15.8921C201.326 14.819 200.46 13.7857 199.447 12.9858L199.242 12.8287C197.753 11.7235 196.033 11.1349 194.266 11.0208C192.072 10.8792 189.236 11.3949 186.476 12.1707C183.709 12.9485 180.984 13.9978 178.997 14.9489C178.035 15.4094 177.065 16.0369 176.133 16.5718C175.243 17.0827 174.367 17.5232 173.47 17.7407L173.29 17.7807C172.68 17.9074 172.003 17.7948 171.579 17.3612L171.477 17.246C171.291 17.0125 171.213 16.7556 171.224 16.4166L171.236 16.2405C171.273 15.8968 171.457 15.4463 171.796 14.8974C172.13 14.355 172.597 13.7452 173.165 13.0889C174.3 11.7764 175.814 10.3038 177.41 8.84497C179.004 7.38713 180.67 5.95036 182.109 4.70743C183.479 3.52464 184.651 2.50808 185.347 1.82622C190.005 1.52512 194.709 0.955792 199.34 0.437106L201.32 0.35376Z" stroke="black"/>
</g>
<g filter="url(#filter3_d_192_3565)">
<path d="M186.452 48.7266C187.557 48.7474 190.651 48.8425 191.687 49.8541C194.311 52.4226 199.047 58.011 199.91 61.9711C200.034 62.531 199.582 62.8759 199.315 63.1249C196.116 63.9475 192.07 60.1816 189.001 58.4571C187.497 57.8155 187.257 57.6545 185.638 57.4698C182.616 57.1253 178.688 62.5903 176.402 62.5955L176.083 62.2221C175.957 60.9064 176.492 59.7878 176.884 58.5952C178.87 52.5486 180.591 49.5631 186.452 48.7266Z" fill="#47BFC9"/>
<path d="M186.475 49.0742C187.032 49.0851 188.045 49.1151 189.045 49.2619C189.554 49.3366 190.051 49.4404 190.478 49.5831C190.856 49.7095 191.156 49.8591 191.362 50.0283L191.444 50.1021C192.744 51.3743 194.571 53.3992 196.179 55.5956C197.794 57.8021 199.156 60.1401 199.571 62.0451L199.572 62.0458C199.607 62.2068 199.566 62.3353 199.475 62.4659C199.386 62.5921 199.273 62.6921 199.146 62.8081C197.714 63.1358 196.045 62.481 194.285 61.4474C193.399 60.9271 192.516 60.3267 191.652 59.7426C190.795 59.1617 189.953 58.5944 189.171 58.1549L189.155 58.1454L189.137 58.138C188.399 57.8231 187.939 57.6118 187.468 57.4617C186.986 57.3081 186.495 57.2183 185.677 57.1249C184.814 57.0266 183.924 57.3454 183.072 57.8222C182.215 58.3018 181.35 58.9694 180.527 59.6314C179.694 60.3012 178.911 60.9603 178.188 61.4583C177.531 61.9108 176.985 62.1832 176.553 62.2376L176.421 62.0837C176.342 60.9088 176.815 59.9161 177.214 58.7038C178.207 55.6801 179.116 53.4838 180.475 51.9358C181.814 50.4117 183.618 49.486 186.475 49.0742Z" stroke="black"/>
</g>
</g>
<defs>
<filter id="filter0_d_192_3565" x="166.61" y="22.6548" width="99.8472" height="40.6289" filterUnits="userSpaceOnUse" color-interpolation-filters="sRGB">
<feFlood flood-opacity="0" result="BackgroundImageFix"/>
<feColorMatrix in="SourceAlpha" type="matrix" values="0 0 0 0 0 0 0 0 0 0 0 0 0 0 0 0 0 0 127 0" result="hardAlpha"/>
<feOffset dy="2"/>
<feGaussianBlur stdDeviation="0.5"/>
<feComposite in2="hardAlpha" operator="out"/>
<feColorMatrix type="matrix" values="0 0 0 0 0 0 0 0 0 0 0 0 0 0 0 0 0 0 0.25 0"/>
<feBlend mode="normal" in2="BackgroundImageFix" result="effect1_dropShadow_192_3565"/>
<feBlend mode="normal" in="SourceGraphic" in2="effect1_dropShadow_192_3565" result="shape"/>
</filter>
<filter id="filter1_d_192_3565" x="-0.462891" y="41.1326" width="62.9048" height="61.5469" filterUnits="userSpaceOnUse" color-interpolation-filters="sRGB">
<feFlood flood-opacity="0" result="BackgroundImageFix"/>
<feColorMatrix in="SourceAlpha" type="matrix" values="0 0 0 0 0 0 0 0 0 0 0 0 0 0 0 0 0 0 127 0" result="hardAlpha"/>
<feOffset dy="2"/>
<feGaussianBlur stdDeviation="0.5"/>
<feComposite in2="hardAlpha" operator="out"/>
<feColorMatrix type="matrix" values="0 0 0 0 0 0 0 0 0 0 0 0 0 0 0 0 0 0 0.25 0"/>
<feBlend mode="normal" in2="BackgroundImageFix" result="effect1_dropShadow_192_3565"/>
<feBlend mode="normal" in="SourceGraphic" in2="effect1_dropShadow_192_3565" result="shape"/>
</filter>
<filter id="filter2_d_192_3565" x="169.723" y="-0.155518" width="77.0181" height="26.1167" filterUnits="userSpaceOnUse" color-interpolation-filters="sRGB">
<feFlood flood-opacity="0" result="BackgroundImageFix"/>
<feColorMatrix in="SourceAlpha" type="matrix" values="0 0 0 0 0 0 0 0 0 0 0 0 0 0 0 0 0 0 127 0" result="hardAlpha"/>
<feOffset dy="2"/>
<feGaussianBlur stdDeviation="0.5"/>
<feComposite in2="hardAlpha" operator="out"/>
<feColorMatrix type="matrix" values="0 0 0 0 0 0 0 0 0 0 0 0 0 0 0 0 0 0 0.25 0"/>
<feBlend mode="normal" in2="BackgroundImageFix" result="effect1_dropShadow_192_3565"/>
<feBlend mode="normal" in="SourceGraphic" in2="effect1_dropShadow_192_3565" result="shape"/>
</filter>
<filter id="filter3_d_192_3565" x="174.913" y="48.5735" width="26.1719" height="17.8196" filterUnits="userSpaceOnUse" color-interpolation-filters="sRGB">
<feFlood flood-opacity="0" result="BackgroundImageFix"/>
<feColorMatrix in="SourceAlpha" type="matrix" values="0 0 0 0 0 0 0 0 0 0 0 0 0 0 0 0 0 0 127 0" result="hardAlpha"/>
<feOffset dy="2"/>
<feGaussianBlur stdDeviation="0.5"/>
<feComposite in2="hardAlpha" operator="out"/>
<feColorMatrix type="matrix" values="0 0 0 0 0 0 0 0 0 0 0 0 0 0 0 0 0 0 0.25 0"/>
<feBlend mode="normal" in2="BackgroundImageFix" result="effect1_dropShadow_192_3565"/>
<feBlend mode="normal" in="SourceGraphic" in2="effect1_dropShadow_192_3565" result="shape"/>
</filter>
<clipPath id="clip0_192_3565">
<rect width="266" height="102" fill="white"/>
</clipPath>
</defs>
</svg>
