<svg width="117" height="247" viewBox="0 0 117 247" fill="none" xmlns="http://www.w3.org/2000/svg">
<g clip-path="url(#clip0_192_3539)">
<g filter="url(#filter0_d_192_3539)">
<path d="M28.3525 0C28.9883 1.14833 28.0623 7.99469 27.9361 9.95416C27.6734 13.8514 27.5772 17.7613 27.6481 21.6696C27.8695 32.4223 29.672 44.6985 34.218 54.2575C38.6168 63.5065 47.028 69.4361 54.4627 75.0525C61.2705 80.271 67.9768 85.6629 74.5774 91.2242C78.0986 94.1905 83.8006 99.0492 86.7595 102.245C92.1088 108.023 106.851 129.638 107.024 137.699C106.267 139.518 104.709 139.703 103.133 139.161C93.6878 135.905 90.5946 121.959 83.6938 115.394C78.0431 110.018 69.3654 105.79 62.5633 102.587C57.6309 100.244 43.3836 93.3279 38.9388 94.0462C22.2635 96.7375 47.7661 115.244 47.5445 127.357C47.5186 129.437 46.767 131.419 45.4594 132.853C44.689 133.693 42.5868 134.973 41.9102 134.575C38.5412 132.593 34.9033 125.507 32.3037 122.408C26.2946 115.244 17.6811 109.918 12.2668 102.512C8.11133 96.8315 8.35609 87.1895 6.441 80.6743C5.37222 77.039 2.04815 72.6552 1.29239 68.6089C0.811583 66.0334 0.98672 62.34 1.365 59.7466C3.78756 43.1343 10.2111 27.2556 18.4994 13.4816C21.5735 8.3733 23.9863 3.81856 28.3525 0Z" fill="#F36038"/>
<path d="M28.0459 0.951172C28.0639 1.18447 28.073 1.4577 28.0732 1.76465C28.0739 2.5782 28.0152 3.58693 27.9316 4.63281C27.8482 5.67692 27.7411 6.74796 27.6465 7.68359C27.5525 8.61242 27.4698 9.41934 27.4375 9.9209C27.1739 13.8323 27.0772 17.7563 27.1484 21.6787V21.6797C27.3705 32.4671 29.1778 44.8236 33.7666 54.4727C38.2282 63.8533 46.7556 69.8561 54.1582 75.4482V75.4492C60.9598 80.6629 67.6602 86.0501 74.2549 91.6064C77.5635 94.3936 82.7582 98.8195 85.8115 101.973L86.3926 102.585C89.0353 105.439 94.0382 112.256 98.4062 119.377C100.588 122.934 102.603 126.554 104.082 129.779C105.542 132.964 106.445 135.701 106.518 137.602C106.191 138.327 105.739 138.686 105.241 138.837C104.698 139.001 104.029 138.94 103.296 138.688C98.7616 137.124 95.7066 132.978 92.8887 128.262C91.5037 125.944 90.1414 123.429 88.7393 121.157C87.3237 118.864 85.8099 116.718 84.0381 115.032C79.0339 110.271 71.7059 106.415 65.4043 103.384L62.7764 102.135C60.3138 100.965 55.5055 98.6442 50.7568 96.7061C48.3825 95.737 46.0119 94.8587 43.9492 94.2676C41.9128 93.684 40.0919 93.3537 38.8594 93.5527C36.7323 93.896 35.2 94.5014 34.2002 95.377C33.1775 96.2726 32.7567 97.4119 32.7803 98.6924C32.8034 99.9474 33.2522 101.335 33.9404 102.789C34.6315 104.249 35.5842 105.818 36.6543 107.443C38.8143 110.725 41.4238 114.202 43.5205 117.679C45.5501 121.044 47.0037 124.266 47.0449 127.077V127.352C47.0204 129.318 46.3088 131.179 45.0908 132.515C44.7548 132.881 44.0875 133.38 43.415 133.737C43.0813 133.915 42.7696 134.044 42.5186 134.107C42.2728 134.17 42.1764 134.146 42.1641 134.144C41.3912 133.689 40.5743 132.922 39.7324 131.946C38.8947 130.975 38.0545 129.825 37.2305 128.627C35.6021 126.26 34.0062 123.66 32.6865 122.087C29.652 118.469 25.9626 115.318 22.3926 112.175C18.8089 109.02 15.3407 105.87 12.6699 102.217C10.6659 99.4772 9.70244 95.7483 9.00586 91.8193C8.31808 87.9399 7.88851 83.825 6.9209 80.5332C6.36937 78.6572 5.23899 76.5964 4.19336 74.5664C3.13142 72.5047 2.14681 70.4585 1.78418 68.5176C1.31779 66.0193 1.48471 62.3869 1.85938 59.8184C4.27061 43.2841 10.6667 27.4679 18.9277 13.7393C21.8646 8.85908 24.1483 4.58424 28.0459 0.951172Z" stroke="black"/>
</g>
<g filter="url(#filter1_d_192_3539)">
<path d="M115.147 181.547L115.46 181.834C116.043 184.088 115.536 198.42 115.495 201.961C115.436 207.878 115.461 213.799 115.569 219.714C112.891 221.789 102.984 227.192 99.4325 229.144C90.8124 233.88 81.8497 239.499 73.2494 244L72.8439 243.714C72.5177 241.854 72.6 232.993 72.5748 230.567L72.167 204.578L115.147 181.547Z" fill="#F36038"/>
<path d="M115.021 182.181C115.062 182.428 115.101 182.781 115.132 183.235C115.173 183.838 115.2 184.587 115.217 185.441C115.25 187.149 115.241 189.256 115.212 191.408C115.153 195.672 115.015 200.213 114.995 201.955C114.937 207.791 114.96 213.632 115.064 219.465C113.662 220.503 110.693 222.268 107.581 224.041C104.33 225.893 100.968 227.729 99.1914 228.706C94.8744 231.077 90.4719 233.671 86.082 236.228C81.7879 238.73 77.5032 241.196 73.3066 243.403C73.2483 242.932 73.2009 242.163 73.168 241.199C73.1296 240.075 73.1083 238.722 73.0967 237.348C73.0736 234.629 73.0876 231.754 73.0752 230.561V230.559L72.6709 204.874L115.021 182.181Z" stroke="black"/>
</g>
<g filter="url(#filter2_d_192_3539)">
<path d="M54.7111 139.428C55.3002 139.66 71.887 161.225 73.6191 163.546C62.9953 168.447 52.0867 172.855 41.4073 177.731C36.6199 179.918 30.8957 182.476 25.9855 184.369C25.2721 184.644 25.038 184.194 24.4905 183.688C17.4757 175.635 10.612 167.407 3.90479 159.001L54.7111 139.428Z" fill="#F36038"/>
<path d="M54.6304 140.047C54.7781 140.211 54.9825 140.449 55.2378 140.756C55.7474 141.368 56.4472 142.235 57.2788 143.279C58.9418 145.367 61.1233 148.156 63.3413 151.01C67.3281 156.142 71.4264 161.482 72.8433 163.351C67.7216 165.704 62.5355 167.948 57.3364 170.189C52.6212 172.222 47.8953 174.254 43.2065 176.366L41.1997 177.276C36.4128 179.462 30.6999 182.015 25.8052 183.902C25.6782 183.951 25.6078 183.954 25.5718 183.951C25.5399 183.948 25.5042 183.939 25.4497 183.903C25.3869 183.862 25.3139 183.798 25.2065 183.691C25.1172 183.603 24.9946 183.478 24.8628 183.354C18.0026 175.479 11.2881 167.435 4.72217 159.221L54.5942 140.009C54.6054 140.021 54.6182 140.033 54.6304 140.047Z" stroke="black"/>
</g>
<g filter="url(#filter3_d_192_3539)">
<path d="M25.6904 190.262C30.0213 191.257 39.4972 194.704 44.0268 196.281C51.0872 198.743 60.8738 201.558 67.4609 204.505C67.8858 209.249 67.7566 216.981 67.7555 221.943C67.7539 229.011 67.9271 236.992 67.6612 244C60.4668 241.812 51.6167 237.984 44.4386 235.33C39.8079 233.617 31.0951 230.453 26.8533 228.287C26.1686 216.216 26.0202 202.462 25.6904 190.262Z" fill="#F36038"/>
<path d="M26.2061 190.904C30.7358 192.052 39.5175 195.241 43.8623 196.754C50.8725 199.199 60.4281 201.95 66.9854 204.842C67.3772 209.578 67.2569 217.061 67.2559 221.943C67.2543 228.807 67.4139 236.491 67.1826 243.325C60.1229 241.116 51.6255 237.454 44.6123 234.861C40.0553 233.175 31.6316 230.112 27.3369 227.968C26.6787 216.193 26.5215 202.852 26.2061 190.904Z" stroke="black"/>
</g>
<g filter="url(#filter4_d_192_3539)">
<path d="M77.0023 165.571C89.2404 169.762 101.92 173.119 114.285 177.265C100.058 185.251 85.2099 192.7 70.7776 200.274C70.1363 200.611 69.177 200.322 68.5191 200.113C56.7052 195.964 41.4888 191.123 30.0474 186.449C33.9228 184.511 38.6878 182.553 42.7327 180.708C54.1021 175.518 65.5261 170.472 77.0023 165.571Z" fill="#F36038"/>
<path d="M77.0239 166.105C83.0941 168.179 89.2693 170.052 95.4517 171.914C101.336 173.686 107.224 175.453 113.047 177.382C99.1313 185.153 84.6532 192.427 70.5454 199.831C70.3623 199.927 70.0878 199.954 69.7241 199.903C69.3702 199.854 69.0041 199.742 68.6743 199.638C57.1931 195.606 42.5678 190.938 31.2749 186.402C34.9373 184.633 39.2129 182.863 42.9399 181.163C54.2479 176.001 65.6102 170.981 77.0239 166.105Z" stroke="black"/>
</g>
<g filter="url(#filter5_d_192_3539)">
<path d="M81.3981 174.303C83.4222 174.16 86.5905 174.923 88.1189 176.441L88.1428 177.007C85.7445 179.158 66.5302 188.859 63.3168 190.262C61.4948 190.046 57.1461 189.334 56.1904 187.573C58.097 185.458 77.3519 176.383 81.3981 174.303Z" fill="#FEFEFE"/>
<path d="M81.5273 174.797C82.4571 174.746 83.6529 174.891 84.8037 175.229C85.9208 175.557 86.9417 176.049 87.627 176.665L87.6318 176.779C87.338 177.01 86.8747 177.327 86.2549 177.712C85.5024 178.181 84.5492 178.738 83.458 179.353C81.276 180.583 78.5548 182.039 75.8047 183.472C70.4337 186.272 64.9795 188.972 63.2402 189.747C62.3301 189.634 60.8983 189.41 59.5713 189.017C58.8734 188.81 58.2209 188.562 57.6943 188.269C57.3334 188.068 57.0545 187.857 56.8574 187.643C57.0999 187.449 57.454 187.2 57.9229 186.903C58.6275 186.456 59.5422 185.926 60.6064 185.337C62.7342 184.162 65.4396 182.767 68.2168 181.372C73.6641 178.634 79.4218 175.874 81.5273 174.797Z" stroke="black"/>
</g>
<g filter="url(#filter6_d_192_3539)">
<path d="M54.7378 103.14C62.0339 102.653 65.9457 110.73 69.8654 116.554C76.3838 126.235 80.4251 132.473 82.333 144.742C80.7594 145.108 79.1232 145.595 77.5851 144.844C74.9578 143.558 73.8229 139.599 72.0613 136.983C69.7736 133.584 66.4125 130.885 64.1248 127.725C61.1241 123.578 59.7947 116.672 57.9339 111.621C56.9241 108.878 55.6304 105.807 54.7378 103.14Z" fill="#F36038"/>
<path d="M55.4321 103.619C58.543 103.644 61.013 105.351 63.1938 107.812C65.5447 110.466 67.458 113.873 69.4507 116.834C75.8782 126.38 79.8453 132.507 81.7642 144.359C80.3102 144.702 79.0216 144.989 77.8042 144.394C76.6383 143.824 75.7612 142.635 74.9341 141.167C74.5234 140.438 74.1423 139.673 73.7417 138.903C73.3453 138.142 72.9332 137.382 72.4761 136.703C71.3064 134.965 69.8668 133.413 68.4565 131.921C67.0362 130.418 65.6502 128.979 64.5298 127.432C63.0783 125.426 62.0147 122.726 61.0767 119.856C60.1512 117.025 59.3349 113.978 58.4028 111.448C57.4598 108.886 56.3056 106.121 55.4321 103.619Z" stroke="black"/>
</g>
<g filter="url(#filter7_d_192_3539)">
<path d="M67.8096 108.928C70.0677 109.436 72.2717 110.22 74.3843 111.267C81.9223 115.036 85.4671 122.824 90.5929 129.8C93.5123 133.773 98.3778 143.994 96.3955 149.195C88.3917 152.337 84.0817 136.118 80.4603 129.841C78.229 125.972 68.4081 111.813 67.8096 108.928Z" fill="#F36038"/>
<path d="M68.585 109.631C70.4947 110.126 72.3619 110.822 74.1621 111.715C77.832 113.55 80.5462 116.371 82.9932 119.632C84.2174 121.263 85.3691 122.996 86.541 124.767C87.5643 126.314 88.6029 127.89 89.7109 129.436L90.1904 130.096C91.6186 132.04 93.5433 135.545 94.8623 139.207C95.521 141.035 96.0223 142.888 96.2393 144.593C96.4444 146.204 96.3896 147.647 96.0029 148.805C94.2764 149.41 92.7522 149.029 91.3359 147.978C89.8348 146.865 88.4741 145.008 87.2188 142.802C85.9679 140.605 84.8488 138.11 83.8096 135.754C82.777 133.413 81.8159 131.19 80.8936 129.592C79.7703 127.644 76.7394 123.11 73.9434 118.746C72.5398 116.555 71.1912 114.401 70.1572 112.618C69.6402 111.726 69.2049 110.932 68.8818 110.276C68.7648 110.038 68.6677 109.822 68.585 109.631Z" stroke="black"/>
</g>
</g>
<defs>
<filter id="filter0_d_192_3539" x="0" y="-0.122559" width="108.024" height="142.551" filterUnits="userSpaceOnUse" color-interpolation-filters="sRGB">
<feFlood flood-opacity="0" result="BackgroundImageFix"/>
<feColorMatrix in="SourceAlpha" type="matrix" values="0 0 0 0 0 0 0 0 0 0 0 0 0 0 0 0 0 0 127 0" result="hardAlpha"/>
<feOffset dy="2"/>
<feGaussianBlur stdDeviation="0.5"/>
<feComposite in2="hardAlpha" operator="out"/>
<feColorMatrix type="matrix" values="0 0 0 0 0 0 0 0 0 0 0 0 0 0 0 0 0 0 0.25 0"/>
<feBlend mode="normal" in2="BackgroundImageFix" result="effect1_dropShadow_192_3539"/>
<feBlend mode="normal" in="SourceGraphic" in2="effect1_dropShadow_192_3539" result="shape"/>
</filter>
<filter id="filter1_d_192_3539" x="71.166" y="181.411" width="45.5723" height="65.7715" filterUnits="userSpaceOnUse" color-interpolation-filters="sRGB">
<feFlood flood-opacity="0" result="BackgroundImageFix"/>
<feColorMatrix in="SourceAlpha" type="matrix" values="0 0 0 0 0 0 0 0 0 0 0 0 0 0 0 0 0 0 127 0" result="hardAlpha"/>
<feOffset dy="2"/>
<feGaussianBlur stdDeviation="0.5"/>
<feComposite in2="hardAlpha" operator="out"/>
<feColorMatrix type="matrix" values="0 0 0 0 0 0 0 0 0 0 0 0 0 0 0 0 0 0 0.25 0"/>
<feBlend mode="normal" in2="BackgroundImageFix" result="effect1_dropShadow_192_3539"/>
<feBlend mode="normal" in="SourceGraphic" in2="effect1_dropShadow_192_3539" result="shape"/>
</filter>
<filter id="filter2_d_192_3539" x="2.90479" y="139.421" width="71.7144" height="48.0315" filterUnits="userSpaceOnUse" color-interpolation-filters="sRGB">
<feFlood flood-opacity="0" result="BackgroundImageFix"/>
<feColorMatrix in="SourceAlpha" type="matrix" values="0 0 0 0 0 0 0 0 0 0 0 0 0 0 0 0 0 0 127 0" result="hardAlpha"/>
<feOffset dy="2"/>
<feGaussianBlur stdDeviation="0.5"/>
<feComposite in2="hardAlpha" operator="out"/>
<feColorMatrix type="matrix" values="0 0 0 0 0 0 0 0 0 0 0 0 0 0 0 0 0 0 0.25 0"/>
<feBlend mode="normal" in2="BackgroundImageFix" result="effect1_dropShadow_192_3539"/>
<feBlend mode="normal" in="SourceGraphic" in2="effect1_dropShadow_192_3539" result="shape"/>
</filter>
<filter id="filter3_d_192_3539" x="24.689" y="190.257" width="44.1206" height="56.7429" filterUnits="userSpaceOnUse" color-interpolation-filters="sRGB">
<feFlood flood-opacity="0" result="BackgroundImageFix"/>
<feColorMatrix in="SourceAlpha" type="matrix" values="0 0 0 0 0 0 0 0 0 0 0 0 0 0 0 0 0 0 127 0" result="hardAlpha"/>
<feOffset dy="2"/>
<feGaussianBlur stdDeviation="0.5"/>
<feComposite in2="hardAlpha" operator="out"/>
<feColorMatrix type="matrix" values="0 0 0 0 0 0 0 0 0 0 0 0 0 0 0 0 0 0 0.25 0"/>
<feBlend mode="normal" in2="BackgroundImageFix" result="effect1_dropShadow_192_3539"/>
<feBlend mode="normal" in="SourceGraphic" in2="effect1_dropShadow_192_3539" result="shape"/>
</filter>
<filter id="filter4_d_192_3539" x="29.0381" y="165.57" width="86.2471" height="37.8586" filterUnits="userSpaceOnUse" color-interpolation-filters="sRGB">
<feFlood flood-opacity="0" result="BackgroundImageFix"/>
<feColorMatrix in="SourceAlpha" type="matrix" values="0 0 0 0 0 0 0 0 0 0 0 0 0 0 0 0 0 0 127 0" result="hardAlpha"/>
<feOffset dy="2"/>
<feGaussianBlur stdDeviation="0.5"/>
<feComposite in2="hardAlpha" operator="out"/>
<feColorMatrix type="matrix" values="0 0 0 0 0 0 0 0 0 0 0 0 0 0 0 0 0 0 0.25 0"/>
<feBlend mode="normal" in2="BackgroundImageFix" result="effect1_dropShadow_192_3539"/>
<feBlend mode="normal" in="SourceGraphic" in2="effect1_dropShadow_192_3539" result="shape"/>
</filter>
<filter id="filter5_d_192_3539" x="55.1265" y="174.286" width="34.0166" height="18.9761" filterUnits="userSpaceOnUse" color-interpolation-filters="sRGB">
<feFlood flood-opacity="0" result="BackgroundImageFix"/>
<feColorMatrix in="SourceAlpha" type="matrix" values="0 0 0 0 0 0 0 0 0 0 0 0 0 0 0 0 0 0 127 0" result="hardAlpha"/>
<feOffset dy="2"/>
<feGaussianBlur stdDeviation="0.5"/>
<feComposite in2="hardAlpha" operator="out"/>
<feColorMatrix type="matrix" values="0 0 0 0 0 0 0 0 0 0 0 0 0 0 0 0 0 0 0.25 0"/>
<feBlend mode="normal" in2="BackgroundImageFix" result="effect1_dropShadow_192_3539"/>
<feBlend mode="normal" in="SourceGraphic" in2="effect1_dropShadow_192_3539" result="shape"/>
</filter>
<filter id="filter6_d_192_3539" x="53.7261" y="103.113" width="29.6069" height="45.125" filterUnits="userSpaceOnUse" color-interpolation-filters="sRGB">
<feFlood flood-opacity="0" result="BackgroundImageFix"/>
<feColorMatrix in="SourceAlpha" type="matrix" values="0 0 0 0 0 0 0 0 0 0 0 0 0 0 0 0 0 0 127 0" result="hardAlpha"/>
<feOffset dy="2"/>
<feGaussianBlur stdDeviation="0.5"/>
<feComposite in2="hardAlpha" operator="out"/>
<feColorMatrix type="matrix" values="0 0 0 0 0 0 0 0 0 0 0 0 0 0 0 0 0 0 0.25 0"/>
<feBlend mode="normal" in2="BackgroundImageFix" result="effect1_dropShadow_192_3539"/>
<feBlend mode="normal" in="SourceGraphic" in2="effect1_dropShadow_192_3539" result="shape"/>
</filter>
<filter id="filter7_d_192_3539" x="66.7192" y="108.89" width="31.1377" height="43.7048" filterUnits="userSpaceOnUse" color-interpolation-filters="sRGB">
<feFlood flood-opacity="0" result="BackgroundImageFix"/>
<feColorMatrix in="SourceAlpha" type="matrix" values="0 0 0 0 0 0 0 0 0 0 0 0 0 0 0 0 0 0 127 0" result="hardAlpha"/>
<feOffset dy="2"/>
<feGaussianBlur stdDeviation="0.5"/>
<feComposite in2="hardAlpha" operator="out"/>
<feColorMatrix type="matrix" values="0 0 0 0 0 0 0 0 0 0 0 0 0 0 0 0 0 0 0.25 0"/>
<feBlend mode="normal" in2="BackgroundImageFix" result="effect1_dropShadow_192_3539"/>
<feBlend mode="normal" in="SourceGraphic" in2="effect1_dropShadow_192_3539" result="shape"/>
</filter>
<clipPath id="clip0_192_3539">
<rect width="117" height="247" fill="white"/>
</clipPath>
</defs>
</svg>
