<svg width="169" height="151" viewBox="0 0 169 151" fill="none" xmlns="http://www.w3.org/2000/svg">
<g clip-path="url(#clip0_192_3487)">
<g filter="url(#filter0_d_192_3487)">
<path d="M14.2598 120.83C31.6109 120.019 40.3006 135.733 56.0904 136.26C68.2306 136.662 79.7769 127.084 91.673 125.397C87.4208 129.956 81.9856 133.29 76.912 136.48C60.8192 146.666 40.9536 155.109 25.3853 139.659C15.311 129.663 14.9213 126.326 0.734863 124.749C5.03762 122.194 9.49171 121.203 14.2598 120.83Z" fill="#69A94F"/>
<path d="M14.2823 121.198C22.8323 120.8 29.2553 124.465 35.568 128.357C41.7619 132.176 47.873 136.232 55.7036 136.613L56.0781 136.628C62.2401 136.833 68.2314 134.504 74.119 131.95C79.6717 129.542 85.1253 126.938 90.6406 125.937C86.5515 130.055 81.4991 133.161 76.7164 136.167L76.715 136.168C68.68 141.254 59.7418 145.878 50.893 147.319C42.0661 148.756 33.3315 147.027 25.6434 139.397C23.1289 136.902 21.2244 134.828 19.5428 133.078C17.866 131.333 16.411 129.909 14.8183 128.748C11.7861 126.539 8.29435 125.312 1.89648 124.516C5.83225 122.404 9.91226 121.54 14.2823 121.198Z" stroke="black"/>
</g>
<g filter="url(#filter1_d_192_3487)">
<path d="M143.782 33.9757C143.983 33.9439 144.184 33.9075 144.385 33.887C145.747 33.7392 147.044 34.0349 148.086 35.122C149.755 36.8641 150.497 40.4962 150.519 43.0321C150.585 51.024 138.012 60.4306 133.5 65.8161C135.586 65.2839 137.028 64.8268 139.035 64.0695C143.364 62.4342 147.784 59.4481 152.435 60.4943C154.489 60.956 156.513 61.5631 158.56 62.0931C160.825 62.6139 162.843 62.9619 165.069 63.7215C167.881 64.6813 168.63 67.2513 168.113 70.4694C167.789 72.4776 165.994 74.6227 164.282 75.7253C160.786 77.9793 156.269 80.2126 152.255 80.8696C147.675 80.8814 139.381 78.9641 134.975 77.7178C135.555 80.1765 136.418 83.1398 137.641 85.5433C140.747 91.6569 145.341 99.4191 140.78 106.333C139.702 107.969 136.96 108.91 135.237 108.958C131.299 109.067 129.164 105.244 127.726 101.525C125.432 96.2076 124.764 92.2072 124.84 86.3285L125.453 76.9805C115.234 80.9588 111.808 94.1363 101.104 96.103C98.6458 96.799 93.5222 95.0865 92.7506 91.7821C89.727 78.8182 102.173 75.343 108.765 73.0212C111.197 72.1751 113.593 71.1927 115.943 70.0759C111.624 67.5355 107.122 65.0815 103.018 62.1022C99.5422 59.5755 99.0051 54.8358 101.542 51.1377C102.68 49.4434 104.38 48.3835 106.222 48.2197C112.009 47.6944 120.855 56.2163 125.266 60.4078C126.629 49.3683 130.119 44.2488 137.629 37.7716C139.813 35.8861 141.206 34.9696 143.782 33.9757Z" fill="#69A94F"/>
<path d="M144.425 34.2529C145.623 34.1228 146.729 34.3588 147.643 35.201L147.822 35.3772C148.594 36.1841 149.176 37.4593 149.566 38.8775C149.906 40.1115 150.091 41.4218 150.139 42.5589L150.151 43.0351C150.167 44.9383 149.429 46.9567 148.206 49.0178C146.985 51.076 145.298 53.1485 143.456 55.1521C141.615 57.155 139.63 59.0776 137.817 60.8434C136.008 62.6033 134.362 64.2157 133.219 65.5794L132.486 66.4548L133.592 66.1728C135.428 65.7042 136.772 65.2928 138.432 64.6867L139.165 64.4141C140.26 64.0005 141.359 63.5022 142.452 63.01C143.549 62.5158 144.641 62.0267 145.741 61.6217C147.941 60.8116 150.129 60.3531 152.354 60.8534H152.355C154.403 61.3138 156.401 61.9146 158.468 62.4496L158.478 62.4518C160.623 62.945 162.5 63.275 164.541 63.9336L164.951 64.0703C166.26 64.517 167.067 65.3254 167.5 66.3879C167.938 67.4664 168.003 68.8378 167.75 70.4103C167.601 71.3351 167.106 72.3178 166.425 73.2136C165.746 74.107 164.901 74.8886 164.084 75.4152C160.613 77.653 156.157 79.8502 152.222 80.5013C147.692 80.5036 139.473 78.6068 135.075 77.3635L134.474 77.1926L134.617 77.8018C135.163 80.1154 135.963 82.8945 137.085 85.2464L137.314 85.7112C138.877 88.7879 140.777 92.213 141.731 95.7347C142.681 99.2401 142.676 102.79 140.473 106.129C139.99 106.862 139.109 107.47 138.105 107.902C137.107 108.332 136.035 108.567 135.226 108.59C133.398 108.64 131.979 107.786 130.823 106.437C129.659 105.079 128.785 103.241 128.07 101.392L128.067 101.386L128.064 101.378C125.793 96.1177 125.132 92.1711 125.206 86.3417L125.82 77.0048L125.858 76.428L125.321 76.6372C120.108 78.6665 116.633 83.0426 113.182 87.0555C109.704 91.1001 106.248 94.7837 101.038 95.7413L101.022 95.7442L101.005 95.7487C99.887 96.0647 98.0839 95.84 96.4453 95.1071C94.8067 94.3735 93.4562 93.1875 93.1087 91.6982C92.3665 88.5176 92.5796 85.9469 93.3938 83.8418C94.2079 81.7336 95.637 80.0616 97.3777 78.7011C100.876 75.9684 105.563 74.5387 108.886 73.3683C111.331 72.5179 113.739 71.5312 116.101 70.4089L116.728 70.1104L116.129 69.7587C111.796 67.2099 107.319 64.7693 103.235 61.8037C99.9429 59.411 99.4035 54.9042 101.844 51.3462L101.847 51.3433C102.931 49.7305 104.535 48.7399 106.254 48.5869C107.61 48.4639 109.18 48.8696 110.865 49.6478C112.546 50.4238 114.309 51.5546 116.042 52.8409C119.506 55.4139 122.804 58.5762 125.013 60.675L125.54 61.1772L125.631 60.4528C126.308 54.965 127.511 50.9763 129.461 47.5618C131.414 44.145 134.128 41.2779 137.869 38.051C140.018 36.1957 141.372 35.3031 143.879 34.3328C144.075 34.3014 144.247 34.2715 144.423 34.2536L144.425 34.2529Z" stroke="black"/>
</g>
<g filter="url(#filter2_d_192_3487)">
<path d="M137.729 0C138.886 0.732329 138.624 4.34758 138.682 5.7071C139.229 18.5624 133.311 29.2144 129.712 40.9461C118.437 27.6801 109.168 42.5399 99.6414 40.6345C95.3371 39.7737 90.0437 37.4268 86.2853 34.8602C84.1412 33.3935 82.4519 30.6928 79.9338 30.1138C78.3709 29.754 76.4326 29.6034 75.0563 30.6562C73.1125 34.7682 95.3172 45.4113 98.2733 46.9379C93.06 48.2581 89.5918 46.828 84.6548 44.7478C83.355 44.2009 81.8795 43.4544 80.5386 43.107C78.7545 44.6425 83.2558 51.3157 84.2735 52.9723C85.5755 54.9157 87.142 56.7739 88.5102 58.7937C88.364 60.4502 88.0017 61.8668 87.6402 63.4719C82.9677 59.6634 76.3797 50.8181 73.5618 45.0504C71.1081 40.0225 68.2123 30.474 69.3079 24.5347C69.4189 23.9317 69.6913 23.4744 70.1214 23.1005C72.3108 21.2772 73.9005 20.3456 76.3099 18.6229C78.1351 17.317 84.2382 12.0156 85.9098 11.6951C86.7952 11.5254 90.68 15.1433 91.7851 15.9725C98.6546 21.1223 105.637 26.8624 113.79 28.9168C119.233 30.1062 120.791 29.5883 126.367 31.7405C125.546 27.323 124.886 23.5053 125.978 19.0553C127.846 11.4447 134.008 6.73129 137.553 0.317865L137.729 0Z" fill="#69A94F"/>
<path d="M137.802 0.622314C137.876 0.750483 137.946 0.913246 138.006 1.11577C138.134 1.54139 138.209 2.07381 138.251 2.64577C138.294 3.2149 138.302 3.80671 138.304 4.34624C138.305 4.74491 138.303 5.12344 138.307 5.4353L138.314 5.72302C138.586 12.0885 137.256 17.9178 135.402 23.6341C134.474 26.4937 133.418 29.3191 132.365 32.1711C131.388 34.817 130.416 37.4852 129.558 40.2102C126.854 37.1843 124.235 35.7028 121.666 35.2073C118.967 34.6868 116.38 35.2657 113.894 36.1849C112.651 36.6445 111.424 37.1931 110.219 37.7371C109.009 38.2829 107.822 38.8235 106.642 39.2779C104.279 40.1875 101.992 40.7293 99.7134 40.2735C95.4626 39.4236 90.2148 37.098 86.4924 34.5556C85.4505 33.8426 84.5349 32.8436 83.4989 31.884C82.5503 31.0057 81.5135 30.1779 80.2673 29.8203L80.0153 29.7548C78.4421 29.3926 76.3517 29.2015 74.8336 30.3634L74.7631 30.4181L74.7241 30.4986C74.4008 31.1825 74.6117 31.9422 75.0629 32.6688C75.5192 33.4031 76.2708 34.1906 77.2084 34.9994C79.088 36.6211 81.7971 38.3981 84.64 40.0836C89.5109 42.9707 94.8344 45.6241 97.1864 46.8027C92.6433 47.6796 89.4058 46.3502 84.7965 44.4082C83.5342 43.877 82.0058 43.1071 80.6303 42.7509L80.4444 42.7026L80.2997 42.8278C79.6832 43.3581 79.678 44.2622 79.8669 45.1411C80.0638 46.054 80.5076 47.1164 81.0264 48.1587C82.0661 50.2454 83.4614 52.3521 83.9611 53.1651L83.964 53.1716L83.9677 53.1774C84.6261 54.1592 85.3498 55.1183 86.0743 56.077C86.7738 57.0031 87.4733 57.9306 88.1295 58.8917C87.9987 60.2627 87.7202 61.4701 87.4153 62.8026C85.2051 60.8982 82.6061 57.9501 80.1983 54.7729C77.7845 51.5884 75.5801 48.1966 74.165 45.4325L73.8916 44.8886C72.6777 42.4008 71.3492 38.7825 70.4613 35.049C69.5992 31.4242 69.1629 27.7335 69.6218 24.8757L69.6691 24.6016C69.7646 24.0822 69.994 23.6989 70.3623 23.3788L70.3616 23.3781C72.2628 21.7953 73.6918 20.904 75.6485 19.5405L76.5236 18.9226C77.4421 18.2652 79.451 16.593 81.3923 15.0807C82.3725 14.3178 83.3409 13.5902 84.1661 13.0349C84.5783 12.7573 84.9501 12.5262 85.2661 12.3559C85.5894 12.1817 85.8267 12.0858 85.9788 12.0567C85.9736 12.0579 86.0412 12.0537 86.2249 12.1337C86.3917 12.2064 86.6004 12.3255 86.8458 12.4846C87.3352 12.8022 87.9267 13.2542 88.5344 13.7456C89.1406 14.2357 89.7534 14.7579 90.2876 15.2116C90.8166 15.6608 91.2773 16.0518 91.5646 16.2676C98.4062 21.3964 105.459 27.1975 113.7 29.2744L113.706 29.2758L113.712 29.2765C116.445 29.8737 118.226 30.0467 119.969 30.331C121.713 30.6154 123.473 31.0175 126.235 32.084L126.849 32.3214L126.728 31.6733C125.932 27.3902 125.304 23.7419 126.24 19.5506L126.335 19.1434C127.251 15.4129 129.221 12.3803 131.43 9.45992C133.597 6.59432 136.019 3.8066 137.802 0.622314Z" stroke="black"/>
</g>
<g filter="url(#filter3_d_192_3487)">
<path d="M156.404 102.613C156.488 102.752 156.573 102.89 156.658 103.028C156.039 105.952 152.369 115.73 150.935 118.601C146.003 128.477 135.193 134.629 125.886 137.128C122.058 138.156 117.539 138.503 113.392 139.638C118.051 132.518 120.795 126.194 122.486 117.353C123.079 112.779 122.826 109.872 122.34 105.369C123.319 104.794 124.297 104.211 125.269 103.623C129.799 115.281 127.579 120.792 123.025 131.835C127.005 128.992 128.599 125.858 131.209 121.531C137.739 110.714 145.535 105.713 156.404 102.613Z" fill="#69A94F"/>
<path d="M156.265 103.092C155.927 104.581 154.897 107.632 153.758 110.706C152.583 113.875 151.313 117.021 150.605 118.436C145.74 128.182 135.044 134.288 125.791 136.772C123.898 137.28 121.83 137.621 119.698 137.979C117.882 138.285 116.021 138.602 114.211 139.046C118.584 132.206 121.21 125.985 122.847 117.422L122.85 117.401C123.438 112.864 123.2 109.944 122.73 105.565C123.516 105.103 124.301 104.636 125.083 104.164C127.2 109.744 127.724 113.87 127.189 117.91C126.639 122.069 124.967 126.16 122.686 131.693L122.198 132.878L123.238 132.135C127.293 129.239 128.926 126.027 131.524 121.722C137.944 111.085 145.583 106.129 156.237 103.045C156.246 103.061 156.256 103.076 156.265 103.092Z" stroke="black"/>
</g>
<g filter="url(#filter4_d_192_3487)">
<path d="M158.086 8.46289C158.135 8.49515 158.186 8.52742 158.237 8.55968C161.431 12.1113 164.251 16.7726 164.931 21.9319C165.548 26.615 164.451 31.0464 161.937 34.7114C160.392 36.9653 158.684 38.867 157.179 41.2163L155.833 43.3724C151.429 35.6884 153.926 31.2491 157.66 24.7463C160.665 19.5111 159.387 14.1062 158.086 8.46289Z" fill="#69A94F"/>
<path d="M158.746 9.70947C161.575 13.0953 163.955 17.3421 164.566 21.9803C165.171 26.574 164.097 30.9138 161.635 34.503C160.869 35.6196 160.062 36.6488 159.251 37.7033C158.443 38.7547 157.631 39.8282 156.87 41.0172L156.868 41.0208L155.851 42.6486C153.943 39.1238 153.56 36.3308 154.056 33.6844C154.582 30.8746 156.103 28.1956 157.979 24.9303C160.824 19.9745 159.918 14.8721 158.746 9.70947Z" stroke="black"/>
</g>
<g filter="url(#filter5_d_192_3487)">
<path d="M92.527 62.4512C94.4829 62.3837 96.17 62.2881 97.9173 63.3576C99.1973 64.1311 100.137 65.4358 100.523 66.9805C101.399 70.4799 99.3832 73.3014 96.2552 73.998C93.7651 74.096 90.424 74.3007 88.7112 71.9594C86.5466 69.0005 90.3329 64.0123 92.527 62.4512Z" fill="#69A94F"/>
<path d="M92.6541 62.8152C94.5748 62.7482 96.1193 62.6885 97.7255 63.6718L97.7277 63.6726C98.8453 64.3476 99.6911 65.4627 100.092 66.7995L100.166 67.0699C100.986 70.3465 99.1246 72.966 96.2045 73.6308C94.9569 73.6805 93.5556 73.7497 92.2529 73.5301C90.945 73.3098 89.7869 72.8061 89.0081 71.7412C88.058 70.4427 88.3739 68.6372 89.3101 66.8527C90.2102 65.1363 91.6143 63.584 92.6541 62.8152Z" stroke="black"/>
</g>
<g filter="url(#filter6_d_192_3487)">
<path d="M149.969 85.7061C156.544 85.2811 159.663 91.9877 152.778 95.0143C144.843 96.6561 144.085 87.3656 149.969 85.7061Z" fill="#69A94F"/>
<path d="M150.032 86.0715C153.181 85.8822 155.408 87.39 156.076 89.1939C156.41 90.0955 156.368 91.0928 155.847 92.046C155.326 92.9969 154.313 93.9287 152.667 94.6601C150.769 95.0453 149.346 94.7735 148.354 94.171C147.357 93.5641 146.757 92.5991 146.552 91.5289C146.141 89.3869 147.314 86.8574 150.032 86.0715Z" stroke="black"/>
</g>
<g filter="url(#filter7_d_192_3487)">
<path d="M158.183 44.4606C164.905 43.8706 168.022 52.0276 161.537 54.9728C154.043 55.6095 152.03 47.6344 158.183 44.4606Z" fill="#69A94F"/>
<path d="M158.288 44.8223C161.447 44.5752 163.719 46.3575 164.466 48.5117C164.843 49.5979 164.832 50.779 164.358 51.8565C163.89 52.9186 162.959 53.9073 161.442 54.6101C157.875 54.8904 155.705 53.1437 155.095 51.043C154.484 48.9382 155.398 46.344 158.288 44.8223Z" stroke="black"/>
</g>
<g filter="url(#filter8_d_192_3487)">
<path d="M117.321 93.0918C123.323 93.7451 123.694 101.68 116.268 102.613C113.062 102.338 109.838 101.109 111.965 96.4742C112.985 94.2512 115.284 93.6523 117.321 93.0918Z" fill="#69A94F"/>
<path d="M117.348 93.4668C120.127 93.7983 121.539 95.7738 121.462 97.7331C121.386 99.6902 119.808 101.784 116.259 102.242C114.68 102.103 113.208 101.732 112.373 100.915C111.965 100.517 111.702 100.003 111.656 99.3241C111.608 98.6347 111.782 97.753 112.298 96.6282C113.224 94.61 115.294 94.0318 117.348 93.4668Z" stroke="black"/>
</g>
<g filter="url(#filter9_d_192_3487)">
<path d="M120.013 40.1987C121.729 40.4872 123.339 41.2495 123.846 43.7219C124.055 44.7186 123.927 45.7874 123.497 46.6502C122.818 48.0384 121.867 48.3603 120.733 48.6617C115.73 47.701 114.9 41.7517 120.013 40.1987Z" fill="#69A94F"/>
<path d="M120.037 40.5771C120.833 40.7189 121.566 40.9655 122.157 41.4309C122.76 41.9061 123.248 42.6341 123.486 43.7961V43.7975C123.679 44.7176 123.559 45.7014 123.169 46.4856L123.168 46.4878C122.856 47.1252 122.493 47.4993 122.091 47.7516C121.699 47.9982 121.251 48.1395 120.721 48.2825C118.411 47.8079 117.117 46.2163 116.945 44.6132C116.774 43.0281 117.689 41.323 120.037 40.5771Z" stroke="black"/>
</g>
</g>
<defs>
<filter id="filter0_d_192_3487" x="-0.724121" y="120.668" width="93.8398" height="30.6121" filterUnits="userSpaceOnUse" color-interpolation-filters="sRGB">
<feFlood flood-opacity="0" result="BackgroundImageFix"/>
<feColorMatrix in="SourceAlpha" type="matrix" values="0 0 0 0 0 0 0 0 0 0 0 0 0 0 0 0 0 0 127 0" result="hardAlpha"/>
<feOffset dy="2"/>
<feGaussianBlur stdDeviation="0.5"/>
<feComposite in2="hardAlpha" operator="out"/>
<feColorMatrix type="matrix" values="0 0 0 0 0 0 0 0 0 0 0 0 0 0 0 0 0 0 0.25 0"/>
<feBlend mode="normal" in2="BackgroundImageFix" result="effect1_dropShadow_192_3487"/>
<feBlend mode="normal" in="SourceGraphic" in2="effect1_dropShadow_192_3487" result="shape"/>
</filter>
<filter id="filter1_d_192_3487" x="91.1528" y="33.7197" width="78.2446" height="78.3721" filterUnits="userSpaceOnUse" color-interpolation-filters="sRGB">
<feFlood flood-opacity="0" result="BackgroundImageFix"/>
<feColorMatrix in="SourceAlpha" type="matrix" values="0 0 0 0 0 0 0 0 0 0 0 0 0 0 0 0 0 0 127 0" result="hardAlpha"/>
<feOffset dy="2"/>
<feGaussianBlur stdDeviation="0.5"/>
<feComposite in2="hardAlpha" operator="out"/>
<feColorMatrix type="matrix" values="0 0 0 0 0 0 0 0 0 0 0 0 0 0 0 0 0 0 0.25 0"/>
<feBlend mode="normal" in2="BackgroundImageFix" result="effect1_dropShadow_192_3487"/>
<feBlend mode="normal" in="SourceGraphic" in2="effect1_dropShadow_192_3487" result="shape"/>
</filter>
<filter id="filter2_d_192_3487" x="67.9365" y="-0.391846" width="71.9131" height="67.115" filterUnits="userSpaceOnUse" color-interpolation-filters="sRGB">
<feFlood flood-opacity="0" result="BackgroundImageFix"/>
<feColorMatrix in="SourceAlpha" type="matrix" values="0 0 0 0 0 0 0 0 0 0 0 0 0 0 0 0 0 0 127 0" result="hardAlpha"/>
<feOffset dy="2"/>
<feGaussianBlur stdDeviation="0.5"/>
<feComposite in2="hardAlpha" operator="out"/>
<feColorMatrix type="matrix" values="0 0 0 0 0 0 0 0 0 0 0 0 0 0 0 0 0 0 0.25 0"/>
<feBlend mode="normal" in2="BackgroundImageFix" result="effect1_dropShadow_192_3487"/>
<feBlend mode="normal" in="SourceGraphic" in2="effect1_dropShadow_192_3487" result="shape"/>
</filter>
<filter id="filter3_d_192_3487" x="112.117" y="102.459" width="45.6816" height="40.3699" filterUnits="userSpaceOnUse" color-interpolation-filters="sRGB">
<feFlood flood-opacity="0" result="BackgroundImageFix"/>
<feColorMatrix in="SourceAlpha" type="matrix" values="0 0 0 0 0 0 0 0 0 0 0 0 0 0 0 0 0 0 127 0" result="hardAlpha"/>
<feOffset dy="2"/>
<feGaussianBlur stdDeviation="0.5"/>
<feComposite in2="hardAlpha" operator="out"/>
<feColorMatrix type="matrix" values="0 0 0 0 0 0 0 0 0 0 0 0 0 0 0 0 0 0 0.25 0"/>
<feBlend mode="normal" in2="BackgroundImageFix" result="effect1_dropShadow_192_3487"/>
<feBlend mode="normal" in="SourceGraphic" in2="effect1_dropShadow_192_3487" result="shape"/>
</filter>
<filter id="filter4_d_192_3487" x="152.358" y="8.46289" width="13.873" height="38.179" filterUnits="userSpaceOnUse" color-interpolation-filters="sRGB">
<feFlood flood-opacity="0" result="BackgroundImageFix"/>
<feColorMatrix in="SourceAlpha" type="matrix" values="0 0 0 0 0 0 0 0 0 0 0 0 0 0 0 0 0 0 127 0" result="hardAlpha"/>
<feOffset dy="2"/>
<feGaussianBlur stdDeviation="0.5"/>
<feComposite in2="hardAlpha" operator="out"/>
<feColorMatrix type="matrix" values="0 0 0 0 0 0 0 0 0 0 0 0 0 0 0 0 0 0 0.25 0"/>
<feBlend mode="normal" in2="BackgroundImageFix" result="effect1_dropShadow_192_3487"/>
<feBlend mode="normal" in="SourceGraphic" in2="effect1_dropShadow_192_3487" result="shape"/>
</filter>
<filter id="filter5_d_192_3487" x="86.9326" y="62.282" width="14.9282" height="14.8999" filterUnits="userSpaceOnUse" color-interpolation-filters="sRGB">
<feFlood flood-opacity="0" result="BackgroundImageFix"/>
<feColorMatrix in="SourceAlpha" type="matrix" values="0 0 0 0 0 0 0 0 0 0 0 0 0 0 0 0 0 0 127 0" result="hardAlpha"/>
<feOffset dy="2"/>
<feGaussianBlur stdDeviation="0.5"/>
<feComposite in2="hardAlpha" operator="out"/>
<feColorMatrix type="matrix" values="0 0 0 0 0 0 0 0 0 0 0 0 0 0 0 0 0 0 0.25 0"/>
<feBlend mode="normal" in2="BackgroundImageFix" result="effect1_dropShadow_192_3487"/>
<feBlend mode="normal" in="SourceGraphic" in2="effect1_dropShadow_192_3487" result="shape"/>
</filter>
<filter id="filter6_d_192_3487" x="144.972" y="85.5554" width="12.8184" height="12.7832" filterUnits="userSpaceOnUse" color-interpolation-filters="sRGB">
<feFlood flood-opacity="0" result="BackgroundImageFix"/>
<feColorMatrix in="SourceAlpha" type="matrix" values="0 0 0 0 0 0 0 0 0 0 0 0 0 0 0 0 0 0 127 0" result="hardAlpha"/>
<feOffset dy="2"/>
<feGaussianBlur stdDeviation="0.5"/>
<feComposite in2="hardAlpha" operator="out"/>
<feColorMatrix type="matrix" values="0 0 0 0 0 0 0 0 0 0 0 0 0 0 0 0 0 0 0.25 0"/>
<feBlend mode="normal" in2="BackgroundImageFix" result="effect1_dropShadow_192_3487"/>
<feBlend mode="normal" in="SourceGraphic" in2="effect1_dropShadow_192_3487" result="shape"/>
</filter>
<filter id="filter7_d_192_3487" x="153.415" y="44.2993" width="12.8184" height="13.8403" filterUnits="userSpaceOnUse" color-interpolation-filters="sRGB">
<feFlood flood-opacity="0" result="BackgroundImageFix"/>
<feColorMatrix in="SourceAlpha" type="matrix" values="0 0 0 0 0 0 0 0 0 0 0 0 0 0 0 0 0 0 127 0" result="hardAlpha"/>
<feOffset dy="2"/>
<feGaussianBlur stdDeviation="0.5"/>
<feComposite in2="hardAlpha" operator="out"/>
<feColorMatrix type="matrix" values="0 0 0 0 0 0 0 0 0 0 0 0 0 0 0 0 0 0 0.25 0"/>
<feBlend mode="normal" in2="BackgroundImageFix" result="effect1_dropShadow_192_3487"/>
<feBlend mode="normal" in="SourceGraphic" in2="effect1_dropShadow_192_3487" result="shape"/>
</filter>
<filter id="filter8_d_192_3487" x="110.148" y="92.9587" width="12.8169" height="12.7859" filterUnits="userSpaceOnUse" color-interpolation-filters="sRGB">
<feFlood flood-opacity="0" result="BackgroundImageFix"/>
<feColorMatrix in="SourceAlpha" type="matrix" values="0 0 0 0 0 0 0 0 0 0 0 0 0 0 0 0 0 0 127 0" result="hardAlpha"/>
<feOffset dy="2"/>
<feGaussianBlur stdDeviation="0.5"/>
<feComposite in2="hardAlpha" operator="out"/>
<feColorMatrix type="matrix" values="0 0 0 0 0 0 0 0 0 0 0 0 0 0 0 0 0 0 0.25 0"/>
<feBlend mode="normal" in2="BackgroundImageFix" result="effect1_dropShadow_192_3487"/>
<feBlend mode="normal" in="SourceGraphic" in2="effect1_dropShadow_192_3487" result="shape"/>
</filter>
<filter id="filter9_d_192_3487" x="115.425" y="40.0632" width="9.65186" height="11.7329" filterUnits="userSpaceOnUse" color-interpolation-filters="sRGB">
<feFlood flood-opacity="0" result="BackgroundImageFix"/>
<feColorMatrix in="SourceAlpha" type="matrix" values="0 0 0 0 0 0 0 0 0 0 0 0 0 0 0 0 0 0 127 0" result="hardAlpha"/>
<feOffset dy="2"/>
<feGaussianBlur stdDeviation="0.5"/>
<feComposite in2="hardAlpha" operator="out"/>
<feColorMatrix type="matrix" values="0 0 0 0 0 0 0 0 0 0 0 0 0 0 0 0 0 0 0.25 0"/>
<feBlend mode="normal" in2="BackgroundImageFix" result="effect1_dropShadow_192_3487"/>
<feBlend mode="normal" in="SourceGraphic" in2="effect1_dropShadow_192_3487" result="shape"/>
</filter>
<clipPath id="clip0_192_3487">
<rect width="169" height="151" fill="white"/>
</clipPath>
</defs>
</svg>
