<svg width="161" height="96" viewBox="0 0 161 96" fill="none" xmlns="http://www.w3.org/2000/svg">
<g clip-path="url(#clip0_192_3473)">
<g filter="url(#filter0_d_192_3473)">
<path d="M65.9925 23.4514C69.4089 23.0822 72.5058 24.2738 75.8237 25.2282C74.0662 35.097 68.2008 73.0388 63.0685 79.0462C58.212 84.7303 47.129 86.4406 40.4866 86.515C38.0463 84.3823 34.9626 81.1569 32.9316 78.6326C32.0452 74.156 32.1349 70.0075 34.6649 66.0949C35.8424 64.2749 37.9763 64.2764 39.7863 64.0238C46.0675 63.1479 52.3072 62.116 58.6169 61.5404C59.5449 53.9782 59.9585 44.6702 60.4926 36.9147C58.212 37.0104 55.8221 37.217 53.535 37.3737C46.7416 37.9398 39.9548 38.5578 33.1701 39.2281C32.9097 45.9812 32.4523 52.9877 32.0824 59.7479C25.1796 60.5264 14.6721 62.0875 7.95971 63.802C5.72078 61.1916 3.07479 57.5276 1 54.7143C3.37463 51.6325 6.56558 47.2622 9.3232 44.7711C10.8815 44.5983 12.4989 44.6202 14.0681 44.6015C16.666 46.6348 19.0734 48.504 21.7522 50.3846C21.4283 45.2816 20.8505 37.5083 20.9031 32.5618C21.9799 31.1168 24.8994 28.1811 26.2279 26.7704C39.5368 25.6098 52.6443 24.7233 65.9925 23.4514Z" fill="#EE4F90"/>
<path d="M66.0459 23.9489C69.1962 23.6084 72.0524 24.6383 75.2539 25.5797C74.3419 30.7671 72.4815 42.3496 70.2217 53.486C69.0589 59.216 67.7928 64.8155 66.499 69.3531C65.852 71.6223 65.1998 73.6177 64.5537 75.2272C63.9029 76.8483 63.2747 78.0351 62.6885 78.7213C60.3571 81.45 56.488 83.2643 52.3154 84.402C48.2363 85.5142 43.9372 85.9598 40.6719 86.0114C38.3088 83.9261 35.3728 80.8525 33.3994 78.4147C32.5517 74.0509 32.6761 70.0923 35.085 66.3668C35.5885 65.5886 36.2957 65.1896 37.126 64.9528C37.9882 64.7068 38.8984 64.6527 39.8555 64.5192C46.1533 63.6409 52.3683 62.6119 58.6621 62.0377L59.0645 62.0016L59.1133 61.6012C60.0434 54.0214 60.4585 44.6847 60.9912 36.9489L61.0293 36.3912L60.4717 36.4147C58.1826 36.5107 55.7754 36.7188 53.501 36.8746L53.4932 36.8756C46.6974 37.4419 39.9081 38.0596 33.1211 38.7301L32.6875 38.7731L32.6709 39.2086C32.4161 45.8163 31.9724 52.6624 31.6064 59.2985C24.8006 60.0807 14.7582 61.5837 8.14062 63.2418C6.03977 60.761 3.60663 57.4107 1.625 54.7194C3.95398 51.6846 6.93946 47.6413 9.54004 45.2516C10.9599 45.1067 12.4256 45.1182 13.8984 45.1031C16.444 47.0949 18.8221 48.9384 21.4648 50.7936L22.3174 51.3922L22.251 50.3531C21.9297 45.2921 21.3643 37.6611 21.4023 32.7321C22.4902 31.3245 25.0976 28.6871 26.458 27.2516C39.6856 26.1005 52.7564 25.2146 66.04 23.9489H66.0459Z" stroke="black"/>
</g>
<g filter="url(#filter1_d_192_3473)">
<path d="M100.614 0C101.655 0.0407568 102.911 0.334551 103.933 0.577091L119.164 4.34171C122.044 5.02457 124.926 5.69394 127.795 6.42506C137.05 8.78295 144.301 15.7063 149.478 24.8116C147.459 25.3149 145.655 25.6605 143.598 25.7728C142.323 24.9274 141.475 23.994 139.964 23.5334C136.703 22.5402 132.807 22.2362 129.441 21.8011L111.42 19.5055C111.42 30.8319 112.174 44.7492 111.769 55.6847C110.363 56.6974 102.523 60.594 100.866 60.9556C93.268 62.5731 85.2197 63.8913 77.5142 64.2961C74.1736 64.4719 74.5036 60.3572 74.8893 57.8196C75.7957 51.8733 78.6649 44.1466 83.0533 40.6787C86.0232 42.0082 89.1024 43.2182 92.0702 44.5626C96.2315 46.4474 98.3529 47.3281 102.396 44.6691C100.47 30.6648 98.745 14.948 97.2537 0.830139C98.5565 0.375814 99.2979 0.24079 100.614 0Z" fill="#EE4F90"/>
<path d="M100.644 0.50293C101.616 0.548589 102.797 0.820641 103.812 1.06152L119.044 4.82715L119.049 4.82812C121.932 5.5117 124.808 6.17943 127.672 6.90918C136.557 9.173 143.599 15.7378 148.709 24.4824C147.02 24.8821 145.465 25.1559 143.738 25.2617C143.485 25.0884 143.245 24.9124 143.007 24.7324C142.73 24.5228 142.447 24.3048 142.158 24.1006C141.574 23.6868 140.934 23.3062 140.109 23.0547C136.795 22.0455 132.831 21.7355 129.505 21.3057L129.504 21.3047L111.482 19.0098L110.92 18.9375V19.5059C110.92 30.794 111.66 44.5187 111.276 55.4102C110.434 55.9537 108.35 57.0598 106.192 58.1152C105.025 58.6862 103.852 59.2359 102.871 59.6641C101.872 60.1 101.117 60.3888 100.76 60.4668C93.1763 62.0811 85.1571 63.394 77.4884 63.7969C76.7634 63.835 76.2974 63.6417 75.9806 63.3486C75.6507 63.0432 75.4244 62.5758 75.2931 61.9697C75.0277 60.7452 75.1909 59.1644 75.3839 57.8945C75.8308 54.9628 76.7622 51.5877 78.1222 48.5225C79.4355 45.5623 81.131 42.9358 83.1339 41.2607C84.5333 41.8823 85.9536 42.4804 87.3683 43.0762C88.8808 43.7131 90.3874 44.3495 91.8644 45.0186C93.9236 45.9513 95.5785 46.6867 97.2384 46.8184C98.9396 46.9532 100.59 46.455 102.671 45.0869L102.935 44.9131L102.892 44.6006C100.984 30.7363 99.2747 15.1899 97.7931 1.17578C98.8177 0.839727 99.5037 0.711592 100.644 0.50293Z" stroke="black"/>
</g>
<g filter="url(#filter2_d_192_3473)">
<path d="M117.719 31.5664C122.63 31.7961 138.438 32.1693 142.004 34.726C144.189 36.2927 151.602 45.2519 151.804 48.0818C151.861 48.8816 151.727 48.9569 151.266 49.4878C144.391 51.743 141.727 46.9412 136.443 45.3815C135.052 44.9706 127.427 44.7426 125.463 44.6559C125.875 52.4503 126.985 62.6571 126.981 69.9774C123.15 76.5592 116.942 84.2651 110.012 86.3772C104.032 88.0541 99.3518 73.9532 102.617 69.716C105.037 66.5759 114.594 66.1159 118.405 65.583C118.394 54.5022 118.046 42.6355 117.719 31.5664Z" fill="#EE4F90"/>
<path d="M118.233 32.0879C120.862 32.2009 125.662 32.3609 130.321 32.7715C132.82 32.9916 135.265 33.2833 137.301 33.6767C139.364 34.0754 140.919 34.5644 141.712 35.1328C142.211 35.4904 143.053 36.3075 144.059 37.4121C145.054 38.5059 146.184 39.8507 147.252 41.2353C148.321 42.6209 149.321 44.0385 150.065 45.2783C150.438 45.8985 150.741 46.4675 150.956 46.9599C151.174 47.4604 151.285 47.848 151.305 48.1172C151.332 48.5027 151.303 48.6149 151.273 48.6797C151.234 48.7656 151.173 48.8327 150.982 49.0508C147.769 50.0709 145.555 49.4741 143.485 48.4199C142.406 47.87 141.404 47.2182 140.271 46.5654C139.158 45.9235 137.961 45.3086 136.585 44.9023C136.179 44.7825 135.387 44.6878 134.459 44.6084C133.51 44.5272 132.358 44.4571 131.193 44.3974C128.867 44.2782 126.456 44.1991 125.484 44.1562L124.935 44.1318L124.963 44.6826C125.376 52.4795 126.47 62.5435 126.479 69.8408C124.587 73.0742 122.127 76.5644 119.298 79.5068C116.433 82.4864 113.223 84.8726 109.877 85.8955C108.608 86.2513 107.368 85.7928 106.217 84.7129C105.06 83.6283 104.052 81.9629 103.313 80.082C102.577 78.2055 102.124 76.1527 102.054 74.3232C101.982 72.4746 102.303 70.9426 103.013 70.0215C103.533 69.3465 104.48 68.7702 105.747 68.2881C107.002 67.8106 108.509 67.4486 110.079 67.164C113.245 66.5904 116.511 66.3527 118.475 66.0781L118.906 66.0176L118.905 65.582C118.894 54.6718 118.556 43.0021 118.233 32.0879Z" stroke="black"/>
</g>
<g filter="url(#filter3_d_192_3473)">
<path d="M154.956 60.8078C156.396 60.7196 158.623 61.0522 159.805 62.0736C161.113 65.2551 155.468 66.0854 153.798 66.3937C156.365 72.8667 159.533 76.762 159.149 84.0721C157.717 86.5397 154.105 90.1031 151.778 91.5769C149.22 92.5568 148 92.7698 145.475 91.3269C139.677 87.9318 149.322 82.6722 150.338 79.9737C151.069 78.0323 149.092 69.8899 148.61 67.5303C150.234 64.346 152.145 62.4706 154.956 60.8078Z" fill="#EE4F90"/>
<path d="M155.106 61.3012C155.76 61.2733 156.577 61.3339 157.367 61.5121C158.161 61.6915 158.88 61.9813 159.381 62.3754C159.593 62.965 159.496 63.3992 159.244 63.7602C158.95 64.1798 158.413 64.5459 157.716 64.8539C156.326 65.4683 154.567 65.7429 153.707 65.9018L153.109 66.0121L153.333 66.5785C153.982 68.2124 154.667 69.6824 155.319 71.0717C155.973 72.465 156.59 73.7722 157.116 75.1029C158.149 77.719 158.819 80.4152 158.654 83.9213C157.959 85.084 156.765 86.5136 155.444 87.8451C154.102 89.1975 152.665 90.4142 151.551 91.1274C150.297 91.6059 149.443 91.8648 148.617 91.8608C147.899 91.8572 147.16 91.6545 146.166 91.1352L145.723 90.893C145.049 90.4973 144.638 90.0967 144.405 89.7143C144.176 89.3391 144.101 88.955 144.143 88.5512C144.231 87.7051 144.829 86.7474 145.728 85.7182C146.616 84.7009 147.709 83.71 148.682 82.768C149.162 82.3034 149.613 81.8497 149.979 81.4223C150.339 81.0015 150.648 80.5704 150.806 80.1498C150.926 79.8315 150.977 79.4279 150.993 78.9965C151.009 78.5564 150.989 78.0483 150.943 77.5004C150.851 76.4044 150.654 75.1133 150.421 73.8207C149.979 71.3634 149.395 68.8344 149.137 67.602C150.677 64.6428 152.474 62.8764 155.106 61.3012Z" stroke="black"/>
</g>
</g>
<defs>
<filter id="filter0_d_192_3473" x="-0.000488281" y="23.3826" width="76.8242" height="66.1323" filterUnits="userSpaceOnUse" color-interpolation-filters="sRGB">
<feFlood flood-opacity="0" result="BackgroundImageFix"/>
<feColorMatrix in="SourceAlpha" type="matrix" values="0 0 0 0 0 0 0 0 0 0 0 0 0 0 0 0 0 0 127 0" result="hardAlpha"/>
<feOffset dy="2"/>
<feGaussianBlur stdDeviation="0.5"/>
<feComposite in2="hardAlpha" operator="out"/>
<feColorMatrix type="matrix" values="0 0 0 0 0 0 0 0 0 0 0 0 0 0 0 0 0 0 0.25 0"/>
<feBlend mode="normal" in2="BackgroundImageFix" result="effect1_dropShadow_192_3473"/>
<feBlend mode="normal" in="SourceGraphic" in2="effect1_dropShadow_192_3473" result="shape"/>
</filter>
<filter id="filter1_d_192_3473" x="73.6543" y="0" width="76.8271" height="67.3018" filterUnits="userSpaceOnUse" color-interpolation-filters="sRGB">
<feFlood flood-opacity="0" result="BackgroundImageFix"/>
<feColorMatrix in="SourceAlpha" type="matrix" values="0 0 0 0 0 0 0 0 0 0 0 0 0 0 0 0 0 0 127 0" result="hardAlpha"/>
<feOffset dy="2"/>
<feGaussianBlur stdDeviation="0.5"/>
<feComposite in2="hardAlpha" operator="out"/>
<feColorMatrix type="matrix" values="0 0 0 0 0 0 0 0 0 0 0 0 0 0 0 0 0 0 0.25 0"/>
<feBlend mode="normal" in2="BackgroundImageFix" result="effect1_dropShadow_192_3473"/>
<feBlend mode="normal" in="SourceGraphic" in2="effect1_dropShadow_192_3473" result="shape"/>
</filter>
<filter id="filter2_d_192_3473" x="100.544" y="31.5652" width="52.2725" height="57.9497" filterUnits="userSpaceOnUse" color-interpolation-filters="sRGB">
<feFlood flood-opacity="0" result="BackgroundImageFix"/>
<feColorMatrix in="SourceAlpha" type="matrix" values="0 0 0 0 0 0 0 0 0 0 0 0 0 0 0 0 0 0 127 0" result="hardAlpha"/>
<feOffset dy="2"/>
<feGaussianBlur stdDeviation="0.5"/>
<feComposite in2="hardAlpha" operator="out"/>
<feColorMatrix type="matrix" values="0 0 0 0 0 0 0 0 0 0 0 0 0 0 0 0 0 0 0.25 0"/>
<feBlend mode="normal" in2="BackgroundImageFix" result="effect1_dropShadow_192_3473"/>
<feBlend mode="normal" in="SourceGraphic" in2="effect1_dropShadow_192_3473" result="shape"/>
</filter>
<filter id="filter3_d_192_3473" x="142.632" y="60.7942" width="18.3682" height="34.5667" filterUnits="userSpaceOnUse" color-interpolation-filters="sRGB">
<feFlood flood-opacity="0" result="BackgroundImageFix"/>
<feColorMatrix in="SourceAlpha" type="matrix" values="0 0 0 0 0 0 0 0 0 0 0 0 0 0 0 0 0 0 127 0" result="hardAlpha"/>
<feOffset dy="2"/>
<feGaussianBlur stdDeviation="0.5"/>
<feComposite in2="hardAlpha" operator="out"/>
<feColorMatrix type="matrix" values="0 0 0 0 0 0 0 0 0 0 0 0 0 0 0 0 0 0 0.25 0"/>
<feBlend mode="normal" in2="BackgroundImageFix" result="effect1_dropShadow_192_3473"/>
<feBlend mode="normal" in="SourceGraphic" in2="effect1_dropShadow_192_3473" result="shape"/>
</filter>
<clipPath id="clip0_192_3473">
<rect width="161" height="96" fill="white"/>
</clipPath>
</defs>
</svg>
