<svg width="165" height="132" viewBox="0 0 165 132" fill="none" xmlns="http://www.w3.org/2000/svg">
<g clip-path="url(#clip0_192_3435)">
<g filter="url(#filter0_d_192_3435)">
<path d="M26.6644 38.812C23.8651 39.2895 19.6273 39.9708 16.9835 41.2183C13.3816 42.9179 9.78541 49.5451 7.78706 53.3886C7.34568 54.2373 6.76662 56.3478 6.35303 57.4261C6.25633 58.1043 4.54947 61.0409 3.87624 60.9339C1.28859 60.525 0.504497 56.5367 1.29294 54.5965C3.23993 49.7004 5.74548 44.9807 8.19307 40.3902C11.4446 34.2923 17.5168 32.5469 23.0204 30.4241C25.9774 29.2835 28.5883 28.7716 31.6801 28.3806C34.6926 27.9994 37.7198 28.6067 40.6516 27.9873C42.0627 26.4701 41.1454 25.3944 41.0057 23.4567C40.0729 12.1486 54.2897 8.07751 59.2591 16.7168C63.0372 23.2841 58.9307 30.9687 52.6801 32.1397C51.8291 32.2991 47.6306 32.2626 47.87 33.7164C48.2888 36.2605 50.4445 38.6272 51.3241 41.0483C53.5536 45.9181 53.8806 53.4704 57.0155 57.6354C61.3699 63.4195 68.3225 66.8851 74.7124 67.6428C75.3018 70.1641 75.9376 72.7568 76.4386 75.2959C70.5568 74.9276 59.5847 68.4767 54.1515 65.3664C50.9438 63.5314 46.2654 55.1769 44.7587 51.2195C42.4774 54.0223 40.4256 57.9437 40.3425 61.8895C40.2775 64.977 43.3452 68.0792 45.0193 70.2127C48.8746 75.1239 53.5183 79.6798 55.3903 86.1713C57.5547 94.0127 55.5097 102.633 55.3687 110.632C55.3106 113.93 63.8933 114.691 64.2722 117.745C64.1501 118.269 63.9971 118.595 63.5663 118.858C62.4042 119.57 51.7272 118.895 50.233 118.291C49.7854 118.11 49.4963 117.848 49.1468 117.487C48.3684 115.227 49.0057 112.001 48.7373 109.741C48.07 104.122 48.4242 96.1381 46.8171 90.9462C45.6075 87.0361 38.368 80.7782 35.403 78.0785C36.048 81.1611 37.4976 88.8971 37.0307 91.8386C36.1479 97.3972 31.561 105.067 29.4426 110.4C28.8717 111.836 28.0097 113.497 29.4854 114.401C31.9974 115.937 35.0785 116.07 36.0685 119.687C35.3157 120.504 32.3167 120.816 31.2747 120.665C29.024 120.433 23.9894 119.872 22.0224 119.028C21.4795 118.796 20.9494 118.481 20.7336 117.821C19.6938 114.644 24.1465 103.923 25.2715 100.634C26.0508 98.356 27.2726 95.4031 27.3102 92.9548C27.3575 89.8835 22.0704 79.0097 20.783 75.5214C18.117 68.2999 18.8174 62.6813 20.7813 55.4035C21.7213 51.9926 22.8115 48.6396 24.0478 45.3574C24.9081 43.1301 25.866 41.0931 26.6644 38.812Z" fill="#6D50A3"/>
<path d="M41.4728 22.9129C41.0316 12.467 54.2255 8.96823 58.8263 16.9666C62.4313 23.2338 58.5014 30.5405 52.588 31.6483C52.409 31.6818 52.032 31.7069 51.4952 31.7509C50.9836 31.7927 50.3682 31.8499 49.7823 31.9501C49.2071 32.0484 48.6098 32.1957 48.1612 32.4403C47.9347 32.5639 47.7128 32.7298 47.5587 32.9579C47.3954 33.1995 47.3258 33.4867 47.3771 33.7976C47.6028 35.1689 48.2905 36.467 48.9913 37.6786C49.7093 38.92 50.4343 40.0629 50.8546 41.2196L50.8614 41.2382L50.8692 41.2566C51.9588 43.6365 52.5834 46.6734 53.3448 49.7274C54.0951 52.7367 54.9798 55.7621 56.6163 57.9364C60.9824 63.7358 67.8918 67.2388 74.3038 68.0935C74.8201 70.2933 75.3613 72.5279 75.8136 74.7303C73.0233 74.367 69.1999 72.8082 65.3478 70.911C61.2075 68.8719 57.1212 66.4905 54.3995 64.9325C53.6774 64.5193 52.83 63.7097 51.9278 62.6199C51.0331 61.5391 50.1133 60.2185 49.2413 58.8241C47.4952 56.0319 45.9648 52.9832 45.2257 51.0419L44.9181 50.2323L44.3712 50.9042C42.0514 53.7543 39.9293 57.7801 39.8429 61.8787C39.807 63.5823 40.6318 65.2382 41.6153 66.6893C42.5943 68.1336 43.8217 69.4963 44.6261 70.5214C48.5336 75.4992 53.0705 79.9382 54.9083 86.3035V86.3046C55.9682 90.1445 56.0025 94.1935 55.7452 98.3113C55.4903 102.391 54.9399 106.617 54.8692 110.623C54.8504 111.695 55.5421 112.495 56.3888 113.11C57.24 113.728 58.3678 114.248 59.4513 114.736C60.5594 115.235 61.6246 115.702 62.4425 116.229C63.2307 116.737 63.6619 117.222 63.7618 117.721C63.7124 117.914 63.6646 118.043 63.6056 118.142C63.544 118.246 63.4592 118.337 63.3058 118.431L63.3048 118.432C63.3023 118.433 63.2892 118.44 63.2608 118.45C63.2283 118.462 63.1833 118.475 63.1251 118.489C63.0081 118.517 62.8539 118.543 62.6622 118.566C62.2787 118.612 61.7778 118.641 61.1915 118.654C60.0207 118.681 58.5436 118.645 57.0499 118.568C55.5573 118.491 54.0564 118.374 52.839 118.238C52.2298 118.17 51.6958 118.098 51.2716 118.025C50.8339 117.95 50.5516 117.881 50.42 117.828C50.0993 117.698 49.881 117.518 49.5851 117.218C49.2603 116.199 49.2235 114.95 49.2511 113.624C49.2787 112.292 49.373 110.858 49.2335 109.682C48.9022 106.892 48.8264 103.529 48.629 100.154C48.4333 96.8073 48.1183 93.4586 47.295 90.7986C46.9666 89.7371 46.2455 88.5568 45.339 87.3631C44.4266 86.1617 43.2995 84.9128 42.1261 83.7097C39.7809 81.3052 37.213 79.0506 35.7394 77.7088L34.5968 76.6687L34.9142 78.1804C35.2354 79.7155 35.7561 82.4099 36.1388 85.0828C36.3301 86.4193 36.4864 87.7448 36.5655 88.9148C36.6453 90.0935 36.6448 91.0829 36.5372 91.7605C36.1079 94.4632 34.7688 97.7126 33.2462 100.993C31.7386 104.241 30.0433 107.532 28.9776 110.215C28.7105 110.887 28.3157 111.744 28.2022 112.528C28.1434 112.935 28.1511 113.365 28.3097 113.776C28.4715 114.196 28.7735 114.551 29.2247 114.827C29.8856 115.231 30.578 115.54 31.2355 115.825C31.9029 116.114 32.5272 116.377 33.1036 116.7C34.151 117.287 35.0132 118.06 35.4903 119.504C35.3663 119.577 35.1993 119.658 34.9825 119.734C34.6153 119.863 34.1674 119.968 33.6983 120.046C32.7476 120.203 31.7952 120.235 31.3468 120.17L31.336 120.169L31.3263 120.168L30.3663 120.065C29.2998 119.948 27.9483 119.787 26.6183 119.582C24.8255 119.306 23.1366 118.961 22.2198 118.568C21.7075 118.349 21.3546 118.111 21.2091 117.666C21.1057 117.35 21.0598 116.901 21.0831 116.325C21.1062 115.755 21.1955 115.089 21.337 114.352C21.6202 112.878 22.1077 111.159 22.6671 109.423C23.7954 105.92 25.1629 102.495 25.7442 100.796C26.1253 99.6819 26.6369 98.3418 27.047 97.0047C27.4588 95.6617 27.7907 94.2579 27.8106 92.9627C27.824 92.0968 27.4714 90.7634 26.9649 89.2654C26.4502 87.7431 25.7486 85.9745 25.0089 84.202C23.7046 81.077 22.2965 77.9696 21.5362 76.08L21.2521 75.3485L21.0167 74.6893C18.6811 67.9212 19.3724 62.5403 21.2628 55.535L21.2638 55.5359C22.1994 52.1411 23.2846 48.8043 24.5147 45.5379C25.3536 43.3661 26.3396 41.2551 27.1368 38.9774L27.4171 38.1766L26.5802 38.3191C23.8118 38.7913 19.4914 39.4826 16.7706 40.7664C14.8366 41.6789 12.9716 43.8655 11.3702 46.2186C9.75341 48.5944 8.34386 51.2347 7.34383 53.1581C7.10043 53.6261 6.832 54.4087 6.58406 55.1659C6.32787 55.9483 6.08666 56.7232 5.88582 57.2468L5.86629 57.2997L5.85848 57.3553C5.85494 57.3801 5.83515 57.4563 5.78133 57.5927C5.73091 57.7203 5.66002 57.8769 5.57235 58.0526C5.39703 58.4039 5.1628 58.8145 4.91121 59.202C4.65769 59.5926 4.39757 59.9428 4.17098 60.1824C4.05666 60.3032 3.9657 60.38 3.90242 60.4207C3.89855 60.4232 3.89404 60.4246 3.8907 60.4266C2.89933 60.2387 2.18044 59.3692 1.79403 58.1843C1.40046 56.9775 1.41639 55.6208 1.75594 54.785L1.75789 54.7811C3.69289 49.9152 6.18458 45.2195 8.63387 40.6259C11.7783 34.7287 17.6274 33.04 23.2003 30.8904C26.106 29.7696 28.674 29.265 31.7433 28.8768C33.205 28.6919 34.6717 28.7463 36.1876 28.7733C37.6874 28.8001 39.228 28.799 40.755 28.4763L40.9103 28.4441L41.0177 28.3279C41.4099 27.9062 41.6609 27.4922 41.798 27.0642C41.935 26.636 41.9471 26.226 41.9073 25.8299C41.8687 25.4454 41.7776 25.0469 41.6974 24.6658C41.6148 24.2735 41.5364 23.87 41.504 23.4207V23.4158L41.4728 22.9129Z" stroke="black"/>
</g>
<g filter="url(#filter1_d_192_3435)">
<path d="M85.6283 89.3635C85.6863 89.3619 85.7443 89.3619 85.8023 89.3603C89.6822 89.0899 98.3062 84.4052 101.357 81.5841C102.356 80.6603 108.168 70.285 108.038 68.246C107.998 67.6248 107.94 67.6634 107.598 67.3029C106.543 66.9054 105.036 67.1082 103.888 67.0165C101.697 66.841 99.3458 65.795 97.8083 64.0086C96.0544 61.9712 95.2722 58.4693 96.0558 55.7435C98.9526 45.6504 114.652 47.1222 113.618 58.9747C113.529 59.921 113.318 61.8875 114.397 62.1418C116.455 62.8596 118.689 62.9851 120.629 64.1567C126.804 68.7014 134.215 78.3268 137.931 85.5784C139.234 88.1195 140.364 96.1854 140.835 99.2963C141.177 101.509 141.129 103.908 141.907 105.999C142.213 106.821 143.101 107.56 143.841 107.761C148.182 108.941 152.926 109.589 157.38 109.111C158.281 109.015 159.229 108.917 160.117 109.108C161.861 110.143 165.6 119.913 163.126 120.938C160.195 120.639 159.12 115.85 155.266 115.484C150.165 115.003 137.52 117.407 134.256 112.275C131.971 108.683 129.261 101.853 127.466 97.7932C123.533 98.5898 114.472 100.585 111.182 103.299C110.605 103.775 106.669 118.874 105.956 120.88C105.366 122.541 107.23 127.015 103.069 127.432C100.777 127.733 92.0981 129.757 90.4064 128.694C89.0117 126.416 96.3387 123.452 97.6159 122.693C98.4873 122.178 99.2949 121.531 100.016 120.771C100.535 113.236 100.715 106.244 102.947 98.9776C104.427 94.1674 118.419 89.246 118.973 87.7832C119.017 85.3901 113.711 81.1061 111.983 79.9924C110.78 81.5293 107.314 86.1368 106.073 87.1137C100.934 91.1579 91.9184 92.8574 86.2139 95.2826C83.4528 96.0792 82.1006 97.1881 79.1033 96.6409C76.2135 95.0283 75.0211 92.1122 78.9095 90.8908C79.4216 90.9069 80.2787 90.7797 80.8177 90.7218L80.6182 88.2515C82.3849 88.4655 83.8871 89.0207 85.6283 89.3635Z" fill="#F5C30D"/>
<path d="M96.5359 55.8818C97.9052 51.111 102.291 49.0664 106.241 49.6248C108.212 49.9036 110.05 50.8297 111.333 52.37C112.61 53.9039 113.368 56.0824 113.12 58.9276C113.077 59.3869 112.994 60.1702 113.072 60.8729C113.111 61.2248 113.195 61.5986 113.371 61.9159C113.548 62.2337 113.826 62.5017 114.232 62.6131C115.289 62.9815 116.411 63.205 117.435 63.4637C118.472 63.7261 119.452 64.0341 120.353 64.5742C126.444 69.0667 133.799 78.6105 137.486 85.8066C137.785 86.3888 138.089 87.323 138.384 88.4794C138.676 89.6264 138.952 90.9584 139.203 92.3144C139.705 95.027 140.105 97.8104 140.341 99.371V99.373C140.51 100.469 140.579 101.576 140.711 102.749C140.824 103.755 140.982 104.778 141.295 105.757L141.438 106.174C141.627 106.681 141.983 107.136 142.38 107.487C142.776 107.838 143.249 108.119 143.71 108.244C147.816 109.36 152.3 110.01 156.58 109.686L157.434 109.608C158.314 109.514 159.149 109.433 159.92 109.58C160.045 109.674 160.224 109.859 160.442 110.163C160.688 110.505 160.955 110.953 161.227 111.478C161.769 112.528 162.312 113.851 162.726 115.176C163.141 116.506 163.417 117.806 163.445 118.816C163.459 119.323 163.41 119.724 163.308 120.01C163.232 120.221 163.137 120.346 163.034 120.42C162.5 120.331 162.018 120.056 161.531 119.634C160.992 119.166 160.492 118.564 159.919 117.907C158.807 116.633 157.458 115.19 155.312 114.986C153.997 114.862 152.213 114.925 150.271 115.002C148.312 115.08 146.168 115.174 144.084 115.124C141.997 115.074 140.002 114.88 138.339 114.394C136.674 113.908 135.403 113.146 134.679 112.007C132.42 108.457 129.736 101.693 127.923 97.5907L127.761 97.2236L127.366 97.3026C125.396 97.7018 122.131 98.4037 118.941 99.3476C115.977 100.225 112.995 101.335 111.206 102.647L110.864 102.913C110.771 102.99 110.712 103.088 110.685 103.137C110.648 103.2 110.613 103.274 110.579 103.351C110.511 103.505 110.433 103.706 110.35 103.941C110.182 104.414 109.975 105.06 109.744 105.818C109.281 107.338 108.711 109.338 108.139 111.381C106.987 115.487 105.833 119.731 105.484 120.713C105.299 121.236 105.316 121.931 105.342 122.566C105.369 123.246 105.413 123.929 105.354 124.576C105.294 125.219 105.136 125.754 104.809 126.146C104.492 126.526 103.962 126.84 103.019 126.935H103.012L103.004 126.936C102.414 127.014 101.424 127.2 100.271 127.414C99.1079 127.63 97.7618 127.876 96.4363 128.08C95.1085 128.284 93.8151 128.444 92.7557 128.488C92.2255 128.51 91.7666 128.503 91.3982 128.461C91.1096 128.428 90.9081 128.376 90.7771 128.322C90.7244 128.193 90.7186 128.065 90.7508 127.926C90.7959 127.73 90.921 127.495 91.1482 127.224C91.6055 126.677 92.3735 126.103 93.2713 125.55C94.16 125.002 95.1362 124.497 95.9773 124.078C96.7954 123.671 97.5275 123.325 97.8689 123.122L97.8699 123.123C98.7826 122.584 99.6267 121.907 100.379 121.115L100.503 120.985L100.515 120.806C101.036 113.242 101.214 106.322 103.425 99.1249C103.745 98.0838 104.782 96.955 106.3 95.8026C107.796 94.6661 109.674 93.569 111.544 92.5653C113.428 91.5537 115.234 90.6733 116.676 89.916C117.384 89.5439 117.999 89.2032 118.458 88.9061C118.687 88.7579 118.889 88.6123 119.049 88.4716C119.195 88.3424 119.361 88.1703 119.44 87.9599L119.472 87.8787L119.473 87.7919C119.487 87.0302 119.085 86.2034 118.555 85.4296C118.011 84.6372 117.273 83.8168 116.493 83.0506C114.934 81.5193 113.149 80.1487 112.254 79.5721L111.87 79.3251L111.589 79.6845C110.98 80.4625 109.822 81.9866 108.651 83.4511C108.068 84.1814 107.486 84.8903 106.975 85.4755C106.455 86.0704 106.033 86.5086 105.764 86.7205C103.267 88.6857 99.7995 90.0998 96.1941 91.332C92.6394 92.5469 88.9166 93.5935 86.0477 94.8095C85.3502 95.0119 84.7421 95.2332 84.1863 95.4384C83.6184 95.6481 83.1154 95.837 82.6072 95.9852C81.6326 96.2693 80.6439 96.3996 79.2732 96.1611C77.9251 95.3896 77.0929 94.3843 76.9578 93.54C76.8933 93.1365 76.9827 92.7528 77.2781 92.3964C77.5779 92.035 78.115 91.6756 78.993 91.3906C79.5564 91.3913 80.4056 91.2686 80.8709 91.2186L81.3553 91.1669L81.3162 90.6816L81.1658 88.8358C81.792 88.9414 82.3952 89.0861 83.0086 89.2431C83.8105 89.4484 84.6425 89.6795 85.531 89.8544L85.5857 89.8651L85.6424 89.8631C85.6672 89.8624 85.6931 89.8626 85.7225 89.8621C85.7508 89.8618 85.7834 89.8611 85.8162 89.8602L85.826 89.8592H85.8367C86.8784 89.7866 88.1985 89.4232 89.615 88.8964C91.0397 88.3666 92.595 87.6584 94.1189 86.873C97.1564 85.3076 100.122 83.4068 101.696 81.9511C101.87 81.7903 102.101 81.4784 102.351 81.1092C102.611 80.7234 102.924 80.2263 103.269 79.6551C103.957 78.5116 104.779 77.0558 105.563 75.5662C106.348 74.0777 107.1 72.547 107.649 71.2557C107.924 70.6107 108.151 70.017 108.307 69.5136C108.456 69.0285 108.56 68.5671 108.537 68.2137C108.518 67.9155 108.493 67.66 108.369 67.4354C108.307 67.3222 108.231 67.2369 108.167 67.1698C108.136 67.1368 108.1 67.1015 108.068 67.0692C108.035 67.0354 108 66.9996 107.961 66.9588L107.882 66.8748L107.774 66.8348L107.539 66.7567C106.982 66.5923 106.362 66.554 105.786 66.5448C105.089 66.5336 104.483 66.5619 103.928 66.5175C101.852 66.3513 99.6289 65.3573 98.1873 63.6825C96.545 61.7747 95.7983 58.448 96.5359 55.8818Z" stroke="black"/>
</g>
<g filter="url(#filter2_d_192_3435)">
<path d="M74.4736 67.286C73.5261 63.4129 72.8823 60.2236 72.7116 56.2555C72.405 49.1659 73.6765 43.5788 76.0475 37.0778C77.2974 33.6522 78.0728 28.5878 78.5545 24.9142C78.7122 23.7147 78.5096 22.9282 79.3284 21.915C80.2701 21.6358 80.4654 22.9699 80.6318 23.7804C81.3131 27.1077 80.5551 30.3866 79.7551 33.5959C77.5795 42.3252 75.6772 49.9685 77.7588 59.0345C79.6944 55.5221 81.2003 53.3876 83.7998 50.4648C84.704 49.4484 86.2157 47.7983 87.5046 47.5268L87.7389 47.6615C87.9053 48.9308 86.6656 49.935 86.3473 50.8595C86.1925 51.5113 86.1274 51.7284 85.8858 52.346L85.9495 52.719L86.4052 52.9769C85.4085 53.8029 85.0859 54.1064 84.257 55.1727C83.7319 55.2387 83.8244 55.5489 83.201 55.9393C81.0007 59.8535 79.2749 65.5433 80.4235 70.0875C82.1232 76.804 84.8602 82.0416 86.3719 88.9979C84.5911 88.6551 83.0548 88.1 81.248 87.886L81.452 90.356C80.9009 90.4139 80.0242 90.541 79.5006 90.5249C78.8698 85.5897 77.4391 79.6827 76.2529 74.8762C75.7365 72.358 75.0812 69.7866 74.4736 67.286Z" fill="#F36038"/>
<path d="M79.636 22.3958C79.6763 22.4218 79.7429 22.492 79.8177 22.6516C79.9728 22.983 80.0512 23.4394 80.1419 23.8811C80.7972 27.0819 80.0726 30.2545 79.2698 33.4749C77.097 42.1926 75.1597 49.9483 77.2718 59.1467L77.5647 60.4231L78.1966 59.2756C80.1145 55.7953 81.599 53.6914 84.1731 50.7971C84.6247 50.2895 85.2113 49.6434 85.8382 49.092C86.3283 48.6609 86.8041 48.3231 87.2288 48.1399C87.1736 48.4535 87.0208 48.7733 86.8011 49.1243C86.6325 49.3935 86.4847 49.5964 86.303 49.8762C86.1405 50.1266 85.9748 50.4048 85.8743 50.6965L85.8665 50.72L85.8606 50.7444C85.7108 51.3754 85.6525 51.5705 85.4202 52.1643L85.3694 52.2932L85.3929 52.4299L85.4563 52.803L85.4964 53.0374L85.5345 53.0588C84.9394 53.574 84.584 53.9463 83.9759 54.72C83.8788 54.7472 83.7878 54.7845 83.7024 54.8352C83.5602 54.9196 83.462 55.0235 83.3929 55.1008C83.2629 55.246 83.1769 55.3649 82.9358 55.5159L82.8274 55.5833L82.7649 55.6946C80.5375 59.6572 78.7446 65.4859 79.9388 70.2102C80.7959 73.597 81.9143 76.611 82.9974 79.6223C84.0021 82.4158 84.9781 85.2134 85.7112 88.3459C85.1156 88.2097 84.5369 88.0577 83.9407 87.9084C83.1036 87.6989 82.2428 87.5008 81.3069 87.3899L80.6995 87.3176L80.7493 87.927L80.9134 89.9133C80.5838 89.9521 80.236 89.9929 79.9349 90.0129C79.3584 85.7668 78.2336 80.8749 77.1927 76.6057L76.7386 74.7561C76.2204 72.2326 75.5634 69.6545 74.9593 67.1682C74.0739 63.549 73.4605 60.5508 73.2483 56.9602L73.2112 56.2336L73.1868 55.5813C72.9871 48.8832 74.2344 43.5077 76.5169 37.2493C77.7884 33.7644 78.5692 28.647 79.0501 24.9797C79.0921 24.6604 79.1094 24.3693 79.1253 24.1125C79.1415 23.8503 79.1559 23.6302 79.1878 23.4192C79.2405 23.0699 79.3412 22.746 79.5999 22.3821C79.6178 22.386 79.629 22.3912 79.636 22.3958Z" stroke="black"/>
</g>
<g filter="url(#filter3_d_192_3435)">
<path d="M79.7974 96.4169C82.7088 96.9665 84.0223 95.8527 86.7042 95.0525C86.7605 97.9931 86.2068 108.509 87.1081 110.284C88.5095 111.589 98.6518 116.466 97.4648 119.585C96.0056 120.616 90.3973 118.392 88.3323 118.524C84.2641 118.785 81.916 122.883 77.7489 122.115C76.2761 121.843 77.3395 119.688 76.3159 119.077C74.0475 117.722 66.7671 121.772 65.1596 119.869C64.8793 118.568 66.256 117.36 67.0268 116.623C68.2001 115.483 69.4889 114.515 70.8614 113.741C71.8369 113.186 78.0979 110.593 78.2628 110.119C79.4292 106.76 79.8881 100.035 79.7974 96.4169Z" fill="#F36038"/>
<path d="M86.2074 95.7361C86.2008 97.4056 86.1057 100.279 86.0893 103.102C86.0799 104.715 86.0966 106.301 86.1732 107.598C86.2116 108.247 86.2657 108.833 86.3402 109.317C86.4126 109.787 86.5115 110.213 86.6625 110.511L86.7025 110.59L86.767 110.65C86.9788 110.847 87.3266 111.088 87.7328 111.35C88.1484 111.619 88.6608 111.932 89.224 112.276C90.3556 112.967 91.7056 113.789 92.973 114.666C94.2458 115.546 95.4052 116.461 96.1693 117.33C96.879 118.137 97.1298 118.768 97.0414 119.244C96.9512 119.28 96.8318 119.314 96.6742 119.334C96.4241 119.366 96.1147 119.366 95.7523 119.337C95.0266 119.278 94.1537 119.108 93.2348 118.903C92.3337 118.702 91.367 118.464 90.5268 118.29C89.7962 118.139 89.0927 118.02 88.5316 118.018L88.3002 118.025C86.1182 118.165 84.3954 119.34 82.8217 120.275C81.2125 121.232 79.7265 121.971 77.8393 121.623C77.6268 121.584 77.5491 121.499 77.4955 121.39C77.4206 121.239 77.3861 121.016 77.3627 120.687C77.3421 120.398 77.33 120.001 77.2514 119.659C77.1683 119.298 76.9915 118.899 76.5727 118.648C76.194 118.422 75.7421 118.326 75.2777 118.301C74.8107 118.275 74.2963 118.321 73.765 118.403C72.7066 118.568 71.503 118.896 70.3627 119.195C69.2029 119.5 68.1111 119.774 67.2143 119.86C66.7674 119.903 66.3975 119.897 66.1088 119.837C65.891 119.792 65.7375 119.72 65.6293 119.633C65.5906 119.227 65.7648 118.793 66.1029 118.329C66.4755 117.817 66.9714 117.368 67.3725 116.984L67.3754 116.981C68.5188 115.871 69.7733 114.929 71.1068 114.177L71.1088 114.176C71.3276 114.051 71.875 113.796 72.6117 113.463C73.3326 113.137 74.2199 112.743 75.0727 112.355C75.9272 111.967 76.7648 111.577 77.4008 111.253C77.7174 111.092 77.9946 110.942 78.2016 110.813C78.304 110.75 78.4006 110.684 78.4799 110.619C78.5195 110.587 78.5637 110.547 78.6039 110.502C78.6394 110.462 78.6986 110.388 78.7348 110.284C79.3383 108.546 79.7495 105.975 79.9994 103.414C80.2241 101.111 80.321 98.7797 80.3061 97.0017C81.5544 97.1554 82.5341 97.0049 83.4809 96.7195C84.0157 96.5582 84.542 96.3532 85.0814 96.1472C85.4403 96.0102 85.8104 95.871 86.2074 95.7361Z" stroke="black"/>
</g>
<g filter="url(#filter4_d_192_3435)">
<path d="M63.9327 0C66.3804 0.396897 68.7535 1.24758 70.9589 2.51837C75.2165 5.0176 78.0224 9.11113 78.5698 14.6311C78.6773 15.7266 78.8521 19.4857 78.4495 20.3684C68.5787 18.0469 62.0669 12.2683 63.9327 0Z" fill="#69A94F"/>
<path d="M64.3539 0.582031C66.5615 0.999172 68.7034 1.79529 70.7055 2.94824C74.8262 5.36716 77.54 9.32055 78.0717 14.6797C78.1237 15.21 78.1938 16.4081 78.2006 17.582C78.2039 18.1686 78.1917 18.7407 78.1547 19.2148C78.1377 19.4327 78.1148 19.6156 78.0912 19.7637C73.4289 18.6005 69.6282 16.6458 67.1791 13.6006C64.7305 10.5558 63.5753 6.35262 64.3539 0.582031Z" stroke="black"/>
</g>
<g filter="url(#filter5_d_192_3435)">
<path d="M56.2651 37.8663C62.548 37.1014 68.2634 39.2169 71.2225 46.6567C71.5611 47.5108 72.237 48.6417 71.729 49.5309L71.0837 49.6585C69.4709 49.8336 67.8484 49.833 66.2343 49.6573C61.954 49.151 58.4727 47.0228 56.5052 42.0921C56.0571 40.9693 55.2206 39.5668 55.3242 38.3154C55.6682 37.8387 55.5993 37.9901 56.2651 37.8663Z" fill="#69A94F"/>
<path d="M56.3279 38.3619C59.3982 37.9886 62.2875 38.325 64.7566 39.6276C67.0655 40.8457 69.0514 42.9324 70.4793 46.1774L70.7576 46.8414C70.9539 47.3364 71.1724 47.7452 71.3133 48.2223C71.4168 48.573 71.4393 48.8563 71.3728 49.0914L71.0037 49.1637C69.4366 49.332 67.8603 49.3313 66.2918 49.1608C64.2176 48.9155 62.3648 48.2804 60.7977 47.1305C59.3303 46.0537 58.0878 44.5065 57.1521 42.3473L56.9695 41.9069C56.8523 41.6133 56.7099 41.3033 56.5721 40.9987C56.4321 40.6894 56.2942 40.3806 56.1736 40.0709C55.9506 39.4985 55.8089 38.9687 55.8172 38.4938C55.8395 38.4643 55.855 38.4426 55.868 38.4274C55.8845 38.4252 55.9084 38.4225 55.9422 38.4186C56.032 38.4082 56.158 38.3926 56.3279 38.3619Z" stroke="black"/>
</g>
<g filter="url(#filter6_d_192_3435)">
<path d="M93.3941 4.52637C94.3961 6.16075 93.301 12.2976 92.2423 14.1309C89.8079 18.3452 85.4728 20.042 81.3732 21.1229C80.3218 19.1755 81.5041 13.5551 82.6268 11.5673C85.1732 7.05879 89.0837 5.73727 93.3941 4.52637Z" fill="#69A94F"/>
<path d="M93.1096 5.12695C93.2061 5.44571 93.2714 5.89746 93.2863 6.47168C93.3071 7.26905 93.2338 8.2176 93.0959 9.18359C92.9582 10.148 92.7575 11.1172 92.5275 11.9541C92.2951 12.8004 92.0421 13.4786 91.8098 13.8809C89.5623 17.7715 85.6074 19.4457 81.6662 20.5245C81.5504 20.1546 81.4818 19.6653 81.468 19.0762C81.4494 18.2835 81.5299 17.3679 81.6789 16.4395C81.9793 14.5682 82.5434 12.7331 83.0627 11.8135C85.4216 7.63688 88.9841 6.30386 93.1096 5.12695Z" stroke="black"/>
</g>
<g filter="url(#filter7_d_192_3435)">
<path d="M98.8073 36.2571C100.255 36.1551 101.412 36.2372 102.842 36.3434C101.508 43.0729 97.9898 46.0339 92.3807 46.7029C91.1036 46.8318 89.7826 46.7623 88.5083 46.6404C90.0639 40.1541 93.1969 36.9108 98.8073 36.2571Z" fill="#69A94F"/>
<path d="M98.855 36.7545C100.064 36.6701 101.065 36.7188 102.233 36.8013C101.561 39.8061 100.426 41.951 98.8696 43.4341C97.2222 45.0038 95.0539 45.8796 92.3267 46.2056C91.287 46.3102 90.2087 46.2754 89.1362 46.19C89.8985 43.2857 90.9971 41.1311 92.4937 39.6129C94.0756 38.008 96.1443 37.072 98.855 36.7545Z" stroke="black"/>
</g>
<g filter="url(#filter8_d_192_3435)">
<path d="M65.3555 24.1404C71.6444 25.6907 74.9635 29.5053 74.0154 36.965C67.5825 35.2587 64.1693 31.8836 65.3555 24.1404Z" fill="#69A94F"/>
<path d="M65.7737 24.7664C68.5793 25.5401 70.6728 26.7943 71.9935 28.6287C73.3195 30.4706 73.9154 32.9688 73.5823 36.325C70.6965 35.4896 68.555 34.2969 67.2288 32.5174C65.8959 30.7287 65.327 28.2648 65.7737 24.7664Z" stroke="black"/>
</g>
<g filter="url(#filter9_d_192_3435)">
<path d="M84.1599 33.9475C84.2383 34.0041 84.3154 34.0626 84.3912 34.1229C88.6027 37.4254 88.4978 41.9304 86.0621 46.772C85.9737 46.7026 85.8877 46.6305 85.803 46.556C81.8418 43.0745 81.5739 38.8265 84.1599 33.9475Z" fill="#69A94F"/>
<path d="M84.3282 34.718C86.1663 36.2461 87.0472 38.0044 87.2218 39.9162C87.3906 41.767 86.9007 43.805 85.8956 45.9641C84.1476 44.3496 83.2367 42.5987 83.0235 40.7199C82.8166 38.8945 83.2611 36.8939 84.3282 34.718Z" stroke="black"/>
</g>
<g filter="url(#filter10_d_192_3435)">
<path d="M62.5072 54.3884C66.1834 54.0486 69.8435 54.7968 71.6131 58.8373C71.8473 59.3724 72.0122 59.5745 71.8433 60.162L71.4215 60.274C68.3853 60.543 65.127 60.2377 63.231 57.1781C62.8359 56.5403 61.9897 55.3284 62.1187 54.5549L62.5072 54.3884Z" fill="#69A94F"/>
<path d="M62.6279 54.8802C64.3984 54.7239 66.1152 54.8339 67.5869 55.433C68.9697 55.9959 70.1642 57.0009 70.9941 58.6908L71.1553 59.0385C71.2958 59.3595 71.3594 59.4665 71.3955 59.6058C71.4064 59.648 71.4135 59.6947 71.4111 59.7582L71.3359 59.7787C68.3467 60.0381 65.3831 59.7012 63.6562 56.9144C63.4455 56.5743 63.1561 56.1446 62.9238 55.6898C62.8094 55.4657 62.7184 55.2526 62.6631 55.0619C62.644 54.996 62.6303 54.9366 62.6211 54.8832L62.6279 54.8802Z" stroke="black"/>
</g>
<g filter="url(#filter11_d_192_3435)">
<path d="M86.0322 52.894C89.1627 50.7023 91.9247 51.0876 95.2982 52.151C92.4437 55.9492 87.8045 58.109 83.9824 55.2978C84.7733 54.1304 85.0811 53.7982 86.0322 52.894Z" fill="#69A94F"/>
<path d="M90.5889 51.8021C91.8049 51.766 93.0588 52.0117 94.4473 52.4154C93.1367 53.9767 91.5245 55.1705 89.8457 55.7289C88.1258 56.3009 86.3355 56.2103 84.6797 55.1664C85.2438 54.3635 85.563 54.0303 86.3467 53.2845C87.8256 52.2559 89.1966 51.8436 90.5889 51.8021Z" stroke="black"/>
</g>
</g>
<defs>
<filter id="filter0_d_192_3435" x="0" y="12.0701" width="77.4443" height="111.632" filterUnits="userSpaceOnUse" color-interpolation-filters="sRGB">
<feFlood flood-opacity="0" result="BackgroundImageFix"/>
<feColorMatrix in="SourceAlpha" type="matrix" values="0 0 0 0 0 0 0 0 0 0 0 0 0 0 0 0 0 0 127 0" result="hardAlpha"/>
<feOffset dy="2"/>
<feGaussianBlur stdDeviation="0.5"/>
<feComposite in2="hardAlpha" operator="out"/>
<feColorMatrix type="matrix" values="0 0 0 0 0 0 0 0 0 0 0 0 0 0 0 0 0 0 0.25 0"/>
<feBlend mode="normal" in2="BackgroundImageFix" result="effect1_dropShadow_192_3435"/>
<feBlend mode="normal" in="SourceGraphic" in2="effect1_dropShadow_192_3435" result="shape"/>
</filter>
<filter id="filter1_d_192_3435" x="75.438" y="49.0352" width="89.5093" height="82.9651" filterUnits="userSpaceOnUse" color-interpolation-filters="sRGB">
<feFlood flood-opacity="0" result="BackgroundImageFix"/>
<feColorMatrix in="SourceAlpha" type="matrix" values="0 0 0 0 0 0 0 0 0 0 0 0 0 0 0 0 0 0 127 0" result="hardAlpha"/>
<feOffset dy="2"/>
<feGaussianBlur stdDeviation="0.5"/>
<feComposite in2="hardAlpha" operator="out"/>
<feColorMatrix type="matrix" values="0 0 0 0 0 0 0 0 0 0 0 0 0 0 0 0 0 0 0.25 0"/>
<feBlend mode="normal" in2="BackgroundImageFix" result="effect1_dropShadow_192_3435"/>
<feBlend mode="normal" in="SourceGraphic" in2="effect1_dropShadow_192_3435" result="shape"/>
</filter>
<filter id="filter2_d_192_3435" x="71.666" y="21.8232" width="17.2158" height="71.7195" filterUnits="userSpaceOnUse" color-interpolation-filters="sRGB">
<feFlood flood-opacity="0" result="BackgroundImageFix"/>
<feColorMatrix in="SourceAlpha" type="matrix" values="0 0 0 0 0 0 0 0 0 0 0 0 0 0 0 0 0 0 127 0" result="hardAlpha"/>
<feOffset dy="2"/>
<feGaussianBlur stdDeviation="0.5"/>
<feComposite in2="hardAlpha" operator="out"/>
<feColorMatrix type="matrix" values="0 0 0 0 0 0 0 0 0 0 0 0 0 0 0 0 0 0 0.25 0"/>
<feBlend mode="normal" in2="BackgroundImageFix" result="effect1_dropShadow_192_3435"/>
<feBlend mode="normal" in="SourceGraphic" in2="effect1_dropShadow_192_3435" result="shape"/>
</filter>
<filter id="filter3_d_192_3435" x="64.1226" y="95.0371" width="34.4385" height="30.1736" filterUnits="userSpaceOnUse" color-interpolation-filters="sRGB">
<feFlood flood-opacity="0" result="BackgroundImageFix"/>
<feColorMatrix in="SourceAlpha" type="matrix" values="0 0 0 0 0 0 0 0 0 0 0 0 0 0 0 0 0 0 127 0" result="hardAlpha"/>
<feOffset dy="2"/>
<feGaussianBlur stdDeviation="0.5"/>
<feComposite in2="hardAlpha" operator="out"/>
<feColorMatrix type="matrix" values="0 0 0 0 0 0 0 0 0 0 0 0 0 0 0 0 0 0 0.25 0"/>
<feBlend mode="normal" in2="BackgroundImageFix" result="effect1_dropShadow_192_3435"/>
<feBlend mode="normal" in="SourceGraphic" in2="effect1_dropShadow_192_3435" result="shape"/>
</filter>
<filter id="filter4_d_192_3435" x="62.6133" y="-0.00708008" width="17.0884" height="23.3879" filterUnits="userSpaceOnUse" color-interpolation-filters="sRGB">
<feFlood flood-opacity="0" result="BackgroundImageFix"/>
<feColorMatrix in="SourceAlpha" type="matrix" values="0 0 0 0 0 0 0 0 0 0 0 0 0 0 0 0 0 0 127 0" result="hardAlpha"/>
<feOffset dy="2"/>
<feGaussianBlur stdDeviation="0.5"/>
<feComposite in2="hardAlpha" operator="out"/>
<feColorMatrix type="matrix" values="0 0 0 0 0 0 0 0 0 0 0 0 0 0 0 0 0 0 0.25 0"/>
<feBlend mode="normal" in2="BackgroundImageFix" result="effect1_dropShadow_192_3435"/>
<feBlend mode="normal" in="SourceGraphic" in2="effect1_dropShadow_192_3435" result="shape"/>
</filter>
<filter id="filter5_d_192_3435" x="54.3154" y="37.719" width="18.5967" height="15.0706" filterUnits="userSpaceOnUse" color-interpolation-filters="sRGB">
<feFlood flood-opacity="0" result="BackgroundImageFix"/>
<feColorMatrix in="SourceAlpha" type="matrix" values="0 0 0 0 0 0 0 0 0 0 0 0 0 0 0 0 0 0 127 0" result="hardAlpha"/>
<feOffset dy="2"/>
<feGaussianBlur stdDeviation="0.5"/>
<feComposite in2="hardAlpha" operator="out"/>
<feColorMatrix type="matrix" values="0 0 0 0 0 0 0 0 0 0 0 0 0 0 0 0 0 0 0.25 0"/>
<feBlend mode="normal" in2="BackgroundImageFix" result="effect1_dropShadow_192_3435"/>
<feBlend mode="normal" in="SourceGraphic" in2="effect1_dropShadow_192_3435" result="shape"/>
</filter>
<filter id="filter6_d_192_3435" x="79.9648" y="4.51123" width="14.8247" height="19.6228" filterUnits="userSpaceOnUse" color-interpolation-filters="sRGB">
<feFlood flood-opacity="0" result="BackgroundImageFix"/>
<feColorMatrix in="SourceAlpha" type="matrix" values="0 0 0 0 0 0 0 0 0 0 0 0 0 0 0 0 0 0 127 0" result="hardAlpha"/>
<feOffset dy="2"/>
<feGaussianBlur stdDeviation="0.5"/>
<feComposite in2="hardAlpha" operator="out"/>
<feColorMatrix type="matrix" values="0 0 0 0 0 0 0 0 0 0 0 0 0 0 0 0 0 0 0.25 0"/>
<feBlend mode="normal" in2="BackgroundImageFix" result="effect1_dropShadow_192_3435"/>
<feBlend mode="normal" in="SourceGraphic" in2="effect1_dropShadow_192_3435" result="shape"/>
</filter>
<filter id="filter7_d_192_3435" x="87.501" y="36.2104" width="16.3467" height="13.5615" filterUnits="userSpaceOnUse" color-interpolation-filters="sRGB">
<feFlood flood-opacity="0" result="BackgroundImageFix"/>
<feColorMatrix in="SourceAlpha" type="matrix" values="0 0 0 0 0 0 0 0 0 0 0 0 0 0 0 0 0 0 127 0" result="hardAlpha"/>
<feOffset dy="2"/>
<feGaussianBlur stdDeviation="0.5"/>
<feComposite in2="hardAlpha" operator="out"/>
<feColorMatrix type="matrix" values="0 0 0 0 0 0 0 0 0 0 0 0 0 0 0 0 0 0 0.25 0"/>
<feBlend mode="normal" in2="BackgroundImageFix" result="effect1_dropShadow_192_3435"/>
<feBlend mode="normal" in="SourceGraphic" in2="effect1_dropShadow_192_3435" result="shape"/>
</filter>
<filter id="filter8_d_192_3435" x="64.1226" y="24.1311" width="11.0527" height="15.8413" filterUnits="userSpaceOnUse" color-interpolation-filters="sRGB">
<feFlood flood-opacity="0" result="BackgroundImageFix"/>
<feColorMatrix in="SourceAlpha" type="matrix" values="0 0 0 0 0 0 0 0 0 0 0 0 0 0 0 0 0 0 127 0" result="hardAlpha"/>
<feOffset dy="2"/>
<feGaussianBlur stdDeviation="0.5"/>
<feComposite in2="hardAlpha" operator="out"/>
<feColorMatrix type="matrix" values="0 0 0 0 0 0 0 0 0 0 0 0 0 0 0 0 0 0 0.25 0"/>
<feBlend mode="normal" in2="BackgroundImageFix" result="effect1_dropShadow_192_3435"/>
<feBlend mode="normal" in="SourceGraphic" in2="effect1_dropShadow_192_3435" result="shape"/>
</filter>
<filter id="filter9_d_192_3435" x="81.4736" y="33.9272" width="7.28076" height="15.8691" filterUnits="userSpaceOnUse" color-interpolation-filters="sRGB">
<feFlood flood-opacity="0" result="BackgroundImageFix"/>
<feColorMatrix in="SourceAlpha" type="matrix" values="0 0 0 0 0 0 0 0 0 0 0 0 0 0 0 0 0 0 127 0" result="hardAlpha"/>
<feOffset dy="2"/>
<feGaussianBlur stdDeviation="0.5"/>
<feComposite in2="hardAlpha" operator="out"/>
<feColorMatrix type="matrix" values="0 0 0 0 0 0 0 0 0 0 0 0 0 0 0 0 0 0 0.25 0"/>
<feBlend mode="normal" in2="BackgroundImageFix" result="effect1_dropShadow_192_3435"/>
<feBlend mode="normal" in="SourceGraphic" in2="effect1_dropShadow_192_3435" result="shape"/>
</filter>
<filter id="filter10_d_192_3435" x="61.062" y="54.3157" width="11.8506" height="9.03516" filterUnits="userSpaceOnUse" color-interpolation-filters="sRGB">
<feFlood flood-opacity="0" result="BackgroundImageFix"/>
<feColorMatrix in="SourceAlpha" type="matrix" values="0 0 0 0 0 0 0 0 0 0 0 0 0 0 0 0 0 0 127 0" result="hardAlpha"/>
<feOffset dy="2"/>
<feGaussianBlur stdDeviation="0.5"/>
<feComposite in2="hardAlpha" operator="out"/>
<feColorMatrix type="matrix" values="0 0 0 0 0 0 0 0 0 0 0 0 0 0 0 0 0 0 0.25 0"/>
<feBlend mode="normal" in2="BackgroundImageFix" result="effect1_dropShadow_192_3435"/>
<feBlend mode="normal" in="SourceGraphic" in2="effect1_dropShadow_192_3435" result="shape"/>
</filter>
<filter id="filter11_d_192_3435" x="82.9683" y="51.2981" width="13.355" height="8.28076" filterUnits="userSpaceOnUse" color-interpolation-filters="sRGB">
<feFlood flood-opacity="0" result="BackgroundImageFix"/>
<feColorMatrix in="SourceAlpha" type="matrix" values="0 0 0 0 0 0 0 0 0 0 0 0 0 0 0 0 0 0 127 0" result="hardAlpha"/>
<feOffset dy="2"/>
<feGaussianBlur stdDeviation="0.5"/>
<feComposite in2="hardAlpha" operator="out"/>
<feColorMatrix type="matrix" values="0 0 0 0 0 0 0 0 0 0 0 0 0 0 0 0 0 0 0.25 0"/>
<feBlend mode="normal" in2="BackgroundImageFix" result="effect1_dropShadow_192_3435"/>
<feBlend mode="normal" in="SourceGraphic" in2="effect1_dropShadow_192_3435" result="shape"/>
</filter>
<clipPath id="clip0_192_3435">
<rect width="165" height="132" fill="white"/>
</clipPath>
</defs>
</svg>
