<svg width="219" height="119" viewBox="0 0 219 119" fill="none" xmlns="http://www.w3.org/2000/svg">
<g clip-path="url(#clip0_192_3579)">
<g filter="url(#filter0_d_192_3579)">
<path d="M105.778 0.165204C115.664 -0.812903 128.249 2.28766 127.265 16.6201C126.836 22.8407 125.34 29.0721 120.88 33.2406C115.666 38.1135 107.685 38.4333 101.211 38.7758C98.6767 38.8942 95.8021 38.6183 93.2698 38.4224C81.4369 36.8406 73.5204 35.0606 71.345 19.8766C70.3173 12.7031 80.9341 7.71034 85.537 5.53963C91.9385 2.52067 98.8681 0.763778 105.778 0.165204Z" fill="#F5C30D"/>
<path d="M105.821 0.59457C110.716 0.110171 116.232 0.642806 120.382 3.02489C122.451 4.2121 124.177 5.85686 125.33 8.06491C126.483 10.2734 127.076 13.0724 126.834 16.5905C126.408 22.7806 124.923 28.8721 120.586 32.9256C118.057 35.289 114.842 36.5624 111.428 37.2852C108.866 37.8278 106.212 38.0563 103.677 38.209L101.188 38.3455C98.6928 38.4617 95.8596 38.1904 93.3161 37.9935C87.3885 37.2008 82.5584 36.3668 78.9281 33.8941C75.3317 31.4444 72.8492 27.3347 71.772 19.8157C71.2934 16.4748 73.5166 13.5701 76.594 11.1723C79.6517 8.78992 83.4136 7.01721 85.7205 5.92933C92.072 2.93381 98.9524 1.18909 105.816 0.59457H105.821Z" stroke="black"/>
</g>
<g filter="url(#filter1_d_192_3579)">
<path d="M59.9991 20.1208L60.2195 20.1775C61.1652 21.1433 64.7842 33.3458 65.5277 35.7261C52.0126 44.9941 34.9557 54.2106 20.883 62.9387C18.7672 64.2508 9.56281 66.0679 6.84981 66.6931L0.862305 67.5484C7.06025 59.8687 13.0775 50.8854 20.8087 45.4077C33.572 36.3644 47.3399 29.3956 59.9991 20.1208Z" fill="#F5C30D"/>
<path d="M60.0488 20.6928C60.1193 20.8208 60.202 20.9904 60.2947 21.1997C60.4801 21.6179 60.6982 22.1735 60.9388 22.8283C61.4196 24.137 61.9821 25.8206 62.5395 27.5534C63.5723 30.764 64.5805 34.1167 65.0217 35.5484C51.5551 44.7516 34.6753 53.8775 20.656 62.5725C20.1812 62.8669 19.2604 63.2131 18.0543 63.5788C16.8632 63.9398 15.4389 64.3068 13.9899 64.6541C11.0926 65.3488 8.16103 65.9491 6.77232 66.2685L1.87695 66.9674C4.76112 63.3465 7.57734 59.5416 10.5916 55.9282C13.8277 52.0489 17.2369 48.4668 21.0577 45.7598C27.4246 41.2486 34.0436 37.2532 40.6669 33.2191C47.2037 29.2377 53.7423 25.2176 60.0168 20.6396C60.0264 20.6562 60.0381 20.6732 60.0488 20.6928Z" stroke="black"/>
</g>
<g filter="url(#filter2_d_192_3579)">
<path d="M123.557 44.553C125.817 44.592 129.302 48.1238 131.086 49.7654C139.942 57.9121 148.267 66.8883 154.436 77.8135C156.79 81.9887 161.728 92.0507 156.871 96.0372C155.676 96.9694 152.926 95.0964 151.671 94.3919C136.273 86.5224 121.089 67.5928 114.386 50.3045C117.146 48.2885 120.639 46.2335 123.557 44.553Z" fill="#F5C30D"/>
<path d="M123.66 44.991C124.103 45.0246 124.634 45.2107 125.232 45.5325C125.873 45.8779 126.555 46.3574 127.232 46.8958C128.252 47.7058 129.236 48.6247 130.047 49.3851L130.794 50.0824C139.635 58.2149 147.923 67.156 154.06 78.0252C155.232 80.1033 157.034 83.6239 157.941 87.1045C158.859 90.6254 158.808 93.8841 156.603 95.6993C156.43 95.8321 156.169 95.8933 155.784 95.845C155.4 95.7967 154.949 95.6467 154.468 95.4345C153.499 95.0051 152.543 94.3868 151.882 94.016L151.875 94.0117L151.867 94.0083L151.151 93.634C136.205 85.6574 121.538 67.318 114.91 50.458C117.569 48.5458 120.859 46.605 123.66 44.991Z" stroke="black"/>
</g>
<g filter="url(#filter3_d_192_3579)">
<path d="M91.4927 50.302C93.6077 50.6832 100.689 52.5542 102.3 53.4458C103.305 54.8263 102.759 58.5088 102.585 60.2558C100.695 79.1723 94.6587 94.5534 85.3093 109.972C83.8741 112.283 82.2617 114.439 80.4921 116.413C74.6772 91.355 82.2797 72.2637 91.4927 50.302Z" fill="#F5C30D"/>
<path d="M91.7546 50.792C92.8979 51.0235 94.9542 51.5325 96.9692 52.0973C98.0832 52.4096 99.1782 52.7375 100.093 53.0413C100.948 53.3253 101.618 53.5807 102.002 53.7764C102.167 54.0404 102.291 54.4229 102.367 54.9124C102.449 55.4439 102.469 56.0602 102.453 56.7028C102.421 57.9927 102.245 59.32 102.155 60.2127C100.274 79.0516 94.2645 94.3705 84.9428 109.745C83.6725 111.79 82.2614 113.711 80.726 115.491C75.3267 91.1083 82.7032 72.3778 91.7546 50.792Z" stroke="black"/>
</g>
<g filter="url(#filter4_d_192_3579)">
<path d="M170.899 4.52403C184.924 4.31552 199.534 3.70487 213.4 6.3277C215.455 6.71589 217.263 7.38601 217.851 9.89745C217.797 10.5649 217.671 11.0207 217.263 11.5278C213.055 16.731 187.393 15.6988 181.005 15.7695C166.364 15.8408 151.722 15.7668 137.083 15.5477C136.236 12.7758 135.041 7.85005 134.504 5.03905C137.704 4.81598 142.493 4.99596 145.876 4.94923L170.899 4.52403Z" fill="#F5C30D"/>
<path d="M170.906 4.95399C184.951 4.74518 199.507 4.1384 213.32 6.75104C214.336 6.94276 215.228 7.19503 215.933 7.67316C216.607 8.13001 217.139 8.81293 217.414 9.92998C217.362 10.5026 217.252 10.8538 216.927 11.2563C216.466 11.827 215.68 12.3455 214.592 12.8033C213.51 13.2583 212.167 13.6387 210.634 13.9536C207.568 14.5831 203.792 14.9425 199.93 15.1426C192.199 15.5433 184.223 15.3023 181.001 15.338C166.469 15.4088 151.937 15.3362 137.407 15.1208C136.62 12.4809 135.573 8.18351 135.024 5.43904C138.192 5.26473 142.629 5.42505 145.883 5.3801H145.884L170.907 4.95483L170.906 4.95399Z" stroke="black"/>
</g>
<g filter="url(#filter5_d_192_3579)">
<path d="M67.7651 43.116C70.3078 43.1175 79.891 46.3959 82.7719 47.3778C81.0632 50.2184 75.8195 56.6176 73.5199 59.5087C69.0145 65.1731 63.5771 72.8648 58.5486 77.605C56.1182 79.8963 49.2016 84.0146 46.0882 85.9545L36.0772 91.981C35.7928 90.0425 35.5806 87.891 35.3506 85.9262C42.661 70.5078 56.3748 54.7437 67.7651 43.116Z" fill="#F5C30D"/>
<path d="M67.9391 43.554C68.5363 43.5864 69.4907 43.7692 70.6731 44.0626C71.9633 44.3828 73.4817 44.821 75.0153 45.2913C77.7543 46.1311 80.5277 47.0696 82.1158 47.6104C80.1876 50.6024 75.3816 56.4758 73.1822 59.2407C68.6495 64.9396 63.2513 72.5793 58.2527 77.2913C57.0713 78.4052 54.7687 79.9871 52.3411 81.549C49.9221 83.1055 47.4246 84.614 45.8603 85.5886L36.4131 91.2749C36.1799 89.5614 35.9929 87.7238 35.7925 86.0004C43.055 70.7457 56.6088 55.1344 67.9391 43.554Z" stroke="black"/>
</g>
<g filter="url(#filter6_d_192_3579)">
<path d="M140.522 25.8696C142.142 25.9988 149.262 28.4875 151.211 29.1467C165.426 33.9537 181.954 39.0937 194.858 47.4674C192.648 48.2871 190.836 48.6562 188.536 48.8541C177.466 49.0408 164.751 46.7483 154.012 43.6519C150.565 42.6585 135.706 37.5496 134.504 35.5038C135.155 33.139 139.002 28.039 140.522 25.8696Z" fill="#F5C30D"/>
<path d="M140.723 26.3303C141.115 26.3942 141.726 26.5435 142.485 26.7581C143.403 27.0178 144.5 27.3601 145.611 27.7198C147.834 28.4394 150.094 29.2244 151.073 29.5556C165.038 34.2781 181.145 39.2962 193.881 47.3536C192.073 47.9562 190.479 48.2531 188.514 48.423C177.504 48.6064 164.841 46.3249 154.132 43.2373C152.423 42.745 147.859 41.2239 143.572 39.5699C141.428 38.7431 139.363 37.8872 137.762 37.1127C136.961 36.725 136.285 36.3618 135.778 36.0373C135.38 35.7828 135.122 35.5746 134.98 35.42C135.15 34.9074 135.465 34.2567 135.881 33.5177C136.349 32.6866 136.932 31.7697 137.545 30.8533C138.7 29.13 139.939 27.44 140.723 26.3303Z" stroke="black"/>
</g>
<g filter="url(#filter7_d_192_3579)">
<path d="M110.851 80.596C114.423 80.1322 118.145 80.9568 119.701 85.7479C120.266 87.4469 120.278 89.3664 119.735 91.0764C118.816 93.9212 117.066 95.15 114.961 96.1779C111.417 96.6677 107.813 95.7002 106.226 91.0566C105.634 89.3518 105.609 87.4098 106.159 85.681C107.084 82.8237 108.785 81.6971 110.851 80.596Z" fill="#F5C30D"/>
<path d="M110.983 81.0145C112.699 80.801 114.4 80.9028 115.847 81.5905C117.299 82.2807 118.545 83.5842 119.291 85.881L119.292 85.8836C119.827 87.496 119.84 89.3207 119.325 90.9444C118.465 93.6038 116.857 94.7637 114.833 95.7588C113.137 95.9847 111.47 95.8571 110.05 95.156C108.623 94.4515 107.396 93.146 106.635 90.9177L106.634 90.9151L106.535 90.6099C106.071 89.0689 106.08 87.3494 106.569 85.8112C107.011 84.4471 107.632 83.5133 108.377 82.7888C109.113 82.0739 109.985 81.5486 110.983 81.0145Z" stroke="black"/>
</g>
<g filter="url(#filter8_d_192_3579)">
<path d="M110.962 84.8338C115.602 84.3136 117.888 89.0999 113.394 91.9593C109.049 92.3241 106.53 87.9832 110.962 84.8338Z" fill="#FEFEFE"/>
<path d="M111.12 85.2512C113.229 85.0534 114.707 86.0377 115.202 87.2883C115.689 88.5171 115.296 90.1943 113.254 91.5352C111.275 91.6654 109.804 90.7479 109.283 89.5432C108.777 88.3713 109.096 86.7312 111.12 85.2512Z" stroke="black"/>
</g>
<g filter="url(#filter9_d_192_3579)">
<path d="M161.231 57.5628C164.846 57.2159 168.478 57.9738 170.014 61.9328C170.571 63.3389 170.568 64.9221 170.003 66.3248C169.037 68.6815 167.299 69.5256 165.195 70.3677C161.56 70.6532 157.899 69.9211 156.425 65.8608C155.897 64.444 155.942 62.862 156.55 61.4814C157.53 59.2678 159.208 58.4036 161.231 57.5628Z" fill="#F5C30D"/>
<path d="M161.336 57.9864C163.085 57.8251 164.793 57.9358 166.237 58.5321C167.682 59.1288 168.887 60.2214 169.612 62.0892L169.614 62.0917C170.098 63.3137 170.125 64.6811 169.695 65.9182L169.603 66.1641C168.717 68.3217 167.155 69.114 165.096 69.9409C163.334 70.0734 161.613 69.9557 160.168 69.3464C158.722 68.7375 157.526 67.6291 156.831 65.7136L156.829 65.7102C156.339 64.3985 156.382 62.9322 156.944 61.6546C157.843 59.6246 159.36 58.8115 161.336 57.9864Z" stroke="black"/>
</g>
<g filter="url(#filter10_d_192_3579)">
<path d="M162.022 60.4139C165.747 59.8455 167.861 64.0874 164.257 67.5192C160.854 67.9189 158.71 64.1338 162.022 60.4139Z" fill="#FEFEFE"/>
<path d="M162.241 60.8222C163.839 60.6379 165.033 61.4415 165.484 62.6209C165.942 63.8153 165.675 65.5069 164.064 67.1018C162.61 67.2187 161.476 66.4816 161.022 65.3502C160.561 64.2062 160.759 62.5513 162.241 60.8222Z" stroke="black"/>
</g>
<g filter="url(#filter11_d_192_3579)">
<path d="M28.0144 64.6744C31.0359 64.6419 34.0919 65.9925 35.1105 70.0418C35.5175 71.645 35.4037 73.3924 34.7946 74.8858C33.7537 77.4535 32.1358 78.2298 30.1327 79.0385C26.7878 79.1592 23.2572 77.8092 22.5138 72.9754C22.2545 71.3186 22.5238 69.5969 23.2608 68.1988C24.4603 65.9249 26.0526 65.2353 28.0144 64.6744Z" fill="#F5C30D"/>
<path d="M28.0751 65.1058C29.5043 65.0988 30.9119 65.4165 32.0762 66.1871C33.2477 66.9624 34.207 68.2174 34.6923 70.1467L34.6932 70.1475C35.0781 71.6637 34.9691 73.3171 34.396 74.7227L34.3951 74.7235C33.9007 75.9431 33.2801 76.7165 32.5587 77.2827C31.844 77.8437 31.0127 78.2146 30.042 78.6082C28.4512 78.6546 26.8608 78.3534 25.5861 77.5059C24.3053 76.6542 23.2953 75.2213 22.9398 72.9096C22.694 71.3387 22.9511 69.711 23.6419 68.4001C24.2107 67.3219 24.8619 66.6371 25.5904 66.1534C26.312 65.6742 27.1298 65.3785 28.0751 65.1058Z" stroke="black"/>
</g>
<g filter="url(#filter12_d_192_3579)">
<path d="M29.24 69.0088C30.7748 68.8139 32.1884 69.8694 32.438 71.3963C32.6876 72.9236 31.6836 74.374 30.1668 74.6782C29.1359 74.8849 28.0747 74.5122 27.3993 73.7063C26.7242 72.9006 26.5425 71.7903 26.9263 70.8114C27.3097 69.8325 28.1972 69.1411 29.24 69.0088Z" fill="#FEFEFE"/>
<path d="M29.2944 69.4362C30.5989 69.2706 31.8001 70.1679 32.0125 71.4656C32.2114 72.6827 31.4738 73.8425 30.3183 74.1957L30.0817 74.2556C29.2604 74.42 28.4165 74.1518 27.8412 73.5532L27.7301 73.4294C27.192 72.7873 27.0224 71.9179 27.272 71.1262L27.3276 70.9688C27.6535 70.1367 28.4081 69.5486 29.2944 69.4362Z" stroke="black"/>
</g>
<g filter="url(#filter13_d_192_3579)">
<path d="M60.319 89.2309C69.8483 87.8762 73.6914 97.9386 64.9234 101.962C55.3421 103.006 51.7317 93.4468 60.319 89.2309Z" fill="#F5C30D"/>
<path d="M60.446 89.6484C65.016 89.0232 68.1114 91.1212 69.0781 93.7297C69.5657 95.0448 69.5267 96.5159 68.855 97.8964C68.1896 99.2641 66.8886 100.57 64.8067 101.539C60.198 102.017 57.1491 99.9608 56.2124 97.4196C55.2857 94.9051 56.3492 91.6869 60.446 89.6484Z" stroke="black"/>
</g>
<g filter="url(#filter14_d_192_3579)">
<path d="M61.2263 92.1017C64.9117 91.2161 67.3342 95.3682 63.8128 99.1244C60.3027 99.5797 58.217 96.2589 61.2263 92.1017Z" fill="#FEFEFE"/>
<path d="M61.482 92.4889C63.0638 92.1724 64.3101 92.8916 64.829 94.0488C65.3553 95.2233 65.1772 96.9652 63.603 98.7114C62.073 98.8597 60.9425 98.2155 60.4682 97.1652C59.9818 96.0882 60.1187 94.4377 61.482 92.4889Z" stroke="black"/>
</g>
<g filter="url(#filter15_d_192_3579)">
<path d="M192.331 21.6302C195.599 21.2904 198.894 22.0492 200.252 26.0424C200.747 27.4585 200.721 29.0494 200.183 30.4431C199.292 32.736 197.789 33.5512 195.908 34.3851C192.761 34.8213 189.473 34.0242 188.08 30.268C187.559 28.8821 187.538 27.3096 188.02 25.9043C188.852 23.493 190.429 22.5596 192.331 21.6302Z" fill="#F5C30D"/>
<path d="M192.452 22.0513C194.018 21.8969 195.544 22.0111 196.827 22.6028C198.115 23.1964 199.2 24.2888 199.844 26.1809L199.846 26.1843C200.306 27.5038 200.282 28.9892 199.78 30.287C199.361 31.3666 198.805 32.0819 198.142 32.6281C197.483 33.1714 196.702 33.5587 195.788 33.9654C194.285 34.1658 192.787 34.068 191.511 33.5039C190.232 32.9384 189.141 31.8907 188.483 30.1178V30.1161L188.397 29.8719C187.997 28.6416 188.006 27.2735 188.428 26.0445C189.192 23.8298 190.608 22.9567 192.452 22.0513Z" stroke="black"/>
</g>
<g filter="url(#filter16_d_192_3579)">
<path d="M193.007 24.4521C194.645 24.3637 196.209 24.5094 197.25 26.2173C197.701 26.9594 197.844 27.8938 197.643 28.7699C197.293 30.2521 196.355 30.8916 195.305 31.6175C190.783 31.6851 188.468 27.5797 193.007 24.4521Z" fill="#FEFEFE"/>
<path d="M193.152 24.877C193.911 24.842 194.604 24.8687 195.217 25.0707C195.846 25.2775 196.414 25.6748 196.881 26.4399C197.27 27.0813 197.4 27.9002 197.224 28.6707C196.927 29.9286 196.172 30.4909 195.171 31.1844C193.092 31.1775 191.636 30.2385 191.157 29.0698C190.694 27.938 191.064 26.3565 193.152 24.877Z" stroke="black"/>
</g>
</g>
<defs>
<filter id="filter0_d_192_3579" x="70.2065" y="-0.0686035" width="58.1812" height="41.9419" filterUnits="userSpaceOnUse" color-interpolation-filters="sRGB">
<feFlood flood-opacity="0" result="BackgroundImageFix"/>
<feColorMatrix in="SourceAlpha" type="matrix" values="0 0 0 0 0 0 0 0 0 0 0 0 0 0 0 0 0 0 127 0" result="hardAlpha"/>
<feOffset dy="2"/>
<feGaussianBlur stdDeviation="0.5"/>
<feComposite in2="hardAlpha" operator="out"/>
<feColorMatrix type="matrix" values="0 0 0 0 0 0 0 0 0 0 0 0 0 0 0 0 0 0 0.25 0"/>
<feBlend mode="normal" in2="BackgroundImageFix" result="effect1_dropShadow_192_3579"/>
<feBlend mode="normal" in="SourceGraphic" in2="effect1_dropShadow_192_3579" result="shape"/>
</filter>
<filter id="filter1_d_192_3579" x="-0.29834" y="19.908" width="66.9062" height="50.7322" filterUnits="userSpaceOnUse" color-interpolation-filters="sRGB">
<feFlood flood-opacity="0" result="BackgroundImageFix"/>
<feColorMatrix in="SourceAlpha" type="matrix" values="0 0 0 0 0 0 0 0 0 0 0 0 0 0 0 0 0 0 127 0" result="hardAlpha"/>
<feOffset dy="2"/>
<feGaussianBlur stdDeviation="0.5"/>
<feComposite in2="hardAlpha" operator="out"/>
<feColorMatrix type="matrix" values="0 0 0 0 0 0 0 0 0 0 0 0 0 0 0 0 0 0 0.25 0"/>
<feBlend mode="normal" in2="BackgroundImageFix" result="effect1_dropShadow_192_3579"/>
<feBlend mode="normal" in="SourceGraphic" in2="effect1_dropShadow_192_3579" result="shape"/>
</filter>
<filter id="filter2_d_192_3579" x="113.302" y="44.4807" width="46.6997" height="54.8806" filterUnits="userSpaceOnUse" color-interpolation-filters="sRGB">
<feFlood flood-opacity="0" result="BackgroundImageFix"/>
<feColorMatrix in="SourceAlpha" type="matrix" values="0 0 0 0 0 0 0 0 0 0 0 0 0 0 0 0 0 0 127 0" result="hardAlpha"/>
<feOffset dy="2"/>
<feGaussianBlur stdDeviation="0.5"/>
<feComposite in2="hardAlpha" operator="out"/>
<feColorMatrix type="matrix" values="0 0 0 0 0 0 0 0 0 0 0 0 0 0 0 0 0 0 0.25 0"/>
<feBlend mode="normal" in2="BackgroundImageFix" result="effect1_dropShadow_192_3579"/>
<feBlend mode="normal" in="SourceGraphic" in2="effect1_dropShadow_192_3579" result="shape"/>
</filter>
<filter id="filter3_d_192_3579" x="77.3921" y="50.2205" width="26.5659" height="69.3523" filterUnits="userSpaceOnUse" color-interpolation-filters="sRGB">
<feFlood flood-opacity="0" result="BackgroundImageFix"/>
<feColorMatrix in="SourceAlpha" type="matrix" values="0 0 0 0 0 0 0 0 0 0 0 0 0 0 0 0 0 0 127 0" result="hardAlpha"/>
<feOffset dy="2"/>
<feGaussianBlur stdDeviation="0.5"/>
<feComposite in2="hardAlpha" operator="out"/>
<feColorMatrix type="matrix" values="0 0 0 0 0 0 0 0 0 0 0 0 0 0 0 0 0 0 0.25 0"/>
<feBlend mode="normal" in2="BackgroundImageFix" result="effect1_dropShadow_192_3579"/>
<feBlend mode="normal" in="SourceGraphic" in2="effect1_dropShadow_192_3579" result="shape"/>
</filter>
<filter id="filter4_d_192_3579" x="133.42" y="4.2417" width="85.4985" height="14.636" filterUnits="userSpaceOnUse" color-interpolation-filters="sRGB">
<feFlood flood-opacity="0" result="BackgroundImageFix"/>
<feColorMatrix in="SourceAlpha" type="matrix" values="0 0 0 0 0 0 0 0 0 0 0 0 0 0 0 0 0 0 127 0" result="hardAlpha"/>
<feOffset dy="2"/>
<feGaussianBlur stdDeviation="0.5"/>
<feComposite in2="hardAlpha" operator="out"/>
<feColorMatrix type="matrix" values="0 0 0 0 0 0 0 0 0 0 0 0 0 0 0 0 0 0 0.25 0"/>
<feBlend mode="normal" in2="BackgroundImageFix" result="effect1_dropShadow_192_3579"/>
<feBlend mode="normal" in="SourceGraphic" in2="effect1_dropShadow_192_3579" result="shape"/>
</filter>
<filter id="filter5_d_192_3579" x="34.2793" y="43.0425" width="49.6035" height="52.0525" filterUnits="userSpaceOnUse" color-interpolation-filters="sRGB">
<feFlood flood-opacity="0" result="BackgroundImageFix"/>
<feColorMatrix in="SourceAlpha" type="matrix" values="0 0 0 0 0 0 0 0 0 0 0 0 0 0 0 0 0 0 127 0" result="hardAlpha"/>
<feOffset dy="2"/>
<feGaussianBlur stdDeviation="0.5"/>
<feComposite in2="hardAlpha" operator="out"/>
<feColorMatrix type="matrix" values="0 0 0 0 0 0 0 0 0 0 0 0 0 0 0 0 0 0 0.25 0"/>
<feBlend mode="normal" in2="BackgroundImageFix" result="effect1_dropShadow_192_3579"/>
<feBlend mode="normal" in="SourceGraphic" in2="effect1_dropShadow_192_3579" result="shape"/>
</filter>
<filter id="filter6_d_192_3579" x="133.413" y="25.7866" width="62.626" height="26.1467" filterUnits="userSpaceOnUse" color-interpolation-filters="sRGB">
<feFlood flood-opacity="0" result="BackgroundImageFix"/>
<feColorMatrix in="SourceAlpha" type="matrix" values="0 0 0 0 0 0 0 0 0 0 0 0 0 0 0 0 0 0 127 0" result="hardAlpha"/>
<feOffset dy="2"/>
<feGaussianBlur stdDeviation="0.5"/>
<feComposite in2="hardAlpha" operator="out"/>
<feColorMatrix type="matrix" values="0 0 0 0 0 0 0 0 0 0 0 0 0 0 0 0 0 0 0.25 0"/>
<feBlend mode="normal" in2="BackgroundImageFix" result="effect1_dropShadow_192_3579"/>
<feBlend mode="normal" in="SourceGraphic" in2="effect1_dropShadow_192_3579" result="shape"/>
</filter>
<filter id="filter7_d_192_3579" x="104.694" y="80.4148" width="16.5083" height="18.946" filterUnits="userSpaceOnUse" color-interpolation-filters="sRGB">
<feFlood flood-opacity="0" result="BackgroundImageFix"/>
<feColorMatrix in="SourceAlpha" type="matrix" values="0 0 0 0 0 0 0 0 0 0 0 0 0 0 0 0 0 0 127 0" result="hardAlpha"/>
<feOffset dy="2"/>
<feGaussianBlur stdDeviation="0.5"/>
<feComposite in2="hardAlpha" operator="out"/>
<feColorMatrix type="matrix" values="0 0 0 0 0 0 0 0 0 0 0 0 0 0 0 0 0 0 0.25 0"/>
<feBlend mode="normal" in2="BackgroundImageFix" result="effect1_dropShadow_192_3579"/>
<feBlend mode="normal" in="SourceGraphic" in2="effect1_dropShadow_192_3579" result="shape"/>
</filter>
<filter id="filter8_d_192_3579" x="107.569" y="84.7261" width="9.32227" height="10.3213" filterUnits="userSpaceOnUse" color-interpolation-filters="sRGB">
<feFlood flood-opacity="0" result="BackgroundImageFix"/>
<feColorMatrix in="SourceAlpha" type="matrix" values="0 0 0 0 0 0 0 0 0 0 0 0 0 0 0 0 0 0 127 0" result="hardAlpha"/>
<feOffset dy="2"/>
<feGaussianBlur stdDeviation="0.5"/>
<feComposite in2="hardAlpha" operator="out"/>
<feColorMatrix type="matrix" values="0 0 0 0 0 0 0 0 0 0 0 0 0 0 0 0 0 0 0.25 0"/>
<feBlend mode="normal" in2="BackgroundImageFix" result="effect1_dropShadow_192_3579"/>
<feBlend mode="normal" in="SourceGraphic" in2="effect1_dropShadow_192_3579" result="shape"/>
</filter>
<filter id="filter9_d_192_3579" x="154.99" y="57.4194" width="16.5083" height="16.0703" filterUnits="userSpaceOnUse" color-interpolation-filters="sRGB">
<feFlood flood-opacity="0" result="BackgroundImageFix"/>
<feColorMatrix in="SourceAlpha" type="matrix" values="0 0 0 0 0 0 0 0 0 0 0 0 0 0 0 0 0 0 127 0" result="hardAlpha"/>
<feOffset dy="2"/>
<feGaussianBlur stdDeviation="0.5"/>
<feComposite in2="hardAlpha" operator="out"/>
<feColorMatrix type="matrix" values="0 0 0 0 0 0 0 0 0 0 0 0 0 0 0 0 0 0 0.25 0"/>
<feBlend mode="normal" in2="BackgroundImageFix" result="effect1_dropShadow_192_3579"/>
<feBlend mode="normal" in="SourceGraphic" in2="effect1_dropShadow_192_3579" result="shape"/>
</filter>
<filter id="filter10_d_192_3579" x="159.301" y="60.2959" width="7.88428" height="10.3179" filterUnits="userSpaceOnUse" color-interpolation-filters="sRGB">
<feFlood flood-opacity="0" result="BackgroundImageFix"/>
<feColorMatrix in="SourceAlpha" type="matrix" values="0 0 0 0 0 0 0 0 0 0 0 0 0 0 0 0 0 0 127 0" result="hardAlpha"/>
<feOffset dy="2"/>
<feGaussianBlur stdDeviation="0.5"/>
<feComposite in2="hardAlpha" operator="out"/>
<feColorMatrix type="matrix" values="0 0 0 0 0 0 0 0 0 0 0 0 0 0 0 0 0 0 0.25 0"/>
<feBlend mode="normal" in2="BackgroundImageFix" result="effect1_dropShadow_192_3579"/>
<feBlend mode="normal" in="SourceGraphic" in2="effect1_dropShadow_192_3579" result="shape"/>
</filter>
<filter id="filter11_d_192_3579" x="21.3486" y="64.6057" width="15.0713" height="17.5071" filterUnits="userSpaceOnUse" color-interpolation-filters="sRGB">
<feFlood flood-opacity="0" result="BackgroundImageFix"/>
<feColorMatrix in="SourceAlpha" type="matrix" values="0 0 0 0 0 0 0 0 0 0 0 0 0 0 0 0 0 0 127 0" result="hardAlpha"/>
<feOffset dy="2"/>
<feGaussianBlur stdDeviation="0.5"/>
<feComposite in2="hardAlpha" operator="out"/>
<feColorMatrix type="matrix" values="0 0 0 0 0 0 0 0 0 0 0 0 0 0 0 0 0 0 0.25 0"/>
<feBlend mode="normal" in2="BackgroundImageFix" result="effect1_dropShadow_192_3579"/>
<feBlend mode="normal" in="SourceGraphic" in2="effect1_dropShadow_192_3579" result="shape"/>
</filter>
<filter id="filter12_d_192_3579" x="25.6592" y="68.9165" width="7.88574" height="8.88672" filterUnits="userSpaceOnUse" color-interpolation-filters="sRGB">
<feFlood flood-opacity="0" result="BackgroundImageFix"/>
<feColorMatrix in="SourceAlpha" type="matrix" values="0 0 0 0 0 0 0 0 0 0 0 0 0 0 0 0 0 0 127 0" result="hardAlpha"/>
<feOffset dy="2"/>
<feGaussianBlur stdDeviation="0.5"/>
<feComposite in2="hardAlpha" operator="out"/>
<feColorMatrix type="matrix" values="0 0 0 0 0 0 0 0 0 0 0 0 0 0 0 0 0 0 0.25 0"/>
<feBlend mode="normal" in2="BackgroundImageFix" result="effect1_dropShadow_192_3579"/>
<feBlend mode="normal" in="SourceGraphic" in2="effect1_dropShadow_192_3579" result="shape"/>
</filter>
<filter id="filter13_d_192_3579" x="54.3989" y="89.0376" width="16.5078" height="16.0706" filterUnits="userSpaceOnUse" color-interpolation-filters="sRGB">
<feFlood flood-opacity="0" result="BackgroundImageFix"/>
<feColorMatrix in="SourceAlpha" type="matrix" values="0 0 0 0 0 0 0 0 0 0 0 0 0 0 0 0 0 0 127 0" result="hardAlpha"/>
<feOffset dy="2"/>
<feGaussianBlur stdDeviation="0.5"/>
<feComposite in2="hardAlpha" operator="out"/>
<feColorMatrix type="matrix" values="0 0 0 0 0 0 0 0 0 0 0 0 0 0 0 0 0 0 0.25 0"/>
<feBlend mode="normal" in2="BackgroundImageFix" result="effect1_dropShadow_192_3579"/>
<feBlend mode="normal" in="SourceGraphic" in2="effect1_dropShadow_192_3579" result="shape"/>
</filter>
<filter id="filter14_d_192_3579" x="58.7114" y="91.9143" width="7.88428" height="10.3181" filterUnits="userSpaceOnUse" color-interpolation-filters="sRGB">
<feFlood flood-opacity="0" result="BackgroundImageFix"/>
<feColorMatrix in="SourceAlpha" type="matrix" values="0 0 0 0 0 0 0 0 0 0 0 0 0 0 0 0 0 0 127 0" result="hardAlpha"/>
<feOffset dy="2"/>
<feGaussianBlur stdDeviation="0.5"/>
<feComposite in2="hardAlpha" operator="out"/>
<feColorMatrix type="matrix" values="0 0 0 0 0 0 0 0 0 0 0 0 0 0 0 0 0 0 0.25 0"/>
<feBlend mode="normal" in2="BackgroundImageFix" result="effect1_dropShadow_192_3579"/>
<feBlend mode="normal" in="SourceGraphic" in2="effect1_dropShadow_192_3579" result="shape"/>
</filter>
<filter id="filter15_d_192_3579" x="186.604" y="21.489" width="15.0708" height="16.0718" filterUnits="userSpaceOnUse" color-interpolation-filters="sRGB">
<feFlood flood-opacity="0" result="BackgroundImageFix"/>
<feColorMatrix in="SourceAlpha" type="matrix" values="0 0 0 0 0 0 0 0 0 0 0 0 0 0 0 0 0 0 127 0" result="hardAlpha"/>
<feOffset dy="2"/>
<feGaussianBlur stdDeviation="0.5"/>
<feComposite in2="hardAlpha" operator="out"/>
<feColorMatrix type="matrix" values="0 0 0 0 0 0 0 0 0 0 0 0 0 0 0 0 0 0 0.25 0"/>
<feBlend mode="normal" in2="BackgroundImageFix" result="effect1_dropShadow_192_3579"/>
<feBlend mode="normal" in="SourceGraphic" in2="effect1_dropShadow_192_3579" result="shape"/>
</filter>
<filter id="filter16_d_192_3579" x="189.478" y="24.364" width="9.32275" height="10.321" filterUnits="userSpaceOnUse" color-interpolation-filters="sRGB">
<feFlood flood-opacity="0" result="BackgroundImageFix"/>
<feColorMatrix in="SourceAlpha" type="matrix" values="0 0 0 0 0 0 0 0 0 0 0 0 0 0 0 0 0 0 127 0" result="hardAlpha"/>
<feOffset dy="2"/>
<feGaussianBlur stdDeviation="0.5"/>
<feComposite in2="hardAlpha" operator="out"/>
<feColorMatrix type="matrix" values="0 0 0 0 0 0 0 0 0 0 0 0 0 0 0 0 0 0 0.25 0"/>
<feBlend mode="normal" in2="BackgroundImageFix" result="effect1_dropShadow_192_3579"/>
<feBlend mode="normal" in="SourceGraphic" in2="effect1_dropShadow_192_3579" result="shape"/>
</filter>
<clipPath id="clip0_192_3579">
<rect width="219" height="119" fill="white"/>
</clipPath>
</defs>
</svg>
