<svg width="203" height="77" viewBox="0 0 203 77" fill="none" xmlns="http://www.w3.org/2000/svg">
<g clip-path="url(#clip0_192_3519)">
<g filter="url(#filter0_d_192_3519)">
<path d="M55.8295 0.843506L55.9554 1.11282C64.4795 0.232153 74.1824 1.34025 80.8579 7.96527C91.2912 18.3167 83.6156 30.335 72.5386 32.8131C71.2072 33.1115 69.8257 33.4045 68.4992 33.6629C68.4847 31.1683 68.6678 28.1842 66.98 26.3301C64.3055 23.3933 59.0161 24.8872 56.8471 27.8913C53.9496 31.9015 55.5293 36.1084 58.6546 39.0379C62.3668 42.5151 66.9443 42.7625 71.5183 42.2822C77.4057 41.5526 82.7529 38.4938 86.9945 33.7466C88.0017 32.6203 91.0424 29.003 92.1378 28.9338C94.1608 28.8083 99.0553 33.1371 101.185 34.2178C106.914 37.0764 113.372 37.2528 119.207 34.7092C122.487 33.2844 126.361 30.6898 129.333 28.4626C130.72 27.4255 132.207 25.846 133.641 24.8853C136.364 26.3646 138.453 29.8255 141.193 31.6723C150.594 38.0043 162.412 37.6459 172.509 33.863C173.673 33.4227 174.879 32.8587 176.029 32.3856C171.833 47.0567 155.388 50.7195 144.085 46.4398C141.331 45.3973 137.412 42.8262 135.218 40.619C122.754 54.0383 107.389 53.8309 93.0621 44.4383C88.6824 47.7245 83.8255 51.3854 78.9325 53.6799C68.5223 58.56 56.2673 57.9922 45.4457 55.3721C38.6245 53.6271 31.7114 51.007 25.982 46.2524C24.2819 44.8405 22.3634 42.7753 20.8484 41.2123C15.827 36.0338 10.7011 30.8098 3.59973 30.8516C2.87385 30.8554 1.54718 30.9136 0.874378 30.6497C0.850738 30.3459 0.841654 29.9637 1.12913 29.7545C5.0515 26.8996 13.0198 27.138 17.1803 28.7847C20.9968 30.2949 26.6334 36.6488 27.1771 27.1707C27.8102 14.7704 38.5654 5.32508 48.3177 2.78134C48.7497 2.66853 50.4367 2.34465 50.4812 1.94071C51.6437 2.10993 54.9896 1.76056 55.8295 0.843506Z" fill="#1F8CC4"/>
<path d="M55.9993 1.54319C64.475 0.667532 74.015 1.78359 80.5536 8.27275C85.6566 13.3358 86.2893 18.7408 84.3682 23.1691C82.4924 27.4924 78.1516 30.9546 72.9503 32.2702L72.4442 32.391C71.2874 32.6503 70.0928 32.9038 68.9306 33.1354C68.9321 32.0424 68.9422 30.8395 68.7948 29.7009C68.6225 28.3702 68.2278 27.0595 67.2991 26.0391L67.1591 25.8912C65.6941 24.4028 63.602 24.0699 61.6404 24.4583C59.6185 24.8588 57.6529 26.037 56.497 27.6377C54.9769 29.7416 54.6202 31.9221 55.0706 33.9633C55.5177 35.9901 56.7518 37.8472 58.3588 39.3538C62.2127 42.9635 66.9553 43.1962 71.5634 42.7122L71.571 42.7114C77.5771 41.967 83.016 38.8483 87.3165 34.0351L87.3156 34.0344C87.8287 33.4603 88.8273 32.2904 89.8423 31.2453C90.3494 30.7232 90.8496 30.2436 91.2841 29.8935C91.5017 29.7183 91.6935 29.5824 91.8559 29.4905C91.9838 29.4179 92.0719 29.386 92.1237 29.3731L92.1643 29.3655C92.5409 29.3421 93.1318 29.5346 93.9058 29.9383C94.6582 30.3307 95.5091 30.8819 96.3763 31.4802C97.2479 32.0809 98.1083 32.7099 98.9091 33.2731C99.696 33.8267 100.425 34.3174 100.989 34.6038L100.992 34.6055C106.835 37.5206 113.425 37.7007 119.378 35.1056C122.706 33.6604 126.611 31.0419 129.591 28.8095C130.302 28.277 131.038 27.6064 131.755 26.9685C132.406 26.3903 133.042 25.8362 133.663 25.3953C134.863 26.1074 135.956 27.2255 137.096 28.4378C138.288 29.705 139.532 31.0744 140.952 32.0311C150.506 38.4661 162.482 38.082 172.661 34.2684L172.662 34.2675C173.538 33.936 174.46 33.5253 175.34 33.1464C173.136 39.8189 168.265 44.0291 162.573 46.1129C156.624 48.291 149.794 48.139 144.238 46.0352C141.544 45.0155 137.676 42.4801 135.524 40.3144L135.207 39.995L134.901 40.3246C128.734 46.9641 121.876 50.208 114.81 50.6517C107.737 51.0957 100.406 48.7363 93.2985 44.0767L93.0445 43.9103L92.8027 44.0919C88.5509 47.2821 83.8947 50.7898 79.203 53.0714L78.7491 53.2885C68.465 58.1094 56.3224 57.5604 45.5465 54.9513C38.7553 53.2135 31.9145 50.6142 26.2571 45.9194C24.5804 44.5269 22.6853 42.4869 21.1577 40.9109C16.1682 35.7653 10.914 30.3759 3.59674 30.419C3.21893 30.421 2.72656 30.4366 2.23182 30.419C1.87223 30.4063 1.5495 30.374 1.29883 30.3211C1.301 30.2955 1.30455 30.2712 1.30894 30.2484C1.32583 30.1607 1.35375 30.1261 1.38318 30.1048C3.24167 28.7521 6.11118 28.104 9.07838 28.0137C12.037 27.9235 15.0083 28.3903 17.0216 29.1872C17.9313 29.5473 18.9594 30.2006 20.05 30.871C21.1146 31.5255 22.2414 32.1975 23.281 32.5127C24.3352 32.8322 25.4132 32.814 26.2377 31.9289C27.0124 31.0969 27.4717 29.5813 27.6085 27.1958V27.1932C28.2294 15.031 38.8035 5.71003 48.4264 3.20003C48.6031 3.15394 49.1834 3.03089 49.6691 2.88403C49.9174 2.80892 50.1766 2.71788 50.3836 2.61029C50.4863 2.55689 50.5959 2.49008 50.6873 2.40498C50.6898 2.40271 50.6916 2.39974 50.694 2.39737C51.3662 2.44639 52.3834 2.38706 53.3471 2.22671C53.906 2.13372 54.4654 2.00392 54.9465 1.83384C55.1989 1.74464 55.4449 1.63669 55.6636 1.5094L55.6939 1.57445L55.9993 1.54319Z" stroke="black"/>
</g>
<g filter="url(#filter1_d_192_3519)">
<path d="M60.4454 5.07807C63.8742 4.96201 66.4871 5.42982 69.9135 6.50295C75.5739 8.27603 80.4816 14.7791 78.8742 21.6678C78.2182 24.4801 75.549 25.6961 73.366 26.921C72.7531 26.196 72.1556 25.3711 71.5571 24.6265C66.1771 17.9288 56.1004 20.0359 51.2414 26.4085C50.2006 27.7745 49.5631 29.1529 48.8189 30.7421C48.6548 30.4617 48.4898 30.1725 48.3494 29.8761C47.5794 28.2834 47.4285 26.4031 47.9325 24.6819C48.8914 21.4553 51.3214 19.5859 53.8609 18.1574C46.5334 15.9469 41.2087 21.4553 38.646 28.7137C36.845 34.3739 36.9248 39.7717 38.1533 45.5463C35.2966 45.0678 32.7196 44.2517 32.1807 40.5538C31.2928 34.199 34.2903 22.5642 37.9956 17.9735C44.6971 9.67061 64.8313 8.62423 72.1674 15.963L72.4516 15.9273C74.3861 10.1438 60.329 6.37262 57.2302 5.30484L60.4454 5.07807Z" fill="#FEFEFE"/>
<path d="M60.4656 5.5095C63.8316 5.39617 66.3944 5.85444 69.7846 6.91624C75.2682 8.63408 80.0001 14.9393 78.4533 21.5692C78.1544 22.8504 77.3977 23.78 76.4245 24.5499C75.5304 25.2573 74.4898 25.8058 73.4719 26.3682C72.9429 25.7198 72.4397 25.0351 71.8936 24.3556C69.0951 20.8718 65.0728 19.6848 61.1488 20.187C57.2351 20.6878 53.397 22.8679 50.8976 26.146C50.0005 27.3233 49.3967 28.5101 48.7895 29.7916C48.7728 29.7579 48.7557 29.7242 48.7398 29.6902L48.738 29.6877L48.609 29.4047C47.9996 27.9731 47.9014 26.3228 48.3458 24.8043L48.3466 24.8052C49.2568 21.743 51.563 19.9457 54.072 18.5343L54.9578 18.0367L53.9851 17.7435C50.1779 16.595 46.8706 17.4555 44.2004 19.544C41.5473 21.6191 39.5372 24.8925 38.2388 28.5699L38.2363 28.5759L38.2346 28.5827C36.4716 34.1235 36.4894 39.4114 37.6035 45.0065C36.4308 44.7794 35.3798 44.4698 34.5406 43.8997C33.5819 43.2484 32.8616 42.2324 32.6078 40.4914C32.1758 37.3943 32.6889 32.9611 33.7838 28.7102C34.88 24.4542 36.5369 20.4689 38.3316 18.2454C41.5701 14.2331 48.1302 11.9137 54.8675 11.5344C61.6067 11.1551 68.3224 12.728 71.8623 16.2691L72.0117 16.4187L72.2209 16.3925L72.5052 16.3562L72.7751 16.3224L72.8612 16.0647C73.4126 14.4159 72.7992 12.9355 71.6421 11.6839C70.4938 10.4419 68.7645 9.36631 66.919 8.45901C64.3683 7.20511 61.5079 6.23267 59.4836 5.57878L60.4656 5.5095Z" stroke="black"/>
</g>
<g filter="url(#filter2_d_192_3519)">
<path d="M177.784 52.3091C178.145 52.2767 178.065 52.2929 178.433 52.3828C178.528 52.6362 178.614 52.6991 178.507 52.9237C176.172 57.8387 170.705 61.9397 166.473 63.9524C158.249 67.8646 149.436 68.4343 141.208 64.6191C131.466 72.688 120.573 77.2489 108.758 71.935C104.86 70.1828 101.784 67.7712 98.3048 65.2067C95.5915 67.0613 92.9076 68.871 89.936 70.1577C78.2062 75.2398 62.55 74.4725 51.1008 68.7632C49.8634 68.0982 46.2995 65.8015 46.3402 64.1375C46.9209 63.8032 61.597 65.2516 63.6182 65.3217C67.585 65.4331 71.5542 65.2983 75.5084 64.9174C80.3886 64.3981 85.2851 63.4384 89.7633 61.059C91.8857 59.9305 93.9511 58.0489 96.1979 57.3337C107.371 60.2378 118.066 64.3495 129.334 58.5737C132.485 56.9581 132.786 55.3498 135.329 53.6389C137.542 52.1492 141.574 55.5797 143.879 56.5017C151.343 59.4848 161.333 60.6259 168.814 57.3822C171.805 56.0847 174.784 53.8761 177.784 52.3091Z" fill="#1F8CC4"/>
<path d="M178.112 52.7449C175.836 57.5307 170.473 61.5711 166.287 63.5612C158.162 67.427 149.483 67.9791 141.389 64.2261L141.143 64.112L140.932 64.2861C131.392 72.1878 120.861 76.6145 109.477 71.7777L108.934 71.5403C105.089 69.8115 102.056 67.4336 98.5615 64.858L98.3144 64.6764L98.0622 64.8496C95.3446 66.7067 92.6926 68.4931 89.7642 69.7609C78.162 74.7878 62.6444 74.0323 51.3027 68.3804C50.7033 68.058 49.5299 67.3342 48.5172 66.4921C48.01 66.0702 47.5573 65.6306 47.2375 65.2078C47.0434 64.9513 46.9148 64.7207 46.8428 64.5201C46.9341 64.5191 47.0396 64.5198 47.1591 64.5218C47.6104 64.5294 48.2318 64.5589 48.9744 64.6038C50.4585 64.6933 52.407 64.8448 54.4038 65.0093C58.3821 65.3371 62.5785 65.7181 63.6031 65.7537L63.6064 65.7545C67.591 65.8664 71.5781 65.7308 75.5499 65.3481L75.5541 65.3473C80.4557 64.8257 85.4158 63.8585 89.9646 61.4413C91.0505 60.8643 92.1294 60.0897 93.1712 59.4026C94.1922 58.7293 95.1925 58.1308 96.2144 57.7855C107.268 60.6687 118.124 64.8058 129.531 58.9591C131.163 58.1221 132.064 57.2804 132.87 56.4421C133.671 55.6107 134.346 54.8216 135.57 53.9978C135.999 53.709 136.54 53.6395 137.2 53.7546C137.863 53.8703 138.603 54.1663 139.377 54.5529C140.147 54.9386 140.922 55.399 141.665 55.8304C142.305 56.2022 142.93 56.5578 143.486 56.8045L143.719 56.9034C151.244 59.9111 161.361 61.0852 168.985 57.7796L168.986 57.7787C170.511 57.117 172.026 56.2263 173.519 55.3158C174.995 54.4167 176.447 53.5013 177.903 52.7347C178.019 52.7255 178.031 52.726 178.039 52.7272C178.047 52.7285 178.061 52.7306 178.112 52.7449Z" stroke="black"/>
</g>
<g filter="url(#filter3_d_192_3519)">
<path d="M151.655 0.0472143C156.542 -0.245717 162.353 0.834353 166.854 3.01067C170.68 1.60891 173.606 1.7976 177.408 3.45636C178.172 3.79061 180.37 4.88866 180.672 5.70276C179.809 6.69118 177.555 7.65623 176.031 9.15859L175.847 9.34373C177.985 11.9909 179.815 13.9192 181.442 17.1379C182.438 19.1147 183.247 21.2371 184.262 23.1582L184.372 23.3649C188.973 20.8256 190.951 18.9637 196.765 18.7894C197.897 18.7571 201.293 18.5666 202.136 19.449L202.023 19.7311C200.262 20.9945 199.556 21.9326 198.085 23.5716C195.198 26.7867 192.835 28.0392 188.928 28.7257C189.894 31.9335 188.824 34.1243 187.606 37.0086C186.527 39.3431 185.549 41.4512 184.608 43.8593C182.191 40.939 180.545 36.6043 180.493 32.5086C180.476 31.0818 180.878 28.9845 180.492 27.6331C179.59 26.9987 173.797 26.8855 172.123 26.5961C168.939 26.0444 166.82 25.4226 163.736 24.4737C163.604 26.8675 163.439 28.7257 162.983 31.0602C162.457 30.8481 161.944 30.5983 161.447 30.3126C157.862 28.2854 156.632 26.0678 155.401 21.8715C149.289 18.2754 143.831 13.8329 141.502 6.07837C143.265 6.436 144.628 6.64446 146.405 6.7415C145.316 5.10612 144.244 3.3054 143.203 1.6197C146.232 1.01406 148.522 0.374291 151.655 0.0472143Z" fill="#1F8CC4"/>
<path d="M151.687 0.478213C156.501 0.190769 162.235 1.25799 166.666 3.39985L166.831 3.48011L167.003 3.41675C168.875 2.73098 170.504 2.44181 172.119 2.51778C173.534 2.58437 174.958 2.93237 176.544 3.5646L177.235 3.8527C177.604 4.01396 178.326 4.36321 178.987 4.76857C179.319 4.9715 179.625 5.18237 179.862 5.38449C179.974 5.48061 180.059 5.56681 180.124 5.6405C179.718 6.00874 179.105 6.40089 178.366 6.87404C177.508 7.42407 176.526 8.06289 175.728 8.85025L175.725 8.85362L175.541 9.03868L175.268 9.31406L175.511 9.61575C177.534 12.1207 179.232 13.9293 180.754 16.7542L181.056 17.333C181.549 18.31 181.995 19.3238 182.45 20.345C182.904 21.3621 183.365 22.3855 183.88 23.3604L183.881 23.3613L183.991 23.5682L184.196 23.9552L184.581 23.744C189.225 21.18 191.094 19.3918 196.777 19.2213C197.355 19.2048 198.462 19.1503 199.535 19.2078C200.072 19.2364 200.583 19.2927 201.003 19.3902C201.218 19.4404 201.393 19.4974 201.527 19.5576C199.893 20.7691 199.153 21.7345 197.764 23.2826C196.342 24.8671 195.065 25.9483 193.679 26.7188C192.294 27.4891 190.776 27.9616 188.852 28.2997L188.373 28.3841L188.514 28.8505C189.428 31.8809 188.44 33.9234 187.214 36.8271C186.241 38.9322 185.346 40.8643 184.484 43.0016C182.451 40.2744 181.067 36.499 180.934 32.8789L180.925 32.503C180.917 31.8084 181.01 30.9741 181.062 30.0671C181.112 29.1958 181.122 28.2672 180.907 27.5139L180.865 27.3668L180.739 27.279L180.592 27.1911C180.433 27.1102 180.242 27.0491 180.051 26.9993C179.782 26.9297 179.458 26.8693 179.103 26.816C178.391 26.7094 177.518 26.6261 176.632 26.5541C174.831 26.4079 173.008 26.31 172.196 26.1696C169.04 25.6228 166.942 25.0075 163.862 24.06L163.334 23.8978L163.304 24.4503C163.183 26.649 163.032 28.3813 162.657 30.4474C162.319 30.2932 161.986 30.1237 161.662 29.937L161.659 29.9362L161.338 29.7503C159.768 28.8191 158.708 27.8484 157.898 26.6614C157.028 25.3863 156.427 23.8353 155.814 21.7492L155.766 21.5853L155.618 21.4982C149.729 18.0325 144.527 13.8201 142.134 6.64338C143.584 6.9191 144.826 7.08826 146.38 7.17314L147.242 7.22044L146.763 6.50144C145.792 5.04159 144.835 3.45266 143.893 1.91791C146.65 1.34678 148.795 0.781088 151.687 0.478213Z" stroke="black"/>
</g>
<g filter="url(#filter4_d_192_3519)">
<path d="M162.103 6.74756C164.336 8.45084 163.304 12.8049 161.826 14.7262C159.826 17.3225 158.098 18.1084 155.162 18.5558C154.638 18.5145 154.599 18.5502 154.134 18.3152C154.533 17.6817 155.293 17.5594 156.002 17.1045C160.429 14.2675 160.786 11.41 162.103 6.74756Z" fill="#FEFEFE"/>
<path d="M162.321 7.58154C162.879 8.33291 163.053 9.41738 162.927 10.6097C162.781 11.989 162.242 13.3856 161.611 14.2883L161.484 14.4623C160.509 15.7284 159.619 16.5278 158.637 17.068C157.662 17.6043 156.564 17.9011 155.141 18.1207C155.086 18.1165 155.038 18.1133 154.997 18.1106C155.044 18.0838 155.093 18.0557 155.147 18.0287C155.426 17.887 155.858 17.7101 156.234 17.4685L156.235 17.4693C158.508 16.0125 159.761 14.5304 160.606 12.8004C161.348 11.2819 161.776 9.56904 162.321 7.58154Z" stroke="black"/>
</g>
<g filter="url(#filter5_d_192_3519)">
<path d="M154.335 3.37504C155.482 3.35112 156.66 3.66196 157.265 4.88939C157.52 5.39751 157.572 6.00524 157.411 6.56317C157.095 7.67105 156.487 7.95597 155.633 8.42025C154.462 8.5119 153.21 8.17917 152.649 6.87403C152.396 6.2902 152.383 5.61071 152.614 5.01693C152.964 4.10233 153.59 3.77953 154.335 3.37504Z" fill="#FEFEFE"/>
<path d="M154.449 3.80714C155.481 3.80554 156.398 4.10715 156.877 5.08039L156.879 5.08377C157.083 5.49176 157.128 5.98665 156.996 6.44235L156.995 6.44489C156.858 6.92865 156.667 7.20305 156.436 7.4106C156.201 7.62194 155.913 7.77517 155.51 7.99357C154.46 8.05452 153.489 7.73359 153.046 6.70258L153.045 6.70174L152.977 6.51839C152.839 6.08353 152.851 5.60038 153.017 5.17333L153.017 5.17164C153.292 4.45447 153.746 4.18893 154.449 3.80714Z" stroke="black"/>
</g>
</g>
<defs>
<filter id="filter0_d_192_3519" x="-0.236816" y="0.783203" width="177.4" height="59.6387" filterUnits="userSpaceOnUse" color-interpolation-filters="sRGB">
<feFlood flood-opacity="0" result="BackgroundImageFix"/>
<feColorMatrix in="SourceAlpha" type="matrix" values="0 0 0 0 0 0 0 0 0 0 0 0 0 0 0 0 0 0 127 0" result="hardAlpha"/>
<feOffset dy="2"/>
<feGaussianBlur stdDeviation="0.5"/>
<feComposite in2="hardAlpha" operator="out"/>
<feColorMatrix type="matrix" values="0 0 0 0 0 0 0 0 0 0 0 0 0 0 0 0 0 0 0.25 0"/>
<feBlend mode="normal" in2="BackgroundImageFix" result="effect1_dropShadow_192_3519"/>
<feBlend mode="normal" in="SourceGraphic" in2="effect1_dropShadow_192_3519" result="shape"/>
</filter>
<filter id="filter1_d_192_3519" x="30.9551" y="4.99268" width="49.2964" height="43.6462" filterUnits="userSpaceOnUse" color-interpolation-filters="sRGB">
<feFlood flood-opacity="0" result="BackgroundImageFix"/>
<feColorMatrix in="SourceAlpha" type="matrix" values="0 0 0 0 0 0 0 0 0 0 0 0 0 0 0 0 0 0 127 0" result="hardAlpha"/>
<feOffset dy="2"/>
<feGaussianBlur stdDeviation="0.5"/>
<feComposite in2="hardAlpha" operator="out"/>
<feColorMatrix type="matrix" values="0 0 0 0 0 0 0 0 0 0 0 0 0 0 0 0 0 0 0.25 0"/>
<feBlend mode="normal" in2="BackgroundImageFix" result="effect1_dropShadow_192_3519"/>
<feBlend mode="normal" in="SourceGraphic" in2="effect1_dropShadow_192_3519" result="shape"/>
</filter>
<filter id="filter2_d_192_3519" x="45.1348" y="52.2266" width="134.686" height="25.0645" filterUnits="userSpaceOnUse" color-interpolation-filters="sRGB">
<feFlood flood-opacity="0" result="BackgroundImageFix"/>
<feColorMatrix in="SourceAlpha" type="matrix" values="0 0 0 0 0 0 0 0 0 0 0 0 0 0 0 0 0 0 127 0" result="hardAlpha"/>
<feOffset dy="2"/>
<feGaussianBlur stdDeviation="0.5"/>
<feComposite in2="hardAlpha" operator="out"/>
<feColorMatrix type="matrix" values="0 0 0 0 0 0 0 0 0 0 0 0 0 0 0 0 0 0 0.25 0"/>
<feBlend mode="normal" in2="BackgroundImageFix" result="effect1_dropShadow_192_3519"/>
<feBlend mode="normal" in="SourceGraphic" in2="effect1_dropShadow_192_3519" result="shape"/>
</filter>
<filter id="filter3_d_192_3519" x="140.39" y="-0.0678711" width="63.123" height="47.0818" filterUnits="userSpaceOnUse" color-interpolation-filters="sRGB">
<feFlood flood-opacity="0" result="BackgroundImageFix"/>
<feColorMatrix in="SourceAlpha" type="matrix" values="0 0 0 0 0 0 0 0 0 0 0 0 0 0 0 0 0 0 127 0" result="hardAlpha"/>
<feOffset dy="2"/>
<feGaussianBlur stdDeviation="0.5"/>
<feComposite in2="hardAlpha" operator="out"/>
<feColorMatrix type="matrix" values="0 0 0 0 0 0 0 0 0 0 0 0 0 0 0 0 0 0 0.25 0"/>
<feBlend mode="normal" in2="BackgroundImageFix" result="effect1_dropShadow_192_3519"/>
<feBlend mode="normal" in="SourceGraphic" in2="effect1_dropShadow_192_3519" result="shape"/>
</filter>
<filter id="filter4_d_192_3519" x="152.288" y="6.45923" width="12.1777" height="15.1646" filterUnits="userSpaceOnUse" color-interpolation-filters="sRGB">
<feFlood flood-opacity="0" result="BackgroundImageFix"/>
<feColorMatrix in="SourceAlpha" type="matrix" values="0 0 0 0 0 0 0 0 0 0 0 0 0 0 0 0 0 0 127 0" result="hardAlpha"/>
<feOffset dy="2"/>
<feGaussianBlur stdDeviation="0.5"/>
<feComposite in2="hardAlpha" operator="out"/>
<feColorMatrix type="matrix" values="0 0 0 0 0 0 0 0 0 0 0 0 0 0 0 0 0 0 0.25 0"/>
<feBlend mode="normal" in2="BackgroundImageFix" result="effect1_dropShadow_192_3519"/>
<feBlend mode="normal" in="SourceGraphic" in2="effect1_dropShadow_192_3519" result="shape"/>
</filter>
<filter id="filter5_d_192_3519" x="151.382" y="3.30713" width="7.18945" height="8.19336" filterUnits="userSpaceOnUse" color-interpolation-filters="sRGB">
<feFlood flood-opacity="0" result="BackgroundImageFix"/>
<feColorMatrix in="SourceAlpha" type="matrix" values="0 0 0 0 0 0 0 0 0 0 0 0 0 0 0 0 0 0 127 0" result="hardAlpha"/>
<feOffset dy="2"/>
<feGaussianBlur stdDeviation="0.5"/>
<feComposite in2="hardAlpha" operator="out"/>
<feColorMatrix type="matrix" values="0 0 0 0 0 0 0 0 0 0 0 0 0 0 0 0 0 0 0.25 0"/>
<feBlend mode="normal" in2="BackgroundImageFix" result="effect1_dropShadow_192_3519"/>
<feBlend mode="normal" in="SourceGraphic" in2="effect1_dropShadow_192_3519" result="shape"/>
</filter>
<clipPath id="clip0_192_3519">
<rect width="203" height="77" fill="white"/>
</clipPath>
</defs>
</svg>
